<svg width="80" height="31" viewBox="0 0 80 31" fill="none" xmlns="http://www.w3.org/2000/svg">
<g clip-path="url(#clip0_3429_1486)">
<path d="M17.3755 30.8405C25.1142 30.8405 31.3877 24.7423 31.3877 17.2198C31.3877 9.69731 25.1142 3.59912 17.3755 3.59912C9.63676 3.59912 3.36328 9.69731 3.36328 17.2198C3.36328 24.7423 9.63676 30.8405 17.3755 30.8405Z" fill="white"/>
<path d="M23.8325 15.1567C21.1533 13.3842 17.7179 14.1071 15.9162 16.772C14.4102 18.9982 12.1386 19.2735 11.2579 19.2735C8.39203 19.2735 6.42851 17.3134 5.84662 15.2838C5.84039 15.2626 5.83728 15.2475 5.83106 15.2263C5.82483 15.2021 5.81861 15.1809 5.81239 15.1567C5.58523 14.3098 5.52922 13.9075 5.52922 13.0061C5.52922 8.15431 10.6512 2.75201 18.026 2.75201C25.4009 2.75201 29.9004 8.34184 31.0145 11.4483C30.9958 11.3939 30.9771 11.3394 30.9584 11.285C28.8144 5.20815 22.8866 0.840332 15.91 0.840332C7.12866 0.840332 0.00585938 7.76108 0.00585938 16.3001C0.00585938 23.9317 5.66925 30.4653 13.5233 30.4653C19.7873 30.4653 23.9975 27.0503 25.9299 22.3467C26.991 19.7726 26.2379 16.7478 23.8325 15.1598V15.1567Z" fill="#003763"/>
<path d="M31.1141 11.7506C30.1868 8.71979 25.8304 2.75488 18.0261 2.75488C10.6512 2.75488 5.5293 8.15718 5.5293 13.009C5.5293 13.9073 5.58531 14.3127 5.81247 15.1596C5.716 14.7906 5.66621 14.4185 5.66621 14.0555C5.66621 9.00413 10.8722 5.5014 16.2213 5.5014C23.4654 5.5014 29.3342 11.2092 29.3342 18.2479C29.3342 23.7682 26.0669 28.5444 21.3214 30.8372C27.4391 28.6865 31.8111 22.9908 31.8111 16.3C31.8111 14.718 31.5933 13.3205 31.111 11.7506H31.1141Z" fill="#E4022D"/>
<path d="M42.3942 20.2233V16.3848H43.891V20.2233H46.0132V16.3848H47.5224V20.2233H51.3V21.5663H39.6123V20.2233H42.3911H42.3942ZM48.7795 18.0485V12.1198H40.5552V10.7466H50.3603V18.0485H48.7764H48.7795Z" fill="white"/>
<path d="M64.6435 18.6987V22.5099H63.0627V20.0145H54.5396V18.6987H56.5623L56.5747 17.2589H53.8955V15.928H65.5832V17.2589H62.8885V18.6987H64.6404H64.6435ZM62.876 12.6581C62.876 13.0453 62.7889 13.4113 62.6209 13.7531C62.4497 14.0949 62.2257 14.4004 61.9518 14.6666C61.6656 14.9147 61.3357 15.1173 60.953 15.2686C60.5733 15.4198 60.1688 15.4954 59.7425 15.4954C59.3162 15.4954 58.9085 15.4198 58.5258 15.2686C58.1399 15.1173 57.807 14.9147 57.5207 14.6666C57.2469 14.4004 57.0228 14.0949 56.8517 13.7531C56.6805 13.4113 56.5965 13.0453 56.5965 12.6581C56.5965 12.271 56.6805 11.905 56.8517 11.5632C57.0228 11.2214 57.2469 10.9159 57.5207 10.6497C57.807 10.3895 58.1399 10.1839 58.5258 10.0326C58.9117 9.88138 59.3162 9.80273 59.7425 9.80273C60.1688 9.80273 60.5733 9.87835 60.953 10.0326C61.3326 10.1869 61.6656 10.3895 61.9518 10.6497C62.2257 10.9159 62.4497 11.2214 62.6209 11.5632C62.792 11.905 62.876 12.2679 62.876 12.6581ZM58.0155 18.6987H61.4353V17.2589H58.0279L58.0124 18.6987H58.0155ZM61.3233 12.6581C61.3233 12.2438 61.1677 11.8898 60.8596 11.5995C60.5515 11.3091 60.1781 11.1639 59.7394 11.1639C59.3006 11.1639 58.9272 11.3091 58.6129 11.5995C58.2986 11.8898 58.1431 12.2438 58.1431 12.6581C58.1431 13.0725 58.2986 13.4295 58.6129 13.7259C58.9272 14.0223 59.3006 14.1675 59.7394 14.1675C60.1781 14.1675 60.5515 14.0193 60.8596 13.7259C61.1677 13.4295 61.3233 13.0756 61.3233 12.6581Z" fill="white"/>
<path d="M68.3184 17.9272H80.0061V19.2853H74.9464V22.4735H73.3656V19.2853H68.3215V17.9272H68.3184ZM70.814 11.8867H77.498V10.3198H79.0663V16.2636H69.2612V10.3198H70.814V11.8867ZM77.498 13.2176H70.814V14.9205H77.498V13.2176Z" fill="white"/>
</g>
<defs>
<clipPath id="clip0_3429_1486">
<rect width="80" height="30" fill="white" transform="translate(0.00585938 0.840332)"/>
</clipPath>
</defs>
</svg>
