<svg width="35" height="30" viewBox="0 0 35 30" fill="none" xmlns="http://www.w3.org/2000/svg">
<rect x="7.74982" y="0.25" width="19.5" height="29.5" rx="1.75" fill="white" stroke="#6F6F6F" stroke-width="0.5" stroke-linecap="round" stroke-linejoin="round"/>
<rect x="0.5" y="4.04297" width="34" height="19.9565" rx="9.97827" fill="#CC0A00"/>
<rect x="0.5" y="4.04297" width="34" height="19.9565" rx="9.97827" stroke="white"/>
<path d="M9.24888 16.7764V10.2309H11.8313C12.3277 10.2309 12.7507 10.3257 13.1001 10.5154C13.4495 10.7029 13.7159 10.9639 13.8991 11.2984C14.0845 11.6308 14.1772 12.0143 14.1772 12.449C14.1772 12.8836 14.0834 13.2671 13.8959 13.5995C13.7084 13.9319 13.4367 14.1908 13.0809 14.3762C12.7272 14.5615 12.299 14.6542 11.7961 14.6542H10.1502V13.5452H11.5724C11.8387 13.5452 12.0582 13.4994 12.2308 13.4078C12.4055 13.314 12.5355 13.1851 12.6207 13.021C12.708 12.8548 12.7517 12.6642 12.7517 12.449C12.7517 12.2316 12.708 12.042 12.6207 11.8801C12.5355 11.716 12.4055 11.5892 12.2308 11.4997C12.0561 11.4081 11.8345 11.3623 11.566 11.3623H10.6328V16.7764H9.24888ZM17.3963 16.7764H15.076V10.2309H17.4155C18.0739 10.2309 18.6407 10.3619 19.1158 10.624C19.5909 10.884 19.9564 11.2579 20.212 11.7458C20.4699 12.2338 20.5988 12.8176 20.5988 13.4972C20.5988 14.1791 20.4699 14.765 20.212 15.2551C19.9564 15.7451 19.5888 16.1212 19.1094 16.3833C18.6321 16.6453 18.0611 16.7764 17.3963 16.7764ZM16.4599 15.5906H17.3388C17.7479 15.5906 18.092 15.5182 18.3711 15.3733C18.6524 15.2263 18.8633 14.9994 19.0039 14.6926C19.1467 14.3836 19.2181 13.9852 19.2181 13.4972C19.2181 13.0136 19.1467 12.6183 19.0039 12.3115C18.8633 12.0047 18.6534 11.7789 18.3743 11.634C18.0952 11.4891 17.7511 11.4166 17.342 11.4166H16.4599V15.5906ZM21.6239 16.7764V10.2309H25.9577V11.3719H23.0078V12.9316H25.67V14.0725H23.0078V16.7764H21.6239Z" fill="white"/>
</svg>
