<svg width="24" height="24" viewBox="0 0 24 24" fill="none" xmlns="http://www.w3.org/2000/svg">
<path d="M22.8571 24C22.5643 24 22.2715 23.8882 22.0483 23.6647L17.6886 19.2974C15.7614 20.8635 13.3748 21.7145 10.8572 21.7145C7.95732 21.7145 5.23059 20.5851 3.17998 18.5345C1.12936 16.4835 0 13.7571 0 10.8573C0 7.95737 1.12936 5.23063 3.17998 3.18C5.23059 1.12937 7.95697 0 10.8572 0C13.7574 0 16.4838 1.12937 18.5344 3.18C20.585 5.23063 21.7144 7.95703 21.7144 10.8573C21.7144 13.3711 20.8658 15.7546 19.3041 17.6805L23.6659 22.0498C24.1119 22.4966 24.1113 23.22 23.6645 23.6661C23.4413 23.8889 23.1492 24 22.8571 24ZM10.8572 2.28583C6.13093 2.28583 2.28581 6.13097 2.28581 10.8573C2.28581 15.5835 6.13093 19.4287 10.8572 19.4287C15.5834 19.4287 19.4285 15.5835 19.4285 10.8573C19.4285 6.13097 15.5834 2.28583 10.8572 2.28583Z" fill="black"/>
</svg>
