<svg width="21" height="23" viewBox="0 0 21 23" fill="none" xmlns="http://www.w3.org/2000/svg">
<path d="M20.0001 22.0998C19.7439 22.0998 19.4877 22.0014 19.2924 21.8046L15.4776 17.9588C13.7913 19.3379 11.703 20.0873 9.5001 20.0873C6.9627 20.0873 4.5768 19.0928 2.7825 17.287C0.9882 15.481 0 13.0801 0 10.5265C0 7.97295 0.9882 5.57183 2.7825 3.76608C4.5768 1.96033 6.9624 0.96582 9.5001 0.96582C12.0378 0.96582 14.4234 1.96033 16.2177 3.76608C18.012 5.57183 19.0002 7.97265 19.0002 10.5265C19.0002 12.7402 18.2577 14.8391 16.8912 16.5349L20.7078 20.3825C21.0981 20.7759 21.0975 21.413 20.7066 21.8058C20.5113 22.002 20.2557 22.0998 20.0001 22.0998ZM9.5001 2.97868C5.3646 2.97868 2.0001 6.36466 2.0001 10.5265C2.0001 14.6884 5.3646 18.0744 9.5001 18.0744C13.6356 18.0744 17.0001 14.6884 17.0001 10.5265C17.0001 6.36466 13.6356 2.97868 9.5001 2.97868Z" fill="black"/>
</svg>
