<svg width="11" height="11" viewBox="0 0 11 11" fill="none" xmlns="http://www.w3.org/2000/svg">
<path d="M5.8215 6.97027L2.17947 10.6036C2.01662 10.7661 1.83156 10.8436 1.62429 10.8362C1.41702 10.8288 1.23196 10.7439 1.0691 10.5814C0.906246 10.419 0.824819 10.2307 0.824819 10.0165C0.824819 9.80234 0.906246 9.61403 1.0691 9.45156L4.68892 5.84039L1.04689 2.20707C0.884039 2.0446 0.806313 1.85629 0.813715 1.64213C0.821118 1.42797 0.906246 1.23966 1.0691 1.07719C1.23196 0.914729 1.42072 0.833496 1.63539 0.833496C1.85006 0.833496 2.03883 0.914729 2.20168 1.07719L5.8215 4.71052L9.46352 1.07719C9.62638 0.914729 9.81514 0.833496 10.0298 0.833496C10.2445 0.833496 10.4333 0.914729 10.5961 1.07719C10.759 1.23966 10.8404 1.42797 10.8404 1.64213C10.8404 1.85629 10.759 2.0446 10.5961 2.20707L6.95408 5.84039L10.5961 9.47371C10.759 9.63618 10.8404 9.8208 10.8404 10.0276C10.8404 10.2344 10.759 10.419 10.5961 10.5814C10.4333 10.7439 10.2445 10.8251 10.0298 10.8251C9.81514 10.8251 9.62638 10.7439 9.46352 10.5814L5.8215 6.97027Z" fill="#333333"/>
</svg>
