<svg width="35" height="30" viewBox="0 0 35 30" fill="none" xmlns="http://www.w3.org/2000/svg">
<rect x="7.74982" y="0.25" width="19.5" height="29.5" rx="1.75" fill="white" stroke="#6F6F6F" stroke-width="0.5" stroke-linecap="round" stroke-linejoin="round"/>
<rect x="0.5" y="4.04297" width="34" height="19.9565" rx="9.97827" fill="#CA434E"/>
<rect x="0.5" y="4.04297" width="34" height="19.9565" rx="9.97827" stroke="white"/>
<path d="M11.6503 10.2309V16.7764H10.2665V10.2309H11.6503ZM12.7889 10.2309H14.4956L16.2982 14.6286H16.3749L18.1774 10.2309H19.8841V16.7764H18.5418V12.5161H18.4874L16.7935 16.7444H15.8795L14.1856 12.5001H14.1313V16.7764H12.7889V10.2309ZM25.3645 12.3467C25.3197 12.1911 25.2569 12.0537 25.1759 11.9344C25.0949 11.8129 24.9959 11.7107 24.8787 11.6276C24.7636 11.5423 24.6315 11.4774 24.4824 11.4326C24.3354 11.3879 24.1724 11.3655 23.9934 11.3655C23.6589 11.3655 23.3648 11.4486 23.1113 11.6148C22.8599 11.781 22.6638 12.0228 22.5232 12.3403C22.3826 12.6556 22.3123 13.0413 22.3123 13.4972C22.3123 13.9532 22.3815 14.341 22.52 14.6606C22.6585 14.9802 22.8545 15.2242 23.1081 15.3925C23.3616 15.5587 23.661 15.6418 24.0062 15.6418C24.3194 15.6418 24.5868 15.5864 24.8084 15.4756C25.0321 15.3627 25.2025 15.2039 25.3197 14.9994C25.439 14.7948 25.4987 14.553 25.4987 14.2739L25.78 14.3154H24.0925V13.2735H26.8314V14.0981C26.8314 14.6734 26.71 15.1677 26.4671 15.5811C26.2242 15.9923 25.8897 16.3097 25.4636 16.5335C25.0374 16.7551 24.5495 16.8659 23.9998 16.8659C23.3861 16.8659 22.8471 16.7306 22.3826 16.46C21.9181 16.1872 21.5559 15.8005 21.2959 15.2998C21.0381 14.797 20.9092 14.2004 20.9092 13.51C20.9092 12.9795 20.9859 12.5065 21.1393 12.091C21.2949 11.6734 21.5122 11.3197 21.7913 11.0299C22.0704 10.7401 22.3954 10.5196 22.7661 10.3683C23.1368 10.2171 23.5385 10.1414 23.971 10.1414C24.3417 10.1414 24.6869 10.1958 25.0065 10.3044C25.3261 10.411 25.6095 10.5622 25.8567 10.7583C26.106 10.9543 26.3094 11.1876 26.4671 11.4582C26.6248 11.7267 26.726 12.0228 26.7707 12.3467H25.3645Z" fill="white"/>
</svg>
