<svg width="12" height="10" viewBox="0 0 12 10" fill="none" xmlns="http://www.w3.org/2000/svg">
<path d="M3.93749 4.99984L0.520823 1.58317C0.368045 1.43039 0.291656 1.25331 0.291656 1.05192C0.291656 0.850532 0.368045 0.673448 0.520823 0.520671C0.673601 0.367893 0.850684 0.291504 1.05207 0.291504C1.25346 0.291504 1.43055 0.367893 1.58332 0.520671L5.54166 4.479C5.6111 4.54845 5.66318 4.62831 5.69791 4.71859C5.73263 4.80887 5.74999 4.90262 5.74999 4.99984C5.74999 5.09706 5.73263 5.19081 5.69791 5.28109C5.66318 5.37137 5.6111 5.45123 5.54166 5.52067L1.58332 9.479C1.43055 9.63178 1.25693 9.7047 1.06249 9.69775C0.868045 9.69081 0.694434 9.61095 0.541656 9.45817C0.388879 9.30539 0.31249 9.12831 0.31249 8.92692C0.31249 8.72553 0.388879 8.54845 0.541656 8.39567L3.93749 4.99984ZM9.87499 4.99984L6.45832 1.58317C6.30555 1.43039 6.22916 1.25331 6.22916 1.05192C6.22916 0.850532 6.30555 0.673448 6.45832 0.520671C6.6111 0.367893 6.78818 0.291504 6.98957 0.291504C7.19096 0.291504 7.36805 0.367893 7.52082 0.520671L11.4792 4.479C11.5486 4.54845 11.6007 4.62831 11.6354 4.71859C11.6701 4.80887 11.6875 4.90262 11.6875 4.99984C11.6875 5.09706 11.6701 5.19081 11.6354 5.28109C11.6007 5.37137 11.5486 5.45123 11.4792 5.52067L7.52082 9.479C7.36805 9.63178 7.19443 9.7047 6.99999 9.69775C6.80555 9.69081 6.63193 9.61095 6.47916 9.45817C6.32638 9.30539 6.24999 9.12831 6.24999 8.92692C6.24999 8.72553 6.32638 8.54845 6.47916 8.39567L9.87499 4.99984Z" fill="#717171"/>
</svg>
