<svg width="12" height="10" viewBox="0 0 12 10" fill="none" xmlns="http://www.w3.org/2000/svg">
<path d="M3.93752 4.99984L0.520854 1.58317C0.368076 1.43039 0.291687 1.25331 0.291687 1.05192C0.291687 0.850532 0.368076 0.673448 0.520854 0.520671C0.673631 0.367893 0.850715 0.291504 1.0521 0.291504C1.25349 0.291504 1.43058 0.367893 1.58335 0.520671L5.54169 4.479C5.61113 4.54845 5.66321 4.62831 5.69794 4.71859C5.73266 4.80887 5.75002 4.90262 5.75002 4.99984C5.75002 5.09706 5.73266 5.19081 5.69794 5.28109C5.66321 5.37137 5.61113 5.45123 5.54169 5.52067L1.58335 9.479C1.43058 9.63178 1.25696 9.7047 1.06252 9.69775C0.868076 9.69081 0.694465 9.61095 0.541687 9.45817C0.388909 9.30539 0.31252 9.12831 0.31252 8.92692C0.31252 8.72553 0.388909 8.54845 0.541687 8.39567L3.93752 4.99984ZM9.87502 4.99984L6.45835 1.58317C6.30558 1.43039 6.22919 1.25331 6.22919 1.05192C6.22919 0.850532 6.30558 0.673448 6.45835 0.520671C6.61113 0.367893 6.78822 0.291504 6.9896 0.291504C7.19099 0.291504 7.36808 0.367893 7.52085 0.520671L11.4792 4.479C11.5486 4.54845 11.6007 4.62831 11.6354 4.71859C11.6702 4.80887 11.6875 4.90262 11.6875 4.99984C11.6875 5.09706 11.6702 5.19081 11.6354 5.28109C11.6007 5.37137 11.5486 5.45123 11.4792 5.52067L7.52085 9.479C7.36808 9.63178 7.19447 9.7047 7.00002 9.69775C6.80558 9.69081 6.63196 9.61095 6.47919 9.45817C6.32641 9.30539 6.25002 9.12831 6.25002 8.92692C6.25002 8.72553 6.32641 8.54845 6.47919 8.39567L9.87502 4.99984Z" fill="#CCCCCC"/>
</svg>
