<svg width="35" height="30" viewBox="0 0 35 30" fill="none" xmlns="http://www.w3.org/2000/svg">
<rect x="7.7498" y="0.25" width="19.5" height="29.5" rx="1.75" fill="white" stroke="#6F6F6F" stroke-width="0.5" stroke-linecap="round" stroke-linejoin="round"/>
<rect x="0.5" y="4.04297" width="34" height="19.9565" rx="9.97827" fill="#0097EF"/>
<rect x="0.5" y="4.04297" width="34" height="19.9565" rx="9.97827" stroke="white"/>
<path d="M7.1351 16.7764V10.2309H8.51898V12.9316H11.3283V10.2309H12.709V16.7764H11.3283V14.0725H8.51898V16.7764H7.1351ZM15.3233 16.7764L13.4504 10.2309H14.9622L16.0456 14.7789H16.0999L17.2953 10.2309H18.5896L19.7818 14.7884H19.8393L20.9227 10.2309H22.4345L20.5616 16.7764H19.2129L17.9664 12.4969H17.9153L16.672 16.7764H15.3233ZM23.1751 16.7764V10.2309H25.7575C26.254 10.2309 26.6769 10.3257 27.0263 10.5154C27.3758 10.7029 27.6421 10.9639 27.8254 11.2984C28.0107 11.6308 28.1034 12.0143 28.1034 12.449C28.1034 12.8836 28.0097 13.2671 27.8222 13.5995C27.6347 13.9319 27.363 14.1908 27.0072 14.3762C26.6535 14.5615 26.2252 14.6542 25.7224 14.6542H24.0764V13.5452H25.4986C25.765 13.5452 25.9844 13.4994 26.157 13.4078C26.3317 13.314 26.4617 13.1851 26.5469 13.021C26.6343 12.8548 26.678 12.6642 26.678 12.449C26.678 12.2316 26.6343 12.042 26.5469 11.8801C26.4617 11.716 26.3317 11.5892 26.157 11.4997C25.9823 11.4081 25.7607 11.3623 25.4923 11.3623H24.559V16.7764H23.1751Z" fill="white"/>
</svg>
