<svg width="12" height="15" viewBox="0 0 12 15" fill="none" xmlns="http://www.w3.org/2000/svg">
<path d="M0 12.6441V5.59947C0 5.36396 0.0520833 5.14085 0.15625 4.93012C0.260417 4.71941 0.409722 4.53718 0.604167 4.38343L5.10417 0.986887C5.38194 0.791202 5.68056 0.693359 6 0.693359C6.31944 0.693359 6.61806 0.791202 6.89583 0.986887L11.3958 4.38343C11.5903 4.53718 11.7396 4.71941 11.8438 4.93012C11.9479 5.14085 12 5.36396 12 5.59947V12.6441C12 13.1285 11.8286 13.5431 11.4859 13.888C11.1432 14.2329 10.7312 14.4053 10.25 14.4053H8.25C8.0375 14.4053 7.85938 14.333 7.71562 14.1883C7.57187 14.0436 7.5 13.8644 7.5 13.6505V9.625C7.5 9.41114 7.4283 9.23188 7.2849 9.08721C7.14149 8.94254 6.96381 8.87021 6.75183 8.87021H5.25548C5.04349 8.87021 4.86458 8.94254 4.71875 9.08721C4.57292 9.23188 4.5 9.41114 4.5 9.625V13.6505C4.5 13.8644 4.42813 14.0436 4.28438 14.1883C4.14062 14.333 3.9625 14.4053 3.75 14.4053H1.75C1.26875 14.4053 0.856771 14.2329 0.514063 13.888C0.171354 13.5431 0 13.1285 0 12.6441Z" fill="#333333"/>
</svg>
