<svg width="14" height="14" viewBox="0 0 14 14" fill="none" xmlns="http://www.w3.org/2000/svg">
<path d="M6.9998 8.37601L2.0998 13.3862C1.91647 13.5737 1.68314 13.6674 1.3998 13.6674C1.11647 13.6674 0.883138 13.5737 0.699805 13.3862C0.516471 13.1987 0.424805 12.9602 0.424805 12.6705C0.424805 12.3808 0.516471 12.1422 0.699805 11.9547L5.5998 6.94453L0.699805 1.93435C0.516471 1.74689 0.424805 1.50831 0.424805 1.2186C0.424805 0.9289 0.516471 0.690319 0.699805 0.502864C0.883138 0.315408 1.11647 0.22168 1.3998 0.22168C1.68314 0.22168 1.91647 0.315408 2.0998 0.502864L6.9998 5.51305L11.8998 0.502864C12.0831 0.315408 12.3165 0.22168 12.5998 0.22168C12.8831 0.22168 13.1165 0.315408 13.2998 0.502864C13.4831 0.690319 13.5748 0.9289 13.5748 1.2186C13.5748 1.50831 13.4831 1.74689 13.2998 1.93435L8.3998 6.94453L13.2998 11.9547C13.4831 12.1422 13.5748 12.3808 13.5748 12.6705C13.5748 12.9602 13.4831 13.1987 13.2998 13.3862C13.1165 13.5737 12.8831 13.6674 12.5998 13.6674C12.3165 13.6674 12.0831 13.5737 11.8998 13.3862L6.9998 8.37601Z" fill="#333333"/>
</svg>
