<svg width="35" height="30" viewBox="0 0 35 30" fill="none" xmlns="http://www.w3.org/2000/svg">
<rect x="7.74982" y="0.25" width="19.5" height="29.5" rx="1.75" fill="white" stroke="#6F6F6F" stroke-width="0.5" stroke-linecap="round" stroke-linejoin="round"/>
<rect x="0.5" y="4.04297" width="34" height="19.9565" rx="9.97827" fill="#18884F"/>
<rect x="0.5" y="4.04297" width="34" height="19.9565" rx="9.97827" stroke="white"/>
<path d="M10.6475 10.2309L11.9675 12.4617H12.0186L13.345 10.2309H14.9078L12.9103 13.5036L14.9526 16.7764H13.361L12.0186 14.5423H11.9675L10.6252 16.7764H9.03994L11.0886 13.5036L9.0783 10.2309H10.6475ZM15.7836 16.7764V10.2309H17.1674V15.6354H19.9735V16.7764H15.7836ZM24.4408 12.1134C24.4152 11.8556 24.3055 11.6553 24.1116 11.5125C23.9177 11.3698 23.6546 11.2984 23.3222 11.2984C23.0963 11.2984 22.9056 11.3303 22.7501 11.3943C22.5945 11.4561 22.4752 11.5423 22.3921 11.6531C22.3112 11.7639 22.2707 11.8896 22.2707 12.0303C22.2664 12.1475 22.2909 12.2497 22.3442 12.3371C22.3996 12.4244 22.4752 12.5001 22.5711 12.564C22.667 12.6258 22.7778 12.6801 22.9035 12.727C23.0292 12.7718 23.1634 12.8101 23.3062 12.8421L23.8943 12.9827C24.1798 13.0466 24.4418 13.1318 24.6805 13.2384C24.9191 13.3449 25.1258 13.4759 25.3005 13.6315C25.4752 13.787 25.6105 13.9703 25.7064 14.1812C25.8044 14.3921 25.8545 14.634 25.8566 14.9067C25.8545 15.3073 25.7522 15.6546 25.5498 15.9486C25.3495 16.2405 25.0597 16.4674 24.6805 16.6294C24.3034 16.7892 23.8484 16.8691 23.3158 16.8691C22.7874 16.8691 22.3271 16.7881 21.9351 16.6262C21.5452 16.4642 21.2405 16.2245 21.021 15.907C20.8037 15.5874 20.6897 15.1922 20.6791 14.7213H22.0182C22.0331 14.9408 22.096 15.124 22.2068 15.271C22.3197 15.4159 22.4699 15.5257 22.6574 15.6002C22.847 15.6727 23.0612 15.7089 23.2998 15.7089C23.5342 15.7089 23.7377 15.6748 23.9102 15.6066C24.085 15.5384 24.2203 15.4436 24.3161 15.3222C24.412 15.2007 24.46 15.0612 24.46 14.9035C24.46 14.7565 24.4163 14.6329 24.3289 14.5328C24.2437 14.4326 24.118 14.3474 23.9518 14.2771C23.7877 14.2068 23.5864 14.1428 23.3477 14.0853L22.635 13.9063C22.0832 13.7721 21.6475 13.5622 21.3279 13.2767C21.0083 12.9912 20.8495 12.6066 20.8516 12.123C20.8495 11.7267 20.955 11.3804 21.1681 11.0843C21.3833 10.7881 21.6784 10.5569 22.0534 10.3907C22.4284 10.2245 22.8545 10.1414 23.3318 10.1414C23.8176 10.1414 24.2416 10.2245 24.6038 10.3907C24.9681 10.5569 25.2515 10.7881 25.4539 11.0843C25.6563 11.3804 25.7607 11.7235 25.7671 12.1134H24.4408Z" fill="white"/>
</svg>
