<svg width="27" height="27" viewBox="0 0 27 27" fill="none" xmlns="http://www.w3.org/2000/svg">
<path fill-rule="evenodd" clip-rule="evenodd" d="M26.2764 0.390496C25.7557 -0.130187 24.9115 -0.130162 24.3908 0.390552L0.390821 24.392C-0.129864 24.9127 -0.129839 25.7569 0.390877 26.2776C0.911592 26.7983 1.75581 26.7983 2.27649 26.2775L26.2765 2.27611C26.7972 1.7554 26.7972 0.91118 26.2764 0.390496Z" fill="#33363D"/>
<path fill-rule="evenodd" clip-rule="evenodd" d="M26.2775 26.2768C26.7982 25.7561 26.7981 24.9119 26.2774 24.3912L2.27598 0.391187C1.75527 -0.129498 0.911049 -0.129473 0.390368 0.391243C-0.130317 0.911958 -0.130293 1.75618 0.390423 2.27686L24.3919 26.2769C24.9126 26.7975 25.7568 26.7975 26.2775 26.2768Z" fill="#33363D"/>
</svg>
