<svg width="35" height="30" viewBox="0 0 35 30" fill="none" xmlns="http://www.w3.org/2000/svg">
<rect x="7.74982" y="0.25" width="19.5" height="29.5" rx="1.75" fill="white" stroke="#6F6F6F" stroke-width="0.5" stroke-linecap="round" stroke-linejoin="round"/>
<rect x="0.5" y="4.04297" width="34" height="19.9565" rx="9.97827" fill="#806D5B"/>
<rect x="0.5" y="4.04297" width="34" height="19.9565" rx="9.97827" stroke="white"/>
<path d="M10.8221 16.7764V15.955L14.0885 11.3719H10.8157V10.2309H15.8271V11.0523L12.5576 15.6354H15.8335V16.7764H10.8221ZM18.2792 10.2309V16.7764H16.8954V10.2309H18.2792ZM19.4178 16.7764V10.2309H22.0002C22.4967 10.2309 22.9196 10.3257 23.269 10.5154C23.6185 10.7029 23.8848 10.9639 24.068 11.2984C24.2534 11.6308 24.3461 12.0143 24.3461 12.449C24.3461 12.8836 24.2523 13.2671 24.0648 13.5995C23.8773 13.9319 23.6057 14.1908 23.2499 14.3762C22.8962 14.5615 22.4679 14.6542 21.9651 14.6542H20.3191V13.5452H21.7413C22.0077 13.5452 22.2271 13.4994 22.3997 13.4078C22.5744 13.314 22.7044 13.1851 22.7896 13.021C22.877 12.8548 22.9207 12.6642 22.9207 12.449C22.9207 12.2316 22.877 12.042 22.7896 11.8801C22.7044 11.716 22.5744 11.5892 22.3997 11.4997C22.225 11.4081 22.0034 11.3623 21.7349 11.3623H20.8017V16.7764H19.4178Z" fill="white"/>
</svg>
