<svg width="23" height="23" viewBox="0 0 23 23" fill="none" xmlns="http://www.w3.org/2000/svg">
<path d="M11.3731 6.39328C12.8933 6.39328 14.1295 5.15702 14.1295 3.63687C14.1295 2.11671 12.8933 0.880463 11.3731 0.880463C9.85295 0.880463 8.6167 2.11671 8.6167 3.63687C8.6167 5.15702 9.85295 6.39328 11.3731 6.39328ZM11.3731 1.95859C12.3003 1.95859 13.0514 2.70968 13.0514 3.63687C13.0514 4.56046 12.3003 5.31515 11.3731 5.31515C10.4495 5.31515 9.69482 4.56046 9.69482 3.63687C9.69482 2.70968 10.4495 1.95859 11.3731 1.95859Z" fill="#8798C8"/>
<path d="M2.96368 8.74359C1.44353 8.74359 0.207275 9.97984 0.207275 11.5C0.207275 13.0202 1.44353 14.2564 2.96368 14.2564C4.48384 14.2564 5.72009 13.0202 5.72009 11.5C5.72009 9.97984 4.48384 8.74359 2.96368 8.74359ZM2.96368 13.1783C2.03649 13.1783 1.2854 12.4272 1.2854 11.5C1.2854 10.5764 2.03649 9.82172 2.96368 9.82172C3.88728 9.82172 4.64196 10.5764 4.64196 11.5C4.64196 12.4272 3.88728 13.1783 2.96368 13.1783Z" fill="#8798C8"/>
<path d="M22.5388 11.5C22.5388 10.1631 21.5829 9.04546 20.3215 8.79749V6.33937C21.5829 6.0914 22.5388 4.97374 22.5388 3.63687C22.5388 2.11671 21.3026 0.880463 19.7824 0.880463C18.2623 0.880463 17.026 2.11671 17.026 3.63687C17.026 4.97374 17.982 6.0914 19.2434 6.33937V8.79749C17.982 9.04546 17.026 10.1631 17.026 11.5C17.026 12.8369 17.982 13.9545 19.2434 14.2025V16.6606C18.8517 16.7361 18.4923 16.8978 18.1796 17.1242L13.7162 12.9519C13.9785 12.5314 14.1295 12.0355 14.1295 11.5C14.1295 9.97984 12.8932 8.74359 11.3731 8.74359C10.7729 8.74359 10.2231 8.93406 9.77025 9.26109L5.30681 5.08874C5.56915 4.66828 5.72009 4.17234 5.72009 3.63687C5.72009 2.11671 4.48384 0.880463 2.96368 0.880463C1.44353 0.880463 0.207275 2.11671 0.207275 3.63687C0.207275 5.15703 1.44353 6.39328 2.96368 6.39328C3.56384 6.39328 4.11728 6.20281 4.57009 5.87578L9.02993 10.0481C8.76759 10.4686 8.61665 10.9645 8.61665 11.5C8.61665 13.0202 9.8529 14.2564 11.3731 14.2564C11.9732 14.2564 12.5267 14.0659 12.9795 13.7389L17.4393 17.9112C17.177 18.3317 17.026 18.8277 17.026 19.3631C17.026 20.8833 18.2623 22.1195 19.7824 22.1195C21.3026 22.1195 22.5388 20.8833 22.5388 19.3631C22.5388 18.0262 21.5829 16.9086 20.3215 16.6606V14.2025C21.5829 13.9545 22.5388 12.8369 22.5388 11.5ZM2.96368 5.31515C2.03649 5.31515 1.2854 4.56046 1.2854 3.63687C1.2854 2.70968 2.03649 1.95859 2.96368 1.95859C3.88728 1.95859 4.64196 2.70968 4.64196 3.63687C4.64196 3.88124 4.58806 4.11484 4.49103 4.32687C4.34009 4.66468 4.07774 4.9414 3.75431 5.1139C3.51712 5.24328 3.24759 5.31515 2.96368 5.31515ZM11.3731 13.1783C10.4495 13.1783 9.69478 12.4272 9.69478 11.5C9.69478 11.2556 9.74868 11.022 9.84571 10.81C9.99665 10.4722 10.259 10.1955 10.5824 10.023C10.8196 9.89359 11.0892 9.82171 11.3731 9.82171C12.3002 9.82171 13.0513 10.5764 13.0513 11.5C13.0513 11.7444 12.9974 11.978 12.9004 12.19C12.7531 12.5278 12.4907 12.8045 12.1673 12.9806C11.9301 13.1064 11.6606 13.1783 11.3731 13.1783ZM18.1042 3.63687C18.1042 2.70968 18.8588 1.95859 19.7824 1.95859C20.7096 1.95859 21.4607 2.70968 21.4607 3.63687C21.4607 4.37359 20.9827 5.00249 20.3215 5.22531C20.1526 5.28281 19.9693 5.31515 19.7824 5.31515C19.5956 5.31515 19.4123 5.28281 19.2434 5.22531C18.5821 4.9989 18.1042 4.36999 18.1042 3.63687ZM21.4607 19.3631C21.4607 20.2903 20.7096 21.0414 19.7824 21.0414C18.8588 21.0414 18.1042 20.2903 18.1042 19.3631C18.1042 19.1187 18.1581 18.8852 18.2551 18.6731C18.406 18.3353 18.6684 18.0586 18.9918 17.8861C19.0709 17.843 19.1535 17.807 19.2434 17.7747C19.4123 17.7172 19.5956 17.6848 19.7824 17.6848C19.9693 17.6848 20.1526 17.7172 20.3215 17.7747C20.9827 17.9975 21.4607 18.6264 21.4607 19.3631ZM19.7824 13.1783C19.5956 13.1783 19.4123 13.1459 19.2434 13.0884C18.5821 12.862 18.1042 12.2367 18.1042 11.5C18.1042 10.7669 18.5821 10.138 19.2434 9.91156C19.4123 9.85406 19.5956 9.82171 19.7824 9.82171C19.9693 9.82171 20.1526 9.85406 20.3215 9.91156C20.9827 10.1344 21.4607 10.7633 21.4607 11.5C21.4607 12.2403 20.9827 12.8656 20.3215 13.0884C20.1526 13.1459 19.9693 13.1783 19.7824 13.1783Z" fill="#8798C8"/>
<path d="M2.96368 16.6067C1.44353 16.6067 0.207275 17.843 0.207275 19.3631C0.207275 20.8833 1.44353 22.1195 2.96368 22.1195C4.48384 22.1195 5.72009 20.8833 5.72009 19.3631C5.72009 17.843 4.48384 16.6067 2.96368 16.6067ZM2.96368 21.0414C2.03649 21.0414 1.2854 20.2903 1.2854 19.3631C1.2854 18.4395 2.03649 17.6848 2.96368 17.6848C3.88728 17.6848 4.64196 18.4395 4.64196 19.3631C4.64196 20.2903 3.88728 21.0414 2.96368 21.0414Z" fill="#8798C8"/>
<path d="M11.3731 16.6067C9.85295 16.6067 8.6167 17.843 8.6167 19.3631C8.6167 20.8833 9.85295 22.1195 11.3731 22.1195C12.8933 22.1195 14.1295 20.8833 14.1295 19.3631C14.1295 17.843 12.8933 16.6067 11.3731 16.6067ZM11.3731 21.0414C10.4495 21.0414 9.69482 20.2903 9.69482 19.3631C9.69482 18.4395 10.4495 17.6848 11.3731 17.6848C12.3003 17.6848 13.0514 18.4395 13.0514 19.3631C13.0514 20.2903 12.3003 21.0414 11.3731 21.0414Z" fill="#8798C8"/>
</svg>
