<svg width="6" height="10" viewBox="0 0 6 10" fill="none" xmlns="http://www.w3.org/2000/svg">
<path d="M2.125 4.99984L5.54167 8.4165C5.69444 8.56928 5.77083 8.74636 5.77083 8.94775C5.77083 9.14914 5.69444 9.32623 5.54167 9.479C5.38889 9.63178 5.21181 9.70817 5.01042 9.70817C4.80903 9.70817 4.6296 9.62943 4.47213 9.47196L0.520833 5.52067C0.451389 5.44567 0.399306 5.36442 0.364583 5.27692C0.329861 5.18942 0.3125 5.09567 0.3125 4.99567C0.3125 4.89567 0.329861 4.80192 0.364583 4.71442C0.399306 4.62692 0.451389 4.54845 0.520833 4.479L4.47213 0.527713C4.6296 0.37024 4.80903 0.291504 5.01042 0.291504C5.21181 0.291504 5.38889 0.367893 5.54167 0.520671C5.69444 0.673448 5.77083 0.850532 5.77083 1.05192C5.77083 1.25331 5.69444 1.43039 5.54167 1.58317L2.125 4.99984Z" fill="#717171"/>
</svg>
