<svg width="24" height="25" viewBox="0 0 24 25" fill="none" xmlns="http://www.w3.org/2000/svg">
<g clip-path="url(#clip0_653_457)">
<path d="M21.6892 2.91534C19.1618 2.91534 14.5631 2.37829 13.1227 0.399108C12.8779 -0.00225867 12.3422 -0.0379642 12.0496 0.345092C10.3537 2.32391 5.74426 2.91534 3.0293 2.91534C2.65711 2.91534 2.35547 3.2312 2.35547 3.62103V14.9135C2.35547 19.9996 7.96613 23.1065 12.2165 24.0726C12.7654 24.1971 22.3631 21.6602 22.3631 14.9135V3.62103C22.3631 3.23138 22.0614 2.91534 21.6892 2.91534ZM21.0154 14.9135C21.0154 20.2138 13.4978 22.363 12.3592 22.6576C11.2205 22.363 3.70312 20.2138 3.70312 14.9135V4.31884C8.90651 4.19342 11.5014 2.62951 12.5331 1.78174C14.6118 3.70013 18.2469 4.25329 21.0154 4.31903V14.9135Z" fill="#8798C8"/>
<path d="M8.99251 9.24383V11.3847H8.31641C7.9444 11.3847 7.64258 11.7007 7.64258 12.0904V17.7366C7.64258 18.1265 7.9444 18.4425 8.31641 18.4425H16.4023C16.7745 18.4425 17.0762 18.1265 17.0762 17.7366V12.0904C17.0762 11.7007 16.7745 11.3847 16.4023 11.3847H10.3402V9.24383C10.3402 8.14081 11.1726 7.15002 12.3797 7.15002C13.4821 7.15002 14.3787 8.08917 14.3787 9.24383C14.3787 9.63348 14.6806 9.94952 15.0526 9.94952C15.4248 9.94952 15.7264 9.63348 15.7264 9.24383C15.7264 7.31097 14.2252 5.73846 12.3797 5.73846C10.4177 5.73846 8.99251 7.37469 8.99251 9.24383ZM15.7285 17.0309H8.99023V12.7963H15.7285V17.0309Z" fill="#8798C8"/>
<path d="M13.033 14.9135C13.033 14.5237 12.7313 14.2078 12.3591 14.2078C11.9871 14.2078 11.6853 14.5237 11.6853 14.9135C11.6853 15.3033 11.9871 15.6194 12.3591 15.6194C12.7313 15.6194 13.033 15.3033 13.033 14.9135Z" fill="white" fill-opacity="0.46"/>
</g>
<defs>
<clipPath id="clip0_653_457">
<rect width="23" height="24" fill="white" transform="translate(0.873047 0.0770264)"/>
</clipPath>
</defs>
</svg>
