<svg width="14" height="14" viewBox="0 0 14 14" fill="none" xmlns="http://www.w3.org/2000/svg">
<path d="M6.99259 8.58873L1.90756 13.6738C1.68018 13.9011 1.42179 14.0097 1.1324 13.9993C0.843011 13.989 0.584625 13.8701 0.357246 13.6428C0.129867 13.4154 0.0161772 13.1518 0.0161772 12.8521C0.0161772 12.5524 0.129867 12.2888 0.357246 12.0614L5.41127 7.00741L0.32624 1.92239C0.0988605 1.69501 -0.00966137 1.43146 0.000674049 1.13173C0.0110095 0.832001 0.129867 0.568448 0.357246 0.341069C0.584625 0.11369 0.848178 0 1.14791 0C1.44763 0 1.71119 0.11369 1.93857 0.341069L6.99259 5.4261L12.0776 0.341069C12.305 0.11369 12.5685 0 12.8683 0C13.168 0 13.4316 0.11369 13.6589 0.341069C13.8863 0.568448 14 0.832001 14 1.13173C14 1.43146 13.8863 1.69501 13.6589 1.92239L8.5739 7.00741L13.6589 12.0924C13.8863 12.3198 14 12.5782 14 12.8676C14 13.157 13.8863 13.4154 13.6589 13.6428C13.4316 13.8701 13.168 13.9838 12.8683 13.9838C12.5685 13.9838 12.305 13.8701 12.0776 13.6428L6.99259 8.58873Z" fill="#333333"/>
</svg>
