<svg width="6" height="10" viewBox="0 0 6 10" fill="none" xmlns="http://www.w3.org/2000/svg">
<path d="M3.87502 4.99984L0.458354 1.58317C0.305576 1.43039 0.229187 1.25331 0.229187 1.05192C0.229187 0.850532 0.305576 0.673448 0.458354 0.520671C0.611131 0.367893 0.788215 0.291504 0.989604 0.291504C1.19099 0.291504 1.37042 0.37024 1.5279 0.527713L5.47919 4.479C5.54863 4.554 5.60071 4.63525 5.63544 4.72275C5.67016 4.81025 5.68752 4.904 5.68752 5.004C5.68752 5.104 5.67016 5.19775 5.63544 5.28525C5.60071 5.37275 5.54863 5.45123 5.47919 5.52067L1.5279 9.47196C1.37042 9.62943 1.19446 9.7047 1.00002 9.69775C0.805576 9.69081 0.631965 9.61095 0.479187 9.45817C0.326409 9.30539 0.25002 9.12831 0.25002 8.92692C0.25002 8.72553 0.326409 8.54845 0.479187 8.39567L3.87502 4.99984Z" fill="#CCCCCC"/>
</svg>
