<svg width="110" height="43" viewBox="0 0 110 43" fill="none" xmlns="http://www.w3.org/2000/svg">
<g clip-path="url(#clip0_635_565)">
<path d="M23.8835 42.5002C34.5242 42.5002 43.1503 33.9628 43.1503 23.4313C43.1503 12.8998 34.5242 4.3623 23.8835 4.3623C13.2427 4.3623 4.6167 12.8998 4.6167 23.4313C4.6167 33.9628 13.2427 42.5002 23.8835 42.5002Z" fill="white"/>
<path d="M32.7617 20.543C29.0778 18.0614 24.3541 19.0735 21.8768 22.8043C19.8059 25.9211 16.6825 26.3064 15.4716 26.3064C11.531 26.3064 8.83115 23.5623 8.03104 20.7208C8.02248 20.6912 8.0182 20.67 8.00965 20.6404C8.00109 20.6065 7.99253 20.5768 7.98397 20.543C7.67163 19.3572 7.59462 18.794 7.59462 17.5321C7.59462 10.7396 14.6373 3.17635 24.7777 3.17635C34.9181 3.17635 41.1051 11.0021 42.6368 15.3512C42.6111 15.275 42.5855 15.1987 42.5598 15.1225C39.6118 6.61494 31.461 0.5 21.8682 0.5C9.79385 0.5 0 10.1891 0 22.1437C0 32.8279 7.78716 41.9749 18.5865 41.9749C27.1994 41.9749 32.9884 37.1939 35.6455 30.6089C37.1045 27.0051 36.0691 22.7704 32.7617 20.5472V20.543Z" fill="#003763"/>
<path d="M42.7738 15.7747C41.4988 11.5315 35.5087 3.18066 24.7778 3.18066C14.6374 3.18066 7.59473 10.7439 7.59473 17.5364C7.59473 18.7941 7.67174 19.3615 7.98408 20.5473C7.85145 20.0306 7.78299 19.5098 7.78299 19.0016C7.78299 11.9296 14.9412 7.02579 22.2962 7.02579C32.2569 7.02579 40.3265 15.0167 40.3265 24.8709C40.3265 32.5993 35.8339 39.2859 29.3089 42.4958C37.7208 39.485 43.7323 31.511 43.7323 22.1438C43.7323 19.929 43.4328 17.9726 42.7696 15.7747H42.7738Z" fill="#E4022D"/>
<path d="M58.2841 27.636V22.2622H60.3421V27.636H63.2602V22.2622H65.3353V27.636H70.5296V29.5163H54.459V27.636H58.2798H58.2841ZM67.0639 24.5913V16.2912H55.7554V14.3687H69.2375V24.5913H67.0596H67.0639Z" fill="white"/>
<path d="M88.8766 25.5017V30.8374H86.7031V27.3438H74.9838V25.5017H77.765L77.7821 23.486H74.0981V21.6227H90.1688V23.486H86.4635V25.5017H88.8724H88.8766ZM86.4464 17.0449C86.4464 17.587 86.3266 18.0994 86.0955 18.5779C85.8602 19.0564 85.5521 19.4841 85.1756 19.8568C84.782 20.204 84.3284 20.4878 83.8021 20.6995C83.2801 20.9112 82.7239 21.0171 82.1377 21.0171C81.5516 21.0171 80.9911 20.9112 80.4648 20.6995C79.9342 20.4878 79.4764 20.204 79.0828 19.8568C78.7063 19.4841 78.3982 19.0564 78.1629 18.5779C77.9275 18.0994 77.812 17.587 77.812 17.0449C77.812 16.5029 77.9275 15.9905 78.1629 15.512C78.3982 15.0335 78.7063 14.6057 79.0828 14.2331C79.4764 13.8689 79.9342 13.5809 80.4648 13.3692C80.9953 13.1575 81.5516 13.0474 82.1377 13.0474C82.7239 13.0474 83.2801 13.1532 83.8021 13.3692C84.3241 13.5852 84.782 13.8689 85.1756 14.2331C85.5521 14.6057 85.8602 15.0335 86.0955 15.512C86.3308 15.9905 86.4464 16.4987 86.4464 17.0449ZM79.7631 25.5017H84.4653V23.486H79.7802L79.7588 25.5017H79.7631ZM84.3113 17.0449C84.3113 16.4648 84.0974 15.9693 83.6738 15.5628C83.2502 15.1563 82.7368 14.953 82.1335 14.953C81.5302 14.953 81.0167 15.1563 80.5846 15.5628C80.1524 15.9693 79.9385 16.4648 79.9385 17.0449C79.9385 17.6251 80.1524 18.1248 80.5846 18.5398C81.0167 18.9548 81.5302 19.1581 82.1335 19.1581C82.7368 19.1581 83.2502 18.9506 83.6738 18.5398C84.0974 18.1248 84.3113 17.6293 84.3113 17.0449Z" fill="white"/>
<path d="M93.9297 24.4218H110V26.3232H103.043V30.7866H100.87V26.3232H93.934V24.4218H93.9297ZM97.3612 15.9651H106.552V13.7715H108.708V22.0927H95.2261V13.7715H97.3612V15.9651ZM106.552 17.8283H97.3612V20.2125H106.552V17.8283Z" fill="white"/>
</g>
<defs>
<clipPath id="clip0_635_565">
<rect width="110" height="42" fill="white" transform="translate(0 0.5)"/>
</clipPath>
</defs>
</svg>
