<svg width="6" height="10" viewBox="0 0 6 10" fill="none" xmlns="http://www.w3.org/2000/svg">
<path d="M3.87499 4.99984L0.458323 1.58317C0.305545 1.43039 0.229156 1.25331 0.229156 1.05192C0.229156 0.850532 0.305545 0.673448 0.458323 0.520671C0.611101 0.367893 0.788184 0.291504 0.989573 0.291504C1.19096 0.291504 1.37039 0.37024 1.52787 0.527713L5.47916 4.479C5.5486 4.554 5.60068 4.63525 5.63541 4.72275C5.67013 4.81025 5.68749 4.904 5.68749 5.004C5.68749 5.104 5.67013 5.19775 5.63541 5.28525C5.60068 5.37275 5.5486 5.45123 5.47916 5.52067L1.52787 9.47196C1.37039 9.62943 1.19443 9.7047 0.99999 9.69775C0.805545 9.69081 0.631934 9.61095 0.479156 9.45817C0.326379 9.30539 0.24999 9.12831 0.24999 8.92692C0.24999 8.72553 0.326379 8.54845 0.479156 8.39567L3.87499 4.99984Z" fill="#717171"/>
</svg>
