<svg width="50" height="51" viewBox="0 0 50 51" fill="none" xmlns="http://www.w3.org/2000/svg">
<circle cx="25" cy="25.5931" r="25" fill="#3B3A42"/>
<path d="M12.5195 26.9935V25.6947H20.1895V26.9935H17.1133V35.5931H15.6094V26.9935H12.5195ZM29.6165 30.6439C29.6165 33.8021 27.7161 35.7299 25.1595 35.7299C22.5755 35.7299 20.6888 33.8021 20.6888 30.6439C20.6888 27.472 22.5755 25.558 25.1595 25.558C27.7161 25.558 29.6165 27.472 29.6165 30.6439ZM28.1263 30.6439C28.1263 28.2377 26.8548 26.9388 25.1595 26.9388C23.4505 26.9388 22.179 28.2377 22.179 30.6439C22.179 33.0502 23.4505 34.349 25.1595 34.349C26.8548 34.349 28.1263 33.0502 28.1263 30.6439ZM31.0318 35.5931V25.6947H34.5591C36.856 25.6947 37.9908 27.0756 37.9908 28.9076C37.9908 30.726 36.856 32.1205 34.5591 32.1205H32.5357V35.5931H31.0318ZM32.5357 30.8353H34.4088C35.8716 30.8353 36.4732 30.015 36.4732 28.9076C36.4732 27.7865 35.8716 26.9799 34.4088 26.9799H32.5357V30.8353Z" fill="white"/>
<path d="M23.5417 11.4991L19.8706 15.4843C19.7207 15.6469 19.5451 15.7282 19.3437 15.7282C19.1424 15.7282 18.962 15.6453 18.8025 15.4795C18.6564 15.3136 18.5833 15.1214 18.5833 14.9028C18.5833 14.6841 18.6585 14.4933 18.8088 14.3304L23.7689 8.95261C23.8441 8.87113 23.9255 8.81155 24.0132 8.77386C24.1008 8.73616 24.1948 8.71732 24.295 8.71732C24.3952 8.71732 24.4891 8.73616 24.5768 8.77386C24.6645 8.81155 24.7431 8.86809 24.8125 8.94347L29.7708 14.3261C29.9236 14.4919 30 14.6854 30 14.9065C30 15.1277 29.9236 15.3186 29.7708 15.4795C29.6227 15.6453 29.4468 15.7282 29.2431 15.7282C29.0394 15.7282 28.8622 15.6465 28.7116 15.4831L25.0417 11.4991L25.0417 20.5912C25.0417 20.8217 24.9702 21.015 24.8273 21.1709C24.6844 21.3268 24.5073 21.4048 24.2961 21.4048C24.0848 21.4048 23.9062 21.3268 23.7604 21.1709C23.6146 21.015 23.5417 20.8217 23.5417 20.5912L23.5417 11.4991Z" fill="white"/>
</svg>
