<svg width="141" height="33" viewBox="0 0 141 33" fill="none" xmlns="http://www.w3.org/2000/svg">
<path d="M11.9043 0.804688V30.5H7.35156V5.31641H7.1875L0.0917969 9.95117V5.64453L7.47461 0.804688H11.9043ZM19.6366 30.5L32.8846 4.90625V4.66016H17.5858V0.804688H37.5604V4.82422L24.3534 30.5H19.6366ZM52.7106 16.2441V31.9941H51.111V23.8203H49.1598V31.2383H47.5954V16.666H49.1598V22.4668H51.111V16.2441H52.7106ZM46.0309 18.248C46.0134 22.3965 44.6423 26.1055 40.1423 28.6543L39.1755 27.4941C42.6735 25.5166 44.1501 22.8359 44.4137 19.6191H39.8434V18.248H46.0309ZM64.2426 20.252C64.225 23.1348 65.9652 26.0176 68.4086 27.1074L67.4066 28.4258C65.5961 27.5645 64.1635 25.7979 63.434 23.6445C62.6957 25.9473 61.2455 27.8545 59.3559 28.7773L58.3363 27.3711C60.8148 26.2637 62.5551 23.2578 62.5551 20.252V17.5625H64.2426V20.252ZM71.5023 16.2441V32.0293H69.8324V16.2441H71.5023ZM75.449 26.1758C74.7634 26.1758 74.1834 25.6133 74.2009 24.9277C74.1834 24.2422 74.7634 23.6797 75.449 23.6797C76.117 23.6797 76.697 24.2422 76.697 24.9277C76.697 25.6133 76.117 26.1758 75.449 26.1758ZM90.8038 23.5039V24.8398H86.0402V28.6895H92.4562V30.0605H78.0421V28.6895H84.3878V24.8398H79.8351V17.457H90.6632V18.8105H81.505V23.5039H90.8038ZM110.07 17.7559V19.4434C110.053 21.4297 110.053 23.5039 109.49 26.5098L107.855 26.334C108.4 23.4863 108.4 21.377 108.4 19.4434V19.1094H98.7498V17.7559H110.07ZM111.635 28.4785V29.8672H97.2733V28.4785H100.666V23.3809H102.336V28.4785H104.603V23.3809H106.238V28.4785H111.635ZM126.831 23.75V25.1035H123.122V26.9316H125.073V31.9941H123.386V28.25H114.07V26.9316H116.144V25.1035H112.47V23.75H126.831ZM119.642 16.5957C123.087 16.5781 125.267 17.7383 125.267 19.6367C125.267 21.5352 123.087 22.6953 119.642 22.6777C116.196 22.6953 114.017 21.5352 114.017 19.6367C114.017 17.7383 116.196 16.5781 119.642 16.5957ZM119.642 17.9141C117.216 17.8965 115.722 18.5469 115.739 19.6367C115.722 20.7441 117.216 21.377 119.642 21.377C122.05 21.377 123.544 20.7441 123.544 19.6367C123.544 18.5469 122.05 17.8965 119.642 17.9141ZM117.814 26.9316H121.488V25.1035H117.814V26.9316ZM133.186 19.6016C133.186 21.4473 134.715 23.1875 137.106 23.8555L136.315 25.1562C134.496 24.6377 133.116 23.5127 132.395 22.0625C131.71 23.6885 130.338 24.9717 128.458 25.5605L127.667 24.2773C130.057 23.5039 131.534 21.623 131.534 19.6016V19.4082H128.106V18.0723H131.534V16.1738H133.204V18.0723H136.614V19.4082H133.186V19.6016ZM140.797 16.2441V25.7891H139.128V22.0273H136.122V20.6562H139.128V16.2441H140.797ZM135.524 26.1406C138.811 26.1406 140.85 27.1953 140.85 29.041C140.85 30.9043 138.811 31.9766 135.524 31.959C132.219 31.9766 130.18 30.9043 130.198 29.041C130.18 27.1953 132.219 26.1406 135.524 26.1406ZM135.524 27.4414C133.221 27.4414 131.85 28.0215 131.85 29.041C131.85 30.0605 133.221 30.6758 135.524 30.6758C137.844 30.6758 139.198 30.0605 139.198 29.041C139.198 28.0215 137.844 27.4414 135.524 27.4414Z" fill="white"/>
</svg>
