<svg width="35" height="30" viewBox="0 0 35 30" fill="none" xmlns="http://www.w3.org/2000/svg">
<rect x="7.74982" y="0.25" width="19.5" height="29.5" rx="1.75" fill="white" stroke="#6F6F6F" stroke-width="0.5" stroke-linecap="round" stroke-linejoin="round"/>
<rect x="0.5" y="4.04297" width="34" height="19.9565" rx="9.97827" fill="#CA4C28"/>
<rect x="0.5" y="4.04297" width="34" height="19.9565" rx="9.97827" stroke="white"/>
<path d="M9.2357 16.7764V10.2309H11.8181C12.3145 10.2309 12.7375 10.3257 13.0869 10.5154C13.4363 10.7029 13.7027 10.9639 13.8859 11.2984C14.0713 11.6308 14.164 12.0143 14.164 12.449C14.164 12.8836 14.0702 13.2671 13.8827 13.5995C13.6952 13.9319 13.4236 14.1908 13.0677 14.3762C12.714 14.5615 12.2858 14.6542 11.7829 14.6542H10.137V13.5452H11.5592C11.8255 13.5452 12.045 13.4994 12.2176 13.4078C12.3923 13.314 12.5223 13.1851 12.6075 13.021C12.6949 12.8548 12.7385 12.6642 12.7385 12.449C12.7385 12.2316 12.6949 12.042 12.6075 11.8801C12.5223 11.716 12.3923 11.5892 12.2176 11.4997C12.0429 11.4081 11.8213 11.3623 11.5528 11.3623H10.6196V16.7764H9.2357ZM15.0628 16.7764V10.2309H17.6452C18.1417 10.2309 18.5646 10.3257 18.9141 10.5154C19.2635 10.7029 19.5298 10.9639 19.7131 11.2984C19.8984 11.6308 19.9911 12.0143 19.9911 12.449C19.9911 12.8836 19.8974 13.2671 19.7099 13.5995C19.5224 13.9319 19.2507 14.1908 18.8949 14.3762C18.5412 14.5615 18.1129 14.6542 17.6101 14.6542H15.9641V13.5452H17.3864C17.6527 13.5452 17.8722 13.4994 18.0447 13.4078C18.2195 13.314 18.3494 13.1851 18.4347 13.021C18.522 12.8548 18.5657 12.6642 18.5657 12.449C18.5657 12.2316 18.522 12.042 18.4347 11.8801C18.3494 11.716 18.2195 11.5892 18.0447 11.4997C17.87 11.4081 17.6484 11.3623 17.38 11.3623H16.4467V16.7764H15.0628ZM20.6407 11.3719V10.2309H26.0164V11.3719H24.0125V16.7764H22.6446V11.3719H20.6407Z" fill="white"/>
</svg>
