<svg width="12" height="10" viewBox="0 0 12 10" fill="none" xmlns="http://www.w3.org/2000/svg">
<path d="M2.12476 5.00033L5.54142 8.41699C5.6942 8.56977 5.77059 8.74685 5.77059 8.94824C5.77059 9.14963 5.6942 9.32672 5.54142 9.47949C5.38865 9.63227 5.21156 9.70866 5.01017 9.70866C4.80878 9.70866 4.6317 9.63227 4.47892 9.47949L0.520589 5.52116C0.451145 5.45172 0.399061 5.37185 0.364339 5.28158C0.329617 5.1913 0.312256 5.09755 0.312256 5.00033C0.312256 4.9031 0.329617 4.80935 0.364339 4.71908C0.399061 4.6288 0.451145 4.54894 0.520589 4.47949L4.47892 0.521159C4.6317 0.368381 4.80878 0.291992 5.01017 0.291992C5.21156 0.291992 5.38865 0.368381 5.54142 0.521159C5.6942 0.673937 5.77059 0.85102 5.77059 1.05241C5.77059 1.2538 5.6942 1.43088 5.54142 1.58366L2.12476 5.00033ZM8.06226 5.00033L11.4789 8.41699C11.6317 8.56977 11.7081 8.74685 11.7081 8.94824C11.7081 9.14963 11.6317 9.32672 11.4789 9.47949C11.3261 9.63227 11.1491 9.70866 10.9477 9.70866C10.7463 9.70866 10.5692 9.63227 10.4164 9.47949L6.45809 5.52116C6.38865 5.45172 6.33656 5.37185 6.30184 5.28158C6.26712 5.1913 6.24976 5.09755 6.24976 5.00033C6.24976 4.9031 6.26712 4.80935 6.30184 4.71908C6.33656 4.6288 6.38865 4.54894 6.45809 4.47949L10.4164 0.521159C10.5692 0.368381 10.7463 0.291992 10.9477 0.291992C11.1491 0.291992 11.3261 0.368381 11.4789 0.521159C11.6317 0.673937 11.7081 0.85102 11.7081 1.05241C11.7081 1.2538 11.6317 1.43088 11.4789 1.58366L8.06226 5.00033Z" fill="#CCCCCC"/>
</svg>
