<svg width="106" height="15" viewBox="0 0 106 15" fill="none" xmlns="http://www.w3.org/2000/svg">
<path d="M4.68066 13.5469H2.94629V3.95312H2.88379L0.180664 5.71875V4.07812L2.99316 2.23438H4.68066V13.5469ZM12.6732 3.79688V3.70312H6.84504V2.23438H14.4544V3.76562L9.42316 13.5469H7.62629L12.6732 3.79688ZM27.3688 14.875H25.9469V7.60938H24.2125V14.2031H22.8219V1.25H24.2125V6.40625H25.9469V0.875H27.3688V14.875ZM15.3375 10.875C16.8375 10.0208 17.9573 9.01302 18.6969 7.85156C19.4365 6.6901 19.8662 5.36458 19.986 3.875H15.9313V2.65625H21.4313C21.4261 4.65104 21.025 6.42448 20.2282 7.97656C19.4313 9.52865 18.0875 10.8385 16.1969 11.9062L15.3375 10.875ZM37.6194 4.4375C37.6142 5.28125 37.7679 6.11198 38.0804 6.92969C38.3981 7.7474 38.8382 8.47396 39.4007 9.10938C39.9684 9.73958 40.609 10.2135 41.3225 10.5312L40.4319 11.7031C39.635 11.3229 38.9293 10.7604 38.3147 10.0156C37.7001 9.27083 37.2262 8.41667 36.8929 7.45312C36.5647 8.49479 36.0856 9.41406 35.4554 10.2109C34.8304 11.0078 34.1038 11.6094 33.2757 12.0156L32.3694 10.7656C33.0934 10.4479 33.7392 9.96094 34.3069 9.30469C34.8746 8.64323 35.3173 7.88802 35.635 7.03906C35.958 6.1849 36.1194 5.31771 36.1194 4.4375V2.04688H37.6194V4.4375ZM42.5882 0.875H44.0725V14.9062H42.5882V0.875ZM47.5807 9.70312C47.3827 9.70312 47.1979 9.65365 47.026 9.55469C46.8593 9.45573 46.7239 9.32292 46.6197 9.15625C46.5208 8.98958 46.4713 8.80729 46.4713 8.60938C46.4713 8.40625 46.5208 8.21875 46.6197 8.04688C46.7187 7.875 46.8515 7.73958 47.0182 7.64062C47.19 7.53646 47.3775 7.48438 47.5807 7.48438C47.7786 7.48438 47.9609 7.53385 48.1275 7.63281C48.2994 7.73177 48.4348 7.86719 48.5338 8.03906C48.638 8.21094 48.69 8.39583 48.69 8.59375C48.69 8.79167 48.638 8.97656 48.5338 9.14844C48.4348 9.3151 48.2994 9.45052 48.1275 9.55469C47.9609 9.65365 47.7786 9.70312 47.5807 9.70312ZM61.2294 8.51562H56.995V11.9375H62.6982V13.1562H49.8857V11.9375H55.5263V8.51562H51.4794V1.95312H61.1044V3.15625H52.9638V7.32812H61.2294V8.51562ZM78.355 3.71875V3.89062C78.3446 5.04688 78.3082 6.06771 78.2457 6.95312C78.1884 7.83333 78.053 8.84896 77.8394 10L76.3863 9.84375C76.5842 8.82812 76.7144 7.89323 76.7769 7.03906C76.8394 6.17969 76.8707 5.26823 76.8707 4.30469V3.71875V3.42188H68.2925V2.21875H78.355V3.71875ZM66.98 11.75H69.9957V7.21875H71.48V11.75H73.4957V7.21875H74.9488V11.75H79.7457V12.9844H66.98V11.75ZM93.2538 8.75H89.9569V10.375H91.6913V14.875H90.1913V11.5469H81.91V10.375H83.7538V8.75H80.4882V7.54688H93.2538V8.75ZM81.8632 3.89062C81.8632 3.33333 82.0663 2.85156 82.4725 2.44531C82.8788 2.03385 83.4569 1.72135 84.2069 1.50781C84.9621 1.29427 85.8475 1.1875 86.8632 1.1875C87.8788 1.1875 88.7616 1.29427 89.5116 1.50781C90.2616 1.72135 90.8397 2.03385 91.246 2.44531C91.6574 2.85156 91.8632 3.33333 91.8632 3.89062C91.8632 4.44792 91.6574 4.92969 91.246 5.33594C90.8397 5.74219 90.259 6.05469 89.5038 6.27344C88.7538 6.48698 87.8736 6.59375 86.8632 6.59375C85.8475 6.59375 84.9621 6.48698 84.2069 6.27344C83.4569 6.05469 82.8788 5.74219 82.4725 5.33594C82.0663 4.92969 81.8632 4.44792 81.8632 3.89062ZM83.3944 3.89062C83.3944 4.21354 83.5324 4.49219 83.8085 4.72656C84.0845 4.95573 84.483 5.13281 85.0038 5.25781C85.5246 5.3776 86.1444 5.4375 86.8632 5.4375C87.5767 5.4375 88.1939 5.3776 88.7147 5.25781C89.2356 5.13281 89.634 4.95573 89.91 4.72656C90.1913 4.49219 90.3319 4.21354 90.3319 3.89062C90.3319 3.57292 90.1939 3.29948 89.9179 3.07031C89.6418 2.84115 89.246 2.66667 88.7304 2.54688C88.2147 2.42188 87.608 2.35938 86.91 2.35938C86.1861 2.35938 85.5585 2.41927 85.0272 2.53906C84.5012 2.65885 84.0975 2.83333 83.8163 3.0625C83.535 3.29167 83.3944 3.56771 83.3944 3.89062ZM88.5038 10.375V8.75H85.2382V10.375H88.5038ZM98.9025 3.85938C98.9025 4.40625 99.0458 4.93229 99.3322 5.4375C99.6187 5.94271 100.025 6.38802 100.551 6.77344C101.077 7.15885 101.689 7.44792 102.387 7.64062L101.684 8.79688C100.882 8.56771 100.181 8.21615 99.5822 7.74219C98.9833 7.26302 98.5223 6.69531 98.1994 6.03906C97.8869 6.77344 97.4312 7.41406 96.8322 7.96094C96.2333 8.5026 95.5223 8.90104 94.6994 9.15625L93.9963 8.01562C94.6942 7.79167 95.301 7.46875 95.8166 7.04688C96.3374 6.625 96.7359 6.13802 97.0119 5.58594C97.2932 5.03385 97.4338 4.45833 97.4338 3.85938V3.6875H94.3869V2.5H97.4338V0.8125H98.9182V2.5H101.949V3.6875H98.9025V3.85938ZM96.2463 12.25C96.2463 11.7083 96.4338 11.2448 96.8088 10.8594C97.189 10.474 97.7333 10.1797 98.4416 9.97656C99.1551 9.77344 100.002 9.67188 100.981 9.67188C101.955 9.67188 102.796 9.77344 103.504 9.97656C104.218 10.1797 104.765 10.474 105.145 10.8594C105.525 11.2448 105.715 11.7083 105.715 12.25C105.715 12.7969 105.522 13.263 105.137 13.6484C104.757 14.0391 104.212 14.3359 103.504 14.5391C102.796 14.7422 101.955 14.8438 100.981 14.8438C100.007 14.8438 99.163 14.7422 98.4494 14.5391C97.7359 14.3359 97.189 14.0391 96.8088 13.6484C96.4338 13.2578 96.2463 12.7917 96.2463 12.25ZM97.715 12.25C97.715 12.5521 97.8426 12.8125 98.0979 13.0312C98.3583 13.2448 98.7333 13.4115 99.2229 13.5312C99.7124 13.6458 100.298 13.7031 100.981 13.7031C102.007 13.6979 102.806 13.5677 103.379 13.3125C103.952 13.0573 104.241 12.7031 104.246 12.25C104.241 11.7969 103.952 11.4479 103.379 11.2031C102.811 10.9531 102.012 10.8281 100.981 10.8281C99.9494 10.8281 99.1447 10.9531 98.5666 11.2031C97.9937 11.4479 97.7098 11.7969 97.715 12.25ZM101.512 4.79688H104.184V0.875H105.668V9.35938H104.184V6.01562H101.512V4.79688Z" fill="white"/>
</svg>
