<svg width="21" height="22" viewBox="0 0 21 22" fill="none" xmlns="http://www.w3.org/2000/svg">
<path fill-rule="evenodd" clip-rule="evenodd" d="M6.05583 0.5C6.54856 0.5 6.94799 0.899433 6.94799 1.39216V3.84591L14.5296 3.846V1.39216C14.5296 0.899433 14.929 0.5 15.4218 0.5C15.9145 0.5 16.3139 0.899433 16.3139 1.39216V3.84602L18.7683 3.84605C19.8769 3.84607 20.7756 4.74479 20.7756 5.85341V19.6819C20.7756 20.7905 19.8769 21.6892 18.7682 21.6892H2.71024C1.60161 21.6892 0.702881 20.7905 0.702881 19.6819V5.85322C0.702881 4.74458 1.60162 3.84585 2.71026 3.84586L5.16368 3.84589V1.39216C5.16368 0.899433 5.56311 0.5 6.05583 0.5ZM2.71024 5.63018C2.58706 5.63018 2.4872 5.73003 2.4872 5.85322V8.53003H18.9913V5.85341C18.9913 5.73023 18.8914 5.63037 18.7682 5.63037L2.71024 5.63018ZM2.4872 19.6819V10.3143H18.9913V19.6819C18.9913 19.8051 18.8914 19.9049 18.7682 19.9049H2.71024C2.58706 19.9049 2.4872 19.8051 2.4872 19.6819ZM5.83444 13.8825C5.21853 13.8825 4.71924 14.3818 4.71924 14.9977C4.71924 15.6136 5.21853 16.1129 5.83444 16.1129C6.45034 16.1129 6.94964 15.6136 6.94964 14.9977C6.94964 14.3818 6.45034 13.8825 5.83444 13.8825ZM10.7397 13.8825C10.1238 13.8825 9.62451 14.3818 9.62451 14.9977C9.62451 15.6136 10.1238 16.1129 10.7397 16.1129C11.3556 16.1129 11.8549 15.6136 11.8549 14.9977C11.8549 14.3818 11.3556 13.8825 10.7397 13.8825ZM14.5339 14.9977C14.5339 14.3818 15.0332 13.8825 15.6491 13.8825C16.265 13.8825 16.7643 14.3818 16.7643 14.9977C16.7643 15.6136 16.265 16.1129 15.6491 16.1129C15.0332 16.1129 14.5339 15.6136 14.5339 14.9977Z" fill="#A2A2A2"/>
</svg>
