<svg width="21" height="22" viewBox="0 0 21 22" fill="none" xmlns="http://www.w3.org/2000/svg">
<path fill-rule="evenodd" clip-rule="evenodd" d="M5.68962 0.5C6.18235 0.5 6.58178 0.899433 6.58178 1.39216V3.84591L14.1634 3.846V1.39216C14.1634 0.899433 14.5628 0.5 15.0556 0.5C15.5483 0.5 15.9477 0.899433 15.9477 1.39216V3.84602L18.402 3.84605C19.5107 3.84607 20.4094 4.74479 20.4094 5.85341V19.6819C20.4094 20.7905 19.5107 21.6892 18.402 21.6892H2.34403C1.2354 21.6892 0.33667 20.7905 0.33667 19.6819V5.85322C0.33667 4.74458 1.23541 3.84585 2.34405 3.84586L4.79746 3.84589V1.39216C4.79746 0.899433 5.1969 0.5 5.68962 0.5ZM2.34403 5.63018C2.22085 5.63018 2.12099 5.73003 2.12099 5.85322V8.53003H18.6251V5.85341C18.6251 5.73023 18.5252 5.63037 18.402 5.63037L2.34403 5.63018ZM2.12099 19.6819V10.3143H18.6251V19.6819C18.6251 19.8051 18.5252 19.9049 18.402 19.9049H2.34403C2.22085 19.9049 2.12099 19.8051 2.12099 19.6819ZM5.46823 13.8825C4.85232 13.8825 4.35303 14.3818 4.35303 14.9977C4.35303 15.6136 4.85232 16.1129 5.46823 16.1129C6.08413 16.1129 6.58342 15.6136 6.58342 14.9977C6.58342 14.3818 6.08413 13.8825 5.46823 13.8825ZM10.3735 13.8825C9.75759 13.8825 9.2583 14.3818 9.2583 14.9977C9.2583 15.6136 9.75759 16.1129 10.3735 16.1129C10.9894 16.1129 11.4887 15.6136 11.4887 14.9977C11.4887 14.3818 10.9894 13.8825 10.3735 13.8825ZM14.1677 14.9977C14.1677 14.3818 14.667 13.8825 15.2829 13.8825C15.8988 13.8825 16.3981 14.3818 16.3981 14.9977C16.3981 15.6136 15.8988 16.1129 15.2829 16.1129C14.667 16.1129 14.1677 15.6136 14.1677 14.9977Z" fill="#C6C6C6"/>
</svg>
