<svg width="32" height="32" viewBox="0 0 32 32" fill="none" xmlns="http://www.w3.org/2000/svg">
<path d="M0.500001 16C0.500002 7.43958 7.43959 0.499998 16 0.499999C24.5604 0.499999 31.5 7.43959 31.5 16C31.5 24.5604 24.5604 31.5 16 31.5C7.43959 31.5 0.500001 24.5604 0.500001 16Z" fill="white" stroke="#D6D6D6" stroke-linejoin="round"/>
<mask id="mask0_3429_1775" style="mask-type:alpha" maskUnits="userSpaceOnUse" x="6" y="6" width="20" height="20">
<rect x="26" y="26" width="20" height="20" transform="rotate(-180 26 26)" fill="#D9D9D9"/>
</mask>
<g mask="url(#mask0_3429_1775)">
<path d="M14.6565 15.9926L19.6641 21.0776C19.888 21.305 20 21.5685 20 21.8683C20 22.168 19.888 22.4316 19.6641 22.6589C19.4402 22.8863 19.1807 23 18.8855 23C18.5903 23 18.3273 22.8828 18.0965 22.6485L12.3053 16.7677C12.2036 16.6561 12.1272 16.5352 12.0763 16.405C12.0254 16.2747 12 16.1352 12 15.9864C12 15.8375 12.0254 15.698 12.0763 15.5678C12.1272 15.4376 12.2036 15.3208 12.3053 15.2174L18.0966 9.3367C18.3273 9.10234 18.5852 8.99032 18.8702 9.00066C19.1552 9.01099 19.4097 9.12985 19.6336 9.35723C19.8575 9.58461 19.9695 9.84816 19.9695 10.1479C19.9695 10.4476 19.8575 10.7112 19.6336 10.9385L14.6565 15.9926Z" fill="black"/>
</g>
</svg>
