<svg width="32" height="32" viewBox="0 0 32 32" fill="none" xmlns="http://www.w3.org/2000/svg">
<path d="M31.5 16C31.5 24.5604 24.5604 31.5 16 31.5C7.43959 31.5 0.5 24.5604 0.5 16C0.5 7.43959 7.43959 0.5 16 0.5C24.5604 0.5 31.5 7.43959 31.5 16Z" fill="white" stroke="#D6D6D6" stroke-linejoin="round"/>
<mask id="mask0_3429_1780" style="mask-type:alpha" maskUnits="userSpaceOnUse" x="6" y="6" width="20" height="20">
<rect x="6" y="6" width="20" height="20" fill="black"/>
</mask>
<g mask="url(#mask0_3429_1780)">
<path d="M17.3435 16.0074L12.3359 10.9224C12.112 10.695 12 10.4315 12 10.1317C12 9.832 12.112 9.56845 12.3359 9.34107C12.5598 9.11369 12.8193 9 13.1145 9C13.4097 9 13.6727 9.11718 13.9035 9.35155L19.6947 15.2323C19.7964 15.3439 19.8728 15.4648 19.9237 15.595C19.9746 15.7253 20 15.8648 20 16.0136C20 16.1625 19.9746 16.302 19.9237 16.4322C19.8728 16.5624 19.7964 16.6792 19.6947 16.7826L13.9035 22.6633C13.6727 22.8977 13.4148 23.0097 13.1298 22.9993C12.8448 22.989 12.5903 22.8702 12.3664 22.6428C12.1425 22.4154 12.0305 22.1518 12.0305 21.8521C12.0305 21.5524 12.1425 21.2888 12.3664 21.0615L17.3435 16.0074Z" fill="black"/>
</g>
</svg>
