<svg width="63" height="22" viewBox="0 0 63 22" fill="none" xmlns="http://www.w3.org/2000/svg">
<path d="M1.56249 13.7373C0.876946 13.7373 0.296868 13.1748 0.314446 12.4893C0.296868 11.8037 0.876946 11.2412 1.56249 11.2412C2.23046 11.2412 2.81054 11.8037 2.81054 12.4893C2.81054 13.1748 2.23046 13.7373 1.56249 13.7373Z" fill="#333333"/>
<rect x="11" width="52" height="22" rx="11" fill="#21409A"/>
<path d="M37.1131 9.8125V11.0156H31.4569V12.3594C34.0272 12.5 35.5506 13.3672 35.5506 14.8281C35.5506 16.4219 33.7381 17.3125 30.7225 17.2969C27.6756 17.3125 25.8631 16.4219 25.8631 14.8281C25.8631 13.3672 27.3866 12.5 29.9881 12.3594V11.0156H24.3475V9.8125H37.1131ZM30.7225 13.4844C28.5819 13.4844 27.3631 13.9688 27.3631 14.8281C27.3631 15.6719 28.5819 16.1719 30.7225 16.1562C32.8319 16.1719 34.0662 15.6719 34.0662 14.8281C34.0662 13.9688 32.8319 13.4844 30.7225 13.4844ZM35.9725 3.96875V5.15625H31.7225C31.9334 6.50781 33.9022 7.65625 36.4569 7.90625L35.9256 9.07812C33.5037 8.79688 31.4959 7.77344 30.7381 6.28125C29.9569 7.77344 27.9569 8.79688 25.535 9.07812L25.0194 7.90625C27.535 7.65625 29.5116 6.50781 29.7225 5.15625H25.5194V3.96875H35.9725ZM50.6681 14.3438V15.5781H37.8556V14.3438H40.9181V10.6875C39.7697 10.0547 39.0744 9.04688 39.0744 7.79688C39.0744 5.59375 41.2306 4.14062 44.2306 4.14062C47.2463 4.14062 49.4025 5.59375 49.4025 7.79688C49.4025 9.03125 48.7306 10.0234 47.6056 10.6562V14.3438H50.6681ZM44.2306 5.32812C42.0275 5.32812 40.5119 6.28125 40.5119 7.79688C40.5119 9.29688 42.0275 10.2812 44.2306 10.2812C46.4181 10.2812 47.965 9.29688 47.965 7.79688C47.965 6.28125 46.4181 5.32812 44.2306 5.32812ZM42.3869 14.3438H46.1056V11.2188C45.5353 11.3672 44.9025 11.4375 44.2306 11.4375C43.5744 11.4375 42.9494 11.3672 42.3869 11.2344V14.3438Z" fill="white"/>
</svg>
