<svg width="12" height="13" viewBox="0 0 12 13" fill="none" xmlns="http://www.w3.org/2000/svg">
<mask id="path-1-inside-1_3426_84" fill="white">
<path d="M12 9C12 11.2091 10.2091 13 8 13H0V0H12V9Z"/>
</mask>
<path d="M12 9C12 11.2091 10.2091 13 8 13H0V0H12V9Z" fill="white"/>
<path d="M13 9C13 11.7614 10.7614 14 8 14H0V12H8C9.65685 12 11 10.6569 11 9H13ZM0 0H12H0ZM13 0V9C13 11.7614 10.7614 14 8 14V12C9.65685 12 11 10.6569 11 9V0H13ZM0 13V0V13Z" fill="#A3A3A3" mask="url(#path-1-inside-1_3426_84)"/>
</svg>
