<svg width="12" height="13" viewBox="0 0 12 13" fill="none" xmlns="http://www.w3.org/2000/svg">
<mask id="path-1-inside-1_3426_84" fill="white">
<path d="M12 4C12 1.79086 10.2091 0 8 0H0V13H12V4Z"/>
</mask>
<path d="M12 4C12 1.79086 10.2091 0 8 0H0V13H12V4Z" fill="white"/>
<path d="M13 4C13 1.23858 10.7614 -1 8 -1H0V1H8C9.65685 1 11 2.34315 11 4H13ZM0 13H12H0ZM13 13V4C13 1.23858 10.7614 -1 8 -1V1C9.65685 1 11 2.34315 11 4V13H13ZM0 0V13V0Z" fill="#A3A3A3" mask="url(#path-1-inside-1_3426_84)"/>
</svg>
