<svg width="52" height="22" viewBox="0 0 52 22" fill="none" xmlns="http://www.w3.org/2000/svg">
<rect width="52" height="22" rx="11" fill="#21409A"/>
<path d="M26.1131 9.8125V11.0156H20.4569V12.3594C23.0272 12.5 24.5506 13.3672 24.5506 14.8281C24.5506 16.4219 22.7381 17.3125 19.7225 17.2969C16.6756 17.3125 14.8631 16.4219 14.8631 14.8281C14.8631 13.3672 16.3866 12.5 18.9881 12.3594V11.0156H13.3475V9.8125H26.1131ZM19.7225 13.4844C17.5819 13.4844 16.3631 13.9688 16.3631 14.8281C16.3631 15.6719 17.5819 16.1719 19.7225 16.1562C21.8319 16.1719 23.0662 15.6719 23.0662 14.8281C23.0662 13.9688 21.8319 13.4844 19.7225 13.4844ZM24.9725 3.96875V5.15625H20.7225C20.9334 6.50781 22.9022 7.65625 25.4569 7.90625L24.9256 9.07812C22.5037 8.79688 20.4959 7.77344 19.7381 6.28125C18.9569 7.77344 16.9569 8.79688 14.535 9.07812L14.0194 7.90625C16.535 7.65625 18.5116 6.50781 18.7225 5.15625H14.5194V3.96875H24.9725ZM39.6681 14.3438V15.5781H26.8556V14.3438H29.9181V10.6875C28.7697 10.0547 28.0744 9.04688 28.0744 7.79688C28.0744 5.59375 30.2306 4.14062 33.2306 4.14062C36.2463 4.14062 38.4025 5.59375 38.4025 7.79688C38.4025 9.03125 37.7306 10.0234 36.6056 10.6562V14.3438H39.6681ZM33.2306 5.32812C31.0275 5.32812 29.5119 6.28125 29.5119 7.79688C29.5119 9.29688 31.0275 10.2812 33.2306 10.2812C35.4181 10.2812 36.965 9.29688 36.965 7.79688C36.965 6.28125 35.4181 5.32812 33.2306 5.32812ZM31.3869 14.3438H35.1056V11.2188C34.5353 11.3672 33.9025 11.4375 33.2306 11.4375C32.5744 11.4375 31.9494 11.3672 31.3869 11.2344V14.3438Z" fill="white"/>
</svg>
