<svg width="17" height="13" viewBox="0 0 17 13" fill="none" xmlns="http://www.w3.org/2000/svg">
<mask id="path-1-inside-1_3426_84" fill="white">
<path d="M0 4C0 1.79086 1.79086 0 4 0H17V13H0V4Z"/>
</mask>
<path d="M0 4C0 1.79086 1.79086 0 4 0H17V13H0V4Z" fill="white"/>
<path d="M-1 4C-1 1.23858 1.23858 -1 4 -1H17V1H4C2.34315 1 1 2.34315 1 4H-1ZM17 13H0H17ZM-1 13V4C-1 1.23858 1.23858 -1 4 -1V1C2.34315 1 1 2.34315 1 4V13H-1ZM17 0V13V0Z" fill="#A3A3A3" mask="url(#path-1-inside-1_3426_84)"/>
</svg>
