<svg width="17" height="13" viewBox="0 0 17 13" fill="none" xmlns="http://www.w3.org/2000/svg">
<mask id="path-1-inside-1_3426_84" fill="white">
<path d="M0 9C0 11.2091 1.79086 13 4 13H17V0H0V9Z"/>
</mask>
<path d="M0 9C0 11.2091 1.79086 13 4 13H17V0H0V9Z" fill="white"/>
<path d="M-1 9C-1 11.7614 1.23858 14 4 14H17V12H4C2.34315 12 1 10.6569 1 9H-1ZM17 0H0H17ZM-1 0V9C-1 11.7614 1.23858 14 4 14V12C2.34315 12 1 10.6569 1 9V0H-1ZM17 13V0V13Z" fill="#A3A3A3" mask="url(#path-1-inside-1_3426_84)"/>
</svg>
