<svg width="77" height="89" viewBox="0 0 77 89" fill="none" xmlns="http://www.w3.org/2000/svg">
<g clip-path="url(#clip0_3454_867)">
<g opacity="0.2">
<path d="M21.6396 39.06C21.6396 38.14 22.3796 37.4 23.2996 37.4H46.5696C47.4896 37.4 48.2296 38.14 48.2296 39.06V51.66C48.2296 53.32 44.8496 55.3 43.1896 55.17C38.7796 54.82 31.9996 55.93 23.5196 57.1C22.5196 57.23 21.6396 56.45 21.6396 55.45V39.06Z" fill="#0055FF"/>
</g>
<path d="M31.6103 57.62H21.6403C18.4303 57.62 15.8203 55.01 15.8203 51.8V25.76C15.8203 25.3 16.1903 24.93 16.6503 24.93H31.2903C32.5303 24.93 33.7003 25.48 34.4903 26.44L37.5903 30.19H56.5303C56.9903 30.19 57.3603 30.56 57.3603 31.02V36.56C57.3603 37.02 56.9903 37.39 56.5303 37.39C56.0703 37.39 55.7003 37.02 55.7003 36.56V31.85H37.2003C36.9503 31.85 36.7203 31.74 36.5603 31.55L33.2103 27.5C32.7303 26.92 32.0303 26.59 31.2903 26.59H17.4803V51.8C17.4803 54.09 19.3403 55.96 21.6403 55.96H31.6103C32.0703 55.96 32.4403 56.33 32.4403 56.79C32.4403 57.25 32.0703 57.62 31.6103 57.62Z" fill="#0044CC"/>
<path d="M29.1101 31.3H21.9101C21.4501 31.3 21.0801 30.93 21.0801 30.47C21.0801 30.01 21.4501 29.64 21.9101 29.64H29.1101C29.5701 29.64 29.9401 30.01 29.9401 30.47C29.9501 30.93 29.5701 31.3 29.1101 31.3Z" fill="#0044CC"/>
<path d="M38.26 88.09C38.12 88.09 37.97 88.05 37.84 87.98L0.42 66.37C0.16 66.22 0 65.95 0 65.65V22.44C0 22.14 0.16 21.87 0.42 21.72L37.84 0.109998C38.1 -0.0400024 38.41 -0.0400024 38.67 0.109998L76.1 21.72C76.36 21.87 76.52 22.14 76.52 22.44V65.65C76.52 65.95 76.36 66.22 76.1 66.37L38.67 87.98C38.54 88.05 38.4 88.09 38.26 88.09ZM1.66 65.17L38.26 86.3L74.85 65.17V22.92L38.26 1.79L1.66 22.92V65.17Z" fill="#0044CC"/>
<path d="M63.3099 64.82H33.2699C33.0299 64.82 32.8099 64.72 32.6499 64.55C32.4899 64.38 32.4199 64.14 32.4399 63.91L32.8999 59.37C32.8999 59.35 32.8999 59.33 32.9099 59.32C33.2299 57.38 34.3099 55.71 35.9499 54.61C37.5799 53.52 39.5299 53.15 41.4499 53.59L45.9899 54.62C47.4299 54.94 48.9299 54.95 50.3299 54.64L54.9399 53.59C56.8799 53.16 58.8599 53.51 60.5199 54.6C62.1699 55.68 63.2899 57.35 63.6599 59.3L64.1299 62.22L64.1399 64C64.1499 64.45 63.7699 64.82 63.3099 64.82ZM34.1899 63.16H62.4799V62.35L62.0299 59.59C61.7499 58.11 60.8899 56.83 59.6099 55.99C58.3299 55.15 56.7999 54.88 55.3099 55.21L50.6999 56.26C49.0599 56.63 47.3099 56.63 45.6299 56.24L41.0799 55.21C39.6099 54.88 38.1199 55.15 36.8699 55.99C35.6299 56.82 34.7999 58.09 34.5499 59.57L34.1899 63.16Z" fill="#0044CC"/>
<g opacity="0.8">
<path fill-rule="evenodd" clip-rule="evenodd" d="M40.6496 43.84C40.6496 39.82 43.8996 36.57 47.9196 36.57C51.9396 36.57 55.1896 39.83 55.1896 43.84V44.97C56.0896 45.23 56.7496 46.03 56.7496 46.96C56.7496 48.11 55.7596 49.04 54.5396 49.04C54.5296 49.04 54.5196 49.04 54.5196 49.04C54.5096 49.04 54.4996 49.04 54.4996 49.04C53.3296 51.5 50.8296 53.2 47.9296 53.2C45.0296 53.2 42.5296 51.5 41.3596 49.04C41.3396 49.04 41.3296 49.04 41.3096 49.04C40.0896 49.04 39.0996 48.11 39.0996 46.96C39.0996 46.03 39.7596 45.23 40.6596 44.97V43.84H40.6496Z" fill="white"/>
<path d="M47.9198 54.02C44.9698 54.02 42.2298 52.39 40.8198 49.82C39.3498 49.59 38.2598 48.39 38.2598 46.95C38.2598 45.89 38.8798 44.92 39.8198 44.41V43.83C39.8198 39.36 43.4498 35.73 47.9198 35.73C52.3898 35.73 56.0198 39.36 56.0198 43.83V44.41C56.9598 44.92 57.5798 45.89 57.5798 46.95C57.5798 48.4 56.4698 49.6 55.0198 49.82C53.5998 52.39 50.8698 54.02 47.9198 54.02ZM47.9198 37.4C44.3698 37.4 41.4798 40.29 41.4798 43.84V45.6L40.8798 45.77C40.3198 45.93 39.9198 46.42 39.9198 46.96C39.9198 47.65 40.5398 48.21 41.2998 48.21H41.8298L42.1098 48.68C43.1698 50.92 45.4598 52.36 47.9298 52.36C50.4098 52.36 52.6898 50.92 53.7498 48.68L53.9698 48.2H54.4998C55.3098 48.2 55.9298 47.64 55.9298 46.95C55.9298 46.41 55.5398 45.93 54.9698 45.76L54.3698 45.59V43.83C54.3598 40.29 51.4698 37.4 47.9198 37.4Z" fill="#FF6B00"/>
</g>
</g>
<defs>
<clipPath id="clip0_3454_867">
<rect width="76.51" height="88.09" fill="white"/>
</clipPath>
</defs>
</svg>
