<svg width="81" height="81" viewBox="0 0 81 81" fill="none" xmlns="http://www.w3.org/2000/svg">
<g clip-path="url(#clip0_3454_1030)">
<g opacity="0.2">
<path d="M12.9297 36.674V28.545L19.7523 21.3388L20.9654 20.2501C21.2765 19.9701 21.6912 19.8146 22.106 19.8146H23.8064H50.8271V30.3491V60.6567C50.8271 64.462 47.7373 67.5519 43.932 67.5519H12.9297V36.674Z" fill="#0055FF"/>
</g>
<path d="M19.8145 33.4181V26.0253L26.0149 19.4723L27.0725 18.5287C27.3836 18.2488 27.7983 18.0933 28.2131 18.0933H29.7062H54.2695V27.6739V54.6117C54.2695 58.4066 51.1797 61.5069 47.3744 61.5069H19.8145V33.4181Z" fill="white"/>
<path d="M80.1394 81H0.860599C0.38364 81 0 80.606 0 80.1394V0.860599C0 0.38364 0.38364 0 0.860599 0H80.129C80.606 0 80.9896 0.38364 80.9896 0.860599V80.129C81 80.606 80.606 81 80.1394 81ZM1.7212 79.2684H79.2684V1.7212H1.7212V79.2684Z" fill="#0044CC"/>
<path d="M29.7168 18.0933V17.2327H28.8562V18.0933H29.7168ZM19.8147 26.0253L19.1926 25.4343L18.9541 25.6728V26.0149H19.8147V26.0253ZM54.2801 18.0933H55.1407C55.1407 17.6059 54.7571 17.2327 54.2801 17.2327V18.0933ZM29.7168 26.4919V27.3525C30.1937 27.3525 30.5774 26.9688 30.5774 26.4919H29.7168ZM23.9518 25.6313C23.4748 25.6313 23.0912 26.0253 23.0912 26.4919C23.0912 26.9792 23.4748 27.3525 23.9518 27.3525V25.6313ZM26.6476 20.0633C26.9794 19.7211 26.9587 19.182 26.6165 18.8605C26.2744 18.5287 25.7248 18.5495 25.393 18.8917L26.6476 20.0633ZM19.8147 61.5069H18.9541C18.9541 61.9734 19.3377 62.3675 19.8147 62.3675V61.5069ZM18.9541 26.0253V33.4181H20.6753V26.0253H18.9541ZM55.1511 27.6739V18.0933H53.4299V27.6739H55.1511ZM54.2801 17.2327H29.7168V18.9539H54.2801V17.2327ZM28.8562 18.0933V26.4815H30.5774V18.0933H28.8562ZM29.7168 25.6313H23.9518V27.3525H29.7168V25.6313ZM20.4472 26.6059L26.6476 20.0529L25.393 18.8813L19.1926 25.4343L20.4472 26.6059ZM53.4195 27.6739V54.6117H55.1407V27.6739H53.4195ZM47.3953 60.6463H19.8147V62.3675H47.385V60.6463H47.3953ZM20.6753 61.5069V33.4181H18.9541V61.5069H20.6753ZM53.4195 54.6117C53.4195 57.94 50.7237 60.6463 47.385 60.6463V62.3675C51.6672 62.3675 55.1407 58.8836 55.1407 54.6117H53.4195Z" fill="#0044CC"/>
<g opacity="0.6">
<path d="M38.779 34.4655H29.302C28.825 34.4655 28.4414 34.0818 28.4414 33.6049C28.4414 33.1279 28.825 32.7443 29.302 32.7443H38.779C39.2559 32.7443 39.6396 33.1279 39.6396 33.6049C39.6396 34.0818 39.2559 34.4655 38.779 34.4655Z" fill="#FF6B00"/>
</g>
<g opacity="0.6">
<path d="M38.779 44.803H29.302C28.825 44.803 28.4414 44.4193 28.4414 43.9424C28.4414 43.4654 28.825 43.0818 29.302 43.0818H38.779C39.2559 43.0818 39.6396 43.4654 39.6396 43.9424C39.6396 44.4193 39.2559 44.803 38.779 44.803Z" fill="#FF6B00"/>
</g>
<g opacity="0.6">
<path d="M43.0816 39.6394H29.2913C28.8143 39.6394 28.4307 39.2558 28.4307 38.7788C28.4307 38.3019 28.8143 37.9182 29.2913 37.9182H43.0816C43.5585 37.9182 43.9422 38.3019 43.9422 38.7788C43.9422 39.2558 43.5585 39.6394 43.0816 39.6394Z" fill="#FF6B00"/>
</g>
<path d="M62.4394 26.5023C64.171 24.7085 67.0224 24.6567 68.8162 26.3986C70.61 28.1198 70.6514 30.9815 68.9199 32.7753L55.5132 46.6486C53.1388 49.0956 50.1215 50.8168 46.8035 51.6152L43.7344 52.341L44.3565 49.2511C45.0305 45.9124 46.648 42.8433 49.0224 40.3755L62.4394 26.5023Z" fill="white"/>
<path d="M43.7452 53.2016C43.5274 53.2016 43.3097 53.1187 43.1438 52.9632C42.9364 52.7558 42.8431 52.4551 42.8949 52.1751L43.5171 49.0853C44.2221 45.591 45.9122 42.3768 48.4111 39.7846L61.8281 25.9113C62.8235 24.8745 64.1714 24.2938 65.6023 24.2731C67.0332 24.2938 68.3915 24.7915 69.4283 25.7869C70.4548 26.7719 71.0355 28.1095 71.0666 29.5404C71.0977 30.9816 70.5585 32.3399 69.5528 33.3768L56.1357 47.25C53.6472 49.8215 50.4848 51.6256 47.0113 52.4551L43.9422 53.1809C43.8696 53.1913 43.8074 53.2016 43.7452 53.2016ZM65.6852 25.9943C65.6645 25.9943 65.6438 25.9943 65.623 25.9943C64.6484 26.0046 63.7359 26.409 63.062 27.1037L49.6449 40.977C47.3846 43.3307 45.85 46.2546 45.2071 49.4171L44.8546 51.1798L46.6069 50.765C49.7694 50.0081 52.6311 48.3802 54.8915 46.0369L68.3085 32.1636C68.9825 31.4586 69.3558 30.5357 69.335 29.5611C69.3143 28.5864 68.9203 27.6844 68.2256 27.0104C67.5412 26.3572 66.6392 25.9943 65.6852 25.9943Z" fill="#0044CC"/>
</g>
<defs>
<clipPath id="clip0_3454_1030">
<rect width="81" height="81" fill="white"/>
</clipPath>
</defs>
</svg>
