<svg width="22" height="15" viewBox="0 0 22 15" fill="none" xmlns="http://www.w3.org/2000/svg">
<path d="M6.43426 10.777L11.5349 5.67629L10.522 4.66339L6.43426 8.75117L4.37228 6.68919L3.35938 7.70209L6.43426 10.777ZM7.44716 14.6839C6.44632 14.6839 5.50577 14.4939 4.62551 14.1141C3.74525 13.7343 2.97955 13.2188 2.3284 12.5676C1.67725 11.9165 1.16175 11.1508 0.781914 10.2705C0.402077 9.39026 0.212158 8.44971 0.212158 7.44887C0.212158 6.44803 0.402077 5.50748 0.781914 4.62722C1.16175 3.74696 1.67725 2.98125 2.3284 2.3301C2.97955 1.67895 3.74525 1.16346 4.62551 0.783623C5.50577 0.403786 6.44632 0.213867 7.44716 0.213867C8.448 0.213867 9.38855 0.403786 10.2688 0.783623C11.1491 1.16346 11.9148 1.67895 12.5659 2.3301C13.2171 2.98125 13.7326 3.74696 14.1124 4.62722C14.4922 5.50748 14.6822 6.44803 14.6822 7.44887C14.6822 8.44971 14.4922 9.39026 14.1124 10.2705C13.7326 11.1508 13.2171 11.9165 12.5659 12.5676C11.9148 13.2188 11.1491 13.7343 10.2688 14.1141C9.38855 14.4939 8.448 14.6839 7.44716 14.6839Z" fill="#00BC71"/>
</svg>
