<svg width="81" height="81" viewBox="0 0 81 81" fill="none" xmlns="http://www.w3.org/2000/svg">
<g clip-path="url(#clip0_3454_1050)">
<path d="M19.8145 33.4181V26.0253L26.0149 19.4723L27.0725 18.5287C27.3836 18.2488 27.7983 18.0933 28.2131 18.0933H29.7062H54.2695V27.6739V54.6117C54.2695 58.4066 51.1797 61.5069 47.3744 61.5069H19.8145V33.4181Z" fill="white"/>
<g opacity="0.2">
<path d="M12.9297 36.674V28.545L19.7523 21.3388L20.9654 20.2501C21.2765 19.9701 21.6912 19.8146 22.106 19.8146H23.8064H50.8272V30.3491V60.6567C50.8272 64.462 47.7373 67.5519 43.932 67.5519H12.9297V36.674Z" fill="#0055FF"/>
</g>
<path d="M19.8145 33.4181V26.0253L26.0149 19.4723L27.0725 18.5287C27.3836 18.2488 27.7983 18.0933 28.2131 18.0933H29.7062H54.2695V27.6739V54.6117C54.2695 58.4066 51.1797 61.5069 47.3744 61.5069H19.8145V33.4181Z" fill="white"/>
<path d="M80.1394 81H0.860599C0.383641 81 0 80.606 0 80.1394V0.860599C0 0.383641 0.383641 0 0.860599 0H80.129C80.606 0 80.9896 0.383641 80.9896 0.860599V80.129C81 80.606 80.606 81 80.1394 81ZM1.7212 79.2684H79.2684V1.7212H1.7212V79.2684Z" fill="#0044CC"/>
<g opacity="0.2">
<path d="M35.3262 36.1243L50.8377 28.4412L66.3492 36.1243V47.8824C65.2605 53.7096 61.6107 58.7177 56.416 61.5794L50.8377 64.6278L44.4091 61.2995C39.287 58.6658 35.8653 53.5955 35.3365 47.872V36.1243H35.3262Z" fill="#0055FF"/>
</g>
<path d="M50.8373 65.4884C50.7025 65.4884 50.5678 65.4573 50.4433 65.3951L44.0148 62.0668C38.6127 59.2776 35.0459 54.0103 34.4756 47.955V36.1244C34.4756 35.7926 34.6622 35.5023 34.9525 35.3467L50.4641 27.6635C50.7025 27.5495 50.9825 27.5495 51.2313 27.6635L66.7429 35.3467C67.0332 35.4919 67.2198 35.7926 67.2198 36.1244V47.8824C66.0689 54.1244 62.2843 59.3398 56.8408 62.3364L51.2625 65.3847C51.1173 65.447 50.9825 65.4884 50.8373 65.4884ZM36.1864 36.6532V47.8721C36.6945 53.2534 39.9191 58.0126 44.7924 60.5322L50.8166 63.6428L55.9906 60.8122C60.9883 58.0645 64.4514 53.2845 65.4883 47.7062L65.4779 36.6428L50.827 29.3847L36.1864 36.6532Z" fill="#0044CC"/>
<path d="M29.7168 18.0933V17.2327H28.8562V18.0933H29.7168ZM19.8147 26.0253L19.1926 25.4343L18.9541 25.6728V26.0149H19.8147V26.0253ZM53.4195 25.9527C53.4195 26.4193 53.8032 26.8133 54.2801 26.8133C54.7571 26.8133 55.1407 26.4193 55.1407 25.9527H53.4195ZM54.2801 18.0933H55.1407C55.1407 17.6059 54.7571 17.2327 54.2801 17.2327V18.0933ZM29.7168 26.4919V27.3525C30.1937 27.3525 30.5774 26.9688 30.5774 26.4919H29.7168ZM23.9518 25.6313C23.4748 25.6313 23.0912 26.0253 23.0912 26.4919C23.0912 26.9792 23.4748 27.3525 23.9518 27.3525V25.6313ZM26.6476 20.0633C26.9794 19.7211 26.9587 19.182 26.6165 18.8605C26.2744 18.5287 25.7248 18.5495 25.393 18.8917L26.6476 20.0633ZM19.8147 61.5069H18.9541C18.9541 61.9734 19.3377 62.3675 19.8147 62.3675V61.5069ZM37.9184 62.3675C38.3953 62.3675 38.779 61.9734 38.779 61.5069C38.779 61.0195 38.3953 60.6463 37.9184 60.6463V62.3675ZM18.9541 26.0253V33.4181H20.6753V26.0253H18.9541ZM55.1511 25.9527V18.0933H53.4299V25.9527H55.1511ZM54.2801 17.2327H29.7168V18.9539H54.2801V17.2327ZM28.8562 18.0933V26.4815H30.5774V18.0933H28.8562ZM29.7168 25.6313H23.9518V27.3525H29.7168V25.6313ZM20.4472 26.6059L26.6476 20.0529L25.393 18.8813L19.1926 25.4343L20.4472 26.6059ZM20.6753 61.5069V33.4181H18.9541V61.5069H20.6753ZM19.8147 62.3675H37.908V60.6463H19.8147V62.3675Z" fill="#0044CC"/>
<path d="M50.8373 56.0115C56.0713 56.0115 60.3143 51.7686 60.3143 46.5346C60.3143 41.3006 56.0713 37.0576 50.8373 37.0576C45.6033 37.0576 41.3604 41.3006 41.3604 46.5346C41.3604 51.7686 45.6033 56.0115 50.8373 56.0115Z" fill="white"/>
<path d="M50.8376 56.8721C45.1348 56.8721 40.5 52.2373 40.5 46.5346C40.5 40.8318 45.1348 36.197 50.8376 36.197C56.5403 36.197 61.1751 40.8318 61.1751 46.5346C61.1751 52.2373 56.5403 56.8721 50.8376 56.8721ZM50.8376 37.9182C46.0887 37.9182 42.2212 41.7857 42.2212 46.5346C42.2212 51.2834 46.0887 55.1509 50.8376 55.1509C55.5864 55.1509 59.4539 51.2834 59.4539 46.5346C59.4539 41.7857 55.5864 37.9182 50.8376 37.9182Z" fill="#0044CC"/>
<path d="M31.0225 43.9424C35.0559 44.9274 37.3266 44.9792 41.36 43.9424V46.8871V49.8214C37.3266 51.1693 35.0559 51.1797 31.0225 49.8214V43.9424Z" fill="white"/>
<path d="M36.1759 51.6981C34.5066 51.6981 32.8476 51.3456 30.7428 50.6301C30.3902 50.5161 30.1621 50.1843 30.1621 49.811V43.932C30.1621 43.6728 30.2865 43.4135 30.4939 43.258C30.7013 43.0921 30.9709 43.0403 31.2301 43.1025C35.222 44.0771 37.358 44.0771 41.1529 43.1025C41.4121 43.0403 41.6817 43.0921 41.8994 43.258C42.1068 43.4239 42.2312 43.6728 42.2312 43.9423V49.8214C42.2312 50.1946 41.9928 50.5264 41.6402 50.6405C39.5146 51.3456 37.8349 51.6981 36.1759 51.6981ZM31.8833 49.1993C35.1494 50.2361 37.1921 50.2361 40.4997 49.1993V45.0414C37.3787 45.7465 35.1598 45.7361 31.8833 45.031V49.1993Z" fill="#0044CC"/>
<path d="M70.652 43.9424C66.6186 44.9274 64.3479 44.9792 60.3145 43.9424V46.8871V49.8214C64.3479 51.1693 66.6186 51.1797 70.652 49.8214V43.9424Z" fill="white"/>
<path d="M65.5094 51.6981C63.84 51.6981 62.1707 51.3456 60.0451 50.6405C59.6926 50.5264 59.4541 50.1946 59.4541 49.8214V43.9423C59.4541 43.6728 59.5785 43.4239 59.7859 43.258C59.9933 43.0921 60.2732 43.0403 60.5324 43.1025C64.3274 44.0771 66.4529 44.0771 70.4552 43.1025C70.7145 43.0403 70.9841 43.1025 71.1914 43.258C71.3988 43.4239 71.5232 43.6728 71.5232 43.932V49.811C71.5232 50.1843 71.2847 50.5057 70.9426 50.6301C68.8274 51.3456 67.1684 51.6981 65.5094 51.6981ZM61.1753 49.1993C64.4829 50.2361 66.5255 50.2361 69.7917 49.1993V45.031C66.5152 45.7361 64.2963 45.7465 61.1753 45.0414V49.1993Z" fill="#0044CC"/>
<g opacity="0.8">
<path d="M49.2303 43.9839V47.841H51.1589C51.4285 47.841 51.6773 47.7892 51.9054 47.7062C52.1336 47.6025 52.3409 47.4677 52.5172 47.2707C52.6935 47.0945 52.8283 46.8871 52.9319 46.6693C53.0356 46.4309 53.0875 46.1716 53.0875 45.9124C53.0875 45.6532 53.0356 45.394 52.9319 45.1763C52.8283 44.9378 52.6935 44.7304 52.5172 44.5541C52.3409 44.3779 52.1336 44.2431 51.9054 44.1394C51.6773 44.0357 51.4181 43.9839 51.1589 43.9839H49.2303ZM49.2303 51.6981H47.3018V42.0449H51.1693C51.5218 42.0449 51.864 42.0968 52.1958 42.1797C52.5276 42.2627 52.8283 42.4078 53.1082 42.5737C53.3985 42.7293 53.6578 42.9366 53.8859 43.1751C54.1243 43.4032 54.3213 43.6728 54.4872 43.9528C54.6531 44.2431 54.7879 44.5541 54.8813 44.8859C54.9746 45.2177 55.0264 45.5392 55.0264 45.9021C55.0264 46.4412 54.9227 46.9389 54.7257 47.4055C54.5287 47.8721 54.2488 48.2869 53.8962 48.629C53.5437 48.9919 53.1393 49.2615 52.6624 49.4585C52.1958 49.6659 51.6981 49.7696 51.1693 49.7696H49.2407V51.6981H49.2303Z" fill="#FF6B00"/>
</g>
</g>
<defs>
<clipPath id="clip0_3454_1050">
<rect width="81" height="81" fill="white"/>
</clipPath>
</defs>
</svg>
