<svg width="195" height="31" viewBox="0 0 195 31" fill="none" xmlns="http://www.w3.org/2000/svg">
<rect width="103" height="31" rx="7" fill="#0097EF"/>
<path d="M31.3008 21V8.27344H39.2812V9.94336H33.2344V13.793H38.8594V15.4453H33.2344V19.3301H39.3516V21H31.3008ZM43.377 15.3398V21H41.4961V11.4551H43.3066V13.0195H43.4121C43.8691 12 44.8008 11.332 46.2246 11.332C48.1934 11.332 49.4766 12.5625 49.4766 14.9355V21H47.6133V15.1641C47.6133 13.7754 46.8574 12.9492 45.5918 12.9492C44.3086 12.9492 43.377 13.8105 43.377 15.3398ZM56.2266 11.4551V12.9492H54.2754V18.1875C54.2754 19.2598 54.8203 19.4531 55.418 19.4707C55.6816 19.4707 56.1035 19.4355 56.3672 19.418V21.0527C56.1035 21.0879 55.6992 21.123 55.1895 21.123C53.7129 21.123 52.3945 20.3145 52.4121 18.5742V12.9492H51.0059V11.4551H52.4121V9.16992H54.2754V11.4551H56.2266ZM62.0625 21.1934C59.25 21.1934 57.5273 19.2598 57.5273 16.2891C57.5273 13.3535 59.2852 11.332 61.9395 11.332C64.1191 11.332 66.1758 12.6855 66.1758 16.1309V16.7988H59.3906C59.4434 18.6094 60.5068 19.6465 62.0801 19.6465C63.1523 19.6465 63.8379 19.1895 64.1543 18.6094H66.0527C65.6309 20.1562 64.1543 21.1934 62.0625 21.1934ZM59.4082 15.3926H64.3301C64.3301 13.9336 63.3984 12.8789 61.957 12.8789C60.4541 12.8789 59.4785 14.0391 59.4082 15.3926ZM68.0391 21V11.4551H69.8496V12.9668H69.9551C70.3066 11.9473 71.2559 11.3145 72.3809 11.3145C72.6094 11.3145 72.9785 11.332 73.1719 11.3496V13.1426C73.0137 13.1074 72.5742 13.0371 72.1875 13.0371C70.8867 13.0371 69.9199 13.9336 69.9199 15.1816V21H68.0391Z" fill="white"/>
</svg>
