<svg width="23" height="15" viewBox="0 0 23 15" fill="none" xmlns="http://www.w3.org/2000/svg">
<path d="M7.53447 11.3472C7.85922 11.3472 8.13271 11.2374 8.35493 11.0177C8.57715 10.798 8.68826 10.5258 8.68826 10.201C8.68826 9.87625 8.57842 9.59998 8.35873 9.3722C8.13904 9.14442 7.86682 9.03053 7.54207 9.03053C7.21731 9.03053 6.94382 9.14442 6.7216 9.3722C6.49938 9.59998 6.38827 9.87625 6.38827 10.201C6.38827 10.5258 6.49811 10.798 6.7178 11.0177C6.93749 11.2374 7.20971 11.3472 7.53447 11.3472ZM6.48827 8.1472H8.58827V3.76387H6.48827V8.1472ZM7.53827 14.6805C6.52715 14.6805 5.58278 14.4912 4.70515 14.1125C3.8275 13.7338 3.06408 13.2198 2.41487 12.5706C1.76565 11.9214 1.2517 11.158 0.872998 10.2803C0.494287 9.40268 0.304932 8.45831 0.304932 7.4472C0.304932 6.43609 0.494287 5.49172 0.872998 4.61408C1.2517 3.73644 1.76565 2.97301 2.41487 2.3238C3.06408 1.67459 3.8275 1.16063 4.70515 0.781934C5.58278 0.403222 6.52715 0.213867 7.53827 0.213867C8.54938 0.213867 9.49375 0.403222 10.3714 0.781934C11.249 1.16063 12.0125 1.67459 12.6617 2.3238C13.3109 2.97301 13.8248 3.73644 14.2035 4.61408C14.5822 5.49172 14.7716 6.43609 14.7716 7.4472C14.7716 8.45831 14.5822 9.40268 14.2035 10.2803C13.8248 11.158 13.3109 11.9214 12.6617 12.5706C12.0125 13.2198 11.249 13.7338 10.3714 14.1125C9.49375 14.4912 8.54938 14.6805 7.53827 14.6805Z" fill="#E53B4C"/>
</svg>
