<svg width="81" height="94" viewBox="0 0 81 94" fill="none" xmlns="http://www.w3.org/2000/svg">
<g clip-path="url(#clip0_3454_964)">
<path d="M40.5053 93.2597C40.3571 93.2597 40.1983 93.2174 40.0606 93.1433L0.444648 70.2651C0.16939 70.1063 0 69.8204 0 69.5028V23.757C0 23.4394 0.16939 23.1536 0.444648 22.9948L40.0606 0.1166C40.3359 -0.0422031 40.6641 -0.0422031 40.9394 0.1166L80.5659 22.9948C80.8412 23.1536 81.0106 23.4394 81.0106 23.757V69.5028C81.0106 69.8204 80.8412 70.1063 80.5659 70.2651L40.9394 93.1433C40.8017 93.2174 40.6535 93.2597 40.5053 93.2597ZM1.75742 68.9947L40.5053 91.3647L79.2426 68.9947V24.2652L40.5053 1.89519L1.75742 24.2652V68.9947Z" fill="#0044CC"/>
<g opacity="0.2">
<path fill-rule="evenodd" clip-rule="evenodd" d="M16.9924 32.6499C16.9924 28.7116 20.1897 25.5143 24.128 25.5143C28.0663 25.5143 31.2635 28.7116 31.2635 32.6499V33.7297C32.1528 33.9838 32.788 34.7567 32.788 35.6671C32.788 36.7893 31.814 37.6998 30.6177 37.6998C30.5965 37.6998 30.5754 37.6998 30.5648 37.6998C29.4108 40.103 26.9653 41.7652 24.128 41.7652C21.2907 41.7652 18.8345 40.103 17.6912 37.6998C17.67 37.6998 17.6488 37.6998 17.6382 37.6998C16.4419 37.6998 15.4785 36.7893 15.4785 35.6671C15.4785 34.7567 16.1243 33.9838 17.003 33.7297V32.6499H16.9924Z" fill="#0055FF"/>
</g>
<path d="M24.1276 42.6333C21.2268 42.6333 18.5378 41.0347 17.1297 38.5256C15.6687 38.2821 14.5889 37.0858 14.5889 35.6671C14.5889 34.5978 15.1817 33.645 16.1134 33.1369V32.6499C16.1134 28.2351 19.7129 24.6356 24.1276 24.6356C28.5423 24.6356 32.1419 28.2351 32.1419 32.6499V33.1369C33.0735 33.645 33.6664 34.5978 33.6664 35.6671C33.6664 37.1069 32.5653 38.3138 31.1149 38.5362C29.7069 41.0452 27.0178 42.6333 24.1276 42.6333ZM24.1276 26.393C20.6763 26.393 17.8708 29.1986 17.8708 32.6499V34.3861L17.2356 34.5661C16.7062 34.7249 16.3463 35.1589 16.3463 35.6671C16.3463 36.3023 16.918 36.8211 17.6273 36.8211H18.1778L18.4742 37.3187C19.5118 39.4784 21.7244 40.8758 24.117 40.8758C26.5097 40.8758 28.7329 39.4784 29.7598 37.3187L30.0033 36.8211H30.5538C31.3161 36.8211 31.8984 36.3023 31.8984 35.6671C31.8984 35.1695 31.5384 34.7249 31.0091 34.5661L30.3739 34.3861V32.6499C30.3739 29.1986 27.5683 26.393 24.1276 26.393Z" fill="#0044CC"/>
<g opacity="0.2">
<path d="M11.2115 50.3722L11.1374 51.4944L10.5869 61.2555H38.7374V60.1651L38.1974 51.5262L38.1762 51.1874C37.8375 45.6717 32.2794 42.0298 27.0918 43.9248L26.8166 44.0201C25.0803 44.6553 23.1853 44.6236 21.4702 43.9354C16.7485 42.0616 11.5715 45.3117 11.2115 50.3722Z" fill="#0055FF"/>
</g>
<path d="M38.7371 62.1342H10.5866C10.3431 62.1342 10.1102 62.0389 9.95141 61.859C9.78202 61.679 9.69733 61.4461 9.70792 61.2026L10.3325 50.3087C10.5231 47.6091 11.9523 45.2376 14.2391 43.7978C16.5364 42.358 19.2784 42.1145 21.7981 43.1202C23.312 43.7237 24.9847 43.7449 26.5198 43.1944L26.7951 43.0885C29.5371 42.0933 32.512 42.4321 34.947 44.0307C37.3819 45.6293 38.8853 48.2125 39.0653 51.1239L39.6264 61.2449C39.6158 61.7425 39.2241 62.1342 38.7371 62.1342ZM11.5183 60.3768H37.8584V60.1651L37.2973 51.2404C37.149 48.9007 35.9421 46.8151 33.973 45.5235C32.0038 44.2319 29.6006 43.9566 27.388 44.7612L27.1127 44.8671C25.1753 45.5764 23.0579 45.534 21.1417 44.7718C19.162 43.9778 16.9811 44.1683 15.1707 45.3117C13.3604 46.4445 12.2382 48.3184 12.0794 50.4569L12.0053 51.5791L11.5183 60.3768Z" fill="#0044CC"/>
<path fill-rule="evenodd" clip-rule="evenodd" d="M48.6573 32.6499C48.6573 28.7116 51.8545 25.5143 55.7929 25.5143C59.7312 25.5143 62.9284 28.7116 62.9284 32.6499V33.7297C63.8177 33.9838 64.4529 34.7567 64.4529 35.6671C64.4529 36.7893 63.4789 37.6998 62.2826 37.6998C62.2614 37.6998 62.2508 37.6998 62.2297 37.6998C61.0863 40.103 58.6301 41.7652 55.7929 41.7652C52.9556 41.7652 50.4994 40.103 49.356 37.6998C49.3349 37.6998 49.3243 37.6998 49.3031 37.6998C48.1068 37.6998 47.1328 36.7893 47.1328 35.6671C47.1328 34.7567 47.7786 33.9838 48.6573 33.7297V32.6499Z" fill="white"/>
<path d="M55.7927 42.6333C52.8919 42.6333 50.2028 41.0347 48.7948 38.5256C47.3338 38.2821 46.2539 37.0858 46.2539 35.6671C46.2539 34.5978 46.8468 33.645 47.7784 33.1369V32.6499C47.7784 28.2351 51.3779 24.6356 55.7927 24.6356C60.2074 24.6356 63.8069 28.2351 63.8069 32.6499V33.1369C64.7386 33.645 65.3314 34.5978 65.3314 35.6671C65.3314 37.1069 64.2304 38.3138 62.78 38.5362C61.3825 41.0452 58.6935 42.6333 55.7927 42.6333ZM55.7927 26.393C52.3413 26.393 49.5358 29.1986 49.5358 32.6499V34.3861L48.9006 34.5661C48.3607 34.7249 48.0113 35.1589 48.0113 35.6671C48.0113 36.3023 48.5936 36.8211 49.2923 36.8211H49.8429L50.1393 37.3187C51.1768 39.4784 53.3894 40.8758 55.7821 40.8758C58.1747 40.8758 60.3979 39.4784 61.4249 37.3187L61.6684 36.8211H62.2189C62.9811 36.8211 63.5634 36.3023 63.5634 35.6671C63.5634 35.1695 63.2035 34.7249 62.6741 34.5661L62.0389 34.3861V32.6499C62.0495 29.1986 59.244 26.393 55.7927 26.393Z" fill="#0044CC"/>
<path d="M42.2624 62.1342C42.2413 62.1342 42.2307 62.1342 42.2095 62.1342C41.7225 62.113 41.352 61.6896 41.3837 61.2131L42.0084 50.3193C42.1989 47.6196 43.6281 45.2482 45.9149 43.8084C48.2017 42.3685 50.9542 42.1251 53.4739 43.1308C54.9878 43.7343 56.6606 43.7554 58.1957 43.2049L58.4709 43.099C61.2129 42.1039 64.1878 42.4427 66.6228 44.0413C69.0578 45.6399 70.5611 48.2231 70.7411 51.1345L71.3022 60.652C71.3339 61.139 70.9634 61.5519 70.4764 61.5837C70.0106 61.626 69.5765 61.2449 69.5448 60.7579L68.9837 51.2403C68.8354 48.9006 67.6285 46.815 65.6594 45.5234C63.6902 44.2318 61.287 43.9566 59.0744 44.7612L58.7991 44.867C56.8617 45.5764 54.7443 45.534 52.8281 44.7718C50.8484 43.9778 48.6675 44.1683 46.8571 45.3117C45.0468 46.4445 43.9246 48.3184 43.7658 50.4569L43.6917 51.5791L43.1517 61.3084C43.1094 61.7742 42.7283 62.1342 42.2624 62.1342Z" fill="#0044CC"/>
<path d="M59.7942 55.1151C59.7942 55.5174 59.7201 55.9092 59.5613 56.2585C59.4025 56.6291 59.1908 56.9255 58.9261 57.2113C58.6614 57.476 58.3438 57.6877 57.9945 57.8466C57.6345 58.0054 57.2534 58.0795 56.8405 58.0795H52.8916V56.1103H56.8405C56.9781 56.1103 57.1052 56.0785 57.2216 56.0362C57.3381 55.9833 57.4439 55.9092 57.5286 55.8245C57.6239 55.7398 57.6874 55.6339 57.7404 55.5069C57.7933 55.3798 57.8145 55.2634 57.8145 55.1151C57.8145 54.9669 57.7933 54.8505 57.7404 54.7234C57.6874 54.5964 57.6239 54.5117 57.5286 54.427C57.4439 54.3211 57.3381 54.247 57.2216 54.1941C57.1052 54.1623 56.9781 54.12 56.8405 54.12H54.1514V52.1508H56.8405C56.9781 52.1508 57.1052 52.1297 57.2216 52.0767C57.3381 52.0238 57.4439 51.9497 57.5286 51.865C57.6239 51.7803 57.6874 51.6744 57.7404 51.5474C57.7933 51.4203 57.8145 51.3039 57.8145 51.1557C57.8145 51.018 57.7933 50.891 57.7404 50.764C57.6874 50.6369 57.6239 50.531 57.5286 50.4463C57.4439 50.3617 57.3381 50.2875 57.2216 50.2346C57.1052 50.1817 56.9781 50.1605 56.8405 50.1605H52.8916V48.1913H56.8405C57.2534 48.1913 57.6345 48.2655 57.9945 48.4243C58.3544 48.5831 58.6614 48.7948 58.9261 49.0595C59.1908 49.3453 59.4131 49.6417 59.5613 50.0123C59.7201 50.3617 59.7942 50.7534 59.7942 51.1557C59.7942 51.505 59.7307 51.8544 59.5931 52.2143C59.4555 52.5531 59.2755 52.8601 59.032 53.1248C59.2755 53.3895 59.466 53.7071 59.5931 54.0353C59.7307 54.4058 59.7942 54.7446 59.7942 55.1151Z" fill="#0044CC"/>
<g opacity="0.8">
<path d="M53.4423 67.4806C53.7811 67.1418 53.7811 66.5807 53.4423 66.2525L47.8418 60.6415C47.4925 60.3027 46.942 60.3027 46.5926 60.6415C46.2538 60.9908 46.2538 61.5519 46.5926 61.8907L51.5684 66.8665L46.5926 71.8424C46.2538 72.1811 46.2538 72.7422 46.5926 73.0916C46.942 73.4304 47.4925 73.4304 47.8418 73.0916L53.4423 67.4806ZM10.5867 65.9878C10.0997 65.9878 9.70801 66.3795 9.70801 66.8665C9.70801 67.3535 10.0997 67.7453 10.5867 67.7453V65.9878ZM52.8177 65.9878H10.5867V67.7453H52.8177V65.9878Z" fill="#FF6B00"/>
</g>
</g>
<defs>
<clipPath id="clip0_3454_964">
<rect width="81" height="93.2596" fill="white"/>
</clipPath>
</defs>
</svg>
