<svg width="81" height="94" viewBox="0 0 81 94" fill="none" xmlns="http://www.w3.org/2000/svg">
<g clip-path="url(#clip0_3454_1125)">
<path d="M15.8701 27.2717V54.8399C15.8701 57.7407 18.231 60.1227 21.153 60.1227H36.0698H58.1011V32.8404H37.6261L34.0795 28.5421C33.4125 27.7375 32.4174 27.2611 31.3693 27.2611H15.8701V27.2717Z" fill="white"/>
<path d="M58.1009 61.0014H21.1528C17.7544 61.0014 14.9912 58.2383 14.9912 54.8399V27.2717C14.9912 26.7847 15.3829 26.393 15.8699 26.393H31.3691C32.6818 26.393 33.9205 26.9753 34.7569 27.9916L38.0388 31.9617H58.0903C58.5773 31.9617 58.969 32.3534 58.969 32.8404V60.1227C58.9796 60.6097 58.5879 61.0014 58.1009 61.0014ZM16.7486 28.1504V54.8399C16.7486 57.2643 18.7178 59.244 21.1528 59.244H57.2222V33.7191H37.6365C37.3718 33.7191 37.1283 33.6026 36.9589 33.4015L33.4123 29.1138C32.9042 28.4998 32.1631 28.1504 31.3797 28.1504H16.7486Z" fill="#0044CC"/>
<path d="M29.0608 33.1368H21.4383C20.9513 33.1368 20.5596 32.7451 20.5596 32.2581C20.5596 31.7711 20.9513 31.3794 21.4383 31.3794H29.0608C29.5478 31.3794 29.9395 31.7711 29.9395 32.2581C29.9395 32.7451 29.5478 33.1368 29.0608 33.1368Z" fill="#0044CC"/>
<g opacity="0.2">
<path d="M22.9099 39.5948H47.5349C48.5089 39.5948 49.2923 40.3782 49.2923 41.3522V58.9476C49.2923 59.9216 48.5089 60.705 47.5349 60.705H22.9099C21.9359 60.705 21.1524 59.9216 21.1524 58.9476V41.3522C21.1419 40.3782 21.9359 39.5948 22.9099 39.5948Z" fill="#0055FF"/>
</g>
<path d="M40.5053 93.2597C40.3571 93.2597 40.1983 93.2174 40.0606 93.1433L0.444648 70.2651C0.16939 70.1063 0 69.8204 0 69.5028V23.757C0 23.4394 0.16939 23.1536 0.444648 22.9948L40.0606 0.1166C40.3359 -0.0422031 40.6641 -0.0422031 40.9394 0.1166L80.5659 22.9948C80.8412 23.1536 81.0106 23.4394 81.0106 23.757V69.5028C81.0106 69.8204 80.8412 70.1063 80.5659 70.2651L40.9394 93.1433C40.8017 93.2174 40.6535 93.2597 40.5053 93.2597ZM1.75742 68.9947L40.5053 91.3647L79.2426 68.9947V24.2652L40.5053 1.89519L1.75742 24.2652V68.9947Z" fill="#0044CC"/>
<path fill-rule="evenodd" clip-rule="evenodd" d="M48.0114 38.1444L53.7495 38.2715L53.6966 40.4523C55.5704 40.7805 57.3173 41.4475 58.8841 42.3791L61.1497 40.23L65.1304 44.3695L63.1718 46.2328C64.5163 48.0008 65.4797 50.0758 65.935 52.3308L68.3488 52.3837L68.2217 58.1218L65.9773 58.0689C65.6174 60.0063 64.8869 61.8166 63.8493 63.4152L65.9773 65.6279L61.8167 69.5874L59.8793 67.5653C57.889 68.9733 55.5493 69.9261 53.019 70.2543L52.9661 72.6787L47.228 72.5411L47.2915 69.905C45.0894 69.3439 43.0885 68.3063 41.3946 66.9089L39.7643 68.4546L35.7836 64.3151L37.7316 62.4624C36.8846 60.8956 36.3024 59.1911 36.0483 57.3595L33.8145 57.3066L33.9415 51.5685L36.3447 51.6215C36.8741 49.5253 37.8375 47.6091 39.1396 45.9575L37.2764 44.0201L41.437 40.0712L43.4908 42.2098C44.8565 41.4263 46.3599 40.8441 47.9585 40.5159L48.0114 38.1444Z" fill="white"/>
<path d="M53.7491 38.2715L54.6278 38.2926C54.6384 37.8056 54.2573 37.4033 53.7703 37.3928L53.7491 38.2715ZM48.0111 38.1444L48.0322 37.2657C47.5452 37.2551 47.1429 37.6363 47.1324 38.1233L48.0111 38.1444ZM53.6962 40.4629L52.8175 40.4418C52.8069 40.8758 53.1139 41.257 53.548 41.3311L53.6962 40.4629ZM58.8732 42.3898L58.4179 43.1414C58.7567 43.3426 59.1908 43.3002 59.4766 43.025L58.8732 42.3898ZM61.1493 40.23L61.7846 39.616C61.4458 39.2666 60.8953 39.256 60.5459 39.5842L61.1493 40.23ZM65.1194 44.3695L65.7229 45.0047C65.8923 44.8459 65.9875 44.6236 65.9981 44.3801C65.9981 44.1472 65.9134 43.9248 65.7546 43.7555L65.1194 44.3695ZM63.1608 46.2328L62.5574 45.5976C62.2292 45.9046 62.1869 46.4128 62.4621 46.7727L63.1608 46.2328ZM65.924 52.3308L65.0665 52.5108C65.1512 52.9025 65.5005 53.1989 65.9134 53.2095L65.924 52.3308ZM68.3378 52.3837L69.2165 52.4049C69.2271 51.9073 68.846 51.505 68.359 51.505L68.3378 52.3837ZM68.2108 58.1218L68.1896 59.0005C68.6766 59.0005 69.0789 58.6088 69.0895 58.143L68.2108 58.1218ZM65.9664 58.0689L65.9875 57.1902C65.5535 57.169 65.1829 57.476 65.0982 57.9101L65.9664 58.0689ZM63.849 63.4152L63.1079 62.9388C62.8856 63.2776 62.9279 63.7328 63.2138 64.0293L63.849 63.4152ZM65.977 65.6279L66.5804 66.2631C66.7498 66.1043 66.8451 65.8926 66.8557 65.6491C66.8557 65.4162 66.771 65.1938 66.6122 65.0139L65.977 65.6279ZM61.8163 69.5874L61.1811 70.1908C61.5199 70.5402 62.0704 70.5614 62.4198 70.2226L61.8163 69.5874ZM59.8789 67.5653L60.5141 66.9513C60.2071 66.6336 59.7201 66.6019 59.3708 66.8454L59.8789 67.5653ZM53.0186 70.2649L52.9022 69.3862C52.4681 69.4392 52.1399 69.8097 52.1399 70.2438L53.0186 70.2649ZM52.9551 72.6893L52.934 73.568C53.4209 73.568 53.8232 73.1763 53.8338 72.7105L52.9551 72.6893ZM47.2276 72.5517L46.3489 72.5305C46.3489 72.7634 46.4336 72.9858 46.5924 73.1657C46.7512 73.3245 46.9736 73.4304 47.2065 73.4304L47.2276 72.5517ZM47.2806 69.905L48.1593 69.9262C48.1699 69.5239 47.8946 69.1533 47.5029 69.0686L47.2806 69.905ZM41.3837 66.9195L41.9448 66.2313C41.606 65.9455 41.0979 65.9667 40.7802 66.2843L41.3837 66.9195ZM39.7533 68.4652L39.1181 69.0792C39.4569 69.4286 40.0074 69.4286 40.3568 69.1004L39.7533 68.4652ZM35.7727 64.3257L35.1692 63.6905C34.9998 63.8493 34.9045 64.0822 34.894 64.3045C34.894 64.5375 34.9787 64.7598 35.1375 64.9397L35.7727 64.3257ZM37.7206 62.4836L38.3241 63.1188C38.6099 62.8541 38.6841 62.4201 38.4935 62.0601L37.7206 62.4836ZM36.0373 57.3807L36.9055 57.2537C36.8419 56.8302 36.482 56.5126 36.0585 56.502L36.0373 57.3807ZM33.8035 57.3278L32.9248 57.3066C32.9248 57.5395 33.0095 57.7619 33.1683 57.9418C33.3271 58.1006 33.5494 58.2065 33.7823 58.2065L33.8035 57.3278ZM33.9306 51.5897L33.9517 50.711C33.4647 50.711 33.0624 51.0816 33.0518 51.5686L33.9306 51.5897ZM36.3338 51.6427L36.3126 52.5214C36.7255 52.5425 37.0854 52.2567 37.1807 51.8544L36.3338 51.6427ZM39.1287 45.9893L39.8168 46.5398C40.0921 46.1904 40.0709 45.7034 39.7639 45.3858L39.1287 45.9893ZM37.276 44.0519L36.6725 43.4167C36.5032 43.5755 36.4079 43.7978 36.3973 44.0307C36.3973 44.2636 36.482 44.4965 36.6408 44.6553L37.276 44.0519ZM41.4366 40.103L42.0718 39.489C41.7331 39.1396 41.1825 39.129 40.8332 39.4572L41.4366 40.103ZM43.4905 42.2415L42.8553 42.8556C43.1305 43.1414 43.5752 43.2049 43.9245 43.0038L43.4905 42.2415ZM47.9581 40.5476L48.1381 41.4052C48.5404 41.3205 48.8263 40.9711 48.8368 40.5688L47.9581 40.5476ZM53.7597 37.3928L48.0217 37.2657L47.9793 39.0231L53.7174 39.1502L53.7597 37.3928ZM54.5749 40.4841L54.6278 38.3032L52.8704 38.2609L52.8175 40.4418L54.5749 40.4841ZM59.3284 41.6381C57.6769 40.6429 55.8242 39.9442 53.8444 39.5948L53.5374 41.3311C55.2948 41.6381 56.9464 42.2627 58.4179 43.152L59.3284 41.6381ZM60.5353 39.5948L58.2697 41.7545L59.4766 43.025L61.7422 40.8652L60.5353 39.5948ZM65.7546 43.766L61.7846 39.6266L60.5141 40.8441L64.4842 44.9835L65.7546 43.766ZM63.7643 46.868L65.7229 45.0047L64.5054 43.7343L62.5468 45.5976L63.7643 46.868ZM66.7921 52.1508C66.3051 49.7582 65.2888 47.5667 63.8702 45.6929L62.4621 46.7621C63.7325 48.4243 64.6324 50.3828 65.0559 52.5108L66.7921 52.1508ZM65.9028 53.2095L68.3166 53.2625L68.359 51.505L65.9452 51.4521L65.9028 53.2095ZM67.4591 52.3626L67.3321 58.0795L69.0895 58.1324L69.2165 52.3943L67.4591 52.3626ZM68.2319 57.2431L65.9875 57.1902L65.9452 58.9476L68.1896 59.0005L68.2319 57.2431ZM64.5901 63.8916C65.6805 62.1978 66.4534 60.2815 66.8345 58.2277L65.1088 57.9101C64.7701 59.7416 64.0819 61.4249 63.1079 62.9388L64.5901 63.8916ZM66.6122 65.0139L64.4842 62.8012L63.2138 64.0293L65.3417 66.2419L66.6122 65.0139ZM62.4198 70.2226L66.5804 66.2631L65.3629 64.9927L61.2023 68.931L62.4198 70.2226ZM59.2437 68.1793L61.1811 70.1802L62.4515 68.9628L60.5141 66.9407L59.2437 68.1793ZM53.1245 71.1225C55.803 70.7837 58.2803 69.7885 60.3871 68.2852L59.3708 66.8454C57.4969 68.1793 55.2948 69.0792 52.9022 69.3756L53.1245 71.1225ZM53.8444 72.7105L53.8974 70.2861L52.1399 70.2543L52.087 72.6787L53.8444 72.7105ZM47.2065 73.4304L52.9445 73.568L52.9869 71.8106L47.2488 71.673L47.2065 73.4304ZM46.4125 69.8944L46.3489 72.5305L48.1063 72.5623L48.1699 69.9262L46.4125 69.8944ZM40.8226 67.5865C42.6118 69.0686 44.7397 70.1697 47.0688 70.7519L47.5029 69.058C45.4279 68.5287 43.5434 67.5441 41.9448 66.2208L40.8226 67.5865ZM40.3568 69.1004L41.9871 67.5547L40.7697 66.2843L39.1393 67.83L40.3568 69.1004ZM35.1375 64.9503L39.1075 69.0898L40.3779 67.8617L36.4079 63.7223L35.1375 64.9503ZM37.1172 61.8484L35.1692 63.7011L36.3867 64.9715L38.3347 63.1188L37.1172 61.8484ZM35.1586 57.5078C35.4233 59.4452 36.0479 61.2555 36.9478 62.9071L38.4935 62.0601C37.6889 60.5991 37.149 58.9794 36.9055 57.2537L35.1586 57.5078ZM36.0585 56.502L33.8247 56.4491L33.7823 58.2065L36.0162 58.2594L36.0585 56.502ZM34.6822 57.349L34.8093 51.6109L33.0518 51.5791L32.9248 57.3172L34.6822 57.349ZM33.9094 52.4684L36.3126 52.5214L36.3549 50.764L33.9517 50.711L33.9094 52.4684ZM38.4406 45.4388C37.0643 47.175 36.0373 49.2183 35.4868 51.4309L37.1913 51.8544C37.6889 49.8852 38.5994 48.0749 39.8168 46.5292L38.4406 45.4388ZM36.6408 44.6553L38.5041 46.5927L39.7745 45.3752L37.9112 43.4379L36.6408 44.6553ZM40.8226 39.4678L36.662 43.4167L37.8689 44.6871L42.0295 40.7382L40.8226 39.4678ZM44.1257 41.6275L42.0718 39.489L40.8014 40.7064L42.8553 42.845L44.1257 41.6275ZM47.7782 39.6795C46.0948 40.0289 44.5068 40.6429 43.0564 41.4687L43.9351 42.9932C45.2267 42.2521 46.6454 41.7122 48.1381 41.3946L47.7782 39.6795ZM47.1324 38.1233L47.0794 40.5265L48.8368 40.5688L48.8898 38.1656L47.1324 38.1233Z" fill="#0044CC"/>
<g opacity="0.8">
<path d="M49.5363 53.0189L47.7048 58.9476H45.7568L48.52 51.4309H49.7481L49.5363 53.0189ZM51.0503 58.9476L49.2187 53.0189L48.9858 51.4309H50.2351L53.0088 58.9476H51.0503ZM50.9762 56.1526V57.5395H47.1225V56.1526H50.9762ZM55.4756 51.4309V58.9476H53.6652V51.4309H55.4756Z" fill="#FF6B00"/>
</g>
</g>
<defs>
<clipPath id="clip0_3454_1125">
<rect width="81" height="93.2596" fill="white"/>
</clipPath>
</defs>
</svg>
