<svg width="82" height="82" viewBox="0 0 82 82" fill="none" xmlns="http://www.w3.org/2000/svg">
<g opacity="0.35">
<path d="M32.4104 49.03C37.9167 49.03 42.3804 42.3322 42.3804 34.07C42.3804 25.8078 37.9167 19.11 32.4104 19.11C26.9042 19.11 22.4404 25.8078 22.4404 34.07C22.4404 42.3322 26.9042 49.03 32.4104 49.03Z" fill="#FFBB88"/>
</g>
<path d="M41.5498 51.47C35.8798 51.47 30.6298 48.25 28.0298 43.23C25.3198 42.99 23.2598 40.88 23.2598 38.32C23.2598 36.33 24.4698 34.59 26.3398 33.81V32.16C26.3398 23.78 33.1598 16.96 41.5398 16.96C49.9198 16.96 56.7398 23.78 56.7398 32.16V33.81C58.6098 34.59 59.8198 36.34 59.8198 38.32C59.8198 40.91 57.7198 43.04 55.0498 43.24C52.4698 48.25 47.2198 51.47 41.5498 51.47ZM41.5498 18.62C34.0798 18.62 28.0098 24.69 28.0098 32.16V35.02L27.4098 35.19C25.9298 35.62 24.9298 36.87 24.9298 38.32C24.9298 40.13 26.5098 41.6 28.4598 41.6H28.9898L29.3198 42.07C31.5498 46.77 36.3598 49.81 41.5598 49.81C46.7598 49.81 51.5698 46.77 53.7998 42.07L54.0298 41.6H54.5598C56.6098 41.6 58.1898 40.13 58.1898 38.33C58.1898 36.89 57.1898 35.63 55.7098 35.2L55.1098 35.03V32.17C55.0898 24.69 49.0198 18.62 41.5498 18.62Z" fill="#0044CC"/>
<g opacity="0.15">
<path fill-rule="evenodd" clip-rule="evenodd" d="M75.1201 61.4C68.1201 67.45 59.0001 71.12 49.0301 71.12C27.0001 71.11 9.14008 53.25 9.14008 31.23C9.14008 23.86 11.1401 16.95 14.6201 11.03C6.18008 18.34 0.830078 29.14 0.830078 41.2C0.830078 63.23 18.6901 81.09 40.7201 81.09C55.3801 81.09 68.1901 73.18 75.1201 61.4Z" fill="#0055FF"/>
</g>
<path d="M14.1302 70.64C14.0902 70.64 14.0602 70.64 14.0202 70.63C13.5602 70.57 13.2402 70.15 13.3002 69.7L14.1302 63.3C14.6902 59.97 16.5202 57.12 19.3102 55.26C22.0902 53.4 25.4202 52.78 28.6902 53.52L37.4102 55.51C39.7002 56.03 42.1102 56.03 44.4002 55.52L53.2502 53.52C56.5502 52.77 59.9202 53.38 62.7602 55.24C65.5902 57.09 67.5002 59.94 68.1302 63.26L68.9702 68.48C69.0402 68.93 68.7302 69.36 68.2802 69.43C67.8202 69.51 67.4002 69.19 67.3302 68.74L66.5002 63.54C65.9502 60.69 64.3002 58.22 61.8502 56.62C59.4002 55.02 56.4802 54.49 53.6202 55.13L44.7702 57.13C42.2402 57.7 39.5702 57.7 37.0402 57.12L28.3202 55.13C25.5002 54.49 22.6402 55.02 20.2402 56.63C17.8402 58.24 16.2602 60.69 15.7802 63.54L14.9502 69.91C14.9002 70.33 14.5402 70.64 14.1302 70.64Z" fill="#0044CC"/>
<path d="M40.72 81.44C18.27 81.44 0 63.17 0 40.72C0 18.27 18.27 0 40.72 0C63.17 0 81.44 18.27 81.44 40.72C81.44 63.17 63.17 81.44 40.72 81.44ZM40.72 1.66C19.18 1.66 1.66 19.18 1.66 40.72C1.66 62.26 19.18 79.78 40.72 79.78C62.26 79.78 79.78 62.26 79.78 40.72C79.78 19.18 62.26 1.66 40.72 1.66Z" fill="#0044CC"/>
</svg>
