<svg width="195" height="31" viewBox="0 0 195 31" fill="none" xmlns="http://www.w3.org/2000/svg">
<rect width="67" height="31" rx="7" fill="#0097EF"/>
<path d="M18.668 9.94336V8.27344H28.5293V9.94336H24.5742V21H22.6406V9.94336H18.668ZM28.5996 18.3105C28.5996 16.1309 30.4453 15.5684 32.168 15.4453C32.8008 15.4014 34.2334 15.3223 34.6816 15.3047L34.6641 14.5488C34.6641 13.4766 34.0137 12.8438 32.7305 12.8438C31.623 12.8438 30.9551 13.3535 30.7617 14.0566H28.8984C29.0742 12.4746 30.5508 11.332 32.8008 11.332C34.3125 11.332 36.5449 11.8945 36.5449 14.6543V21H34.7168V19.6992H34.6465C34.2773 20.4199 33.3984 21.2109 31.8164 21.2109C30.0059 21.2109 28.5996 20.1738 28.5996 18.3105ZM30.4277 18.3281C30.4277 19.2422 31.1836 19.7168 32.2383 19.7168C33.7676 19.7168 34.6816 18.6973 34.6816 17.5547V16.6758L32.4316 16.834C31.2012 16.9219 30.4277 17.3789 30.4277 18.3281ZM38.9707 21V8.27344H40.834V13.002H40.9395C41.291 12.4043 41.9238 11.332 43.6816 11.332C45.9844 11.332 47.707 13.1426 47.707 16.2539C47.707 19.3301 46.0195 21.1934 43.6992 21.1934C41.959 21.1934 41.291 20.1387 40.9395 19.5059H40.7988V21H38.9707ZM40.7988 16.2188C40.7988 18.2227 41.6953 19.5938 43.2773 19.5938C44.9297 19.5938 45.791 18.1348 45.791 16.2188C45.791 14.3379 44.9473 12.9316 43.2773 12.9316C41.6777 12.9316 40.7988 14.2324 40.7988 16.2188Z" fill="white"/>
</svg>
