<svg width="81" height="94" viewBox="0 0 81 94" fill="none" xmlns="http://www.w3.org/2000/svg">
<g clip-path="url(#clip0_3454_989)">
<path d="M40.5053 93.2597C40.3571 93.2597 40.1983 93.2174 40.0606 93.1433L0.444648 70.2651C0.16939 70.1063 0 69.8204 0 69.5028V23.757C0 23.4394 0.16939 23.1536 0.444648 22.9948L40.0606 0.1166C40.3359 -0.0422031 40.6641 -0.0422031 40.9394 0.1166L80.5659 22.9948C80.8412 23.1536 81.0106 23.4394 81.0106 23.757V69.5028C81.0106 69.8204 80.8412 70.1063 80.5659 70.2651L40.9394 93.1433C40.8017 93.2174 40.6535 93.2597 40.5053 93.2597ZM1.75742 68.9947L40.5053 91.3647L79.2426 68.9947V24.2652L40.5053 1.89519L1.75742 24.2652V68.9947Z" fill="#0044CC"/>
<g opacity="0.2">
<path fill-rule="evenodd" clip-rule="evenodd" d="M20.8986 30.6913C20.8986 25.8848 24.7946 21.9995 29.5904 21.9995C34.3862 21.9995 38.2822 25.8954 38.2822 30.6913V32.004C39.3621 32.311 40.1455 33.2533 40.1455 34.3649C40.1455 35.7306 38.9598 36.8422 37.5094 36.8422C37.4882 36.8422 37.467 36.8422 37.4353 36.8422C36.0378 39.7748 33.0523 41.7969 29.5904 41.7969C26.1285 41.7969 23.143 39.7748 21.7455 36.8422C21.7244 36.8422 21.7032 36.8422 21.682 36.8422C20.221 36.8422 19.0459 35.7306 19.0459 34.3649C19.0459 33.2533 19.8293 32.311 20.9092 32.004V30.6913H20.8986Z" fill="#0055FF"/>
</g>
<path d="M29.5901 42.665C26.0964 42.665 22.8462 40.7276 21.1841 37.6786C19.4478 37.4351 18.1562 36.0376 18.1562 34.3649C18.1562 33.0945 18.8867 31.9723 20.0195 31.4006V30.6807C20.0195 25.3978 24.3178 21.1102 29.5901 21.1102C34.8623 21.1102 39.1606 25.4084 39.1606 30.6807V31.4006C40.2934 31.9723 41.0238 33.0945 41.0238 34.3649C41.0238 36.0588 39.7005 37.4669 37.9854 37.6892C36.3233 40.7276 33.0837 42.665 29.5901 42.665ZM29.5901 22.8782C25.2812 22.8782 21.777 26.3824 21.777 30.6913V32.6604L21.1417 32.8404C20.4112 33.0521 19.9137 33.6662 19.9137 34.3543C19.9137 35.233 20.7077 35.9529 21.6711 35.9529H22.2322L22.5392 36.4505C23.8308 39.1502 26.6046 40.897 29.5901 40.897C32.5861 40.897 35.3493 39.1502 36.6409 36.4505L36.9056 35.9106L37.509 35.9529C38.483 35.9529 39.2664 35.233 39.2664 34.3543C39.2664 33.6556 38.7689 33.0415 38.0384 32.8404L37.4031 32.6604V30.6913C37.4031 26.3824 33.8989 22.8782 29.5901 22.8782Z" fill="#0044CC"/>
<g opacity="0.2">
<path d="M11.4444 52.6484L11.3386 54.2152L10.5869 67.6076H49.303V66.1255L48.5619 54.247L48.5302 53.7706C48.0644 46.1904 40.4312 41.1828 33.2851 43.7872L32.904 43.9248C30.522 44.7929 27.907 44.7506 25.5567 43.8084C19.067 41.2252 11.9314 45.6928 11.4444 52.6484Z" fill="#0055FF"/>
</g>
<path d="M49.3027 68.4863H10.5866C10.3431 68.4863 10.1102 68.3911 9.95141 68.2111C9.78202 68.0311 9.69733 67.7982 9.70792 67.5547L10.5654 52.5849C10.8195 48.9853 12.7252 45.8199 15.7848 43.9037C18.8444 41.9874 22.5286 41.6592 25.874 42.9932C28.0232 43.8507 30.4158 43.8931 32.5967 43.0991L32.9778 42.9614C36.6514 41.6275 40.6215 42.0827 43.8929 44.2319C47.1536 46.3704 49.1651 49.8323 49.4086 53.7283L50.1814 66.0831V67.6182C50.1814 68.0946 49.7897 68.4863 49.3027 68.4863ZM11.5183 66.7183H48.424V66.1255L47.6512 53.8235C47.45 50.4887 45.7244 47.5244 42.9295 45.6928C40.1345 43.8613 36.7256 43.459 33.5813 44.613L33.2001 44.7506C30.6169 45.6928 27.7797 45.6505 25.2177 44.6236C22.391 43.5014 19.289 43.7766 16.7164 45.3858C14.1438 47.0056 12.5346 49.6629 12.3229 52.7013L12.217 54.2682L11.5183 66.7183Z" fill="#0044CC"/>
<path fill-rule="evenodd" clip-rule="evenodd" d="M48.3079 30.0137C48.3079 26.0754 51.5051 22.8782 55.4434 22.8782C59.3817 22.8782 62.5789 26.0754 62.5789 30.0137V31.0936C63.4682 31.3477 64.1034 32.1205 64.1034 33.031C64.1034 34.1532 63.1295 35.0636 61.9437 35.0636C61.9226 35.0636 61.9014 35.0636 61.8908 35.0636C60.7474 37.4669 58.2913 39.129 55.454 39.129C52.6167 39.129 50.1606 37.4669 49.0172 35.0636C48.996 35.0636 48.9854 35.0636 48.9642 35.0636C47.7679 35.0636 46.7939 34.1532 46.7939 33.031C46.7939 32.1205 47.4397 31.3477 48.3185 31.0936V30.0137H48.3079Z" fill="white"/>
<path d="M55.443 39.9971C52.5423 39.9971 49.8532 38.3985 48.4451 35.8894C46.9842 35.6459 45.9043 34.4496 45.9043 33.0309C45.9043 31.9617 46.4972 31.0089 47.4288 30.5007V30.0137C47.4288 25.599 51.0283 21.9995 55.443 21.9995C59.8578 21.9995 63.4573 25.599 63.4573 30.0137V30.5007C64.3889 31.0089 64.9818 31.9617 64.9818 33.0309C64.9818 34.4708 63.8808 35.6777 62.4304 35.9C61.0329 38.4091 58.3438 39.9971 55.443 39.9971ZM55.443 23.7569C51.9917 23.7569 49.1862 26.5624 49.1862 30.0137V31.7499L48.551 31.9299C48.0111 32.0887 47.6617 32.5228 47.6617 33.0309C47.6617 33.6662 48.244 34.1849 48.9427 34.1849H49.4932L49.7897 34.6825C50.8272 36.8422 53.0398 38.2397 55.4325 38.2397C57.8251 38.2397 60.0483 36.8422 61.0753 34.6825L61.3188 34.1849H61.8693C62.6315 34.1849 63.2138 33.6662 63.2138 33.0309C63.2138 32.5334 62.8538 32.0887 62.3245 31.9299L61.6893 31.7499V30.0137C61.6999 26.5624 58.8944 23.7569 55.443 23.7569Z" fill="#0044CC"/>
<path d="M70.0641 58.9476C69.5983 58.9476 69.2172 58.5876 69.1854 58.1218L68.6455 48.9324C68.4867 46.4021 67.2586 44.2848 65.2577 42.972C63.2462 41.6486 60.79 41.3628 58.5139 42.1886C56.5447 42.9085 54.3638 42.9297 52.3841 42.2415L50.7855 41.6804C47.8423 40.6535 44.6027 42.2203 43.5652 45.1635C43.4064 45.6187 42.8982 45.8622 42.443 45.7034C41.9878 45.5446 41.7443 45.0364 41.9031 44.5812C43.2582 40.7276 47.5035 38.6949 51.3571 40.0183L52.9558 40.5794C54.5544 41.1299 56.3118 41.1193 57.9104 40.537C60.7053 39.5207 63.7332 39.8701 66.2211 41.5004C68.6878 43.1202 70.2123 45.7352 70.3923 48.6677L70.9428 58.0159C70.9746 58.5029 70.604 58.9158 70.117 58.9476C70.0959 58.9476 70.0747 58.9476 70.0641 58.9476Z" fill="#0044CC"/>
<path d="M48.4136 57.1902C48.9006 57.1902 49.2924 56.7984 49.2924 56.3115C49.2924 55.8139 48.9006 55.4327 48.4136 55.4327V57.1902ZM27.2082 55.6868C26.8694 56.0256 26.8694 56.5867 27.2082 56.9149L32.8086 62.5259C33.1474 62.8647 33.7085 62.8647 34.0579 62.5259C34.4072 62.1766 34.4072 61.6155 34.0579 61.2767L29.0821 56.3009L34.0579 51.325C34.4072 50.9863 34.4072 50.4252 34.0579 50.0758C33.7191 49.737 33.158 49.737 32.8086 50.0758L27.2082 55.6868ZM48.4136 55.4222H27.8328V57.1796H48.4242V55.4222H48.4136Z" fill="#0044CC"/>
<g opacity="0.8">
<path d="M54.575 46.6245C54.088 46.6245 53.6963 47.0162 53.6963 47.5032C53.6963 47.9902 54.088 48.3819 54.575 48.3819V46.6245ZM50.1814 55.4222C49.6944 55.4222 49.3027 55.8139 49.3027 56.3009C49.3027 56.7985 49.6944 57.1796 50.1814 57.1796V55.4222ZM54.575 48.3925H59.8578V46.6351H54.575V48.3925ZM59.8578 55.4222H50.1814V57.1796H59.8578V55.4222ZM63.3727 51.9073C63.3727 53.8447 61.7952 55.4222 59.8578 55.4222V57.1796C62.7692 57.1796 65.1407 54.8187 65.1407 51.8968H63.3727V51.9073ZM59.8578 48.3925C61.8058 48.3925 63.3727 49.9805 63.3727 51.9073H65.1301C65.1301 48.9854 62.7692 46.6245 59.8472 46.6245V48.3925H59.8578Z" fill="#FF6B00"/>
</g>
</g>
<defs>
<clipPath id="clip0_3454_989">
<rect width="81" height="93.2596" fill="white"/>
</clipPath>
</defs>
</svg>
