<svg width="81" height="81" viewBox="0 0 81 81" fill="none" xmlns="http://www.w3.org/2000/svg">
<g clip-path="url(#clip0_3454_1243)">
<g opacity="0.2">
<path d="M12.9297 36.674V28.545L19.7523 21.3388L20.9654 20.2501C21.2765 19.9701 21.6912 19.8146 22.106 19.8146H23.8064H50.8271V30.3491V60.6567C50.8271 64.462 47.7373 67.5519 43.932 67.5519H12.9297V36.674Z" fill="#0055FF"/>
</g>
<path d="M19.8145 33.4181V26.0253L26.0149 19.4723L27.0725 18.5287C27.3836 18.2488 27.7983 18.0933 28.2131 18.0933H29.7062H54.2695V27.6739V54.6117C54.2695 58.4066 51.1797 61.5069 47.3744 61.5069H19.8145V33.4181Z" fill="white"/>
<path d="M80.1394 81H0.860599C0.38364 81 0 80.606 0 80.1394V0.860599C0 0.38364 0.38364 0 0.860599 0H80.129C80.606 0 80.9896 0.38364 80.9896 0.860599V80.129C81 80.606 80.606 81 80.1394 81ZM1.7212 79.2684H79.2684V1.7212H1.7212V79.2684Z" fill="#0044CC"/>
<path d="M29.7168 18.0933V17.2327H28.8562V18.0933H29.7168ZM19.8147 26.0253L19.1926 25.4343L18.9541 25.6728V26.0149H19.8147V26.0253ZM54.2801 18.0933H55.1407C55.1407 17.6059 54.7571 17.2327 54.2801 17.2327V18.0933ZM29.7168 26.4919V27.3525C30.1937 27.3525 30.5774 26.9688 30.5774 26.4919H29.7168ZM23.9518 25.6313C23.4748 25.6313 23.0912 26.0253 23.0912 26.4919C23.0912 26.9792 23.4748 27.3525 23.9518 27.3525V25.6313ZM26.6477 20.0633C26.9794 19.7211 26.9587 19.182 26.6165 18.8605C26.2744 18.5287 25.7248 18.5495 25.393 18.8917L26.6477 20.0633ZM19.8147 61.5069H18.9541C18.9541 61.9734 19.3377 62.3675 19.8147 62.3675V61.5069ZM37.0474 62.3675C37.5244 62.3675 37.908 61.9734 37.908 61.5069C37.908 61.0195 37.5244 60.6463 37.0474 60.6463V62.3675ZM53.4195 37.9181C53.4195 38.4055 53.8032 38.7787 54.2801 38.7787C54.7571 38.7787 55.1407 38.3951 55.1407 37.9181H53.4195ZM18.9541 26.0253V33.4181H20.6753V26.0253H18.9541ZM54.2801 17.2327H29.7168V18.9539H54.2801V17.2327ZM28.8562 18.0933V26.4815H30.5774V18.0933H28.8562ZM29.7168 25.6313H23.9518V27.3525H29.7168V25.6313ZM20.4472 26.6059L26.6477 20.0529L25.393 18.8813L19.1926 25.4343L20.4472 26.6059ZM20.6753 61.5069V33.4181H18.9541V61.5069H20.6753ZM19.8147 62.3675H37.0474V60.6463H19.8147V62.3675ZM53.4195 18.0933V37.9078H55.1407V18.0933H53.4195Z" fill="#0044CC"/>
<g opacity="0.6">
<path d="M38.779 34.4655H29.302C28.825 34.4655 28.4414 34.0818 28.4414 33.6049C28.4414 33.1279 28.825 32.7443 29.302 32.7443H38.779C39.2559 32.7443 39.6396 33.1279 39.6396 33.6049C39.6396 34.0818 39.2559 34.4655 38.779 34.4655Z" fill="#FF6B00"/>
</g>
<g opacity="0.6">
<path d="M38.779 44.803H29.302C28.825 44.803 28.4414 44.4193 28.4414 43.9424C28.4414 43.4654 28.825 43.0818 29.302 43.0818H38.779C39.2559 43.0818 39.6396 43.4654 39.6396 43.9424C39.6396 44.4193 39.2559 44.803 38.779 44.803Z" fill="#FF6B00"/>
</g>
<g opacity="0.6">
<path d="M43.0816 39.6394H29.2913C28.8143 39.6394 28.4307 39.2558 28.4307 38.7788C28.4307 38.3019 28.8143 37.9182 29.2913 37.9182H43.0816C43.5585 37.9182 43.9422 38.3019 43.9422 38.7788C43.9422 39.2558 43.5585 39.6394 43.0816 39.6394Z" fill="#FF6B00"/>
</g>
<path d="M42.1694 53.3364C42.1279 53.3364 42.0865 53.3364 42.0346 53.3261C41.568 53.2535 41.2362 52.818 41.3088 52.3411C41.7339 49.5623 43.0093 47.053 44.9897 45.083C47.4574 42.6153 50.7443 41.257 54.2385 41.257C57.7328 41.257 61.0196 42.6153 63.4874 45.0934C64.3791 45.9851 65.136 46.9805 65.7166 48.0588C65.9447 48.4735 65.7892 49.0023 65.3745 49.2305C64.9597 49.4586 64.4309 49.303 64.2028 48.8883C63.6947 47.9551 63.0415 47.0841 62.2639 46.3169C60.1176 44.1705 57.2662 42.9885 54.2282 42.9885C51.1901 42.9885 48.3388 44.1705 46.1924 46.3169C44.4712 48.0277 43.3618 50.1947 42.9989 52.6106C42.9574 53.0358 42.5841 53.3364 42.1694 53.3364Z" fill="#0044CC"/>
<path d="M65.768 49.6867H59.4016C58.9247 49.6867 58.541 49.303 58.541 48.8261C58.541 48.3491 58.9247 47.9655 59.4016 47.9655H64.9074V42.4493C64.9074 41.9724 65.291 41.5887 65.768 41.5887C66.2449 41.5887 66.6286 41.9724 66.6286 42.4493V48.8261C66.6286 49.303 66.2449 49.6867 65.768 49.6867Z" fill="#0044CC"/>
<path d="M54.3216 66.8676C50.9726 66.8676 47.6235 65.5922 45.0728 63.0415C44.1707 62.1187 43.4242 61.1129 42.8435 60.0553C42.6154 59.6406 42.771 59.1118 43.1857 58.8837C43.6005 58.6556 44.1293 58.8111 44.3574 59.2258C44.8654 60.1487 45.5187 61.0196 46.3067 61.8284C50.7341 66.2558 57.9403 66.2454 62.3677 61.818C64.0889 60.0968 65.1984 57.909 65.5613 55.5035C65.6339 55.0369 66.0693 54.7155 66.5463 54.7881C67.0129 54.8606 67.3447 55.2961 67.2721 55.7731C66.847 58.5415 65.5716 61.0507 63.5912 63.0415C61.0198 65.5922 57.6707 66.8676 54.3216 66.8676Z" fill="#0044CC"/>
<path d="M42.802 66.5357C42.325 66.5357 41.9414 66.152 41.9414 65.6751V59.2983C41.9414 58.8214 42.325 58.4377 42.802 58.4377H49.1684C49.6453 58.4377 50.029 58.8214 50.029 59.2983C50.029 59.7753 49.6453 60.1589 49.1684 60.1589H43.6626V65.6751C43.6626 66.152 43.2686 66.5357 42.802 66.5357Z" fill="#0044CC"/>
</g>
<defs>
<clipPath id="clip0_3454_1243">
<rect width="81" height="81" fill="white"/>
</clipPath>
</defs>
</svg>
