<svg width="81" height="81" viewBox="0 0 81 81" fill="none" xmlns="http://www.w3.org/2000/svg">
<g clip-path="url(#clip0_3454_1217)">
<path d="M80.1394 81H0.860599C0.38364 81 0 80.606 0 80.1394V0.860599C0 0.38364 0.38364 0 0.860599 0H80.129C80.606 0 80.9896 0.38364 80.9896 0.860599V80.129C81 80.606 80.606 81 80.1394 81ZM1.7212 79.2684H79.2684V1.7212H1.7212V79.2684Z" fill="#0044CC"/>
<g opacity="0.8">
<path d="M52.2897 43.0714H43.0823C42.6053 43.0714 42.2217 42.6878 42.2217 42.2108C42.2217 41.7339 42.6053 41.3502 43.0823 41.3502H49.065C47.7896 39.8157 46.9291 37.3687 46.8046 34.5069C46.7839 34.0299 47.1572 33.6256 47.6341 33.6048C48.08 33.553 48.5051 33.9574 48.5362 34.4343C48.7021 38.25 50.3922 41.3502 52.2897 41.3502C54.1042 41.3502 56.0431 38.3329 56.0431 33.8537C56.0431 31.6866 55.5661 29.6751 54.6952 28.1924C54.4567 27.7776 54.5915 27.2488 55.0062 27.0104C55.4106 26.7615 55.9394 26.9067 56.1883 27.3214C57.2044 29.0634 57.7747 31.3859 57.7747 33.8537C57.7643 39.0173 55.3588 43.0714 52.2897 43.0714Z" fill="#FF6B00"/>
</g>
<path d="M31.21 52.5587H25.8494C25.3724 52.5587 24.9888 52.1751 24.9888 51.6981C24.9888 51.2212 25.3724 50.8375 25.8494 50.8375H31.21C34.5279 50.8375 37.2238 48.1417 37.2238 44.8237V43.0818H32.3298C27.3321 43.0818 23.2676 39.0069 23.2676 33.9988C23.2676 29.0219 27.3217 24.9677 32.2987 24.9677H62.907C63.1662 24.9677 63.4047 25.0818 63.5706 25.2788C63.7365 25.4758 63.7987 25.735 63.7572 25.9838L63.4773 27.4355C63.1766 28.9596 62.0879 30.2039 60.6362 30.6912L47.9554 35.0357C47.4991 35.1912 47.0118 34.9527 46.8563 34.4965C46.7008 34.0507 46.9392 33.553 47.3955 33.3974L60.0763 29.053C60.968 28.7523 61.6005 28.0265 61.7872 27.1037L61.8701 26.6889H32.2987C28.2653 26.6889 24.9888 29.9654 24.9888 33.9988C24.9888 38.053 28.286 41.3606 32.3298 41.3606H38.0844C38.5614 41.3606 38.945 41.7442 38.945 42.2212V44.8237C38.945 49.0852 35.4715 52.5587 31.21 52.5587Z" fill="#0044CC"/>
<path d="M61.7769 26.7822H46.7319L43.9531 34.2269L55.96 30.5046L58.7388 29.5714C60.9577 28.8352 61.5176 28.0161 61.5176 27.705L61.7769 26.7822Z" fill="white"/>
<path d="M22.0435 60.3145H18.093C17.6161 60.3145 17.2324 59.9309 17.2324 59.4539V44.5853C17.2324 44.1083 17.6161 43.7247 18.093 43.7247H22.0435C24.4179 43.7247 26.3568 45.6532 26.3568 48.038V56.0219C26.3465 58.386 24.4179 60.3145 22.0435 60.3145ZM18.9536 58.5933H22.0435C23.464 58.5933 24.6253 57.432 24.6253 56.0115V48.0277C24.6253 46.6072 23.464 45.4459 22.0435 45.4459H18.9536V58.5933Z" fill="#0044CC"/>
<g opacity="0.1">
<path d="M31.0233 26.7097H34.4657C38.748 26.7097 42.2215 30.1832 42.2215 34.4654C42.2215 38.7477 38.748 42.2212 34.4657 42.2212H31.0233C26.7411 42.2212 23.2676 38.7477 23.2676 34.4654C23.2676 30.1832 26.7411 26.7097 31.0233 26.7097Z" fill="#0055FF"/>
</g>
</g>
<defs>
<clipPath id="clip0_3454_1217">
<rect width="81" height="81" fill="white"/>
</clipPath>
</defs>
</svg>
