<svg width="81" height="81" viewBox="0 0 81 81" fill="none" xmlns="http://www.w3.org/2000/svg">
<g clip-path="url(#clip0_3454_1104)">
<path d="M80.1394 81H0.860599C0.38364 81 0 80.606 0 80.1394V0.860599C0 0.38364 0.38364 0 0.860599 0H80.129C80.606 0 80.9896 0.38364 80.9896 0.860599V80.129C81 80.606 80.606 81 80.1394 81ZM1.7212 79.2684H79.2684V1.7212H1.7212V79.2684Z" fill="#0044CC"/>
<g opacity="0.2">
<path d="M14.6514 24.2316L40.5004 11.1982L66.3495 24.2316V44.0979C64.5246 53.9689 58.459 62.5749 49.7493 67.583L40.5004 72.9125L29.8415 67.1371C21.2458 62.4712 15.5431 53.8341 14.6514 44.0979V24.2316Z" fill="#0055FF"/>
</g>
<path d="M40.5003 73.7731C40.3552 73.7731 40.2204 73.742 40.0856 73.6694L29.4266 67.894C20.5614 63.0726 14.7135 54.2074 13.7803 44.1705V24.2212C13.7803 23.8998 13.9669 23.5991 14.2572 23.4539L40.1063 10.4205C40.3552 10.2961 40.6351 10.2961 40.884 10.4205L66.733 23.4539C67.0234 23.5991 67.21 23.8998 67.21 24.2212V44.0876C65.3229 54.394 59.1224 63.1763 50.1743 68.3191L40.9254 73.6486C40.7906 73.742 40.6455 73.7731 40.5003 73.7731ZM15.5118 24.7604V44.0979C16.3828 53.4816 21.8886 61.8387 30.2561 66.3802L40.4899 71.9274L49.3241 66.8364C57.8264 61.9424 63.7261 53.5956 65.5095 43.9424L65.4992 24.7604L40.5107 12.1625L15.5118 24.7604Z" fill="#0044CC"/>
<path d="M21.5459 48.2558L18.1035 55.1509L19.8247 57.7327L24.9987 63.7673L35.3362 69.8018L40.5102 72.3836L43.9526 70.6624L56.0113 62.9067L62.0459 56.8721L61.1749 53.4193L57.7325 47.3848L52.5586 43.9424H47.3846L39.6289 44.803L32.7337 43.0818L25.8385 44.803L21.5459 48.2558Z" fill="white"/>
<g opacity="0.8">
<path d="M34.8909 60.2005C34.4451 60.5841 33.937 60.8744 33.3875 61.0818C32.8276 61.2892 32.2573 61.3929 31.6559 61.3929C31.1997 61.3929 30.7538 61.341 30.3287 61.2166C29.9036 61.0922 29.5096 60.9263 29.1363 60.7189C28.7734 60.4908 28.4312 60.2316 28.1306 59.9309C27.8299 59.6198 27.5603 59.2984 27.3425 58.9147C27.1248 58.5518 26.9589 58.1578 26.8345 57.7223C26.7204 57.2869 26.6582 56.8617 26.6582 56.3952C26.6582 55.9493 26.7204 55.5035 26.8345 55.068C26.9589 54.6532 27.1248 54.2592 27.3425 53.8756C27.5603 53.5127 27.8299 53.1705 28.1306 52.8594C28.4312 52.5484 28.7734 52.2892 29.1363 52.0818C29.5096 51.8537 29.9036 51.6878 30.3287 51.5841C30.7538 51.4597 31.1997 51.3975 31.6559 51.3975C32.2573 51.3975 32.8276 51.5011 33.3875 51.7085C33.9474 51.9159 34.4451 52.2062 34.8909 52.6002L33.8644 54.2696C33.5845 53.9793 33.2527 53.7304 32.8587 53.5852C32.475 53.409 32.0706 53.326 31.6455 53.326C31.2204 53.326 30.816 53.409 30.4428 53.5645C30.0695 53.7408 29.7481 53.9482 29.4681 54.2177C29.1882 54.4977 28.9704 54.8191 28.8149 55.2028C28.649 55.5864 28.5764 55.9804 28.5764 56.3952C28.5764 56.8306 28.6594 57.2247 28.8149 57.5876C28.9704 57.9712 29.1985 58.2926 29.4681 58.5726C29.7481 58.8525 30.0695 59.0703 30.4428 59.2258C30.816 59.3813 31.21 59.4643 31.6455 59.4643C32.0706 59.4643 32.475 59.3813 32.8587 59.2258C33.2423 59.0495 33.5741 58.8318 33.8644 58.5207L34.8909 60.2005ZM37.9497 53.4608V57.318H39.8782C40.1375 57.318 40.3967 57.2661 40.6248 57.1832C40.8633 57.0795 41.0603 56.9447 41.2365 56.7477C41.4128 56.5714 41.5476 56.3641 41.6513 56.1463C41.755 55.9078 41.8068 55.6486 41.8068 55.3894C41.8068 55.1302 41.755 54.871 41.6513 54.6532C41.558 54.4147 41.4128 54.2074 41.2365 54.0311C41.0603 53.8548 40.8529 53.72 40.6248 53.6164C40.3967 53.5127 40.1375 53.4608 39.8782 53.4608H37.9497ZM37.9497 61.1751H36.0211V51.5323H39.8886C40.2412 51.5323 40.5833 51.5841 40.9151 51.667C41.2469 51.75 41.5476 51.8952 41.8276 52.0611C42.1179 52.2166 42.3771 52.424 42.6052 52.6624C42.8437 52.8905 43.0407 53.1601 43.2066 53.4401C43.3725 53.7304 43.5073 54.0415 43.6006 54.3733C43.6939 54.7051 43.7458 55.0265 43.7458 55.3894C43.7458 55.9286 43.6421 56.4263 43.4451 56.8929C43.2481 57.3594 42.9681 57.7742 42.6156 58.1164C42.263 58.4793 41.8587 58.7488 41.3817 58.9458C40.9151 59.1532 40.4174 59.2569 39.8886 59.2569H37.9497V61.1751ZM54.3322 56.3848C54.3322 56.8514 54.27 57.2765 54.1559 57.712C54.0418 58.1475 53.8759 58.5415 53.6582 58.9044C53.4405 59.288 53.1812 59.6094 52.8806 59.9205C52.5799 60.2316 52.2377 60.4908 51.8748 60.7085C51.5015 60.9159 51.1075 61.0922 50.6824 61.2062C50.2573 61.3306 49.8114 61.3825 49.3552 61.3825C48.899 61.3825 48.4531 61.3306 48.028 61.2062C47.6029 61.0818 47.2089 60.9159 46.8356 60.7085C46.4623 60.4804 46.1306 60.2212 45.8299 59.9205C45.5292 59.6094 45.2596 59.288 45.0418 58.9044C44.8241 58.5415 44.6582 58.1475 44.5338 57.712C44.4197 57.2765 44.3575 56.8514 44.3575 56.3848C44.3575 55.9389 44.4197 55.4931 44.5338 55.0576C44.6582 54.6429 44.8241 54.2488 45.0418 53.8652C45.2596 53.5023 45.5292 53.1601 45.8299 52.8698C46.1306 52.5588 46.4727 52.2995 46.8356 52.0818C47.2089 51.8744 47.6029 51.6982 48.028 51.5841C48.4531 51.4597 48.899 51.4078 49.3552 51.4078C49.8114 51.4078 50.2573 51.4597 50.6824 51.5841C51.1075 51.7085 51.5015 51.8744 51.8748 52.0818C52.2377 52.3099 52.5799 52.5691 52.8806 52.8698C53.1812 53.1601 53.4508 53.5023 53.6582 53.8652C53.8759 54.2488 54.0418 54.6429 54.1559 55.0576C54.27 55.4931 54.3322 55.9389 54.3322 56.3848ZM52.414 56.3848C52.414 55.97 52.331 55.576 52.1755 55.1924C52.02 54.8088 51.7918 54.4873 51.5223 54.2074C51.2527 53.9274 50.9209 53.72 50.5476 53.5541C50.1743 53.3986 49.7803 53.3157 49.3552 53.3157C48.9301 53.3157 48.5257 53.3986 48.1524 53.5541C47.7792 53.7304 47.4577 53.9378 47.1778 54.2074C46.8978 54.4873 46.6801 54.8088 46.5142 55.1924C46.3587 55.576 46.2757 55.97 46.2757 56.3848C46.2757 56.8203 46.3587 57.2143 46.5142 57.5772C46.6801 57.9608 46.8978 58.2823 47.1778 58.5622C47.4577 58.8422 47.7792 59.0599 48.1524 59.2154C48.5257 59.371 48.9197 59.4539 49.3552 59.4539C49.7803 59.4539 50.1743 59.371 50.5476 59.2154C50.9209 59.0599 51.2527 58.8318 51.5223 58.5622C51.8022 58.2823 52.02 57.9608 52.1755 57.5772C52.331 57.2143 52.414 56.8203 52.414 56.3848Z" fill="#FF6B00"/>
</g>
<path fill-rule="evenodd" clip-rule="evenodd" d="M31.9868 30.0588C31.9868 25.3514 35.8024 21.5461 40.4994 21.5461C45.1964 21.5461 49.0121 25.3514 49.0121 30.0588V31.3548C50.0697 31.6452 50.837 32.5783 50.837 33.667C50.837 35.015 49.6757 36.0933 48.2552 36.0933C48.2345 36.0933 48.2137 36.0933 48.193 36.0933C46.8243 38.9551 43.89 40.9355 40.5098 40.9355C37.1193 40.9355 34.1953 38.9551 32.8266 36.0933C32.8059 36.0933 32.7852 36.0933 32.7644 36.0933C31.3335 36.0933 30.1826 35.0046 30.1826 33.667C30.1826 32.5783 30.9499 31.6555 32.0075 31.3548V30.0588H31.9868Z" fill="white"/>
<path d="M40.4999 41.7857C37.0783 41.7857 33.9054 39.8882 32.2672 36.9021C30.5667 36.6532 29.3018 35.2949 29.3018 33.6463C29.3018 32.4228 30.0276 31.303 31.1266 30.7534V30.0484C31.1266 24.8744 35.3363 20.6751 40.4999 20.6751C45.6635 20.6751 49.8732 24.8848 49.8732 30.0587V30.7638C50.9723 31.3237 51.6981 32.4332 51.6981 33.6567C51.6981 35.3157 50.402 36.6947 48.7223 36.9228C47.0944 39.8986 43.9112 41.7857 40.4999 41.7857ZM40.4999 22.4067C36.2799 22.4067 32.8478 25.8387 32.8478 30.0587V32.0081L32.2154 32.1843C31.5103 32.3813 31.023 32.9827 31.023 33.667C31.023 34.5276 31.8006 35.2327 32.7442 35.2327H33.2833L33.584 35.72C34.849 38.364 37.5656 40.0749 40.4999 40.0749C43.4342 40.0749 46.1405 38.364 47.4158 35.72L47.6543 35.2327H48.1935C49.2096 35.2327 49.9872 34.5276 49.9872 33.667C49.9872 32.9931 49.4999 32.3813 48.7948 32.1843L48.1624 32.0081V30.0587C48.152 25.8387 44.72 22.4067 40.4999 22.4067Z" fill="#0044CC"/>
<path d="M62.0357 55.9597C61.621 55.9597 61.2477 55.659 61.1855 55.2339L61.1544 55.0472C60.6049 51.3975 58.4793 48.1832 55.3479 46.2235C52.2166 44.2742 48.4113 43.7972 44.8963 44.8963C42.0449 45.788 38.9136 45.7569 36.0726 44.803C32.4539 43.6002 28.5346 44.0876 25.3203 46.1406C22.1371 48.1728 20.053 51.4701 19.6175 55.2028C19.5657 55.6694 19.1302 56.0012 18.6636 55.9597C18.1867 55.9078 17.8549 55.4724 17.9067 55.0058C18.4044 50.7546 20.7684 47.0012 24.3975 44.6889C28.0576 42.356 32.5161 41.8065 36.6221 43.1751C39.1313 44.015 41.8894 44.0357 44.3883 43.2581C48.3802 42.0035 52.7039 42.553 56.2604 44.7719C59.8168 46.9908 62.2224 50.6406 62.8549 54.7984L62.886 54.985C62.9585 55.4516 62.6371 55.8975 62.1705 55.9701C62.129 55.9493 62.0876 55.9597 62.0357 55.9597Z" fill="#0044CC"/>
<path d="M40.5003 73.7731C40.3552 73.7731 40.2204 73.742 40.0856 73.6694L29.4266 67.894C20.5614 63.0726 14.7135 54.2074 13.7803 44.1705V24.2212C13.7803 23.8998 13.9669 23.5991 14.2572 23.4539L40.1063 10.4205C40.3552 10.2961 40.6351 10.2961 40.884 10.4205L66.733 23.4539C67.0234 23.5991 67.21 23.8998 67.21 24.2212V44.0876C65.3229 54.394 59.1224 63.1763 50.1743 68.3191L40.9254 73.6486C40.7906 73.742 40.6455 73.7731 40.5003 73.7731ZM15.5118 24.7604V44.0979C16.3828 53.4816 21.8886 61.8387 30.2561 66.3802L40.4899 71.9274L49.3241 66.8364C57.8264 61.9424 63.7261 53.5956 65.5095 43.9424L65.4992 24.7604L40.5107 12.1625L15.5118 24.7604Z" fill="#0044CC"/>
</g>
<defs>
<clipPath id="clip0_3454_1104">
<rect width="81" height="81" fill="white"/>
</clipPath>
</defs>
</svg>
