<svg width="81" height="94" viewBox="0 0 81 94" fill="none" xmlns="http://www.w3.org/2000/svg">
<g clip-path="url(#clip0_3454_1009)">
<g opacity="0.2">
<path d="M29.9466 39.5897H38.7432C39.717 39.5897 40.5004 40.373 40.5004 41.3468V64.222C40.5004 65.1959 39.717 65.9792 38.7432 65.9792H29.9466C28.9728 65.9792 28.1895 65.1959 28.1895 64.222V41.3468C28.1895 40.373 28.9728 39.5897 29.9466 39.5897Z" fill="#0055FF"/>
</g>
<path d="M40.5 93.2475C40.3518 93.2475 40.193 93.2052 40.0554 93.1311L0.44459 70.2559C0.169368 70.0971 0 69.8113 0 69.4937V23.7539C0 23.4364 0.169368 23.1506 0.44459 22.9918L40.066 0.116584C40.3412 -0.0421979 40.6694 -0.0421979 40.9446 0.116584L80.566 22.9918C80.8412 23.1506 81.0106 23.4364 81.0106 23.7539V69.4937C81.0106 69.8113 80.8412 70.0971 80.566 70.2559L40.9446 93.1311C40.807 93.2052 40.6482 93.2475 40.5 93.2475ZM1.75719 68.9856L40.5 91.3527L79.2428 68.9856V24.262L40.5 1.89494L1.75719 24.262V68.9856Z" fill="#0044CC"/>
<g opacity="0.9">
<path d="M47.4549 31.8728C47.0633 31.8728 46.7034 31.6082 46.6081 31.2165L46.1 29.2582C45.793 28.0938 44.745 27.2787 43.5383 27.2787H37.5575C36.3508 27.2787 35.3028 28.0938 35.017 29.2582L34.4983 31.2271C34.3713 31.6929 33.9055 31.9893 33.4292 31.8517C32.9634 31.7246 32.6776 31.2483 32.8046 30.7825L33.3127 28.8242C33.7891 26.8871 35.5463 25.5215 37.5575 25.5215H43.5383C45.539 25.5215 47.2961 26.8765 47.8042 28.8242L48.3123 30.7825C48.4394 31.2483 48.1536 31.7352 47.6878 31.8517C47.5925 31.8622 47.5184 31.8728 47.4549 31.8728Z" fill="#FF6B00"/>
</g>
<path d="M48.7889 67.26H32.3073C29.9785 67.26 28.0837 65.5134 27.9144 63.1952L25.8714 36.541C25.8502 36.2975 25.9349 36.0541 26.1042 35.8741C26.2736 35.6942 26.5065 35.5883 26.75 35.5883H54.3569C54.6003 35.5883 54.8332 35.6942 55.0026 35.8741C55.1719 36.0541 55.2566 36.2975 55.2355 36.541L53.1607 63.1952C52.9913 65.4711 51.0648 67.26 48.7889 67.26ZM27.6921 37.3561L29.661 63.0576C29.7668 64.4549 30.8995 65.5029 32.2967 65.5029H48.7783C50.165 65.5029 51.2977 64.4549 51.4035 63.0576L53.3936 37.3561H27.6921Z" fill="#0044CC"/>
<path d="M56.3355 34.9215C55.8485 34.9215 55.4569 34.5298 55.4569 34.0429V33.1643C55.4569 32.6774 55.0652 32.2857 54.5783 32.2857H26.4209C25.934 32.2857 25.5423 32.6774 25.5423 33.1643V34.0429C25.5423 34.5298 25.1507 34.9215 24.6637 34.9215C24.1768 34.9215 23.7852 34.5298 23.7852 34.0429V33.1643C23.7852 31.7141 24.9707 30.5285 26.4209 30.5285H54.5677C56.0179 30.5285 57.2035 31.7141 57.2035 33.1643V34.0429C57.2141 34.5192 56.8224 34.9215 56.3355 34.9215Z" fill="#0044CC"/>
<path d="M40.235 56.0289C39.7481 56.0289 39.3564 55.6372 39.3564 55.1503V45.4117C39.3564 44.9247 39.7481 44.5331 40.235 44.5331C40.722 44.5331 41.1136 44.9247 41.1136 45.4117V55.1503C41.1136 55.6372 40.722 56.0289 40.235 56.0289Z" fill="#0044CC"/>
<path d="M33.905 58.3259C33.418 58.3259 33.0264 57.9342 33.0264 57.4473V43.104C33.0264 42.6171 33.418 42.2254 33.905 42.2254C34.3919 42.2254 34.7836 42.6171 34.7836 43.104V57.4473C34.7836 57.9342 34.3919 58.3259 33.905 58.3259Z" fill="#0044CC"/>
<path d="M46.5651 58.3259C46.0782 58.3259 45.6865 57.9342 45.6865 57.4473V43.104C45.6865 42.6171 46.0782 42.2254 46.5651 42.2254C47.0521 42.2254 47.4437 42.6171 47.4437 43.104V57.4473C47.4543 57.9342 47.0521 58.3259 46.5651 58.3259Z" fill="#0044CC"/>
</g>
<defs>
<clipPath id="clip0_3454_1009">
<rect width="81" height="93.2474" fill="white"/>
</clipPath>
</defs>
</svg>
