<svg width="195" height="31" viewBox="0 0 195 31" fill="none" xmlns="http://www.w3.org/2000/svg">
<rect width="120" height="31" rx="7" fill="#0097EF"/>
<path d="M18.3008 21V8.27344H22.959C25.666 8.27344 26.9844 9.73242 26.9844 11.6133C26.9844 13.1953 26.0176 14.0039 24.8398 14.3027V14.4258C26.1055 14.4961 27.4766 15.6035 27.4766 17.5723C27.4766 19.5234 26.1406 21 23.1699 21H18.3008ZM22.9941 19.3477C24.8223 19.3477 25.5605 18.5391 25.5605 17.4844C25.5605 16.2715 24.5938 15.2871 23.0645 15.2871H20.2344V19.3477H22.9941ZM22.8008 13.7754C24.084 13.7754 25.0859 12.9844 25.0859 11.7715C25.0859 10.7168 24.3652 9.92578 22.8359 9.92578H20.2344V13.7754H22.8008ZM28.9531 18.3105C28.9531 16.1309 30.7988 15.5684 32.5215 15.4453C33.1543 15.4014 34.5869 15.3223 35.0352 15.3047L35.0176 14.5488C35.0176 13.4766 34.3672 12.8438 33.084 12.8438C31.9766 12.8438 31.3086 13.3535 31.1152 14.0566H29.252C29.4277 12.4746 30.9043 11.332 33.1543 11.332C34.666 11.332 36.8984 11.8945 36.8984 14.6543V21H35.0703V19.6992H35C34.6309 20.4199 33.752 21.2109 32.1699 21.2109C30.3594 21.2109 28.9531 20.1738 28.9531 18.3105ZM30.7812 18.3281C30.7812 19.2422 31.5371 19.7168 32.5918 19.7168C34.1211 19.7168 35.0352 18.6973 35.0352 17.5547V16.6758L32.7852 16.834C31.5547 16.9219 30.7812 17.3789 30.7812 18.3281ZM43.209 21.1934C40.4316 21.1934 38.7441 19.1367 38.7441 16.2715C38.7441 13.3535 40.4844 11.332 43.1738 11.332C45.3535 11.332 46.9355 12.6152 47.1289 14.5488H45.3008C45.1074 13.6523 44.3867 12.8965 43.209 12.8965C41.6621 12.8965 40.625 14.1797 40.625 16.2188C40.625 18.3105 41.6445 19.5938 43.209 19.5938C44.2637 19.5938 45.0723 19.0137 45.3008 17.9766H47.1289C46.918 19.8223 45.459 21.1934 43.209 21.1934ZM48.9043 21V8.27344H50.7852V15.4805H50.9434L54.7227 11.4551H56.9727L53.123 15.5508L57.2363 21H54.9336L51.6992 16.7109L50.7852 17.6074V21H48.9043ZM63.8105 14.0566C63.6348 13.3008 63.0371 12.8086 62 12.8086C60.9277 12.8086 60.1543 13.3711 60.1719 14.0918C60.1543 14.6543 60.6113 15.0586 61.666 15.3047L63.1777 15.6562C64.9355 16.043 65.7793 16.8867 65.7969 18.2402C65.7793 19.9629 64.3379 21.1934 61.8945 21.1934C59.6094 21.1934 58.2383 20.1738 58.0098 18.3984H59.9258C60.084 19.2598 60.752 19.6816 61.877 19.6816C63.0898 19.6816 63.8633 19.1895 63.8809 18.3809C63.8633 17.7656 63.4062 17.3613 62.4043 17.1328L60.9102 16.8164C59.1875 16.4297 58.291 15.5156 58.291 14.1973C58.291 12.4922 59.7676 11.332 61.9824 11.332C64.1094 11.332 65.4277 12.4219 65.6211 14.0566H63.8105ZM67.625 24.5859V11.4551H69.4531V13.002H69.6113C69.9453 12.4043 70.5957 11.332 72.3535 11.332C74.6562 11.332 76.3613 13.1426 76.3613 16.2539C76.3613 19.3301 74.6914 21.1934 72.3711 21.1934C70.6309 21.1934 69.9453 20.1387 69.6113 19.5059H69.5059V24.5859H67.625ZM69.4707 16.2188C69.4707 18.2227 70.3496 19.5938 71.9492 19.5938C73.6016 19.5938 74.4629 18.1348 74.4629 16.2188C74.4629 14.3379 73.6191 12.9316 71.9492 12.9316C70.332 12.9316 69.4707 14.2324 69.4707 16.2188ZM77.7852 18.3105C77.7852 16.1309 79.6309 15.5684 81.3535 15.4453C81.9863 15.4014 83.4189 15.3223 83.8672 15.3047L83.8496 14.5488C83.8496 13.4766 83.1992 12.8438 81.916 12.8438C80.8086 12.8438 80.1406 13.3535 79.9473 14.0566H78.084C78.2598 12.4746 79.7363 11.332 81.9863 11.332C83.498 11.332 85.7305 11.8945 85.7305 14.6543V21H83.9023V19.6992H83.832C83.4629 20.4199 82.584 21.2109 81.002 21.2109C79.1914 21.2109 77.7852 20.1738 77.7852 18.3105ZM79.6133 18.3281C79.6133 19.2422 80.3691 19.7168 81.4238 19.7168C82.9531 19.7168 83.8672 18.6973 83.8672 17.5547V16.6758L81.6172 16.834C80.3867 16.9219 79.6133 17.3789 79.6133 18.3281ZM92.041 21.1934C89.2637 21.1934 87.5762 19.1367 87.5762 16.2715C87.5762 13.3535 89.3164 11.332 92.0059 11.332C94.1855 11.332 95.7676 12.6152 95.9609 14.5488H94.1328C93.9395 13.6523 93.2188 12.8965 92.041 12.8965C90.4941 12.8965 89.457 14.1797 89.457 16.2188C89.457 18.3105 90.4766 19.5938 92.041 19.5938C93.0957 19.5938 93.9043 19.0137 94.1328 17.9766H95.9609C95.75 19.8223 94.291 21.1934 92.041 21.1934ZM101.85 21.1934C99.0371 21.1934 97.3145 19.2598 97.3145 16.2891C97.3145 13.3535 99.0723 11.332 101.727 11.332C103.906 11.332 105.963 12.6855 105.963 16.1309V16.7988H99.1777C99.2305 18.6094 100.294 19.6465 101.867 19.6465C102.939 19.6465 103.625 19.1895 103.941 18.6094H105.84C105.418 20.1562 103.941 21.1934 101.85 21.1934ZM99.1953 15.3926H104.117C104.117 13.9336 103.186 12.8789 101.744 12.8789C100.241 12.8789 99.2656 14.0391 99.1953 15.3926Z" fill="white"/>
</svg>
