<svg width="23" height="15" viewBox="0 0 23 15" fill="none" xmlns="http://www.w3.org/2000/svg">
<path d="M7.45082 11.0664C7.65581 11.0664 7.82764 10.997 7.96631 10.8584C8.10499 10.7197 8.17432 10.5479 8.17432 10.3429C8.17432 10.1379 8.10499 9.96605 7.96631 9.82737C7.82764 9.6887 7.65581 9.61937 7.45082 9.61937C7.24583 9.61937 7.074 9.6887 6.93533 9.82737C6.79666 9.96605 6.72732 10.1379 6.72732 10.3429C6.72732 10.5479 6.79666 10.7197 6.93533 10.8584C7.074 10.997 7.24583 11.0664 7.45082 11.0664ZM6.72732 8.17237H8.17432V3.83137H6.72732V8.17237ZM7.45082 14.6839C6.44998 14.6839 5.50943 14.4939 4.62917 14.1141C3.74891 13.7343 2.98321 13.2188 2.33206 12.5676C1.68091 11.9165 1.16541 11.1508 0.785577 10.2705C0.405739 9.39026 0.21582 8.44971 0.21582 7.44887C0.21582 6.44803 0.405739 5.50748 0.785577 4.62722C1.16541 3.74696 1.68091 2.98125 2.33206 2.3301C2.98321 1.67895 3.74891 1.16346 4.62917 0.783623C5.50943 0.403786 6.44998 0.213867 7.45082 0.213867C8.45166 0.213867 9.39221 0.403786 10.2725 0.783623C11.1527 1.16346 11.9184 1.67895 12.5696 2.3301C13.2207 2.98125 13.7362 3.74696 14.1161 4.62722C14.4959 5.50748 14.6858 6.44803 14.6858 7.44887C14.6858 8.44971 14.4959 9.39026 14.1161 10.2705C13.7362 11.1508 13.2207 11.9165 12.5696 12.5676C11.9184 13.2188 11.1527 13.7343 10.2725 14.1141C9.39221 14.4939 8.45166 14.6839 7.45082 14.6839Z" fill="#0097EF"/>
</svg>
