<svg width="1177" height="677" viewBox="0 0 1177 677" fill="none" xmlns="http://www.w3.org/2000/svg">
<g clip-path="url(#clip0_3552_170)">
<path d="M1035.77 619.069C972.5 509.5 1012.09 493.795 972.5 439C947.107 403.852 918.226 380.376 875.407 381.734C832.589 383.087 788.461 391.019 747.771 377.381C707.078 363.743 672.41 317.452 689.567 277.462C705.31 240.768 756.372 225.863 763.291 186.443C768.684 155.705 743.856 129.024 732.743 99.9235C724.76 79.0245 724.354 55.445 730.711 34H297.038C298.546 36.6806 299.859 39.4864 300.931 42.4324C312.495 74.2055 294.552 109.717 270.823 133.467C247.093 157.217 217.319 174.423 195.711 200.191C174.103 225.958 162.528 265.777 181.77 293.417C208.32 331.556 274.358 322.984 297.857 363.144C324.81 409.203 270.045 473.826 298.002 519.26C321.337 557.18 380.464 547.056 415.013 574.704C434.489 590.291 442.766 616.654 440.391 642H1085C1073.35 636.953 1043.92 629.378 1035.77 619.069Z" fill="url(#paint0_linear_3552_170)"/>
</g>
<path d="M36.8118 622.525C37.6342 623.486 38.4714 624.393 39.3075 625.368L178.473 385.964C177.208 385.698 175.956 385.487 174.719 385.249L36.8118 622.525ZM44.5798 630.908C45.4454 631.773 46.3388 632.653 47.2185 633.506L189.574 388.59C188.366 388.256 187.172 387.936 185.977 387.643L44.5798 630.908ZM61.4741 645.382C62.4397 646.084 63.4189 646.814 64.4126 647.503L210.474 396.148C209.394 395.664 208.285 395.208 207.177 394.71L61.4741 645.382ZM29.5448 613.255C30.3238 614.326 31.0753 615.369 31.8688 616.399L166.872 384.129C165.564 383.986 164.269 383.857 162.932 383.755L29.5448 613.255ZM70.5296 651.541C71.5655 652.203 72.5881 652.823 73.6107 653.444L220.329 401.026C219.264 400.446 218.199 399.894 217.12 399.328L70.5296 651.541ZM52.8192 638.527C53.7418 639.311 54.6645 640.081 55.615 640.866L200.246 391.994C199.094 391.592 197.957 391.204 196.791 390.815L52.8192 638.527ZM22.8211 603.072C23.5291 604.224 24.2372 605.377 24.9594 606.515L154.741 383.249C153.39 383.188 152.024 383.168 150.644 383.161L22.8211 603.072ZM4.09396 504.675C3.56078 507.749 3.1522 510.88 2.84144 513.998L62.6339 411.075C60.0972 412.922 57.587 414.853 55.1593 416.867L4.09396 504.675ZM11.7387 476.887L34.6688 437.409C29.9261 443.255 25.5668 449.574 21.6619 456.286C17.7432 462.983 14.4492 469.869 11.7387 476.887ZM2.09242 529.85C2.11458 532.134 2.17959 534.35 2.29974 536.608L82.1744 399.2C80.1374 400.243 78.1277 401.328 76.1455 402.441L2.09242 529.85ZM6.85643 565.209C7.27882 566.825 7.72889 568.455 8.20723 570.058L114.374 387.36C112.751 387.763 111.113 388.193 109.489 388.664L6.85643 565.209ZM3.56612 549.092C3.84527 550.967 4.16663 552.815 4.48819 554.65L99.0533 391.964C97.2731 392.612 95.4927 393.274 93.7255 393.991L3.56612 549.092ZM11.3336 579.308C11.8427 580.719 12.4213 582.145 12.9861 583.556L128.607 384.653C127.084 384.851 125.561 385.103 124.051 385.384L11.3336 579.308ZM16.7129 591.797C17.3355 593.072 17.9714 594.388 18.636 595.65L142.025 383.351C140.588 383.398 139.15 383.501 137.699 383.617L16.7129 591.797ZM100.183 665.845C101.335 666.261 102.486 666.636 103.652 667.024L247.381 419.735C246.458 418.951 245.536 418.154 244.627 417.37L100.183 665.845ZM202.019 664.798C203.828 664.109 205.623 663.406 207.405 662.648L295.933 510.371C295.696 508.469 295.39 506.552 295.068 504.69L202.019 664.798ZM172.208 672.559C173.745 672.32 175.283 672.054 176.806 671.788L288.465 479.664C287.956 478.253 287.406 476.8 286.841 475.389L172.208 672.559ZM186.542 669.619C188.179 669.217 189.831 668.76 191.455 668.288L292.842 493.94C292.434 492.311 291.971 490.653 291.506 489.05L186.542 669.619ZM219.127 657.139C221.193 656.041 223.245 654.929 225.243 653.72L297.121 530.076C297.141 527.765 297.106 525.426 297.014 523.127L219.127 657.139ZM80.0134 657.019C81.0788 657.571 82.1578 658.151 83.2099 658.662L229.756 406.557C228.734 405.896 227.726 405.289 226.689 404.669L80.0134 657.019ZM239.125 644.487C241.804 642.476 244.415 640.327 246.956 638.163L294.461 556.397C295.095 553.132 295.631 549.852 296.042 546.57L239.125 644.487ZM283.34 590.202L270.895 611.619C273.231 608.255 275.471 604.779 277.574 601.165C279.649 597.549 281.585 593.904 283.34 590.202ZM110.898 669.195C112.092 669.501 113.314 669.822 114.495 670.101L255.563 427.423C254.712 426.557 253.832 425.691 252.938 424.839L110.898 669.195ZM122.07 671.725C123.335 671.964 124.573 672.175 125.839 672.386L263.26 435.942C262.465 434.967 261.629 434.006 260.82 433.072L122.07 671.725ZM89.8839 661.8C90.9924 662.271 92.1146 662.755 93.2372 663.212L238.783 412.785C237.818 412.055 236.838 411.353 235.858 410.665L89.8839 661.8ZM158.719 673.998C160.17 673.909 161.621 673.807 163.045 673.676L283.173 466.984C282.564 465.709 281.942 464.407 281.277 463.131L158.719 673.998ZM145.902 674.236C147.282 674.284 148.662 674.29 150.056 674.297L277.136 455.613C276.442 454.434 275.762 453.254 275.026 452.115L145.902 674.236ZM133.729 673.424C135.037 673.581 136.346 673.71 137.669 673.812L270.484 445.293C269.732 444.237 268.953 443.193 268.174 442.123L133.729 673.424Z" fill="url(#paint1_linear_3552_170)" fill-opacity="0.34"/>
<g clip-path="url(#clip1_3552_170)">
<path d="M1140.92 51.6424C1140.08 50.6643 1139.23 49.7429 1138.38 48.7506L1002.75 297.525C1004.02 297.78 1005.28 297.979 1006.52 298.205L1140.92 51.6424ZM1133.03 43.1231C1132.15 42.2442 1131.25 41.3512 1130.35 40.4865L991.616 294.988C992.829 295.314 994.028 295.626 995.227 295.909L1133.03 43.1231ZM1115.93 28.466C1114.95 27.7572 1113.96 27.0201 1112.96 26.3255L970.607 287.517C971.695 287.999 972.81 288.453 973.925 288.949L1115.93 28.466ZM1148.32 61.083C1147.53 59.9916 1146.76 58.9284 1145.95 57.8795L1014.38 299.24C1015.69 299.368 1016.99 299.481 1018.33 299.566L1148.32 61.083ZM1106.78 22.2572C1105.73 21.591 1104.7 20.9673 1103.67 20.3436L960.682 282.641C961.755 283.222 962.828 283.775 963.916 284.342L1106.78 22.2572ZM1124.68 35.3976C1123.75 34.6038 1122.81 33.8242 1121.85 33.0304L980.896 291.642C982.053 292.039 983.196 292.422 984.367 292.805L1124.68 35.3976ZM1155.2 71.4734C1154.47 70.2969 1153.75 69.1204 1153.01 67.958L1026.52 299.963C1027.88 300.006 1029.24 300.006 1030.62 299.992L1155.2 71.4734ZM1175.37 172.571C1175.86 169.396 1176.22 166.164 1176.48 162.946L1118.21 269.898C1120.72 267.956 1123.2 265.929 1125.6 263.816L1175.37 172.571ZM1168.13 201.318L1145.79 242.341C1150.44 236.246 1154.71 229.668 1158.51 222.694C1162.33 215.734 1165.53 208.59 1168.13 201.318ZM1177 146.602C1176.94 144.249 1176.85 141.967 1176.69 139.642L1098.85 282.428C1100.87 281.323 1102.86 280.175 1104.83 278.998L1177 146.602ZM1171.72 110.243C1171.27 108.584 1170.8 106.911 1170.29 105.267L1066.83 295.115C1068.44 294.676 1070.07 294.208 1071.69 293.698L1171.72 110.243ZM1175.24 126.799C1174.94 124.871 1174.59 122.972 1174.24 121.087L1082.08 290.14C1083.85 289.445 1085.62 288.736 1087.37 287.971L1175.24 126.799ZM1167.03 95.7839C1166.5 94.338 1165.9 92.878 1165.32 91.4321L1052.63 298.12C1054.15 297.894 1055.67 297.61 1057.18 297.298L1167.03 95.7839ZM1161.47 82.9979C1160.83 81.6938 1160.17 80.3471 1159.49 79.0572L1039.24 299.665C1040.67 299.595 1042.11 299.467 1043.56 299.325L1161.47 82.9979ZM1076.92 7.96864C1075.76 7.55756 1074.61 7.18901 1073.43 6.80628L933.358 263.774C934.292 264.568 935.226 265.376 936.146 266.17L1076.92 7.96864ZM975.11 10.5911C973.312 11.3282 971.527 12.0794 969.757 12.8874L883.478 171.125C883.743 173.081 884.077 175.051 884.426 176.965L975.11 10.5911ZM1004.8 2.14265C1003.27 2.41197 1001.74 2.70965 1000.22 3.00733L891.396 202.651C891.926 204.096 892.497 205.585 893.083 207.031L1004.8 2.14265ZM990.515 5.38876C988.884 5.82819 987.239 6.32432 985.622 6.83463L886.81 188.008C887.242 189.68 887.73 191.381 888.218 193.026L990.515 5.38876ZM958.116 18.7418C956.067 19.9041 954.032 21.0807 952.052 22.3565L882 150.84C882.014 153.222 882.084 155.632 882.209 157.999L958.116 18.7418ZM1097.22 16.7573C1096.14 16.2044 1095.06 15.6232 1094 15.1129L951.174 277.084C952.206 277.751 953.223 278.36 954.269 278.984L1097.22 16.7573ZM938.307 32.0806C935.658 34.1927 933.079 36.4466 930.57 38.7146L884.272 123.681C883.687 127.054 883.199 130.442 882.836 133.83L938.307 32.0806ZM894.895 88.6821L907.024 66.4271C904.737 69.9284 902.549 73.543 900.499 77.2995C898.478 81.0559 896.596 84.8407 894.895 88.6821ZM1066.16 4.68C1064.96 4.38232 1063.73 4.07047 1062.55 3.80114L925.063 255.978C925.927 256.856 926.819 257.735 927.726 258.6L1066.16 4.68ZM1054.95 2.24187C1053.68 2.01507 1052.44 1.81662 1051.17 1.61816L917.242 247.317C918.051 248.309 918.901 249.287 919.724 250.237L1054.95 2.24187ZM1087.28 11.9802C1086.16 11.5124 1085.03 11.0305 1083.9 10.5769L942.057 270.805C943.033 271.542 944.022 272.251 945.012 272.945L1087.28 11.9802ZM1018.27 0.455799C1016.82 0.5692 1015.37 0.696777 1013.95 0.852704L896.875 215.635C897.502 216.939 898.143 218.272 898.826 219.576L1018.27 0.455799ZM1031.08 0.0163681C1029.7 -0.0119823 1028.32 0.00219291 1026.93 0.0163681L903.078 227.259C903.789 228.464 904.486 229.668 905.239 230.831L1031.08 0.0163681ZM1043.27 0.668426C1041.96 0.526675 1040.65 0.413273 1039.32 0.328222L909.881 237.791C910.648 238.868 911.443 239.931 912.237 241.023L1043.27 0.668426Z" fill="url(#paint2_linear_3552_170)" fill-opacity="0.34"/>
</g>
<g clip-path="url(#clip2_3552_170)">
<path d="M851.78 112.134C850.479 112.686 848.983 112.079 848.43 110.778C847.877 109.477 848.484 107.981 849.785 107.428C851.086 106.875 852.583 107.482 853.136 108.772C853.689 110.084 853.082 111.581 851.78 112.134ZM858.47 121.339C857.917 120.038 856.421 119.442 855.12 119.984C853.819 120.537 853.212 122.033 853.765 123.334C854.318 124.635 855.814 125.232 857.115 124.689C858.416 124.136 859.023 122.64 858.47 121.339ZM863.805 133.906C863.252 132.605 861.756 131.997 860.455 132.55C859.153 133.103 858.546 134.6 859.099 135.901C859.652 137.202 861.159 137.809 862.45 137.256C863.751 136.703 864.347 135.196 863.805 133.906ZM835.245 101.562C834.692 100.261 833.196 99.6535 831.895 100.206C830.594 100.759 829.986 102.256 830.539 103.557C831.092 104.847 832.589 105.454 833.89 104.901C835.191 104.359 835.798 102.852 835.245 101.562ZM840.58 114.118C840.027 112.817 838.531 112.209 837.229 112.762C835.928 113.315 835.332 114.812 835.874 116.113C836.427 117.403 837.923 118.01 839.224 117.457C840.526 116.915 841.133 115.408 840.58 114.118ZM845.914 126.674C845.361 125.373 843.865 124.776 842.564 125.329C841.263 125.882 840.656 127.378 841.209 128.68C841.762 129.981 843.258 130.588 844.559 130.035C845.86 129.471 846.467 127.975 845.914 126.674ZM851.238 139.23C850.685 137.928 849.189 137.332 847.888 137.874C846.587 138.427 845.979 139.924 846.532 141.225C847.085 142.526 848.582 143.133 849.883 142.58C851.195 142.027 851.791 140.531 851.238 139.23ZM851.867 153.781C852.42 155.082 853.916 155.689 855.218 155.136C856.519 154.583 857.126 153.087 856.573 151.786C856.02 150.495 854.524 149.888 853.222 150.441C851.932 150.994 851.325 152.49 851.867 153.781ZM822.689 106.886C822.136 105.584 820.64 104.977 819.339 105.53C818.048 106.083 817.441 107.59 817.994 108.892C818.547 110.182 820.044 110.789 821.345 110.236C822.635 109.683 823.242 108.187 822.689 106.886ZM828.024 119.452C827.471 118.151 825.975 117.544 824.673 118.097C823.372 118.65 822.765 120.146 823.318 121.447C823.871 122.749 825.367 123.345 826.658 122.803C827.97 122.239 828.577 120.743 828.024 119.452ZM833.358 132.008C832.806 130.707 831.309 130.1 830.008 130.653C828.707 131.206 828.1 132.702 828.653 134.003C829.206 135.305 830.702 135.912 832.003 135.359C833.293 134.806 833.901 133.299 833.358 132.008ZM838.682 144.564C838.129 143.263 836.633 142.667 835.332 143.209C834.031 143.762 833.434 145.258 833.977 146.559C834.53 147.86 836.026 148.468 837.327 147.915C838.628 147.362 839.235 145.865 838.682 144.564ZM844.017 157.12C843.464 155.819 841.968 155.223 840.667 155.776C839.365 156.329 838.769 157.825 839.311 159.115C839.864 160.416 841.36 161.024 842.662 160.471C843.963 159.918 844.57 158.421 844.017 157.12ZM810.133 112.22C809.58 110.919 808.084 110.312 806.783 110.865C805.482 111.418 804.885 112.914 805.427 114.215C805.98 115.516 807.477 116.113 808.778 115.56C810.079 115.018 810.686 113.511 810.133 112.22ZM815.468 124.776C814.915 123.475 813.419 122.868 812.117 123.421C810.816 123.974 810.209 125.47 810.762 126.771C811.315 128.062 812.811 128.669 814.113 128.116C815.403 127.574 816.01 126.077 815.468 124.776ZM820.792 137.332C820.239 136.031 818.742 135.435 817.441 135.977C816.14 136.53 815.533 138.026 816.086 139.327C816.639 140.617 818.135 141.225 819.436 140.683C820.737 140.13 821.345 138.633 820.792 137.332ZM826.126 149.888C825.573 148.598 824.077 147.991 822.776 148.533C821.475 149.086 820.878 150.582 821.421 151.883C821.974 153.184 823.47 153.791 824.771 153.238C826.072 152.696 826.679 151.189 826.126 149.888ZM831.461 162.455C830.908 161.154 829.412 160.557 828.111 161.11C826.809 161.663 826.202 163.16 826.755 164.461C827.308 165.762 828.805 166.369 830.106 165.816C831.396 165.252 832.003 163.745 831.461 162.455ZM802.912 130.111C802.359 128.81 800.863 128.203 799.562 128.755C798.26 129.308 797.653 130.805 798.206 132.106C798.759 133.407 800.255 134.003 801.557 133.45C802.847 132.897 803.465 131.401 802.912 130.111ZM808.236 142.667C807.683 141.366 806.186 140.758 804.885 141.311C803.584 141.864 802.977 143.361 803.53 144.662C804.083 145.963 805.579 146.559 806.88 146.017C808.182 145.464 808.789 143.957 808.236 142.667ZM813.57 155.223C813.017 153.922 811.521 153.325 810.22 153.867C808.919 154.42 808.312 155.917 808.865 157.218C809.418 158.519 810.914 159.126 812.215 158.573C813.516 158.02 814.123 156.524 813.57 155.223Z" fill="url(#paint3_linear_3552_170)"/>
</g>
<defs>
<linearGradient id="paint0_linear_3552_170" x1="618.997" y1="34" x2="618.997" y2="642" gradientUnits="userSpaceOnUse">
<stop stop-color="#FDFDFD" stop-opacity="0.5"/>
<stop offset="0.783654" stop-color="#FF89B6" stop-opacity="0.08"/>
<stop offset="0.908654" stop-color="#F82C75" stop-opacity="0"/>
</linearGradient>
<linearGradient id="paint1_linear_3552_170" x1="7.25954" y1="566.736" x2="291.421" y2="488.69" gradientUnits="userSpaceOnUse">
<stop stop-color="#FF9DC0"/>
<stop offset="1" stop-color="#F4FFFF"/>
</linearGradient>
<linearGradient id="paint2_linear_3552_170" x1="1171.29" y1="108.676" x2="887.02" y2="188.827" gradientUnits="userSpaceOnUse">
<stop stop-color="#A9DAF8"/>
<stop offset="1" stop-color="#F4FFFF"/>
</linearGradient>
<linearGradient id="paint3_linear_3552_170" x1="819.344" y1="105.534" x2="842.66" y2="160.468" gradientUnits="userSpaceOnUse">
<stop stop-color="#B1D8FD"/>
<stop offset="1" stop-color="#F4FFFF"/>
</linearGradient>
<clipPath id="clip0_3552_170">
<rect width="894" height="608" fill="white" transform="translate(172 34)"/>
</clipPath>
<clipPath id="clip1_3552_170">
<rect width="295" height="269" fill="white" transform="translate(882)"/>
</clipPath>
<clipPath id="clip2_3552_170">
<rect width="66" height="66" fill="white" transform="translate(798 100)"/>
</clipPath>
</defs>
</svg>
