<svg width="77" height="89" viewBox="0 0 77 89" fill="none" xmlns="http://www.w3.org/2000/svg">
<g opacity="0.2">
<path d="M23.2996 37.4001H46.5696C47.4896 37.4001 48.2296 38.1401 48.2296 39.0601V55.6801C48.2296 56.6001 47.4896 57.3401 46.5696 57.3401H23.2996C22.3796 57.3401 21.6396 56.6001 21.6396 55.6801V39.0601C21.6396 38.1401 22.3796 37.4001 23.2996 37.4001Z" fill="#0055FF"/>
</g>
<path d="M49.0597 67.3201C56.8635 67.3201 63.1897 60.9938 63.1897 53.1901C63.1897 45.3863 56.8635 39.0601 49.0597 39.0601C41.2559 39.0601 34.9297 45.3863 34.9297 53.1901C34.9297 60.9938 41.2559 67.3201 49.0597 67.3201Z" fill="white"/>
<path d="M33.2703 57.6201H21.6403C18.4303 57.6201 15.8203 55.0101 15.8203 51.8001V25.7601C15.8203 25.3001 16.1903 24.9301 16.6503 24.9301H31.2903C32.5303 24.9301 33.7003 25.4801 34.4903 26.4401L37.5903 30.1901H56.5303C56.9903 30.1901 57.3603 30.5601 57.3603 31.0201V36.5601C57.3603 37.0201 56.9903 37.3901 56.5303 37.3901C56.0703 37.3901 55.7003 37.0201 55.7003 36.5601V31.8501H37.2003C36.9503 31.8501 36.7203 31.7401 36.5603 31.5501L33.2103 27.5001C32.7303 26.9201 32.0303 26.5901 31.2903 26.5901H17.4803V51.8001C17.4803 54.0901 19.3403 55.9601 21.6403 55.9601H33.2703C33.7303 55.9601 34.1003 56.3301 34.1003 56.7901C34.1003 57.2501 33.7303 57.6201 33.2703 57.6201Z" fill="#0044CC"/>
<path d="M29.1101 31.3H21.9101C21.4501 31.3 21.0801 30.93 21.0801 30.47C21.0801 30.01 21.4501 29.64 21.9101 29.64H29.1101C29.5701 29.64 29.9401 30.01 29.9401 30.47C29.9501 30.93 29.5701 31.3 29.1101 31.3Z" fill="#0044CC"/>
<path d="M38.26 88.0901C38.12 88.0901 37.97 88.0501 37.84 87.9801L0.42 66.3701C0.16 66.2201 0 65.9501 0 65.6501V22.4401C0 22.1401 0.16 21.8701 0.42 21.7201L37.84 0.110059C38.1 -0.0399414 38.41 -0.0399414 38.67 0.110059L76.1 21.7201C76.36 21.8701 76.52 22.1401 76.52 22.4401V65.6501C76.52 65.9501 76.36 66.2201 76.1 66.3701L38.67 87.9801C38.54 88.0501 38.4 88.0901 38.26 88.0901ZM1.66 65.1701L38.26 86.3001L74.85 65.1701V22.9201L38.26 1.79006L1.66 22.9201V65.1701Z" fill="#0044CC"/>
<path d="M48.2502 63.9801C47.8802 63.9801 47.5102 63.9701 47.1402 63.9301C44.0302 63.6801 41.0902 62.3301 38.8502 60.1201C36.6302 57.9001 35.2502 54.9701 34.9802 51.8601C34.7102 48.7501 35.5502 45.6201 37.3602 43.0501C39.1702 40.4801 41.8302 38.6201 44.8702 37.8101C47.9102 37.0001 51.1402 37.2801 53.9802 38.6101C54.4002 38.8001 54.5802 39.3001 54.3802 39.7201C54.1902 40.1401 53.6902 40.3201 53.2802 40.1201C50.7902 38.9601 47.9602 38.7101 45.3002 39.4201C42.6402 40.1301 40.3102 41.7601 38.7202 44.0101C37.1402 46.2601 36.4002 49.0001 36.6402 51.7201C36.8802 54.4401 38.0802 57.0101 40.0202 58.9501C41.9802 60.8801 44.5602 62.0701 47.2802 62.2801C50.0102 62.5201 52.7502 61.7601 55.0202 60.1701C57.2602 58.5901 58.8902 56.2601 59.5902 53.5901C60.1502 51.4501 60.1002 49.2201 59.4302 47.1201C59.2902 46.6801 59.5302 46.2201 59.9702 46.0801C60.4002 45.9401 60.8702 46.1801 61.0102 46.6201C61.7702 49.0201 61.8302 51.5701 61.1902 54.0101C60.3902 57.0501 58.5302 59.7201 55.9702 61.5201C53.6902 63.1301 50.9902 63.9801 48.2502 63.9801Z" fill="#0044CC"/>
<path d="M48.2402 41.1401C47.7802 41.1401 47.4102 40.7701 47.4102 40.3101V36.1501C47.4102 35.6901 47.7802 35.3201 48.2402 35.3201C48.7002 35.3201 49.0702 35.6901 49.0702 36.1501V40.3101C49.0702 40.7701 48.7002 41.1401 48.2402 41.1401Z" fill="#0044CC"/>
<path d="M48.2402 66.0801C47.7802 66.0801 47.4102 65.7101 47.4102 65.2501V61.1001C47.4102 60.6401 47.7802 60.2701 48.2402 60.2701C48.7002 60.2701 49.0702 60.6401 49.0702 61.1001V65.2601C49.0702 65.7101 48.7002 66.0801 48.2402 66.0801Z" fill="#0044CC"/>
<path d="M62.7898 51.5401H58.6298C58.1698 51.5401 57.7998 51.1701 57.7998 50.7101C57.7998 50.2501 58.1698 49.8801 58.6298 49.8801H62.7898C63.2498 49.8801 63.6198 50.2501 63.6198 50.7101C63.6198 51.1701 63.2498 51.5401 62.7898 51.5401Z" fill="#0044CC"/>
<path d="M37.8396 51.5401H33.6796C33.2196 51.5401 32.8496 51.1701 32.8496 50.7101C32.8496 50.2501 33.2196 49.8801 33.6796 49.8801H37.8396C38.2996 49.8801 38.6696 50.2501 38.6696 50.7101C38.6796 51.1701 38.2996 51.5401 37.8396 51.5401Z" fill="#0044CC"/>
<g opacity="0.8">
<path d="M48.2304 57.0601C44.7204 57.0601 41.8604 54.2001 41.8604 50.6901C41.8604 47.1801 44.7204 44.3201 48.2304 44.3201C51.7404 44.3201 54.6003 47.1801 54.6003 50.6901C54.6003 54.2101 51.7404 57.0601 48.2304 57.0601ZM48.2304 45.9801C45.6304 45.9801 43.5204 48.0901 43.5204 50.6901C43.5204 53.2901 45.6304 55.4001 48.2304 55.4001C50.8304 55.4001 52.9403 53.2901 52.9403 50.6901C52.9403 48.1001 50.8204 45.9801 48.2304 45.9801Z" fill="#FF6B00"/>
</g>
</svg>
