<svg width="81" height="81" viewBox="0 0 81 81" fill="none" xmlns="http://www.w3.org/2000/svg">
<g clip-path="url(#clip0_3454_1169)">
<path d="M80.1394 81H0.860599C0.38364 81 0 80.606 0 80.1394V0.860599C0 0.38364 0.38364 0 0.860599 0H80.129C80.606 0 80.9896 0.38364 80.9896 0.860599V80.129C81 80.606 80.606 81 80.1394 81ZM1.7212 79.2684H79.2684V1.7212H1.7212V79.2684Z" fill="#0044CC"/>
<path d="M40.5002 69.7915C40.3758 69.7915 40.241 69.7604 40.1166 69.6982L30.2974 64.856C22.0232 60.7708 16.3619 52.5484 15.5117 43.3825V24.947C15.5117 24.6256 15.6984 24.3249 15.9887 24.1797L40.1166 12.1521C40.355 12.0277 40.6454 12.0277 40.8838 12.1521L65.0117 24.1797C65.302 24.3249 65.4887 24.6256 65.4887 24.947V43.2996C63.726 52.8595 57.8573 60.8019 49.3758 65.2396L40.8942 69.6878C40.7698 69.7604 40.635 69.7915 40.5002 69.7915ZM17.2329 25.4862V43.3099C18.0209 51.8019 23.3193 59.5058 31.0543 63.3214L40.4795 67.9666L48.567 63.7258C56.5716 59.5265 62.1189 52.03 63.7675 43.1544V25.4862L40.5002 13.8837L17.2329 25.4862Z" fill="#0044CC"/>
<g opacity="0.1">
<path fill-rule="evenodd" clip-rule="evenodd" d="M57.733 41.3606C57.733 41.9101 57.7019 42.4597 57.6293 42.9988C57.142 40.6037 54.7987 38.7788 51.9991 38.7788C49.1374 38.7788 46.7733 40.6348 46.3275 43.0921H46.172C45.7054 40.6451 43.3413 38.7788 40.5003 38.7788C37.6593 38.7788 35.2952 40.6348 34.8286 43.0921H34.6731C34.2273 40.6451 31.8425 38.7788 29.0014 38.7788C26.1915 38.7788 23.8482 40.6037 23.3713 42.9988C23.2987 42.4597 23.2676 41.9101 23.2676 41.3606C23.2676 32.7961 30.9922 25.8491 40.5003 25.8491C50.0084 25.8491 57.733 32.7961 57.733 41.3606Z" fill="#0055FF"/>
</g>
<path d="M57.6286 42.9988L56.7887 43.1751C56.8717 43.5898 57.2553 43.8802 57.6804 43.8594C58.0952 43.8387 58.4374 43.5276 58.4892 43.1025L57.6286 42.9988ZM46.3268 43.0818V43.9424C46.7415 43.9424 47.1044 43.6521 47.1666 43.2373L46.3268 43.0818ZM46.1712 43.0818L45.3106 43.2373C45.3936 43.6521 45.7565 43.9424 46.1712 43.9424V43.0818ZM34.8279 43.0818V43.9424C35.2427 43.9424 35.6056 43.6521 35.6678 43.2373L34.8279 43.0818ZM34.6724 43.0818L33.8325 43.2373C33.9051 43.6521 34.268 43.9424 34.6724 43.9424V43.0818ZM23.3705 42.9988L22.5099 43.1025C22.5618 43.5173 22.9039 43.8387 23.3187 43.8594C23.7542 43.8802 24.1274 43.5795 24.2 43.1751L23.3705 42.9988ZM58.4892 43.1025C58.5618 42.5322 58.5929 41.9516 58.5929 41.3606H56.8717C56.8717 41.879 56.8406 42.3974 56.7887 42.9159L58.4892 43.1025ZM51.988 39.6394C54.4351 39.6394 56.3844 41.2258 56.7784 43.1751L58.4685 42.8329C57.8982 39.9712 55.1609 37.9182 51.988 37.9182V39.6394ZM47.1666 43.2373C47.5503 41.2569 49.4892 39.6394 51.988 39.6394V37.9182C48.7841 37.9182 46.0053 40.023 45.4765 42.9366L47.1666 43.2373ZM46.1712 43.9424H46.3268V42.2212H46.1712V43.9424ZM40.4996 39.6394C42.9777 39.6394 44.9477 41.2569 45.3106 43.2373L47.0215 42.9263C46.4719 40.0127 43.7139 37.9078 40.5099 37.9078V39.6394H40.4996ZM35.6678 43.2373C36.0514 41.2569 37.9904 39.6394 40.4892 39.6394V37.9182C37.2853 37.9182 34.5065 40.023 33.9777 42.9366L35.6678 43.2373ZM34.6724 43.9424H34.8279V42.2212H34.6724V43.9424ZM29.0007 39.6394C31.4996 39.6394 33.4489 41.2569 33.8221 43.2373L35.5122 42.9263C34.9731 40.0127 32.2046 37.9078 29.0007 37.9078V39.6394ZM24.1897 43.1647C24.6044 41.2154 26.5537 39.629 29.0007 39.629V37.9078C25.8486 37.9078 23.1113 39.9608 22.5203 42.8226L24.1897 43.1647ZM22.4062 41.3606C22.4062 41.9516 22.4374 42.5322 22.5099 43.1025L24.2208 42.8951C24.1689 42.3974 24.1378 41.879 24.1378 41.3606H22.4062ZM40.4996 24.9885C30.5871 24.9885 22.4062 32.2465 22.4062 41.3606H24.1274C24.1274 33.3456 31.3648 26.7097 40.4996 26.7097V24.9885ZM58.5929 41.3606C58.5929 32.2465 50.412 24.9885 40.4996 24.9885V26.7097C49.6344 26.7097 56.8717 33.3456 56.8717 41.3606H58.5929Z" fill="#0044CC"/>
<path d="M40.5002 26.7097C40.0233 26.7097 39.6396 26.326 39.6396 25.8491V23.2673C39.6396 22.7903 40.0233 22.4067 40.5002 22.4067C40.9772 22.4067 41.3608 22.7903 41.3608 23.2673V25.8491C41.3608 26.326 40.9772 26.7097 40.5002 26.7097Z" fill="#0044CC"/>
<g opacity="0.8">
<path d="M42.0657 58.5933C41.5887 58.5933 41.2051 58.2097 41.2051 57.7327V50.7339C41.2051 50.2569 41.5887 49.8733 42.0657 49.8733C42.5426 49.8733 42.9263 50.2569 42.9263 50.7339V57.7327C42.9263 58.2097 42.5426 58.5933 42.0657 58.5933Z" fill="#FF6B00"/>
</g>
<g opacity="0.8">
<path d="M42.0652 51.5945H39.1516C38.6747 51.5945 38.291 51.2109 38.291 50.7339C38.291 50.2569 38.6747 49.8733 39.1516 49.8733H42.0652C42.5422 49.8733 42.9258 50.2569 42.9258 50.7339C42.9258 51.2109 42.5422 51.5945 42.0652 51.5945Z" fill="#FF6B00"/>
</g>
<g opacity="0.8">
<path d="M44.9788 58.5933H39.1516C38.6747 58.5933 38.291 58.2097 38.291 57.7327C38.291 57.2558 38.6747 56.8721 39.1516 56.8721H44.9788C45.4558 56.8721 45.8394 57.2558 45.8394 57.7327C45.8394 58.2097 45.4558 58.5933 44.9788 58.5933Z" fill="#FF6B00"/>
</g>
<path d="M40.7173 47.8306C41.7881 47.8306 42.6562 46.9625 42.6562 45.8917C42.6562 44.8209 41.7881 43.9528 40.7173 43.9528C39.6464 43.9528 38.7783 44.8209 38.7783 45.8917C38.7783 46.9625 39.6464 47.8306 40.7173 47.8306Z" fill="white"/>
<g opacity="0.8">
<path d="M40.7175 48.6912C39.1726 48.6912 37.918 47.4366 37.918 45.8917C37.918 44.3468 39.1726 43.0922 40.7175 43.0922C42.2624 43.0922 43.517 44.3468 43.517 45.8917C43.517 47.4366 42.2624 48.6912 40.7175 48.6912ZM40.7175 44.8134C40.1265 44.8134 39.6392 45.3007 39.6392 45.8917C39.6392 46.4827 40.1265 46.97 40.7175 46.97C41.3085 46.97 41.7959 46.4827 41.7959 45.8917C41.7959 45.3007 41.3189 44.8134 40.7175 44.8134Z" fill="#FF6B00"/>
</g>
</g>
<defs>
<clipPath id="clip0_3454_1169">
<rect width="81" height="81" fill="white"/>
</clipPath>
</defs>
</svg>
