<svg width="195" height="31" viewBox="0 0 195 31" fill="none" xmlns="http://www.w3.org/2000/svg">
<rect x="128" width="67" height="31" rx="7" fill="#0097EF"/>
<path d="M146.668 9.94336V8.27344H156.529V9.94336H152.574V21H150.641V9.94336H146.668ZM156.6 18.3105C156.6 16.1309 158.445 15.5684 160.168 15.4453C160.801 15.4014 162.233 15.3223 162.682 15.3047L162.664 14.5488C162.664 13.4766 162.014 12.8438 160.73 12.8438C159.623 12.8438 158.955 13.3535 158.762 14.0566H156.898C157.074 12.4746 158.551 11.332 160.801 11.332C162.312 11.332 164.545 11.8945 164.545 14.6543V21H162.717V19.6992H162.646C162.277 20.4199 161.398 21.2109 159.816 21.2109C158.006 21.2109 156.6 20.1738 156.6 18.3105ZM158.428 18.3281C158.428 19.2422 159.184 19.7168 160.238 19.7168C161.768 19.7168 162.682 18.6973 162.682 17.5547V16.6758L160.432 16.834C159.201 16.9219 158.428 17.3789 158.428 18.3281ZM166.971 21V8.27344H168.834V13.002H168.939C169.291 12.4043 169.924 11.332 171.682 11.332C173.984 11.332 175.707 13.1426 175.707 16.2539C175.707 19.3301 174.02 21.1934 171.699 21.1934C169.959 21.1934 169.291 20.1387 168.939 19.5059H168.799V21H166.971ZM168.799 16.2188C168.799 18.2227 169.695 19.5938 171.277 19.5938C172.93 19.5938 173.791 18.1348 173.791 16.2188C173.791 14.3379 172.947 12.9316 171.277 12.9316C169.678 12.9316 168.799 14.2324 168.799 16.2188Z" fill="white"/>
<path d="M112.869 20.1914V16.834H109.512V15.1465H112.869V11.7891H114.557V15.1465H117.932V16.834H114.557V20.1914H112.869Z" fill="#020202"/>
<rect width="103" height="31" rx="7" fill="#0097EF"/>
<path d="M41.2266 11.6309C41.1035 10.4531 40.0664 9.76758 38.6074 9.76758C37.043 9.76758 36.0586 10.5586 36.0586 11.6484C36.0586 12.8613 37.377 13.3184 38.3789 13.5645L39.6094 13.8984C41.2441 14.2852 43.2656 15.1816 43.2832 17.4844C43.2656 19.6289 41.5605 21.2109 38.5547 21.2109C35.707 21.2109 33.9141 19.7871 33.791 17.4668H35.7246C35.8477 18.8555 37.0605 19.5234 38.5547 19.5234C40.1719 19.5234 41.3496 18.6973 41.3672 17.4492C41.3496 16.3418 40.3125 15.8848 38.959 15.5332L37.4473 15.1289C35.4082 14.5664 34.125 13.5293 34.125 11.7539C34.125 9.55664 36.0938 8.09766 38.6602 8.09766C41.2441 8.09766 43.0547 9.57422 43.1074 11.6309H41.2266ZM47.0801 15.3398V21H45.1992V8.27344H47.0449V13.0195H47.168C47.625 11.9824 48.5039 11.332 49.998 11.332C51.9668 11.332 53.2676 12.5449 53.2676 14.9355V21H51.3867V15.1641C51.3867 13.7578 50.6309 12.9492 49.3652 12.9492C48.0469 12.9492 47.0801 13.8105 47.0801 15.3398ZM55.5352 21V11.4551H57.416V21H55.5352ZM56.4844 9.97852C55.834 9.97852 55.2891 9.48633 55.2891 8.87109C55.2891 8.25586 55.834 7.76367 56.4844 7.76367C57.1172 7.76367 57.6621 8.25586 57.6621 8.87109C57.6621 9.48633 57.1172 9.97852 56.4844 9.97852ZM64.2539 11.4551V12.9492H62.1973V21H60.3164V12.9492H58.8398V11.4551H60.3164V10.3477C60.3164 8.64258 61.4062 7.67578 63.1641 7.67578C63.6211 7.67578 64.0781 7.72852 64.4473 7.79883V9.36328C64.0957 9.31055 63.832 9.29297 63.6562 9.29297C62.6543 9.29297 62.1973 9.69727 62.1973 10.6289V11.4551H64.2539ZM70.4238 11.4551V12.9492H68.4727V18.1875C68.4727 19.2598 69.0176 19.4531 69.6152 19.4707C69.8789 19.4707 70.3008 19.4355 70.5645 19.418V21.0527C70.3008 21.0879 69.8965 21.123 69.3867 21.123C67.9102 21.123 66.5918 20.3145 66.6094 18.5742V12.9492H65.2031V11.4551H66.6094V9.16992H68.4727V11.4551H70.4238Z" fill="white"/>
</svg>
