<svg width="77" height="89" viewBox="0 0 77 89" fill="none" xmlns="http://www.w3.org/2000/svg">
<g opacity="0.2">
<path d="M21.6399 40.7201C21.6399 39.8001 22.3899 39.0601 23.2999 39.0601H46.5699C47.4799 39.0601 48.2299 39.8001 48.2299 40.7201V53.3201C48.2299 54.9801 44.8599 56.9601 43.1899 56.8301C38.7899 56.4801 31.9999 57.5901 23.5099 58.7601C22.5099 58.8901 21.6299 58.1101 21.6299 57.1101V40.7201H21.6399Z" fill="#0055FF"/>
</g>
<path d="M48.2295 67.31C56.4917 67.31 63.1895 60.6122 63.1895 52.35C63.1895 44.0879 56.4917 37.39 48.2295 37.39C39.9674 37.39 33.2695 44.0879 33.2695 52.35C33.2695 60.6122 39.9674 67.31 48.2295 67.31Z" fill="white"/>
<path d="M33.2803 59.2901H21.6403C18.4303 59.2901 15.8203 56.6801 15.8203 53.4701V27.4201C15.8203 26.9601 16.1903 26.5901 16.6503 26.5901H29.6303C30.8703 26.5901 32.0403 27.1401 32.8303 28.1001L35.9403 31.8501H56.5403C57.0003 31.8501 57.3703 32.2201 57.3703 32.6801V38.2201C57.3703 38.6801 57.0003 39.0501 56.5403 39.0501C56.0803 39.0501 55.7103 38.6801 55.7103 38.2201V33.5101H35.5503C35.3003 33.5101 35.0703 33.4001 34.9103 33.2101L31.5503 29.1601C31.0703 28.5801 30.3703 28.2501 29.6303 28.2501H17.4903V53.4601C17.4903 55.7501 19.3503 57.6201 21.6503 57.6201H33.2803C33.7403 57.6201 34.1103 57.9901 34.1103 58.4501C34.1103 58.9101 33.7303 59.2901 33.2803 59.2901Z" fill="#0044CC"/>
<path d="M29.1198 32.96H21.9198C21.4598 32.96 21.0898 32.5901 21.0898 32.1301C21.0898 31.6701 21.4598 31.3 21.9198 31.3H29.1198C29.5798 31.3 29.9498 31.6701 29.9498 32.1301C29.9498 32.5901 29.5798 32.96 29.1198 32.96Z" fill="#0044CC"/>
<path d="M38.26 88.0901C38.12 88.0901 37.97 88.0501 37.84 87.9801L0.42 66.3701C0.16 66.2201 0 65.9501 0 65.6501V22.4401C0 22.1401 0.16 21.8701 0.42 21.7201L37.85 0.110059C38.11 -0.0399414 38.42 -0.0399414 38.68 0.110059L76.11 21.7201C76.37 21.8701 76.53 22.1401 76.53 22.4401V65.6501C76.53 65.9501 76.37 66.2201 76.11 66.3701L38.68 87.9801C38.55 88.0501 38.4 88.0901 38.26 88.0901ZM1.66 65.1701L38.26 86.3001L74.86 65.1701V22.9201L38.26 1.79006L1.66 22.9201V65.1701Z" fill="#0044CC"/>
<path d="M34.4698 52.55C34.4698 53 34.8498 53.3601 35.3198 53.3601C35.7698 53.3601 36.1298 52.98 36.1298 52.51L34.4698 52.55ZM37.2498 58.0201C36.7998 57.9001 36.3498 58.17 36.2398 58.6201L34.3098 65.8301C34.1898 66.2801 34.4598 66.7301 34.8898 66.8601C35.3398 66.9801 35.7898 66.7101 35.8998 66.2601L37.6298 59.8401L44.0498 61.5501C44.4998 61.6701 44.9498 61.4001 45.0598 60.9501C45.1798 60.5201 44.9298 60.0501 44.4798 59.9401L37.2498 58.0201ZM56.9898 60.7001C52.3898 65.5401 44.7198 65.7201 39.8898 61.1201L38.7398 62.3301C44.2398 67.5701 52.9498 67.35 58.1998 61.85L56.9898 60.7001ZM39.4698 44.01C44.0698 39.17 51.7398 38.99 56.5698 43.6L57.7198 42.4001C52.2198 37.1601 43.5098 37.37 38.2598 42.87L39.4698 44.01ZM56.5798 43.5901C61.4198 48.2001 61.5998 55.8601 56.9998 60.6901L58.2098 61.8401C63.4498 56.3401 63.2298 47.6301 57.7298 42.3901L56.5798 43.5901ZM36.1298 52.5201C36.0798 49.4701 37.1898 46.4 39.4698 44.01L38.2598 42.8601C35.6798 45.5801 34.4198 49.07 34.4698 52.55L36.1298 52.5201ZM39.8898 61.1101C39.0298 60.3001 38.3098 59.3801 37.7598 58.4001L36.3098 59.2501C36.9598 60.3501 37.7598 61.3901 38.7398 62.3201L39.8898 61.1101Z" fill="#0044CC"/>
<path d="M48.91 39.0201H47.25V42.34H48.91V39.0201Z" fill="#0044CC"/>
<path d="M48.91 62.66H47.25V65.98H48.91V62.66Z" fill="#0044CC"/>
<path d="M61.3698 51.4901H58.0498V53.1501H61.3698V51.4901Z" fill="#0044CC"/>
<path d="M48.0796 54.9101C47.8696 54.9101 47.6696 54.8301 47.5096 54.6901L42.3396 49.8601C42.0096 49.5501 41.9896 49.0201 42.2996 48.6801C42.6096 48.3501 43.1396 48.3301 43.4796 48.6401L47.9696 52.8401L54.0596 44.7201C54.3296 44.3501 54.8596 44.2801 55.2196 44.5501C55.5896 44.8201 55.6596 45.3501 55.3896 45.7101L48.7396 54.5701C48.5996 54.7601 48.3796 54.8801 48.1496 54.9001C48.1296 54.9101 48.1096 54.9101 48.0796 54.9101Z" fill="#FF6B00"/>
<path d="M48.2303 55.0101C49.1471 55.0101 49.8903 54.2669 49.8903 53.3501C49.8903 52.4333 49.1471 51.6901 48.2303 51.6901C47.3135 51.6901 46.5703 52.4333 46.5703 53.3501C46.5703 54.2669 47.3135 55.0101 48.2303 55.0101Z" fill="white"/>
<path d="M48.2302 55.8501C46.8602 55.8501 45.7402 54.7301 45.7402 53.3601C45.7402 51.9901 46.8602 50.8701 48.2302 50.8701C49.6002 50.8701 50.7202 51.9901 50.7202 53.3601C50.7202 54.7301 49.6102 55.8501 48.2302 55.8501ZM48.2302 52.5201C47.7702 52.5201 47.4002 52.8901 47.4002 53.3501C47.4002 53.8101 47.7702 54.1801 48.2302 54.1801C48.6902 54.1801 49.0602 53.8101 49.0602 53.3501C49.0602 52.8901 48.6902 52.5201 48.2302 52.5201Z" fill="#FF6B00"/>
</svg>
