<svg width="81" height="81" viewBox="0 0 81 81" fill="none" xmlns="http://www.w3.org/2000/svg">
<g clip-path="url(#clip0_3454_1200)">
<g opacity="0.2">
<path d="M12.9297 36.674V28.5449L19.7523 21.3387L20.9654 20.25C21.2765 19.97 21.6912 19.8145 22.106 19.8145H23.8064H50.8271V30.3491V60.6567C50.8271 64.462 47.7373 67.5518 43.932 67.5518H12.9297V36.674Z" fill="#0055FF"/>
</g>
<path d="M19.8145 33.4182V26.0253L26.0149 19.4724L27.0725 18.5288C27.3836 18.2489 27.7983 18.0933 28.2131 18.0933H29.7062H54.2695V27.674V54.6118C54.2695 58.4067 51.1797 61.5069 47.3744 61.5069H19.8145V33.4182Z" fill="white"/>
<path d="M80.1394 81H0.860599C0.38364 81 0 80.606 0 80.1394V0.860599C0 0.38364 0.38364 0 0.860599 0H80.129C80.606 0 80.9896 0.38364 80.9896 0.860599V80.129C81 80.606 80.606 81 80.1394 81ZM1.7212 79.2684H79.2684V1.7212H1.7212V79.2684Z" fill="#0044CC"/>
<path d="M29.7168 18.0933V17.2327H28.8562V18.0933H29.7168ZM19.8147 26.0254L19.1926 25.4343L18.9541 25.6728V26.015H19.8147V26.0254ZM53.4195 31.1267C53.4195 31.5933 53.8032 31.9873 54.2801 31.9873C54.7571 31.9873 55.1407 31.5933 55.1407 31.1267H53.4195ZM54.2801 18.0933H55.1407C55.1407 17.606 54.7571 17.2327 54.2801 17.2327V18.0933ZM29.7168 26.4919V27.3525C30.1937 27.3525 30.5774 26.9689 30.5774 26.4919H29.7168ZM23.9518 25.6313C23.4748 25.6313 23.0912 26.0254 23.0912 26.4919C23.0912 26.9793 23.4748 27.3525 23.9518 27.3525V25.6313ZM26.6476 20.0634C26.9794 19.7212 26.9587 19.182 26.6165 18.8606C26.2744 18.5288 25.7248 18.5495 25.393 18.8917L26.6476 20.0634ZM19.8147 61.5069H18.9541C18.9541 61.9735 19.3377 62.3675 19.8147 62.3675V61.5069ZM51.6983 62.3675C52.1753 62.3675 52.5589 61.9735 52.5589 61.5069C52.5589 61.0196 52.1753 60.6463 51.6983 60.6463V62.3675ZM18.9541 26.0254V33.4182H20.6753V26.0254H18.9541ZM55.1511 31.1267V18.0933H53.4299V31.1267H55.1511ZM54.2801 17.2327H29.7168V18.9539H54.2801V17.2327ZM28.8562 18.0933V26.4816H30.5774V18.0933H28.8562ZM29.7168 25.6313H23.9518V27.3525H29.7168V25.6313ZM20.4472 26.606L26.6476 20.053L25.393 18.8813L19.1926 25.4343L20.4472 26.606ZM20.6753 61.5069V33.4182H18.9541V61.5069H20.6753ZM19.8147 62.3675H51.6983V60.6463H19.8147V62.3675Z" fill="#0044CC"/>
<g opacity="0.9">
<g opacity="0.8">
<path d="M25.1852 39.3387C24.8949 39.3387 24.6046 39.1935 24.4491 38.9239C24.2002 38.5196 24.335 37.9908 24.7498 37.7419L31.4479 33.7292C31.6449 33.6048 31.8834 33.5737 32.1115 33.6359C32.3396 33.6981 32.5263 33.8433 32.6403 34.0403L33.7498 35.9689L40.0539 32.0184C40.4583 31.7592 40.9871 31.8836 41.2463 32.288C41.4952 32.6924 41.3811 33.2212 40.9767 33.4804L33.9157 37.9078C33.7187 38.0322 33.4698 38.0633 33.2521 38.0115C33.024 37.9493 32.827 37.8041 32.7129 37.6071L31.5931 35.6578L25.6415 39.2246C25.4859 39.3076 25.3304 39.3387 25.1852 39.3387Z" fill="#FF6B00"/>
</g>
</g>
<path d="M54.6425 57.2246C53.6678 57.2246 52.6932 57.1002 51.7289 56.841C48.836 56.0633 46.4202 54.2074 44.9271 51.6256C41.8372 46.2753 43.6828 39.4113 49.0227 36.3214C54.3729 33.2316 61.237 35.0772 64.3268 40.417C67.4167 45.7673 65.5814 52.6313 60.2312 55.7212C58.4996 56.7166 56.5814 57.2246 54.6425 57.2246ZM49.8833 37.8041C45.3625 40.417 43.7969 46.2235 46.4098 50.7546C47.6748 52.9424 49.7174 54.5184 52.1644 55.1716C54.6114 55.8249 57.1621 55.4931 59.3602 54.2281C63.881 51.6152 65.4466 45.8087 62.8337 41.2776C60.2208 36.7465 54.4144 35.1912 49.8833 37.8041Z" fill="#0044CC"/>
<path d="M62.8967 61.1958C62.596 61.1958 62.3057 61.0403 62.1502 60.7604L59.5684 56.2811C59.3299 55.8663 59.475 55.3375 59.8794 55.1094C60.2942 54.871 60.8126 55.0161 61.0614 55.4205L63.6432 59.8998C63.8817 60.3145 63.7366 60.8433 63.3322 61.0714C63.187 61.1544 63.0419 61.1958 62.8967 61.1958Z" fill="#0044CC"/>
<path d="M60.5317 61.1129C59.9199 60.0656 60.2828 58.697 61.3404 58.0748C62.398 57.4735 63.7563 57.8364 64.3681 58.9043L66.587 62.7304C67.1987 63.7984 66.8358 65.1463 65.7782 65.7684C64.7206 66.3698 63.3623 66.0069 62.7505 64.9596L60.5317 61.1129Z" fill="white"/>
<path d="M64.6796 66.909C63.6116 66.909 62.5747 66.3594 62.0044 65.3848L59.7856 61.538C58.9353 60.076 59.4434 58.1889 60.9054 57.3283C62.3881 56.4885 64.2752 56.9965 65.115 58.4689L67.3339 62.2845C68.1738 63.7569 67.6657 65.6336 66.2141 66.4942C65.7268 66.7845 65.198 66.909 64.6796 66.909ZM62.4399 58.6451C62.2118 58.6451 61.9837 58.7074 61.7763 58.8214C61.1335 59.1947 60.9054 60.0345 61.2786 60.667L63.4975 64.5138C63.8708 65.1567 64.7003 65.3744 65.3535 65.0011C65.9964 64.6175 66.2245 63.8087 65.8409 63.1451L63.622 59.3295C63.3731 58.894 62.9169 58.6451 62.4399 58.6451Z" fill="#0044CC"/>
<g opacity="0.9">
<g opacity="0.8">
<path d="M27.5706 59.4539C27.0936 59.4539 26.71 59.0703 26.71 58.5933V52.4758C26.71 51.9989 27.0936 51.6152 27.5706 51.6152C28.0475 51.6152 28.4312 51.9989 28.4312 52.4758V58.5933C28.4312 59.0703 28.0475 59.4539 27.5706 59.4539Z" fill="#FF6B00"/>
</g>
</g>
<g opacity="0.9">
<g opacity="0.8">
<path d="M31.884 59.4539C31.4071 59.4539 31.0234 59.0703 31.0234 58.5933V45.6636C31.0234 45.1866 31.4071 44.803 31.884 44.803C32.361 44.803 32.7446 45.1866 32.7446 45.6636V58.5933C32.7446 59.0703 32.361 59.4539 31.884 59.4539Z" fill="#FF6B00"/>
</g>
</g>
<g opacity="0.9">
<g opacity="0.8">
<path d="M36.1868 59.4539C35.7098 59.4539 35.3262 59.0703 35.3262 58.5933V49.7488C35.3262 49.2719 35.7098 48.8882 36.1868 48.8882C36.6637 48.8882 37.0474 49.2719 37.0474 49.7488V58.5933C37.0474 59.0703 36.6637 59.4539 36.1868 59.4539Z" fill="#FF6B00"/>
</g>
</g>
</g>
<defs>
<clipPath id="clip0_3454_1200">
<rect width="81" height="81" fill="white"/>
</clipPath>
</defs>
</svg>
