<svg width="64" height="41" viewBox="0 0 64 41" fill="none" xmlns="http://www.w3.org/2000/svg">
<path d="M31 36H33V30H31V36ZM32 28C32.2833 28 32.5208 27.9042 32.7125 27.7125C32.9042 27.5208 33 27.2833 33 27C33 26.7167 32.9042 26.4792 32.7125 26.2875C32.5208 26.0958 32.2833 26 32 26C31.7167 26 31.4792 26.0958 31.2875 26.2875C31.0958 26.4792 31 26.7167 31 27C31 27.2833 31.0958 27.5208 31.2875 27.7125C31.4792 27.9042 31.7167 28 32 28ZM32 41C30.6167 41 29.3167 40.7375 28.1 40.2125C26.8833 39.6875 25.825 38.975 24.925 38.075C24.025 37.175 23.3125 36.1167 22.7875 34.9C22.2625 33.6833 22 32.3833 22 31C22 29.6167 22.2625 28.3167 22.7875 27.1C23.3125 25.8833 24.025 24.825 24.925 23.925C25.825 23.025 26.8833 22.3125 28.1 21.7875C29.3167 21.2625 30.6167 21 32 21C33.3833 21 34.6833 21.2625 35.9 21.7875C37.1167 22.3125 38.175 23.025 39.075 23.925C39.975 24.825 40.6875 25.8833 41.2125 27.1C41.7375 28.3167 42 29.6167 42 31C42 32.3833 41.7375 33.6833 41.2125 34.9C40.6875 36.1167 39.975 37.175 39.075 38.075C38.175 38.975 37.1167 39.6875 35.9 40.2125C34.6833 40.7375 33.3833 41 32 41Z" fill="#0097EF"/>
</svg>
