<svg width="332" height="462" viewBox="0 0 332 462" fill="none" xmlns="http://www.w3.org/2000/svg">
<g clip-path="url(#clip0_3493_53)">
<path d="M89.9517 -1.71638C88.8893 0.955737 85.8707 2.25043 83.1989 1.18867C80.527 0.126908 79.233 -2.89135 80.2954 -5.56347C81.3578 -8.23559 84.3764 -9.53028 87.0326 -8.48403C89.7201 -7.40675 91.0141 -4.3885 89.9517 -1.71638ZM112.829 1.77983C110.158 0.718065 107.155 2.02826 106.077 4.68487C105.014 7.35699 106.308 10.3752 108.98 11.437C111.652 12.4988 114.655 11.1886 115.733 8.53196C116.795 5.85984 115.501 2.84159 112.829 1.77983ZM138.626 12.0437C135.954 10.9819 132.936 12.2766 131.873 14.9487C130.811 17.6208 132.105 20.6391 134.777 21.7009C137.449 22.7626 140.483 21.4523 141.53 18.7958C142.592 16.1237 141.267 13.1056 138.626 12.0437ZM51.0127 7.06676C48.3408 6.005 45.3223 7.29969 44.2599 9.97181C43.1975 12.6439 44.4915 15.6622 47.1634 16.7239C49.8196 17.7702 52.8381 16.4755 53.9005 13.8034C54.9786 11.1468 53.6689 8.11302 51.0127 7.06676ZM76.7939 17.3151C74.122 16.2533 71.1035 17.548 70.0411 20.2202C68.9787 22.8923 70.2882 25.8949 72.9445 26.9723C75.6007 28.0185 78.6193 26.7239 79.6817 24.0517C80.7597 21.3951 79.4501 18.3614 76.7939 17.3151ZM102.575 27.5635C99.9032 26.5017 96.9003 27.8119 95.8379 30.484C94.7755 33.1561 96.0695 36.1744 98.7414 37.2361C101.413 38.2979 104.432 37.0032 105.494 34.3311C106.541 31.6435 105.247 28.6252 102.575 27.5635ZM128.341 37.8275C125.669 36.7657 122.666 38.0759 121.588 40.7325C120.526 43.4046 121.819 46.4229 124.491 47.4847C127.163 48.5464 130.182 47.2517 131.244 44.5796C132.322 41.8918 131.013 38.8892 128.341 37.8275ZM150.273 57.733C152.944 58.7948 155.963 57.5001 157.025 54.8279C158.088 52.1558 156.794 49.1376 154.122 48.0758C151.466 47.0296 148.447 48.3243 147.385 50.9964C146.338 53.6528 147.632 56.6711 150.273 57.733ZM40.7427 32.8349C38.0708 31.7731 35.0523 33.0678 33.9899 35.7399C32.943 38.3964 34.2527 41.4301 36.9245 42.4919C39.5807 43.5381 42.5993 42.2435 43.6617 39.5713C44.7085 36.9149 43.4146 33.8966 40.7427 32.8349ZM66.5395 43.0987C63.8677 42.037 60.8491 43.3317 59.7867 46.0038C58.7244 48.6759 60.0183 51.6942 62.6902 52.7559C65.3621 53.8177 68.3649 52.5075 69.4275 49.8665C70.4897 47.1632 69.1957 44.145 66.5395 43.0987ZM92.3207 53.3471C89.6488 52.2853 86.6303 53.58 85.5679 56.2521C84.5055 58.9242 85.7995 61.9425 88.4714 63.0043C91.1432 64.066 94.1618 62.7713 95.2242 60.0992C96.271 57.4428 94.9614 54.409 92.3207 53.3471ZM118.086 63.6111C115.414 62.5493 112.412 63.8595 111.334 66.5161C110.271 69.1883 111.581 72.1908 114.237 73.2683C116.909 74.33 119.927 73.0353 120.99 70.3632C122.052 67.6911 120.758 64.6729 118.086 63.6111ZM143.868 73.8594C141.196 72.7977 138.193 74.1079 137.13 76.78C136.068 79.4521 137.378 82.4547 140.018 83.5166C142.69 84.5784 145.709 83.2837 146.771 80.6116C147.833 77.9395 146.539 74.9212 143.868 73.8594ZM30.4884 58.6185C27.8165 57.5567 24.7979 58.8514 23.7356 61.5236C22.6732 64.1957 23.9827 67.1983 26.639 68.2757C29.3109 69.3374 32.3138 68.0273 33.3761 65.3551C34.4542 62.6985 33.1445 59.6648 30.4884 58.6185ZM56.2695 68.8668C53.5977 67.8051 50.5791 69.0998 49.5167 71.7719C48.4543 74.444 49.7483 77.4623 52.4202 78.524C55.0764 79.5703 58.0949 78.2756 59.1573 75.6035C60.2199 72.9625 58.9259 69.9443 56.2695 68.8668ZM82.0352 79.1309C79.3633 78.0691 76.3604 79.3793 75.2824 82.0359C74.22 84.708 75.514 87.7263 78.1858 88.7881C80.842 89.8343 83.8606 88.5396 84.9386 85.883C86.001 83.2109 84.707 80.1926 82.0352 79.1309ZM107.816 89.3792C105.16 88.333 102.142 89.6276 101.064 92.2843C100.001 94.9564 101.311 97.959 103.967 99.0364C106.639 100.098 109.657 98.8035 110.72 96.1313C111.798 93.4747 110.488 90.441 107.816 89.3792ZM133.613 99.6431C130.941 98.5813 127.938 99.8915 126.876 102.564C125.814 105.236 127.108 108.254 129.78 109.316C132.451 110.378 135.47 109.083 136.532 106.411C137.564 103.739 136.254 100.705 133.613 99.6431ZM46.0152 94.6505C43.3433 93.5887 40.3248 94.8834 39.2624 97.5555C38.2 100.228 39.494 103.246 42.1658 104.308C44.8377 105.369 47.8406 104.059 48.903 101.387C49.9498 98.7307 48.6714 95.6967 46.0152 94.6505ZM71.7808 104.914C69.109 103.853 66.0904 105.147 65.028 107.82C63.9657 110.492 65.2596 113.51 67.9315 114.572C70.6034 115.633 73.6062 114.323 74.6843 111.667C75.7467 108.995 74.437 105.961 71.7808 104.914ZM97.562 115.163C94.8901 114.101 91.8873 115.411 90.8092 118.068C89.7468 120.74 91.0408 123.758 93.7127 124.82C96.3845 125.882 99.4031 124.587 100.465 121.915C101.528 119.243 100.234 116.225 97.562 115.163Z" fill="url(#paint0_linear_3493_53)"/>
</g>
<path d="M40.8185 401.814C41.7304 402.88 42.6587 403.885 43.5858 404.967L197.899 139.505C196.496 139.209 195.108 138.976 193.736 138.711L40.8185 401.814ZM49.432 411.109C50.3918 412.069 51.3824 413.045 52.3579 413.99L210.208 142.416C208.869 142.046 207.544 141.691 206.22 141.366L49.432 411.109ZM68.1651 427.159C69.2358 427.937 70.3216 428.746 71.4234 429.51L233.383 150.797C232.185 150.261 230.956 149.754 229.727 149.202L68.1651 427.159ZM32.7605 391.535C33.6243 392.723 34.4575 393.879 35.3374 395.021L185.035 137.47C183.584 137.311 182.149 137.168 180.666 137.054L32.7605 391.535ZM78.2062 433.988C79.3549 434.722 80.4889 435.41 81.6228 436.098L244.311 156.206C243.13 155.563 241.948 154.95 240.752 154.323L78.2062 433.988ZM58.5681 419.558C59.5911 420.427 60.6144 421.281 61.6683 422.151L222.041 146.191C220.765 145.745 219.503 145.314 218.211 144.884L58.5681 419.558ZM25.3049 380.243C26.0901 381.521 26.8752 382.799 27.676 384.062L171.584 136.494C170.085 136.426 168.571 136.404 167.04 136.396L25.3049 380.243ZM4.53946 271.137C3.94822 274.545 3.4952 278.017 3.1506 281.475L69.4512 167.348C66.6383 169.397 63.855 171.537 61.1631 173.771L4.53946 271.137ZM13.0163 240.323L38.4422 196.548C33.1833 203.031 28.3496 210.038 24.0196 217.48C19.6744 224.907 16.0218 232.542 13.0163 240.323ZM2.32007 299.052C2.34465 301.585 2.41673 304.042 2.54997 306.546L91.1185 154.181C88.8598 155.338 86.6314 156.541 84.4334 157.775L2.32007 299.052ZM7.60261 338.26C8.07097 340.051 8.57001 341.859 9.10042 343.636L126.823 141.053C125.023 141.499 123.207 141.976 121.406 142.499L7.60261 338.26ZM3.95415 320.388C4.26369 322.467 4.62003 324.516 4.97662 326.551L109.835 146.157C107.861 146.876 105.887 147.61 103.927 148.405L3.95415 320.388ZM12.5672 353.893C13.1316 355.457 13.7731 357.038 14.3994 358.603L142.605 138.051C140.917 138.27 139.227 138.55 137.553 138.861L12.5672 353.893ZM18.5319 367.741C19.2223 369.155 19.9274 370.614 20.6644 372.014L157.483 136.607C155.89 136.66 154.296 136.773 152.686 136.902L18.5319 367.741ZM111.088 449.849C112.364 450.31 113.641 450.726 114.934 451.157L274.307 176.952C273.284 176.082 272.261 175.198 271.253 174.329L111.088 449.849ZM224.008 448.688C226.013 447.924 228.004 447.145 229.979 446.304L328.144 277.453C327.881 275.343 327.541 273.218 327.185 271.153L224.008 448.688ZM190.952 457.294C192.656 457.029 194.361 456.734 196.051 456.438L319.863 243.403C319.299 241.839 318.689 240.228 318.062 238.662L190.952 457.294ZM206.846 454.034C208.661 453.588 210.493 453.081 212.294 452.558L324.717 259.233C324.264 257.426 323.75 255.588 323.235 253.811L206.846 454.034ZM242.978 440.195C245.269 438.978 247.544 437.745 249.759 436.405L329.461 299.302C329.483 296.74 329.444 294.146 329.342 291.597L242.978 440.195ZM88.7223 440.062C89.9037 440.674 91.1001 441.317 92.2667 441.884L254.764 162.339C253.631 161.606 252.512 160.933 251.363 160.245L88.7223 440.062ZM265.153 426.166C268.123 423.937 271.018 421.554 273.836 419.154L326.512 328.488C327.214 324.868 327.809 321.231 328.264 317.591L265.153 426.166ZM314.18 365.972L300.381 389.72C302.971 385.99 305.455 382.137 307.786 378.128C310.087 374.12 312.234 370.078 314.18 365.972ZM122.968 453.563C124.293 453.903 125.648 454.259 126.957 454.568L283.38 185.476C282.436 184.516 281.46 183.556 280.469 182.61L122.968 453.563ZM135.357 456.369C136.76 456.634 138.132 456.868 139.535 457.102L291.914 194.922C291.033 193.841 290.106 192.775 289.209 191.74L135.357 456.369ZM99.6672 445.364C100.896 445.886 102.141 446.422 103.385 446.929L264.773 169.245C263.703 168.436 262.617 167.657 261.53 166.893L99.6672 445.364ZM175.994 458.889C177.603 458.791 179.213 458.677 180.792 458.533L313.994 229.343C313.32 227.929 312.63 226.485 311.893 225.071L175.994 458.889ZM161.783 459.153C163.312 459.206 164.843 459.213 166.389 459.221L307.3 216.735C306.531 215.427 305.777 214.119 304.961 212.856L161.783 459.153ZM148.284 458.253C149.735 458.427 151.186 458.57 152.653 458.683L299.924 205.292C299.091 204.12 298.227 202.963 297.363 201.776L148.284 458.253Z" fill="url(#paint1_linear_3493_53)" fill-opacity="0.34"/>
<defs>
<linearGradient id="paint0_linear_3493_53" x1="34.0027" y1="35.7382" x2="146.757" y2="80.6289" gradientUnits="userSpaceOnUse">
<stop stop-color="#FFD5E4"/>
<stop offset="1" stop-color="#F4FFFF"/>
</linearGradient>
<linearGradient id="paint1_linear_3493_53" x1="8.04961" y1="339.952" x2="323.14" y2="253.411" gradientUnits="userSpaceOnUse">
<stop stop-color="#FF9DC0"/>
<stop offset="1" stop-color="#F4FFFF"/>
</linearGradient>
<clipPath id="clip0_3493_53">
<rect width="88.7439" height="88.7439" fill="white" transform="translate(64.6816 63.1475) rotate(-45.2975)"/>
</clipPath>
</defs>
</svg>
