<svg width="171" height="20" viewBox="0 0 171 20" fill="none" xmlns="http://www.w3.org/2000/svg">
<mask id="path-1-inside-1_3456_101" fill="white">
<path d="M0 8C0 14.6274 5.37258 20 12 20H159C165.627 20 171 14.6274 171 8V0H0V8Z"/>
</mask>
<path d="M0 8C0 14.6274 5.37258 20 12 20H159C165.627 20 171 14.6274 171 8V0H0V8Z" fill="#F4F5F6"/>
<path d="M-1 8C-1 15.1797 4.8203 21 12 21H159C166.18 21 172 15.1797 172 8H170C170 14.0751 165.075 19 159 19H12C5.92487 19 1 14.0751 1 8H-1ZM171 0H0H171ZM-1 0V8C-1 15.1797 4.8203 21 12 21V19C5.92487 19 1 14.0751 1 8V0H-1ZM159 21C166.18 21 172 15.1797 172 8V0H170V8C170 14.0751 165.075 19 159 19V21Z" fill="#C6C6C6" mask="url(#path-1-inside-1_3456_101)"/>
</svg>
