<svg width="100" height="142" viewBox="0 0 100 142" fill="none" xmlns="http://www.w3.org/2000/svg">
<g clip-path="url(#clip0_3454_672)">
<g opacity="0.2">
<path d="M28.2842 77.0522C28.2842 75.8497 29.2514 74.8825 30.4538 74.8825H60.8682C62.0706 74.8825 63.0378 75.8497 63.0378 77.0522V93.5206C63.0378 95.6902 58.6201 98.2781 56.4504 98.1082C50.6865 97.6508 41.8249 99.1016 30.7414 100.631C29.4344 100.801 28.2842 99.7812 28.2842 98.4742V77.0522Z" fill="#0055FF"/>
</g>
<path d="M41.3146 101.31H28.2836C24.0881 101.31 20.6768 97.8991 20.6768 93.7036V59.6688C20.6768 59.0676 21.1604 58.584 21.7616 58.584H40.8963C42.517 58.584 44.0463 59.3028 45.0788 60.5576L49.1306 65.4589H73.8855C74.4867 65.4589 74.9703 65.9425 74.9703 66.5437V73.7846C74.9703 74.3858 74.4867 74.8694 73.8855 74.8694C73.2843 74.8694 72.8007 74.3858 72.8007 73.7846V67.6285H48.6208C48.2941 67.6285 47.9935 67.4848 47.7843 67.2364L43.4058 61.943C42.7784 61.1849 41.8635 60.7536 40.8963 60.7536H22.8464V93.7036C22.8464 96.6966 25.2775 99.1408 28.2836 99.1408H41.3146C41.9158 99.1408 42.3994 99.6244 42.3994 100.226C42.3994 100.827 41.9158 101.31 41.3146 101.31Z" fill="#0044CC"/>
<path d="M38.0471 66.9097H28.6366C28.0354 66.9097 27.5518 66.4261 27.5518 65.8249C27.5518 65.2236 28.0354 64.74 28.6366 64.74H38.0471C38.6483 64.74 39.1319 65.2236 39.1319 65.8249C39.145 66.4261 38.6483 66.9097 38.0471 66.9097Z" fill="#0044CC"/>
<path d="M50.0065 141.135C49.8236 141.135 49.6275 141.083 49.4576 140.992L0.548948 112.747C0.209123 112.551 0 112.198 0 111.806V55.3295C0 54.9374 0.209123 54.5845 0.548948 54.3884L49.4576 26.1438C49.7974 25.9477 50.2026 25.9477 50.5424 26.1438L99.4641 54.3884C99.8039 54.5845 100.013 54.9374 100.013 55.3295V111.806C100.013 112.198 99.8039 112.551 99.4641 112.747L50.5424 140.992C50.3725 141.083 50.1895 141.135 50.0065 141.135ZM2.16965 111.178L50.0065 138.796L97.8304 111.178V55.9569L50.0065 28.3396L2.16965 55.9569V111.178Z" fill="#0044CC"/>
<path d="M82.7475 110.721H43.4847C43.171 110.721 42.8835 110.59 42.6743 110.368C42.4652 110.146 42.3737 109.832 42.3999 109.532L43.0011 103.598C43.0011 103.572 43.0011 103.545 43.0142 103.532C43.4324 100.997 44.844 98.814 46.9875 97.3763C49.1179 95.9516 51.6666 95.468 54.1761 96.0431L60.11 97.3894C61.9921 97.8076 63.9526 97.8207 65.7824 97.4155L71.8078 96.0431C74.3434 95.4811 76.9313 95.9386 79.101 97.3632C81.2575 98.7748 82.7214 100.958 83.205 103.506L83.8193 107.323L83.8324 109.649C83.8454 110.237 83.3488 110.721 82.7475 110.721ZM44.6871 108.551H81.6627V107.493L81.0746 103.885C80.7086 101.951 79.5846 100.278 77.9116 99.18C76.2386 98.0821 74.2388 97.7292 72.2914 98.1605L66.266 99.5329C64.1225 100.016 61.8352 100.016 59.6394 99.5067L53.6925 98.1605C51.7712 97.7292 49.8237 98.0821 48.19 99.18C46.5693 100.265 45.4844 101.925 45.1577 103.859L44.6871 108.551Z" fill="#0044CC"/>
<g opacity="0.8">
<path fill-rule="evenodd" clip-rule="evenodd" d="M53.1304 83.2997C53.1304 78.0455 57.3782 73.7977 62.6324 73.7977C67.8866 73.7977 72.1344 78.0585 72.1344 83.2997V84.7766C73.3107 85.1165 74.1734 86.1621 74.1734 87.3776C74.1734 88.8807 72.8794 90.0962 71.2849 90.0962C71.2718 90.0962 71.2587 90.0962 71.2587 90.0962C71.2457 90.0962 71.2326 90.0962 71.2326 90.0962C69.7034 93.3115 66.4358 95.5334 62.6455 95.5334C58.8551 95.5334 55.5876 93.3115 54.0584 90.0962C54.0322 90.0962 54.0191 90.0962 53.993 90.0962C52.3984 90.0962 51.1045 88.8807 51.1045 87.3776C51.1045 86.1621 51.9671 85.1165 53.1434 84.7766V83.2997H53.1304Z" fill="white"/>
<path d="M62.6326 96.6051C58.7769 96.6051 55.1957 94.4747 53.3528 91.1157C51.4315 90.8151 50.0068 89.2466 50.0068 87.3645C50.0068 85.9791 50.8172 84.7113 52.0458 84.0447V83.2866C52.0458 77.4443 56.7903 72.6998 62.6326 72.6998C68.475 72.6998 73.2195 77.4443 73.2195 83.2866V84.0447C74.4481 84.7113 75.2584 85.9791 75.2584 87.3645C75.2584 89.2597 73.8076 90.8281 71.9125 91.1157C70.0565 94.4747 66.4883 96.6051 62.6326 96.6051ZM62.6326 74.8825C57.9927 74.8825 54.2154 78.6598 54.2154 83.2997V85.6L53.4312 85.8222C52.6993 86.0314 52.1765 86.6718 52.1765 87.3776C52.1765 88.2794 52.9868 89.0114 53.9802 89.0114H54.6729L55.0389 89.6257C56.4243 92.5534 59.4174 94.4355 62.6457 94.4355C65.8871 94.4355 68.8671 92.5534 70.2526 89.6257L70.5401 88.9983H71.2328C72.2915 88.9983 73.1019 88.2664 73.1019 87.3645C73.1019 86.6587 72.5921 86.0314 71.8471 85.8092L71.0629 85.587V83.2866C71.0498 78.6598 67.2726 74.8825 62.6326 74.8825Z" fill="#FF6B00"/>
</g>
</g>
<defs>
<clipPath id="clip0_3454_672">
<rect width="100" height="115.135" fill="white" transform="translate(0 26)"/>
</clipPath>
</defs>
</svg>
