<svg width="154" height="48" viewBox="0 0 154 48" fill="none" xmlns="http://www.w3.org/2000/svg">
<path d="M17.2055 21.392V3.528H20.1315V18.73H28.6895V21.392H17.2055ZM33.2435 13.164V22.228H30.3175V3.22H33.2435V10.37H35.7075V13.164H33.2435ZM53.0081 3.22V22.228H50.1041V3.22H53.0081ZM39.1701 9.116V15.826C39.1701 17.96 40.0281 18.95 41.5681 18.95C43.1301 18.95 43.9881 17.96 43.9881 15.826V9.116C43.9881 7.004 43.1301 5.992 41.5681 5.992C40.0281 5.992 39.1701 7.004 39.1701 9.116ZM36.3761 15.826V9.116C36.3761 5.354 38.4441 3.308 41.5681 3.308C44.7361 3.308 46.8041 5.354 46.8041 9.116V15.826C46.8041 19.566 44.7361 21.59 41.5681 21.59C38.4441 21.59 36.3761 19.566 36.3761 15.826ZM73.4107 18.818V21.502H55.2167V18.818H73.4107ZM56.8887 14.55L55.1067 12.284C59.4407 10.744 62.4107 7.356 63.1587 3.11L66.1947 3.616C66.0407 4.628 65.7327 5.618 65.3147 6.564C67.3387 8.918 70.2647 10.7 73.5207 11.536L71.9367 13.89C68.8127 13.054 65.9747 11.294 63.8847 9.094C62.1247 11.58 59.5947 13.56 56.8887 14.55ZM87.573 18.752V21.392H80.049V3.528H87.155V6.19H82.975V18.752H87.573ZM96.483 3.22V22.228H93.579V13.164H91.401V22.008H88.519V3.308H91.401V10.502H93.579V3.22H96.483ZM115.962 22.426H113.036V18.378H99.6156V15.848H106.194V13.56H98.6916V11.008H116.886V13.56H109.12V15.848H115.962V22.426ZM115.962 10.15H113.036V6.168H99.6156V3.528H115.962V10.15ZM128.708 3.528V13.956H118.786V3.528H128.708ZM121.58 11.536H125.914V5.992H121.58V11.536ZM135.528 19.456V22.118H119.402V15.87H122.328V19.456H135.528ZM135.22 3.22V17.3H132.316V3.22H135.22Z" fill="black"/>
<path d="M26.2266 29.1406V30.5508H16.3184V29.1406H20.4004V27.3779H22.1631V29.1406H26.2266ZM21.2725 31.293C23.666 31.3115 25.2988 32.499 25.2988 34.3174C25.2988 36.1357 23.666 37.3418 21.2725 37.3418C18.8604 37.3418 17.2275 36.1357 17.2275 34.3174C17.2275 32.499 18.8604 31.3115 21.2725 31.293ZM21.2725 32.6475C19.8623 32.6475 18.916 33.2969 18.9346 34.3174C18.916 35.3564 19.8623 35.9688 21.2725 35.9688C22.6826 35.9688 23.6289 35.3564 23.6475 34.3174C23.6289 33.2969 22.6826 32.6475 21.2725 32.6475ZM29.3623 27.4521V31.9609H31.7744V33.4268H29.3623V37.8428H27.5996V27.4521H29.3623ZM29.3623 38.6963V44.0771H27.5996V40.125H18.3779V38.6963H29.3623ZM47.537 37.2305V38.6221H40.746V44.0771H39.0204V38.6221H32.3221V37.2305H47.537ZM35.9589 28.1201V30.291H43.8632V28.1201H45.6259V35.3379H34.2147V28.1201H35.9589ZM35.9589 33.9277H43.8632V31.7012H35.9589V33.9277ZM63.5964 40.5332V41.999H48.3816V40.5332H55.0798V36.6924H50.1257V28.7881H61.7781V36.6924H56.824V40.5332H63.5964ZM51.8328 30.1982V35.3008H60.0525V30.1982H51.8328ZM83.896 40.5146V41.9619H68.6812V40.5146H75.3423V36.5625H77.0864V40.5146H83.896ZM77.1236 29.7715C77.1236 32.4062 80.0181 34.874 83.228 35.4121L82.4673 36.8594C79.7769 36.3213 77.2998 34.6606 76.1958 32.3691C75.1011 34.6514 72.6519 36.3398 69.98 36.8594L69.2007 35.4121C72.3921 34.874 75.2681 32.4062 75.2681 29.7715V28.5098H77.1236V29.7715ZM99.8812 36.1914V37.583H84.685V36.1914H91.4018V34.7441H86.6703V27.8975H98.0258V29.2891H88.4516V30.6436H97.599V31.9609H88.4516V33.3711H98.1371V34.7441H93.1645V36.1914H99.8812ZM92.2924 38.6777C95.9477 38.6592 98.0258 39.624 98.0258 41.3682C98.0258 43.1309 95.9477 44.0586 92.2924 44.04C88.6 44.0586 86.5219 43.1309 86.5219 41.3682C86.5219 39.624 88.6 38.6592 92.2924 38.6777ZM92.2924 39.9951C89.6762 39.9951 88.266 40.4775 88.2846 41.3682C88.266 42.2588 89.6762 42.7227 92.2924 42.7041C94.8715 42.7227 96.2631 42.2588 96.2631 41.3682C96.2631 40.4775 94.8715 39.9951 92.2924 39.9951ZM111.015 31.6826C111.015 34.7256 112.722 37.75 115.264 38.9004L114.188 40.3105C112.295 39.3643 110.876 37.481 110.143 35.208C109.41 37.6016 107.953 39.624 106.042 40.626L104.929 39.1973C107.508 37.9727 109.234 34.7627 109.234 31.6826V28.8438H111.015V31.6826ZM118.882 27.4521V44.1143H117.138V34.4102H113.427V32.9814H117.138V27.4521H118.882ZM134.83 27.4521V44.1143H133.067V27.4521H134.83ZM123.753 28.8438V33.1113H128.225V28.8438H129.969V40.125H121.99V28.8438H123.753ZM123.753 38.6777H128.225V34.5029H123.753V38.6777ZM145.546 29.8086C145.546 32.5176 148.44 35.0781 151.632 35.6533L150.815 37.1191C148.162 36.5439 145.713 34.7998 144.637 32.4619C143.542 34.7812 141.102 36.5254 138.439 37.1191L137.66 35.6533C140.814 35.0596 143.69 32.5176 143.69 29.8086V28.5469H145.546V29.8086ZM152.318 40.4219V41.8877H137.103V40.4219H152.318Z" fill="black"/>
</svg>
