<svg width="175" height="60" viewBox="0 0 175 60" fill="none" xmlns="http://www.w3.org/2000/svg">
<path d="M13.3125 7.90625H0.796875V6.125H5.95312V3.89844H8.17969V6.125H13.3125V7.90625ZM1.94531 12.6641C1.94531 11.9062 2.15625 11.2422 2.57812 10.6719C3.00781 10.0938 3.60938 9.64844 4.38281 9.33594C5.15625 9.01562 6.04688 8.85156 7.05469 8.84375C8.05469 8.85156 8.9375 9.01562 9.70312 9.33594C10.4766 9.64844 11.0742 10.0938 11.4961 10.6719C11.9258 11.2422 12.1406 11.9062 12.1406 12.6641C12.1406 13.4219 11.9258 14.0898 11.4961 14.668C11.0742 15.2461 10.4766 15.6953 9.70312 16.0156C8.9375 16.3281 8.05469 16.4844 7.05469 16.4844C6.04688 16.4844 5.15625 16.3281 4.38281 16.0156C3.60938 15.6953 3.00781 15.2461 2.57812 14.668C2.15625 14.0898 1.94531 13.4219 1.94531 12.6641ZM3.39844 18.1953H17.2734V24.9922H15.0469V20H3.39844V18.1953ZM4.10156 12.6641C4.09375 13.3047 4.35938 13.8125 4.89844 14.1875C5.4375 14.5625 6.15625 14.75 7.05469 14.75C7.95312 14.75 8.67578 14.5664 9.22266 14.1992C9.76953 13.8242 10.0469 13.3125 10.0547 12.6641C10.0469 12.0234 9.76953 11.5156 9.22266 11.1406C8.67578 10.7578 7.95312 10.5625 7.05469 10.5547C6.46094 10.5547 5.9375 10.6445 5.48438 10.8242C5.03906 10.9961 4.69531 11.2422 4.45312 11.5625C4.21094 11.875 4.09375 12.2422 4.10156 12.6641ZM15.0469 3.99219H17.2734V9.6875H20.3203V11.5391H17.2734V17.1172H15.0469V3.99219ZM40.2309 18.1016H31.6528V24.9922H29.4731V18.1016H21.0122V16.3438H40.2309V18.1016ZM23.4028 4.83594H25.6059V7.57812H35.5903V4.83594H37.8169V13.9531H23.4028V4.83594ZM35.5903 12.1719V9.35938H25.6059V12.1719H35.5903ZM60.5166 22.3672H41.2978V20.5156H49.7588V15.6641H43.5009V5.67969H58.2197V15.6641H51.9619V20.5156H60.5166V22.3672ZM56.04 13.9062V7.46094H45.6572V13.9062H56.04ZM86.1581 22.3203H66.9394V20.4922H75.3534V15.5H77.5566V20.4922H86.1581V22.3203ZM67.5956 14.0469C68.9316 13.8203 70.1855 13.3516 71.3573 12.6406C72.537 11.9297 73.4823 11.0703 74.1933 10.0625C74.9042 9.04688 75.2597 8 75.2597 6.92188V5.32812H77.6034V6.92188C77.6034 8 77.9589 9.04688 78.6698 10.0625C79.3886 11.0703 80.3378 11.9297 81.5175 12.6406C82.705 13.3516 83.9706 13.8203 85.3144 14.0469L84.3534 15.875C83.2128 15.6484 82.123 15.2734 81.0839 14.75C80.0527 14.2266 79.1347 13.5781 78.33 12.8047C77.5253 12.0234 76.8964 11.1641 76.4433 10.2266C75.9902 11.1641 75.3613 12.0195 74.5566 12.793C73.7597 13.5664 72.8456 14.2188 71.8144 14.75C70.7909 15.2734 69.7128 15.6484 68.58 15.875L67.5956 14.0469ZM106.35 16.7891H87.1547V15.0312H95.6391V13.2031H89.6625V4.55469H104.006V6.3125H91.9125V8.02344H103.467V9.6875H91.9125V11.4688H104.147V13.2031H97.8656V15.0312H106.35V16.7891ZM89.475 21.5703C89.475 20.4688 90.1039 19.625 91.3617 19.0391C92.6195 18.4531 94.4203 18.1641 96.7641 18.1719C98.2953 18.1719 99.6 18.3008 100.678 18.5586C101.764 18.8164 102.588 19.2031 103.151 19.7188C103.721 20.2266 104.006 20.8438 104.006 21.5703C103.998 22.6719 103.366 23.5117 102.108 24.0898C100.858 24.668 99.0766 24.9531 96.7641 24.9453C94.4125 24.9531 92.6078 24.668 91.35 24.0898C90.1 23.5117 89.475 22.6719 89.475 21.5703ZM91.7016 21.5703C91.6937 22.1406 92.1195 22.5703 92.9789 22.8594C93.8383 23.1406 95.1 23.2734 96.7641 23.2578C98.4047 23.2734 99.6508 23.1406 100.502 22.8594C101.354 22.5703 101.78 22.1406 101.78 21.5703C101.78 21 101.354 20.5703 100.502 20.2812C99.6508 19.9844 98.4047 19.8359 96.7641 19.8359C95.1078 19.8359 93.8461 19.9844 92.9789 20.2812C92.1195 20.5703 91.6937 21 91.7016 21.5703ZM120.413 9.33594C120.413 10.6094 120.636 11.8594 121.081 13.0859C121.535 14.3047 122.167 15.3867 122.98 16.332C123.792 17.2773 124.726 17.9844 125.781 18.4531L124.421 20.2344C123.249 19.6406 122.222 18.7852 121.339 17.668C120.456 16.543 119.781 15.2539 119.312 13.8008C118.843 15.3398 118.16 16.7109 117.261 17.9141C116.37 19.1094 115.327 20.0156 114.132 20.6328L112.726 18.8281C113.788 18.3203 114.73 17.5703 115.55 16.5781C116.378 15.5781 117.019 14.4453 117.472 13.1797C117.933 11.9062 118.163 10.625 118.163 9.33594V5.75H120.413V9.33594ZM123.46 10.9766H128.148V3.99219H130.351V25.0391H128.148V12.7812H123.46V10.9766ZM150.496 25.0391H148.269V3.99219H150.496V25.0391ZM134.277 5.75H136.504V11.1406H142.152V5.75H144.355V20H134.277V5.75ZM142.152 18.1719V12.8984H136.504V18.1719H142.152ZM164.032 6.96875C164.032 8.07812 164.387 9.15625 165.098 10.2031C165.809 11.25 166.754 12.1445 167.934 12.8867C169.121 13.6211 170.383 14.1094 171.719 14.3516L170.688 16.2031C169.563 15.9609 168.489 15.5625 167.465 15.0078C166.442 14.4531 165.532 13.7773 164.735 12.9805C163.946 12.1758 163.328 11.2891 162.883 10.3203C162.43 11.2812 161.805 12.1641 161.008 12.9688C160.211 13.7656 159.301 14.4414 158.278 14.9961C157.254 15.5508 156.18 15.9531 155.055 16.2031L154.071 14.3516C155.391 14.1016 156.633 13.6094 157.797 12.875C158.969 12.1328 159.91 11.2422 160.621 10.2031C161.332 9.15625 161.688 8.07812 161.688 6.96875V5.375H164.032V6.96875ZM153.367 20.375H172.586V22.2266H153.367V20.375Z" fill="black"/>
<path d="M22.032 33.02V56.348H18.468V33.02H22.032ZM5.049 40.256V48.491C5.049 51.11 6.102 52.325 7.992 52.325C9.909 52.325 10.962 51.11 10.962 48.491V40.256C10.962 37.664 9.909 36.422 7.992 36.422C6.102 36.422 5.049 37.664 5.049 40.256ZM1.62 48.491V40.256C1.62 35.639 4.158 33.128 7.992 33.128C11.88 33.128 14.418 35.639 14.418 40.256V48.491C14.418 53.081 11.88 55.565 7.992 55.565C4.158 55.565 1.62 53.081 1.62 48.491ZM25.3905 48.491V40.256C25.3905 35.666 27.8475 33.128 31.6545 33.128C35.4615 33.128 37.9455 35.666 37.9455 40.256V48.491C37.9455 53.027 35.4615 55.565 31.6545 55.565C27.8475 55.565 25.3905 53.027 25.3905 48.491ZM28.8195 40.256V48.491C28.8195 51.11 29.8725 52.325 31.6545 52.325C33.4365 52.325 34.4895 51.11 34.4895 48.491V40.256C34.4895 37.664 33.4365 36.422 31.6545 36.422C29.8725 36.422 28.8195 37.664 28.8195 40.256ZM42.2385 45.197H38.7555V41.768H42.2385V33.02H45.8025V56.348H42.2385V45.197ZM53.2381 43.28H69.9511V46.601H49.6471V33.398H69.7081V36.692H53.2381V43.28ZM70.8421 52.163V55.457H48.5131V52.163H70.8421ZM87.2686 43.469V46.331H73.1746V38.42H82.0846V36.26H73.1746V33.398H85.5406V41.228H76.6306V43.469H87.2686ZM93.3436 33.02V46.817H89.7796V33.02H93.3436ZM93.3436 47.924V56.213H73.9306V47.924H93.3436ZM77.5216 53.324H89.7796V50.84H77.5216V53.324Z" fill="black"/>
</svg>
