<svg width="36" height="36" viewBox="0 0 36 36" fill="none" xmlns="http://www.w3.org/2000/svg">
<g clip-path="url(#clip0_664_605)">
<path d="M24.6809 10.4763C24.6809 15.3599 20.6169 19.3188 15.6037 19.3188C10.9936 19.3188 7.18988 15.9698 6.60638 11.6345C5.99711 11.4801 5.4149 11.2656 4.8623 10.9983C5.14182 16.542 9.84335 20.9525 15.6024 20.9525C21.3615 20.9525 26.3567 16.2621 26.3567 10.4763C26.3567 9.76356 26.2833 9.06841 26.1441 8.39709C25.6186 8.56649 25.0712 8.68946 24.507 8.76224C24.619 9.31686 24.6796 9.8903 24.6796 10.4763H24.6809Z" fill="#F1CED0"/>
<path d="M6.5267 10.4763C6.5267 5.99288 9.95302 2.29125 14.3944 1.71404C14.2887 1.18703 14.2308 0.643703 14.2243 0.0878296C8.93672 0.749105 4.84961 5.1459 4.84961 10.4763C4.84961 10.6507 4.85476 10.8251 4.86378 10.9983C5.41637 11.2655 5.99859 11.4801 6.60785 11.6344C6.55633 11.2555 6.52799 10.869 6.52799 10.4763H6.5267Z" fill="#F1CED0"/>
<path d="M17.2317 6.57512C15.7993 5.32032 14.7805 3.62761 14.394 1.71405C9.95269 2.29 6.52637 5.99164 6.52637 10.4763C6.52637 10.869 6.55599 11.2555 6.60623 11.6344C7.33658 11.8189 8.10428 11.918 8.89388 11.918C12.6306 11.918 15.8393 9.71837 17.2304 6.57512H17.2317Z" fill="#F1CED0"/>
<path d="M17.4639 0.159363C17.6661 0.72151 17.8104 1.31001 17.8915 1.91733C21.2393 2.76431 23.8361 5.42698 24.5084 8.76097C25.0726 8.68819 25.6188 8.56522 26.1456 8.39582C25.2761 4.19101 21.8202 0.89969 17.4639 0.159363Z" fill="#F1CED0"/>
<path d="M17.2319 6.57511C18.8395 7.98425 20.9661 8.84253 23.3001 8.84253C23.711 8.84253 24.1129 8.81366 24.5096 8.76222C23.8373 5.42698 21.2405 2.76556 17.8927 1.91858C17.9442 2.29753 17.9726 2.684 17.9726 3.07675C17.9726 4.32025 17.7085 5.50227 17.2319 6.57637V6.57511Z" fill="#F1CED0"/>
<path d="M14.2241 0.0891172C14.2293 0.64499 14.2872 1.18832 14.3941 1.71533C14.7896 1.66388 15.1928 1.63502 15.6037 1.63502C16.3946 1.63502 17.161 1.73415 17.8913 1.9186C17.8102 1.31129 17.6659 0.722787 17.4637 0.16064C16.8596 0.0577474 16.2387 0.00128174 15.6037 0.00128174C15.1361 0.00128174 14.6762 0.0339064 14.2241 0.090372V0.0891172Z" fill="#F1CED0"/>
<path d="M14.394 1.71403C14.7805 3.62759 15.7993 5.32031 17.2317 6.5751C17.707 5.50225 17.9724 4.31898 17.9724 3.07548C17.9724 2.68273 17.9427 2.29626 17.8925 1.91731C17.1622 1.73286 16.3944 1.63373 15.6048 1.63373C15.1939 1.63373 14.7921 1.66259 14.3953 1.71403H14.394Z" fill="#F1CED0"/>
<path d="M27.3807 22.3993C26.2961 21.2311 25.0247 20.231 23.6104 19.4455C21.4451 21.3076 18.601 22.4382 15.4864 22.4382C12.596 22.4382 9.93863 21.4645 7.84162 19.837C4.01599 22.2224 1.35479 26.2239 0.873047 30.8516H21.6332C21.5624 30.445 21.5237 30.0284 21.5237 29.6018C21.5237 26.0984 24.0239 23.166 27.3807 22.3981V22.3993Z" fill="#F1CED0"/>
<path d="M29.389 35.9987C32.9702 35.9987 35.8733 33.1707 35.8733 29.6821C35.8733 26.1935 32.9702 23.3655 29.389 23.3655C25.8079 23.3655 22.9048 26.1935 22.9048 29.6821C22.9048 33.1707 25.8079 35.9987 29.389 35.9987Z" fill="#F1CED0"/>
<path d="M34.182 27.3118L33.7595 26.9002C33.6307 26.7748 33.4581 26.7057 33.2752 26.7057C33.0922 26.7057 32.9196 26.7748 32.7895 26.9015L28.2465 31.3635L25.991 29.1488C25.8622 29.0234 25.6896 28.9543 25.5067 28.9543C25.3238 28.9543 25.1512 29.0234 25.0224 29.1488L24.5999 29.5604C24.3319 29.8214 24.3319 30.2443 24.5999 30.504L27.7647 33.6059C27.8922 33.7439 28.0713 33.8229 28.258 33.8229C28.4448 33.8229 28.6239 33.7439 28.7527 33.6059L34.1858 28.2567C34.4525 27.9957 34.4525 27.5728 34.1858 27.3118H34.182Z" fill="white"/>
</g>
<defs>
<clipPath id="clip0_664_605">
<rect width="35" height="36" fill="white" transform="translate(0.873047)"/>
</clipPath>
</defs>
</svg>
