<svg width="148" height="146" viewBox="0 0 148 146" fill="none" xmlns="http://www.w3.org/2000/svg">
<path d="M17.3796 119.589C17.7902 120.069 18.2082 120.522 18.6256 121.009L88.1085 1.47867C87.477 1.34574 86.8521 1.2404 86.2343 1.1214L17.3796 119.589ZM21.258 123.775C21.6902 124.207 22.1362 124.646 22.5755 125.072L93.6512 2.78976C93.048 2.6229 92.4517 2.46301 91.8552 2.31686L21.258 123.775ZM29.693 131.001C30.1751 131.352 30.664 131.716 31.1602 132.06L104.086 6.56326C103.547 6.32178 102.993 6.09382 102.44 5.84527L29.693 131.001ZM13.7513 114.961C14.1402 115.496 14.5154 116.016 14.9116 116.531L82.3164 0.562319C81.6631 0.490889 81.0167 0.426443 80.3492 0.375407L13.7513 114.961ZM34.2143 134.076C34.7315 134.407 35.2421 134.717 35.7526 135.026L109.007 8.9986C108.475 8.70915 107.943 8.43343 107.404 8.15074L34.2143 134.076ZM25.3718 127.579C25.8324 127.97 26.2931 128.355 26.7677 128.746L98.9793 4.48924C98.4044 4.28845 97.8365 4.09464 97.2546 3.90062L25.3718 127.579ZM10.3943 109.877C10.7478 110.452 11.1013 111.027 11.4619 111.596L76.2597 0.122913C75.585 0.0923861 74.9029 0.0823541 74.2138 0.0790853L10.3943 109.877ZM1.04414 60.7489C0.77793 62.2837 0.573934 63.8468 0.41877 65.4038L30.2721 14.0158C29.0055 14.9382 27.7523 15.9021 26.5402 16.9077L1.04414 60.7489ZM4.86103 46.8746L16.3096 27.1639C13.9417 30.0828 11.7652 33.238 9.8155 36.5889C7.85897 39.9328 6.2143 43.3707 4.86103 46.8746ZM0.0448052 73.3184C0.055881 74.4588 0.0883185 75.5652 0.148312 76.6926L40.0283 8.08703C39.0113 8.60787 38.0079 9.1495 37.0182 9.70508L0.0448052 73.3184ZM2.42339 90.9725C2.63428 91.7793 2.85898 92.5932 3.09782 93.3935L56.105 2.17568C55.2945 2.3767 54.4769 2.59137 53.6659 2.82672L2.42339 90.9725ZM0.780592 82.9253C0.919959 83.8615 1.08042 84.7844 1.24097 85.7003L48.4557 4.47423C47.5669 4.79774 46.6779 5.12811 45.7956 5.48607L0.780592 82.9253ZM4.65878 98.0119C4.91295 98.7163 5.20183 99.428 5.48382 100.133L63.2113 0.823964C62.451 0.922688 61.6904 1.04889 60.9366 1.18893L4.65878 98.0119ZM7.34456 104.247C7.65541 104.884 7.97291 105.541 8.30474 106.171L69.9105 0.173779C69.1931 0.197579 68.4754 0.248841 67.7505 0.306867L7.34456 104.247ZM49.0199 141.218C49.5947 141.426 50.1697 141.613 50.7516 141.807L122.513 18.34C122.052 17.9485 121.592 17.5502 121.138 17.1589L49.0199 141.218ZM99.8647 140.695C100.768 140.351 101.664 140.001 102.554 139.622L146.754 63.5928C146.636 62.6431 146.483 61.6861 146.323 60.7564L99.8647 140.695ZM84.9805 144.57C85.748 144.451 86.5157 144.318 87.2764 144.185L143.026 48.2612C142.772 47.5568 142.497 46.8315 142.215 46.1267L84.9805 144.57ZM92.1372 143.103C92.9546 142.902 93.7794 142.673 94.5904 142.438L145.211 55.3891C145.007 54.5755 144.776 53.7478 144.544 52.9476L92.1372 143.103ZM108.407 136.871C109.438 136.323 110.462 135.768 111.46 135.165L147.347 73.4312C147.357 72.2773 147.34 71.1093 147.294 69.9615L108.407 136.871ZM38.9494 136.811C39.4813 137.087 40.02 137.377 40.5453 137.632L113.713 11.7605C113.203 11.4302 112.699 11.1274 112.182 10.8175L38.9494 136.811ZM118.391 130.554C119.729 129.551 121.032 128.478 122.301 127.397L146.019 86.5728C146.336 84.9426 146.603 83.3048 146.809 81.6661L118.391 130.554ZM140.467 103.451L134.253 114.144C135.42 112.464 136.538 110.729 137.588 108.924C138.624 107.119 139.59 105.299 140.467 103.451ZM54.3693 142.891C54.9657 143.044 55.576 143.204 56.1656 143.343L126.598 22.1781C126.173 21.7459 125.734 21.3136 125.288 20.888L54.3693 142.891ZM59.9475 144.154C60.5792 144.273 61.1972 144.379 61.8291 144.484L130.441 26.4316C130.044 25.9449 129.627 25.4648 129.223 24.9987L59.9475 144.154ZM43.8775 139.199C44.431 139.434 44.9913 139.675 45.5518 139.903L118.22 14.8698C117.738 14.5055 117.249 14.1549 116.76 13.8111L43.8775 139.199ZM78.2455 145.289C78.9701 145.244 79.6948 145.193 80.4058 145.128L140.383 41.9302C140.079 41.2938 139.769 40.6435 139.437 40.0067L78.2455 145.289ZM71.8465 145.408C72.5353 145.431 73.2244 145.435 73.9204 145.438L137.369 36.2532C137.023 35.6643 136.683 35.0754 136.316 34.5068L71.8465 145.408ZM65.7684 145.002C66.4216 145.081 67.075 145.145 67.7356 145.196L134.048 31.1007C133.673 30.5731 133.284 30.0522 132.895 29.5176L65.7684 145.002Z" fill="url(#paint0_linear_3492_714)" fill-opacity="0.34"/>
<defs>
<linearGradient id="paint0_linear_3492_714" x1="2.62466" y1="91.7347" x2="144.501" y2="52.7676" gradientUnits="userSpaceOnUse">
<stop stop-color="#FF9DC0"/>
<stop offset="1" stop-color="#F4FFFF"/>
</linearGradient>
</defs>
</svg>
