<svg width="171" height="40" viewBox="0 0 171 40" fill="none" xmlns="http://www.w3.org/2000/svg">
<mask id="path-1-inside-1_3456_101" fill="white">
<path d="M0 28C0 34.6274 5.37258 40 12 40H159C165.627 40 171 34.6274 171 28V0H0V28Z"/>
</mask>
<path d="M0 28C0 34.6274 5.37258 40 12 40H159C165.627 40 171 34.6274 171 28V0H0V28Z" fill="#F5F6F7"/>
<path d="M-1 28C-1 35.1797 4.8203 41 12 41H159C166.18 41 172 35.1797 172 28H170C170 34.0751 165.075 39 159 39H12C5.92487 39 1 34.0751 1 28H-1ZM171 0H0H171ZM-1 0V28C-1 35.1797 4.8203 41 12 41V39C5.92487 39 1 34.0751 1 28V0H-1ZM159 41C166.18 41 172 35.1797 172 28V0H170V28C170 34.0751 165.075 39 159 39V41Z" fill="#C6C6C6" mask="url(#path-1-inside-1_3456_101)"/>
</svg>
