<svg width="30" height="30" viewBox="0 0 30 30" fill="none" xmlns="http://www.w3.org/2000/svg">
<path d="M15 22.5C15.425 22.5 15.7812 22.3563 16.0688 22.0688C16.3563 21.7812 16.5 21.425 16.5 21C16.5 20.575 16.3563 20.2188 16.0688 19.9313C15.7812 19.6438 15.425 19.5 15 19.5C14.575 19.5 14.2188 19.6438 13.9313 19.9313C13.6438 20.2188 13.5 20.575 13.5 21C13.5 21.425 13.6438 21.7812 13.9313 22.0688C14.2188 22.3563 14.575 22.5 15 22.5ZM13.5 16.5H16.5V7.5H13.5V16.5ZM15 30C12.925 30 10.975 29.6062 9.15 28.8187C7.325 28.0312 5.7375 26.9625 4.3875 25.6125C3.0375 24.2625 1.96875 22.675 1.18125 20.85C0.39375 19.025 0 17.075 0 15C0 12.925 0.39375 10.975 1.18125 9.15C1.96875 7.325 3.0375 5.7375 4.3875 4.3875C5.7375 3.0375 7.325 1.96875 9.15 1.18125C10.975 0.39375 12.925 0 15 0C17.075 0 19.025 0.39375 20.85 1.18125C22.675 1.96875 24.2625 3.0375 25.6125 4.3875C26.9625 5.7375 28.0312 7.325 28.8187 9.15C29.6062 10.975 30 12.925 30 15C30 17.075 29.6062 19.025 28.8187 20.85C28.0312 22.675 26.9625 24.2625 25.6125 25.6125C24.2625 26.9625 22.675 28.0312 20.85 28.8187C19.025 29.6062 17.075 30 15 30Z" fill="#E53B4C"/>
</svg>
