<svg width="206" height="40" viewBox="0 0 206 40" fill="none" xmlns="http://www.w3.org/2000/svg">
<mask id="path-1-inside-1_3416_83" fill="white">
<path d="M0 28C0 34.6274 5.37258 40 12 40H194C200.627 40 206 34.6274 206 28V0H0V28Z"/>
</mask>
<path d="M0 28C0 34.6274 5.37258 40 12 40H194C200.627 40 206 34.6274 206 28V0H0V28Z" fill="white"/>
<path d="M-1 28C-1 35.1797 4.8203 41 12 41H194C201.18 41 207 35.1797 207 28H205C205 34.0751 200.075 39 194 39H12C5.92487 39 1 34.0751 1 28H-1ZM206 0H0H206ZM-1 0V28C-1 35.1797 4.8203 41 12 41V39C5.92487 39 1 34.0751 1 28V0H-1ZM194 41C201.18 41 207 35.1797 207 28V0H205V28C205 34.0751 200.075 39 194 39V41Z" fill="#C6C6C6" mask="url(#path-1-inside-1_3416_83)"/>
</svg>
