<svg width="35" height="34" viewBox="0 0 35 34" fill="none" xmlns="http://www.w3.org/2000/svg">
<path d="M25.5 29.5H27.1667V24.5H25.5V29.5ZM26.3333 22.8333C26.5694 22.8333 26.7674 22.7535 26.9271 22.5937C27.0868 22.434 27.1667 22.2361 27.1667 22C27.1667 21.7639 27.0868 21.566 26.9271 21.4062C26.7674 21.2465 26.5694 21.1667 26.3333 21.1667C26.0972 21.1667 25.8993 21.2465 25.7396 21.4062C25.5799 21.566 25.5 21.7639 25.5 22C25.5 22.2361 25.5799 22.434 25.7396 22.5937C25.8993 22.7535 26.0972 22.8333 26.3333 22.8333ZM26.3333 33.6667C25.1806 33.6667 24.0972 33.4479 23.0833 33.0104C22.0694 32.5729 21.1875 31.9792 20.4375 31.2292C19.6875 30.4792 19.0938 29.5972 18.6563 28.5833C18.2187 27.5694 18 26.4861 18 25.3333C18 24.1806 18.2187 23.0972 18.6563 22.0833C19.0938 21.0694 19.6875 20.1875 20.4375 19.4375C21.1875 18.6875 22.0694 18.0938 23.0833 17.6563C24.0972 17.2187 25.1806 17 26.3333 17C27.4861 17 28.5694 17.2187 29.5833 17.6563C30.5972 18.0938 31.4792 18.6875 32.2292 19.4375C32.9792 20.1875 33.5729 21.0694 34.0104 22.0833C34.4479 23.0972 34.6667 24.1806 34.6667 25.3333C34.6667 26.4861 34.4479 27.5694 34.0104 28.5833C33.5729 29.5972 32.9792 30.4792 32.2292 31.2292C31.4792 31.9792 30.5972 32.5729 29.5833 33.0104C28.5694 33.4479 27.4861 33.6667 26.3333 33.6667Z" fill="#0097EF"/>
</svg>
