<svg width="30" height="35" viewBox="0 0 30 35" fill="none" xmlns="http://www.w3.org/2000/svg">
<path d="M15.3491 1L15.3491 4.41533" stroke="#C43636" stroke-opacity="0.5" stroke-width="2" stroke-linecap="round"/>
<path d="M28.6978 7.83069L26.0758 10.2457" stroke="#C43636" stroke-opacity="0.5" stroke-width="2" stroke-linecap="round"/>
<path d="M2 7.83069L4.96646 9.87988" stroke="#C43636" stroke-opacity="0.5" stroke-width="2" stroke-linecap="round"/>
<path d="M25.7072 27.6239C24.7613 26.6011 22.9913 25.0624 22.9913 20.0222C22.9913 16.1939 20.3238 13.1294 16.7269 12.3776V11.3508C16.7269 10.4802 16.0258 9.77417 15.1611 9.77417C14.2964 9.77417 13.5953 10.4802 13.5953 11.3508V12.3776C9.99845 13.1294 7.33094 16.1939 7.33094 20.0222C7.33094 25.0624 5.56093 26.6011 4.61496 27.6239C4.32119 27.9417 4.19095 28.3215 4.19339 28.6935C4.19878 29.5015 4.82893 30.2701 5.76511 30.2701H24.5571C25.4933 30.2701 26.1239 29.5015 26.1288 28.6935C26.1313 28.3215 26.001 27.9412 25.7072 27.6239ZM7.49986 27.9052C8.53886 26.5272 9.6748 24.243 9.68019 20.0507C9.68019 20.0409 9.67725 20.032 9.67725 20.0222C9.67725 16.9744 12.1323 14.504 15.1611 14.504C18.19 14.504 20.645 16.9744 20.645 20.0222C20.645 20.032 20.642 20.0409 20.642 20.0507C20.6474 24.2435 21.7833 26.5277 22.8223 27.9052H7.49986ZM15.1611 35C16.8905 35 18.2933 33.5884 18.2933 31.8468H12.0289C12.0289 33.5884 13.4317 35 15.1611 35Z" fill="#C43636"/>
</svg>
