<svg width="31" height="30" viewBox="0 0 31 30" fill="none" xmlns="http://www.w3.org/2000/svg">
<path d="M15.7621 22.5C16.1871 22.5 16.5433 22.3563 16.8308 22.0688C17.1183 21.7812 17.2621 21.425 17.2621 21C17.2621 20.575 17.1183 20.2188 16.8308 19.9313C16.5433 19.6438 16.1871 19.5 15.7621 19.5C15.3371 19.5 14.9808 19.6438 14.6933 19.9313C14.4058 20.2188 14.2621 20.575 14.2621 21C14.2621 21.425 14.4058 21.7812 14.6933 22.0688C14.9808 22.3563 15.3371 22.5 15.7621 22.5ZM14.2621 16.5H17.2621V7.5H14.2621V16.5ZM15.7621 30C13.6871 30 11.7371 29.6062 9.91208 28.8187C8.08708 28.0312 6.49958 26.9625 5.14958 25.6125C3.79958 24.2625 2.73084 22.675 1.94334 20.85C1.15584 19.025 0.762085 17.075 0.762085 15C0.762085 12.925 1.15584 10.975 1.94334 9.15C2.73084 7.325 3.79958 5.7375 5.14958 4.3875C6.49958 3.0375 8.08708 1.96875 9.91208 1.18125C11.7371 0.39375 13.6871 0 15.7621 0C17.8371 0 19.7871 0.39375 21.6121 1.18125C23.4371 1.96875 25.0246 3.0375 26.3746 4.3875C27.7246 5.7375 28.7933 7.325 29.5808 9.15C30.3683 10.975 30.7621 12.925 30.7621 15C30.7621 17.075 30.3683 19.025 29.5808 20.85C28.7933 22.675 27.7246 24.2625 26.3746 25.6125C25.0246 26.9625 23.4371 28.0312 21.6121 28.8187C19.7871 29.6062 17.8371 30 15.7621 30Z" fill="#0097EF"/>
</svg>
