<svg width="142" height="129" viewBox="0 0 142 129" fill="none" xmlns="http://www.w3.org/2000/svg">
<path d="M124.633 24.7653C124.231 24.2963 123.821 23.8544 123.412 23.3786L58.126 142.679C58.7366 142.802 59.3406 142.897 59.9378 143.006L124.633 24.7653ZM120.835 20.6798C120.412 20.2584 119.976 19.8301 119.547 19.4155L52.7643 141.462C53.3481 141.619 53.9252 141.768 54.5023 141.904L120.835 20.6798ZM112.601 13.651C112.132 13.3111 111.655 12.9576 111.172 12.6245L42.6517 137.88C43.1751 138.111 43.7119 138.329 44.2488 138.567L112.601 13.651ZM128.197 29.2926C127.814 28.7692 127.445 28.2594 127.056 27.7563L63.7225 143.502C64.3533 143.563 64.9774 143.617 65.6216 143.658L128.197 29.2926ZM108.199 10.6735C107.696 10.354 107.2 10.0549 106.703 9.75584L37.8738 135.542C38.3905 135.82 38.9072 136.085 39.4306 136.357L108.199 10.6735ZM116.816 16.9751C116.366 16.5944 115.916 16.2205 115.453 15.8398L47.604 139.858C48.161 140.049 48.7112 140.232 49.2749 140.416L116.816 16.9751ZM131.505 34.2754C131.156 33.7112 130.807 33.1469 130.451 32.5895L69.5673 143.848C70.2182 143.869 70.8759 143.869 71.5402 143.862L131.505 34.2754ZM141.215 82.757C141.45 81.2343 141.624 79.6844 141.752 78.1413L113.702 129.43C114.91 128.499 116.104 127.527 117.259 126.514L141.215 82.757ZM137.732 96.5429L126.975 116.216C129.217 113.293 131.27 110.138 133.102 106.794C134.941 103.456 136.477 100.03 137.732 96.5429ZM142 70.3035C141.973 69.1751 141.926 68.0806 141.852 66.9658L104.381 135.44C105.354 134.909 106.314 134.359 107.26 133.795L142 70.3035ZM139.457 52.8672C139.242 52.0719 139.014 51.2698 138.772 50.4812L88.9672 141.524C89.7457 141.313 90.5308 141.089 91.3092 140.844L139.457 52.8672ZM141.154 60.807C141.007 59.8825 140.839 58.9716 140.671 58.0675L96.3085 139.138C97.1607 138.805 98.013 138.465 98.8585 138.098L141.154 60.807ZM137.202 45.9335C136.947 45.2402 136.658 44.54 136.377 43.8466L82.136 142.965C82.8674 142.856 83.5989 142.72 84.3236 142.571L137.202 45.9335ZM134.525 39.802C134.216 39.1766 133.9 38.5308 133.572 37.9122L75.6873 143.706C76.3784 143.672 77.0696 143.611 77.7675 143.543L134.525 39.802ZM93.8256 3.82139C93.2687 3.62426 92.7117 3.44752 92.148 3.26398L24.7213 126.494C25.1709 126.874 25.6205 127.262 26.0634 127.643L93.8256 3.82139ZM44.8191 5.07898C43.9535 5.43246 43.0946 5.79275 42.2423 6.18022L0.711308 82.0636C0.838807 83.0017 0.999858 83.9466 1.16762 84.8643L44.8191 5.07898ZM59.1124 1.02751C58.3743 1.15667 57.6361 1.29942 56.9047 1.44218L4.52285 97.1819C4.77785 97.8752 5.05297 98.589 5.33481 99.2824L59.1124 1.02751ZM52.2342 2.5842C51.4491 2.79493 50.6572 3.03285 49.8788 3.27757L2.31511 90.1598C2.52313 90.9619 2.758 91.7776 2.99286 92.5662L52.2342 2.5842ZM36.6391 8.98769C35.6527 9.54511 34.6729 10.1093 33.7201 10.7211L0 72.336C0.00671046 73.4781 0.0402627 74.6337 0.100657 75.7689L36.6391 8.98769ZM103.596 8.03601C103.079 7.77089 102.556 7.49219 102.046 7.24747L33.2973 132.877C33.7939 133.196 34.2837 133.489 34.787 133.788L103.596 8.03601ZM27.1035 15.3844C25.8286 16.3973 24.5871 17.4781 23.3792 18.5657L1.0938 59.3115C0.811965 60.9294 0.577099 62.5541 0.402627 64.1787L27.1035 15.3844ZM6.20717 42.5279L12.0453 31.8554C10.9448 33.5344 9.89122 35.2678 8.90478 37.0693C7.93176 38.8707 7.02585 40.6857 6.20717 42.5279ZM88.6451 2.24431C88.0681 2.10156 87.4775 1.95201 86.9071 1.82285L20.7286 122.755C21.1447 123.177 21.5741 123.598 22.0103 124.013L88.6451 2.24431ZM83.2499 1.0751C82.6393 0.966334 82.0421 0.871165 81.4314 0.775997L16.964 118.602C17.3532 119.077 17.7626 119.547 18.1585 120.002L83.2499 1.0751ZM98.8115 5.74516C98.2747 5.52083 97.7311 5.28971 97.1876 5.07218L28.9087 129.865C29.3784 130.219 29.8548 130.559 30.3313 130.892L98.8115 5.74516ZM65.5947 0.21858C64.8968 0.272962 64.199 0.334142 63.5145 0.408917L7.16006 103.409C7.46203 104.034 7.77071 104.673 8.09952 105.298L65.5947 0.21858ZM71.7616 0.00784938C71.0973 -0.00574615 70.433 0.00105162 69.7619 0.00784938L10.1462 108.983C10.4884 109.561 10.824 110.138 11.1863 110.696L71.7616 0.00784938ZM77.6266 0.320546C76.9958 0.252569 76.365 0.198187 75.7275 0.1574L13.4209 114.034C13.79 114.55 14.1725 115.06 14.555 115.583L77.6266 0.320546Z" fill="url(#paint0_linear_3492_711)" fill-opacity="0.34"/>
<defs>
<linearGradient id="paint0_linear_3492_711" x1="139.252" y1="52.116" x2="2.49235" y2="90.8207" gradientUnits="userSpaceOnUse">
<stop stop-color="#A9DAF8"/>
<stop offset="1" stop-color="#F4FFFF"/>
</linearGradient>
</defs>
</svg>
