<svg width="243" height="40" viewBox="0 0 243 40" fill="none" xmlns="http://www.w3.org/2000/svg">
<mask id="path-1-inside-1_3456_101" fill="white">
<path d="M0 12C0 5.37258 5.37258 0 12 0H231C237.627 0 243 5.37258 243 12V40H0V12Z"/>
</mask>
<path d="M0 12C0 5.37258 5.37258 0 12 0H231C237.627 0 243 5.37258 243 12V40H0V12Z" fill="#F4F5F6"/>
<path d="M-1 12C-1 4.8203 4.8203 -1 12 -1H231C238.18 -1 244 4.8203 244 12H242C242 5.92487 237.075 1 231 1H12C5.92487 1 1 5.92487 1 12H-1ZM243 40H0H243ZM-1 40V12C-1 4.8203 4.8203 -1 12 -1V1C5.92487 1 1 5.92487 1 12V40H-1ZM231 -1C238.18 -1 244 4.8203 244 12V40H242V12C242 5.92487 237.075 1 231 1V-1Z" fill="#C6C6C6" mask="url(#path-1-inside-1_3456_101)"/>
</svg>
