<svg width="469" height="28" viewBox="0 0 469 28" fill="none" xmlns="http://www.w3.org/2000/svg">
<path d="M10 1L10 3.5" stroke="#C43636" stroke-opacity="0.5" stroke-width="2" stroke-linecap="round"/>
<path d="M19 6L17.2322 7.76777" stroke="#C43636" stroke-opacity="0.5" stroke-width="2" stroke-linecap="round"/>
<path d="M1 6L3 7.5" stroke="#C43636" stroke-opacity="0.5" stroke-width="2" stroke-linecap="round"/>
<path d="M18.523 21.4482C17.7525 20.6203 16.3109 19.3749 16.3109 15.2951C16.3109 12.1964 14.1382 9.71585 11.2086 9.10727V8.27617C11.2086 7.57148 10.6375 7 9.93321 7C9.22892 7 8.65784 7.57148 8.65784 8.27617V9.10727C5.72823 9.71585 3.55556 12.1964 3.55556 15.2951C3.55556 19.3749 2.11388 20.6203 1.3434 21.4482C1.10412 21.7055 0.998034 22.0129 1.00003 22.314C1.00441 22.9681 1.51767 23.5902 2.28018 23.5902H17.5862C18.3487 23.5902 18.8624 22.9681 18.8664 22.314C18.8684 22.0129 18.7623 21.7051 18.523 21.4482ZM3.69314 21.6759C4.5394 20.5605 5.46462 18.7116 5.46901 15.3182C5.46901 15.3103 5.46662 15.3031 5.46662 15.2951C5.46662 12.8281 7.46622 10.8285 9.93321 10.8285C12.4002 10.8285 14.3998 12.8281 14.3998 15.2951C14.3998 15.3031 14.3974 15.3103 14.3974 15.3182C14.4018 18.712 15.327 20.5609 16.1733 21.6759H3.69314ZM9.93321 27.4187C11.3418 27.4187 12.4844 26.2761 12.4844 24.8664H7.38207C7.38207 26.2761 8.52464 27.4187 9.93321 27.4187Z" fill="#C43636"/>
</svg>
