<svg width="100" height="142" viewBox="0 0 100 142" fill="none" xmlns="http://www.w3.org/2000/svg">
<g clip-path="url(#clip0_3454_697)">
<path d="M50.0065 141.135C49.8236 141.135 49.6275 141.083 49.4576 140.992L0.548948 112.747C0.209123 112.551 0 112.198 0 111.806V55.3295C0 54.9374 0.209123 54.5845 0.548948 54.3884L49.4576 26.1438C49.7974 25.9477 50.2026 25.9477 50.5424 26.1438L99.4641 54.3884C99.804 54.5845 100.013 54.9374 100.013 55.3295V111.806C100.013 112.198 99.804 112.551 99.4641 112.747L50.5424 140.992C50.3725 141.083 50.1895 141.135 50.0065 141.135ZM2.16965 111.178L50.0065 138.796L97.8304 111.178V55.9569L50.0065 28.3396L2.16965 55.9569V111.178Z" fill="#0044CC"/>
<g opacity="0.2">
<path fill-rule="evenodd" clip-rule="evenodd" d="M25.8 63.8905C25.8 57.9566 30.6098 53.1598 36.5306 53.1598C42.4514 53.1598 47.2612 57.9697 47.2612 63.8905V65.5112C48.5944 65.8902 49.5616 67.0534 49.5616 68.4258C49.5616 70.1119 48.0977 71.4842 46.3071 71.4842C46.281 71.4842 46.2548 71.4842 46.2156 71.4842C44.4903 75.1047 40.8046 77.6011 36.5306 77.6011C32.2567 77.6011 28.5709 75.1047 26.8456 71.4842C26.8195 71.4842 26.7933 71.4842 26.7672 71.4842C24.9635 71.4842 23.5127 70.1119 23.5127 68.4258C23.5127 67.0534 24.4799 65.8902 25.813 65.5112V63.8905H25.8Z" fill="#0055FF"/>
</g>
<path d="M36.5308 78.6728C32.2177 78.6728 28.2051 76.281 26.1531 72.5168C24.0096 72.2162 22.415 70.4909 22.415 68.4258C22.415 66.8574 23.3169 65.472 24.7154 64.7662V63.8774C24.7154 57.3554 30.0219 52.062 36.5308 52.062C43.0398 52.062 48.3463 57.3684 48.3463 63.8774V64.7662C49.7448 65.472 50.6466 66.8574 50.6466 68.4258C50.6466 70.5171 49.0129 72.2554 46.8955 72.5299C44.8435 76.281 40.844 78.6728 36.5308 78.6728ZM36.5308 54.2447C31.2113 54.2447 26.885 58.5709 26.885 63.8905V66.3215L26.1008 66.5437C25.199 66.8051 24.5847 67.5632 24.5847 68.4128C24.5847 69.4976 25.565 70.3864 26.7543 70.3864H27.4471L27.8261 71.0007C29.4207 74.3335 32.8451 76.4901 36.5308 76.4901C40.2297 76.4901 43.641 74.3335 45.2356 71.0007L45.5623 70.3341L46.3073 70.3864C47.5098 70.3864 48.477 69.4976 48.477 68.4128C48.477 67.5501 47.8627 66.7921 46.9609 66.5437L46.1766 66.3215V63.8905C46.1766 58.5709 41.8504 54.2447 36.5308 54.2447Z" fill="#0044CC"/>
<g opacity="0.2">
<path d="M14.129 90.998L13.9983 92.9324L13.0703 109.466H60.868V107.636L59.9531 92.9716L59.9139 92.3835C59.3388 83.0252 49.9152 76.843 41.0928 80.0583L40.6223 80.2282C37.6815 81.3 34.4531 81.2477 31.5516 80.0844C23.5395 76.8953 14.7302 82.4109 14.129 90.998Z" fill="#0055FF"/>
</g>
<path d="M60.868 110.551H13.0703C12.7697 110.551 12.4821 110.433 12.2861 110.211C12.077 109.989 11.9724 109.701 11.9855 109.401L13.0442 90.9196C13.3578 86.4757 15.7105 82.5678 19.4878 80.2021C23.265 77.8364 27.8135 77.4312 31.9436 79.078C34.5969 80.1367 37.5508 80.189 40.2432 79.2087L40.7137 79.0388C45.2491 77.392 50.1504 77.954 54.1891 80.6072C58.2147 83.2474 60.6981 87.5214 60.9987 92.3312L61.9528 107.584V109.479C61.9528 110.067 61.4692 110.551 60.868 110.551ZM14.2205 108.368H59.7831V107.636L58.829 92.4488C58.5807 88.3317 56.4502 84.6721 52.9997 82.4109C49.5492 80.1498 45.3406 79.6531 41.4587 81.0778L40.9882 81.2477C37.7991 82.4109 34.2963 82.3586 31.1333 81.0908C27.6436 79.7054 23.814 80.0452 20.6379 82.0319C17.4619 84.0316 15.4752 87.3122 15.2138 91.0634L15.0831 92.9978L14.2205 108.368Z" fill="#0044CC"/>
<path fill-rule="evenodd" clip-rule="evenodd" d="M59.6386 63.054C59.6386 58.1919 63.5858 54.2447 68.4479 54.2447C73.31 54.2447 77.2572 58.1919 77.2572 63.054V64.3871C78.3551 64.7008 79.1393 65.6549 79.1393 66.779C79.1393 68.1644 77.9368 69.2885 76.473 69.2885C76.4468 69.2885 76.4207 69.2885 76.4076 69.2885C74.996 72.2554 71.9638 74.3074 68.4609 74.3074C64.9581 74.3074 61.9258 72.2554 60.5143 69.2885C60.4881 69.2885 60.4751 69.2885 60.4489 69.2885C58.972 69.2885 57.7695 68.1644 57.7695 66.779C57.7695 65.6549 58.5668 64.7008 59.6516 64.3871V63.054H59.6386Z" fill="white"/>
<path d="M68.4481 75.3792C64.8669 75.3792 61.5471 73.4056 59.8087 70.3079C58.005 70.0073 56.6719 68.5304 56.6719 66.779C56.6719 65.4589 57.4038 64.2826 58.554 63.6552V63.054C58.554 57.6037 62.9978 53.1599 68.4481 53.1599C73.8984 53.1599 78.3422 57.6037 78.3422 63.054V63.6552C79.4924 64.2826 80.2244 65.4589 80.2244 66.779C80.2244 68.5565 78.8651 70.0465 77.0744 70.321C75.3492 73.4186 72.0293 75.3792 68.4481 75.3792ZM68.4481 55.3295C64.1872 55.3295 60.7236 58.7931 60.7236 63.054V65.1975L59.9394 65.4197C59.2728 65.6157 58.8415 66.1516 58.8415 66.779C58.8415 67.5632 59.5604 68.2036 60.423 68.2036H61.1027L61.4686 68.8179C62.7495 71.4842 65.4812 73.2095 68.435 73.2095C71.3889 73.2095 74.1336 71.4842 75.4015 68.8179L75.7021 68.2036H76.3817C77.3228 68.2036 78.0416 67.5632 78.0416 66.779C78.0416 66.1647 77.5972 65.6157 76.9437 65.4197L76.1595 65.1975V63.054C76.1726 58.7931 72.709 55.3295 68.4481 55.3295Z" fill="#0044CC"/>
<path d="M86.4986 98.7748C85.9235 98.7748 85.4529 98.3304 85.4137 97.7553L84.7472 86.4104C84.5511 83.2866 83.035 80.6726 80.5647 79.0519C78.0814 77.4181 75.0491 77.0652 72.239 78.0847C69.8079 78.9735 67.1155 78.9996 64.6713 78.15L62.6978 77.4573C59.0642 76.1895 55.0648 78.1239 53.7839 81.7574C53.5878 82.3194 52.9605 82.62 52.3984 82.424C51.8364 82.2279 51.5358 81.6006 51.7319 81.0386C53.4049 76.281 58.646 73.7715 63.4035 75.4053L65.3771 76.098C67.3507 76.7777 69.5204 76.7646 71.494 76.0457C74.9445 74.791 78.6826 75.2223 81.7541 77.2351C84.7994 79.2349 86.6815 82.4632 86.9037 86.0836L87.5834 97.6246C87.6226 98.2258 87.1651 98.7356 86.5639 98.7748C86.5378 98.7748 86.5116 98.7748 86.4986 98.7748Z" fill="#0044CC"/>
<path d="M59.7696 96.6051C60.3709 96.6051 60.8545 96.1215 60.8545 95.5203C60.8545 94.906 60.3709 94.4355 59.7696 94.4355V96.6051ZM33.5901 94.7492C33.1718 95.1674 33.1718 95.8601 33.5901 96.2653L40.5042 103.193C40.9224 103.611 41.6151 103.611 42.0465 103.193C42.4778 102.761 42.4778 102.068 42.0465 101.65L35.9035 95.5072L42.0465 89.3643C42.4778 88.946 42.4778 88.2533 42.0465 87.822C41.6282 87.4037 40.9355 87.4037 40.5042 87.822L33.5901 94.7492ZM59.7696 94.4224H34.3612V96.5921H59.7827V94.4224H59.7696Z" fill="#0044CC"/>
<g opacity="0.8">
<path d="M67.3771 83.5611C66.7759 83.5611 66.2923 84.0447 66.2923 84.6459C66.2923 85.2472 66.7759 85.7308 67.3771 85.7308V83.5611ZM61.953 94.4224C61.3518 94.4224 60.8682 94.906 60.8682 95.5073C60.8682 96.1216 61.3518 96.5921 61.953 96.5921V94.4224ZM67.3771 85.7438H73.8991V83.5742H67.3771V85.7438ZM73.8991 94.4224H61.953V96.5921H73.8991V94.4224ZM78.2384 90.0831C78.2384 92.475 76.291 94.4224 73.8991 94.4224V96.5921C77.4934 96.5921 80.4212 93.6774 80.4212 90.0701H78.2384V90.0831ZM73.8991 85.7438C76.3041 85.7438 78.2384 87.7043 78.2384 90.0831H80.4081C80.4081 86.4758 77.4934 83.5611 73.8861 83.5611V85.7438H73.8991Z" fill="#FF6B00"/>
</g>
</g>
<defs>
<clipPath id="clip0_3454_697">
<rect width="100" height="115.135" fill="white" transform="translate(0 26)"/>
</clipPath>
</defs>
</svg>
