<svg width="46" height="30" viewBox="0 0 46 30" fill="none" xmlns="http://www.w3.org/2000/svg">
<rect x="0.873047" width="45" height="30" rx="4" fill="#818FB1" fill-opacity="0.3"/>
<path d="M28.043 5L31.873 8.63148L28.043 12.263" stroke="#B4C6F9" stroke-width="2" stroke-linecap="round" stroke-linejoin="round"/>
<path d="M24.2129 8.63147H31.8729" stroke="#B4C6F9" stroke-width="2" stroke-linecap="round" stroke-linejoin="round"/>
<path d="M30.9159 19.4533V22.1769C30.917 22.4297 30.8624 22.68 30.7556 22.9117C30.6487 23.1433 30.4921 23.3513 30.2956 23.5222C30.0991 23.6932 29.8671 23.8233 29.6145 23.9043C29.3619 23.9853 29.0942 24.0154 28.8286 23.9926C25.8822 23.6891 23.052 22.7344 20.5654 21.2055C18.2519 19.8116 16.2904 17.9518 14.8203 15.7582C13.2021 13.3898 12.1951 10.6932 11.8808 7.88702C11.8569 7.63596 11.8884 7.38293 11.9732 7.14404C12.0581 6.90515 12.1945 6.68563 12.3737 6.49945C12.5529 6.31328 12.7711 6.16453 13.0143 6.06268C13.2575 5.96082 13.5204 5.9081 13.7862 5.90786H16.6588C17.1234 5.90353 17.5739 6.05955 17.9263 6.34685C18.2786 6.63415 18.5087 7.03312 18.5738 7.4694C18.695 8.34101 18.9198 9.19683 19.244 10.0205C19.3728 10.3455 19.4007 10.6986 19.3243 11.0381C19.248 11.3776 19.0706 11.6893 18.8131 11.9361L17.5971 13.0891C18.9602 15.362 20.945 17.2439 23.3421 18.5363L24.5581 17.3833C24.8185 17.1392 25.1471 16.971 25.5052 16.8986C25.8633 16.8262 26.2358 16.8526 26.5785 16.9748C27.4472 17.2822 28.3498 17.4953 29.269 17.6103C29.7342 17.6725 30.1589 17.8947 30.4626 18.2345C30.7663 18.5743 30.9276 19.008 30.9159 19.4533Z" stroke="#B4C6F9" stroke-width="2" stroke-linecap="round" stroke-linejoin="round"/>
</svg>
