<svg width="171" height="40" viewBox="0 0 171 40" fill="none" xmlns="http://www.w3.org/2000/svg">
<mask id="path-1-inside-1_3456_101" fill="white">
<path d="M0 12C0 5.37258 5.37258 0 12 0H159C165.627 0 171 5.37258 171 12V40H0V12Z"/>
</mask>
<path d="M0 12C0 5.37258 5.37258 0 12 0H159C165.627 0 171 5.37258 171 12V40H0V12Z" fill="white"/>
<path d="M-1 12C-1 4.8203 4.8203 -1 12 -1H159C166.18 -1 172 4.8203 172 12H170C170 5.92487 165.075 1 159 1H12C5.92487 1 1 5.92487 1 12H-1ZM171 40H0H171ZM-1 40V12C-1 4.8203 4.8203 -1 12 -1V1C5.92487 1 1 5.92487 1 12V40H-1ZM159 -1C166.18 -1 172 4.8203 172 12V40H170V12C170 5.92487 165.075 1 159 1V-1Z" fill="#C6C6C6" mask="url(#path-1-inside-1_3456_101)"/>
</svg>
