<svg width="100" height="141" viewBox="0 0 100 141" fill="none" xmlns="http://www.w3.org/2000/svg">
<g clip-path="url(#clip0_3454_766)">
<path d="M19.5928 58.6688V92.7036C19.5928 96.2848 22.5074 99.2256 26.1148 99.2256H44.5307H71.7298V65.5437H46.452L42.0735 60.2372C41.2501 59.2439 40.0215 58.6557 38.7275 58.6557H19.5928V58.6688Z" fill="white"/>
<path d="M71.7296 100.31H26.1147C21.9191 100.31 18.5078 96.8991 18.5078 92.7036V58.6688C18.5078 58.0676 18.9914 57.584 19.5926 57.584H38.7274C40.3481 57.584 41.8773 58.3028 42.9099 59.5576L46.9616 64.4589H71.7165C72.3178 64.4589 72.8014 64.9425 72.8014 65.5437V99.2256C72.8144 99.8268 72.3308 100.31 71.7296 100.31ZM20.6775 59.7536V92.7036C20.6775 95.6966 23.1085 98.1408 26.1147 98.1408H70.6448V66.6286H46.4649C46.1382 66.6286 45.8376 66.4848 45.6285 66.2364L41.2499 60.943C40.6226 60.185 39.7077 59.7536 38.7405 59.7536H20.6775Z" fill="#0044CC"/>
<path d="M35.8772 65.9097H26.4667C25.8654 65.9097 25.3818 65.4261 25.3818 64.8249C25.3818 64.2236 25.8654 63.74 26.4667 63.74H35.8772C36.4784 63.74 36.962 64.2236 36.962 64.8249C36.962 65.4261 36.4784 65.9097 35.8772 65.9097Z" fill="#0044CC"/>
<g opacity="0.2">
<path d="M28.284 73.8825H58.6853C59.8878 73.8825 60.8549 74.8497 60.8549 76.0522V97.7748C60.8549 98.9773 59.8878 99.9445 58.6853 99.9445H28.284C27.0816 99.9445 26.1144 98.9773 26.1144 97.7748V76.0522C26.1013 74.8497 27.0816 73.8825 28.284 73.8825Z" fill="#0055FF"/>
</g>
<path d="M50.0065 140.135C49.8236 140.135 49.6275 140.083 49.4576 139.992L0.548948 111.747C0.209123 111.551 0 111.198 0 110.806V54.3295C0 53.9374 0.209123 53.5845 0.548948 53.3884L49.4576 25.1438C49.7974 24.9477 50.2026 24.9477 50.5424 25.1438L99.4641 53.3884C99.804 53.5845 100.013 53.9374 100.013 54.3295V110.806C100.013 111.198 99.804 111.551 99.4641 111.747L50.5424 139.992C50.3725 140.083 50.1895 140.135 50.0065 140.135ZM2.16965 110.178L50.0065 137.796L97.8304 110.178V54.9569L50.0065 27.3396L2.16965 54.9569V110.178Z" fill="#0044CC"/>
<path fill-rule="evenodd" clip-rule="evenodd" d="M59.2732 72.0919L66.3573 72.2487L66.2919 74.9412C68.6053 75.3464 70.7619 76.1698 72.6963 77.32L75.4933 74.6667L80.4077 79.7772L77.9897 82.0775C79.6496 84.2602 80.839 86.822 81.401 89.6059L84.381 89.6713L84.2242 96.7553L81.4533 96.69C81.0089 99.0818 80.1071 101.317 78.8262 103.29L81.4533 106.022L76.3167 110.91L73.9249 108.414C71.4677 110.152 68.5792 111.329 65.4554 111.734L65.3901 114.727L58.306 114.557L58.3844 111.302C55.6658 110.61 53.1956 109.329 51.1043 107.604L49.0915 109.512L44.1771 104.401L46.5821 102.114C45.5364 100.18 44.8176 98.0754 44.5039 95.8143L41.7461 95.7489L41.9029 88.6649L44.8699 88.7302C45.5234 86.1423 46.7128 83.7766 48.3204 81.7377L46.02 79.3458L51.1566 74.4707L53.6922 77.1108C55.3783 76.1436 57.2343 75.4248 59.2079 75.0196L59.2732 72.0919Z" fill="white"/>
<path d="M66.3575 72.2487L67.4423 72.2749C67.4554 71.6736 66.9849 71.177 66.3836 71.1639L66.3575 72.2487ZM59.2735 72.0919L59.2996 71.0071C58.6984 70.994 58.2017 71.4645 58.1886 72.0657L59.2735 72.0919ZM66.2921 74.9543L65.2073 74.9281C65.1942 75.464 65.5733 75.9345 66.1092 76.026L66.2921 74.9543ZM72.6835 77.333L72.1214 78.261C72.5397 78.5093 73.0756 78.4571 73.4285 78.1172L72.6835 77.333ZM75.4936 74.6667L76.2778 73.9086C75.8595 73.4773 75.1799 73.4642 74.7486 73.8694L75.4936 74.6667ZM80.3949 79.7772L81.1399 80.5614C81.349 80.3653 81.4666 80.0908 81.4797 79.7902C81.4797 79.5027 81.3751 79.2282 81.1791 79.0191L80.3949 79.7772ZM77.9769 82.0775L77.2319 81.2933C76.8267 81.6723 76.7744 82.2997 77.1143 82.7441L77.9769 82.0775ZM81.3882 89.6059L80.3295 89.8281C80.4341 90.3117 80.8654 90.6777 81.3751 90.6908L81.3882 89.6059ZM84.3682 89.6713L85.453 89.6974C85.4661 89.0831 84.9956 88.5865 84.3944 88.5865L84.3682 89.6713ZM84.2114 96.7553L84.1852 97.8402C84.7865 97.8402 85.2831 97.3566 85.2962 96.7815L84.2114 96.7553ZM81.4405 96.69L81.4666 95.6052C80.9308 95.579 80.4733 95.958 80.3687 96.4939L81.4405 96.69ZM78.8265 103.29L77.9115 102.702C77.6371 103.121 77.6893 103.683 78.0422 104.048L78.8265 103.29ZM81.4536 106.022L82.1986 106.806C82.4077 106.61 82.5253 106.349 82.5384 106.048C82.5384 105.761 82.4338 105.486 82.2378 105.264L81.4536 106.022ZM76.317 110.91L75.5328 111.655C75.951 112.087 76.6307 112.113 77.062 111.695L76.317 110.91ZM73.9251 108.414L74.7093 107.656C74.3303 107.264 73.7291 107.225 73.2978 107.525L73.9251 108.414ZM65.4557 111.747L65.3119 110.662C64.776 110.727 64.3708 111.185 64.3708 111.721L65.4557 111.747ZM65.3772 114.74L65.3511 115.825C65.9523 115.825 66.449 115.341 66.4621 114.766L65.3772 114.74ZM58.3063 114.57L57.2214 114.544C57.2214 114.831 57.326 115.106 57.522 115.328C57.7181 115.524 57.9926 115.655 58.2801 115.655L58.3063 114.57ZM58.3716 111.302L59.4564 111.329C59.4695 110.832 59.1297 110.374 58.6461 110.27L58.3716 111.302ZM51.0915 107.617L51.7842 106.767C51.366 106.414 50.7386 106.44 50.3465 106.832L51.0915 107.617ZM49.0787 109.525L48.2945 110.283C48.7127 110.714 49.3924 110.714 49.8237 110.309L49.0787 109.525ZM44.1643 104.414L43.4193 103.63C43.2102 103.826 43.0926 104.114 43.0795 104.388C43.0795 104.676 43.1841 104.95 43.3801 105.173L44.1643 104.414ZM46.5692 102.14L47.3142 102.924C47.6671 102.598 47.7586 102.062 47.5234 101.617L46.5692 102.14ZM44.4911 95.8404L45.5628 95.6836C45.4844 95.1608 45.04 94.7687 44.5172 94.7556L44.4911 95.8404ZM41.7333 95.7751L40.6484 95.7489C40.6484 96.0365 40.753 96.3109 40.9491 96.5331C41.1451 96.7292 41.4196 96.8599 41.7071 96.8599L41.7333 95.7751ZM41.8901 88.691L41.9162 87.6062C41.315 87.6062 40.8183 88.0636 40.8053 88.6649L41.8901 88.691ZM44.857 88.7564L44.8309 89.8412C45.3406 89.8673 45.785 89.5144 45.9027 89.0178L44.857 88.7564ZM48.3076 81.7769L49.1571 82.4565C49.497 82.0252 49.4708 81.424 49.0918 81.0319L48.3076 81.7769ZM46.0203 79.385L45.2753 78.6008C45.0662 78.7969 44.9485 79.0714 44.9355 79.3589C44.9355 79.6464 45.04 79.934 45.2361 80.13L46.0203 79.385ZM51.1569 74.5099L51.9411 73.7518C51.5228 73.3205 50.8432 73.3074 50.4119 73.7126L51.1569 74.5099ZM53.6925 77.15L52.9083 77.9081C53.2481 78.261 53.797 78.3394 54.2284 78.0911L53.6925 77.15ZM59.2081 75.0588L59.4303 76.1175C59.927 76.0129 60.2799 75.5816 60.2929 75.085L59.2081 75.0588ZM66.3706 71.1639L59.2865 71.0071L59.2342 73.1767L66.3183 73.3335L66.3706 71.1639ZM67.377 74.9804L67.4423 72.2879L65.2727 72.2357L65.2073 74.9281L67.377 74.9804ZM73.2455 76.405C71.2065 75.1764 68.9193 74.3138 66.4751 73.8825L66.0961 76.026C68.2657 76.405 70.3047 77.1762 72.1214 78.2741L73.2455 76.405ZM74.7355 73.8825L71.9385 76.5488L73.4285 78.1172L76.2255 75.4509L74.7355 73.8825ZM81.1791 79.0322L76.2778 73.9217L74.7093 75.4248L79.6107 80.5352L81.1791 79.0322ZM78.7219 82.8617L81.1399 80.5614L79.6368 78.9929L77.2188 81.2933L78.7219 82.8617ZM82.46 89.3837C81.8587 86.4299 80.604 83.7243 78.8526 81.4109L77.1143 82.731C78.6827 84.783 79.7937 87.201 80.3165 89.8281L82.46 89.3837ZM81.3621 90.6908L84.3421 90.7561L84.3944 88.5865L81.4144 88.5211L81.3621 90.6908ZM83.2834 89.6451L83.1265 96.703L85.2962 96.7684L85.453 89.6844L83.2834 89.6451ZM84.2375 95.6705L81.4666 95.6052L81.4144 97.7748L84.1852 97.8402L84.2375 95.6705ZM79.7414 103.879C81.0876 101.787 82.0417 99.4216 82.5122 96.886L80.3818 96.4939C79.9636 98.7551 79.114 100.833 77.9115 102.702L79.7414 103.879ZM82.2378 105.264L79.6107 102.532L78.0422 104.048L80.6694 106.78L82.2378 105.264ZM77.062 111.695L82.1986 106.806L80.6955 105.238L75.5589 110.1L77.062 111.695ZM73.1409 109.172L75.5328 111.642L77.1012 110.139L74.7093 107.643L73.1409 109.172ZM65.5864 112.806C68.8931 112.387 71.9515 111.159 74.5525 109.303L73.2978 107.525C70.9843 109.172 68.2657 110.283 65.3119 110.649L65.5864 112.806ZM66.4751 114.766L66.5405 111.773L64.3708 111.734L64.3055 114.727L66.4751 114.766ZM58.2801 115.655L65.3642 115.825L65.4164 113.655L58.3324 113.485L58.2801 115.655ZM57.2999 111.289L57.2214 114.544L59.3911 114.583L59.4695 111.329L57.2999 111.289ZM50.3988 108.44C52.6077 110.27 55.2348 111.629 58.1102 112.348L58.6461 110.257C56.0843 109.603 53.7578 108.388 51.7842 106.754L50.3988 108.44ZM49.8237 110.309L51.8365 108.401L50.3334 106.832L48.3206 108.741L49.8237 110.309ZM43.3801 105.186L48.2814 110.296L49.8498 108.78L44.9485 103.669L43.3801 105.186ZM45.8242 101.356L43.4193 103.643L44.9224 105.212L47.3273 102.924L45.8242 101.356ZM43.4062 95.9973C43.733 98.3891 44.5041 100.624 45.6151 102.663L47.5234 101.617C46.53 99.8137 45.8634 97.814 45.5628 95.6836L43.4062 95.9973ZM44.5172 94.7556L41.7594 94.6902L41.7071 96.8599L44.4649 96.9252L44.5172 94.7556ZM42.8181 95.8012L42.9749 88.7172L40.8053 88.6779L40.6484 95.762L42.8181 95.8012ZM41.864 89.7758L44.8309 89.8412L44.8832 87.6715L41.9162 87.6062L41.864 89.7758ZM47.458 81.0972C45.7589 83.2407 44.4911 85.7633 43.8114 88.495L45.9157 89.0178C46.53 86.5867 47.6541 84.3517 49.1571 82.4435L47.458 81.0972ZM45.2361 80.13L47.5364 82.5219L49.1048 81.0188L46.8045 78.627L45.2361 80.13ZM50.3988 73.7257L45.2622 78.6008L46.7522 80.1693L51.8888 75.2941L50.3988 73.7257ZM54.4767 76.392L51.9411 73.7518L50.3727 75.2549L52.9083 77.895L54.4767 76.392ZM58.9859 73.9871C56.9078 74.4184 54.9472 75.1764 53.1566 76.1959L54.2414 78.078C55.836 77.1631 57.5874 76.4965 59.4303 76.1044L58.9859 73.9871ZM58.1886 72.0657L58.1233 75.0327L60.2929 75.085L60.3583 72.118L58.1886 72.0657Z" fill="#0044CC"/>
<g opacity="0.8">
<path d="M61.1553 90.4555L58.8942 97.7748H56.4893L59.9006 88.495H61.4167L61.1553 90.4555ZM63.0244 97.7748L60.7632 90.4555L60.4757 88.495H62.0179L65.4423 97.7748H63.0244ZM62.9329 94.3243V96.0365H58.1753V94.3243H62.9329ZM68.4877 88.495V97.7748H66.2527V88.495H68.4877Z" fill="#FF6B00"/>
</g>
</g>
<defs>
<clipPath id="clip0_3454_766">
<rect width="100" height="115.135" fill="white" transform="translate(0 25)"/>
</clipPath>
</defs>
</svg>
