<svg width="100" height="126" viewBox="0 0 100 126" fill="none" xmlns="http://www.w3.org/2000/svg">
<g clip-path="url(#clip0_3454_724)">
<path d="M98.9375 126H1.06247C0.47363 126 0 125.514 0 124.938V27.0625C0 26.4736 0.47363 26 1.06247 26H98.9247C99.5136 26 99.9872 26.4736 99.9872 27.0625V124.925C100 125.514 99.5136 126 98.9375 126ZM2.12494 123.862H97.8623V28.1249H2.12494V123.862Z" fill="#0044CC"/>
<path fill-rule="evenodd" clip-rule="evenodd" d="M48.9757 71.1101H77.6495V89.7225V91.2714V99.7967L69.7514 91.2714H57.4754C52.7775 91.2714 48.9629 87.4567 48.9629 82.7588V71.1101H48.9757Z" fill="white"/>
<path d="M77.6494 71.1101V70.0348C78.251 70.0348 78.7119 70.5212 78.7119 71.0973H77.6494V71.1101ZM48.9756 71.1101H47.9131C47.9131 70.5341 48.3867 70.0476 48.9756 70.0476V71.1101ZM77.6494 99.8095H78.7119C78.7119 100.232 78.4302 100.642 78.0334 100.782C77.6238 100.949 77.163 100.846 76.8685 100.501L77.6494 99.8095ZM69.7641 91.2714V90.2089C70.0585 90.2089 70.3657 90.3369 70.5449 90.5545L69.7641 91.2714ZM77.6494 72.1726H48.9756V70.0348H77.6494V72.1726ZM76.5869 89.7225V71.1101H78.7119V89.7225H76.5869ZM76.5869 91.2714V89.7225H78.7119V91.2714H76.5869ZM76.5869 99.8095V91.2842H78.7119V99.8095H76.5869ZM70.5449 90.5545L78.443 99.0799L76.8685 100.501L68.996 91.9882L70.5449 90.5545ZM57.4881 90.2089H69.7641V92.3338H57.4881V90.2089ZM50.038 82.7588C50.038 86.8679 53.379 90.2089 57.4881 90.2089V92.3338C52.1886 92.3338 47.9131 88.0328 47.9131 82.7588H50.038ZM50.038 71.1101V82.7716H47.9131V71.1101H50.038Z" fill="#0044CC"/>
<g opacity="0.1">
<path fill-rule="evenodd" clip-rule="evenodd" d="M47.8751 71.7373H76.5489V90.3369V91.8858V100.411L68.6508 91.8858H56.3749C51.677 91.8858 47.8623 88.084 47.8623 83.3733V71.7373H47.8751Z" fill="#0055FF"/>
</g>
<path fill-rule="evenodd" clip-rule="evenodd" d="M30.8504 54.725C26.1525 54.725 22.3379 58.5397 22.3379 63.2376V81.2995V83.5141V95.7005L33.6154 83.5141H54.8008C59.4987 83.5141 63.3133 79.6994 63.3133 75.0015V54.725H30.8504Z" fill="white"/>
<path d="M22.3379 95.7005H21.2754C21.2754 96.1485 21.557 96.5325 21.9538 96.6733C22.3635 96.8397 22.8243 96.7373 23.1187 96.4173L22.3379 95.7005ZM33.6154 83.5141V82.4516C33.321 82.4516 33.0137 82.5796 32.8345 82.7972L33.6154 83.5141ZM63.3133 54.725H64.3757C64.3757 54.1234 63.9021 53.6626 63.3133 53.6626V54.725ZM23.4003 63.2376C23.4003 59.1285 26.7413 55.7875 30.8504 55.7875V53.6626C25.5509 53.6626 21.2754 57.938 21.2754 63.2376H23.4003ZM23.4003 81.2995V63.2376H21.2754V81.2995H23.4003ZM23.4003 83.5141V81.2995H21.2754V83.5141H23.4003ZM23.4003 95.7005V83.5141H21.2754V95.7005H23.4003ZM32.8217 82.7844L21.5442 94.9708L23.1187 96.4173L34.3706 84.2309L32.8217 82.7844ZM54.8007 82.4388H33.6154V84.5637H54.8007V82.4388ZM62.2508 75.0015C62.2508 79.1234 58.9098 82.4516 54.8007 82.4516V84.5765C60.0747 84.5765 64.3757 80.3011 64.3757 75.0015H62.2508ZM62.2508 54.725V75.0015H64.3757V54.725H62.2508ZM30.8504 55.7875H63.3133V53.6626H30.8504V55.7875Z" fill="#0044CC"/>
<g opacity="0.8">
<path d="M35.4459 70.6877C36.4639 70.6877 37.2892 69.8624 37.2892 68.8443C37.2892 67.8263 36.4639 67.001 35.4459 67.001C34.4278 67.001 33.6025 67.8263 33.6025 68.8443C33.6025 69.8624 34.4278 70.6877 35.4459 70.6877Z" fill="#FF6B00"/>
</g>
<g opacity="0.8">
<path d="M43.6382 70.6877C44.6563 70.6877 45.4816 69.8624 45.4816 68.8443C45.4816 67.8263 44.6563 67.001 43.6382 67.001C42.6202 67.001 41.7949 67.8263 41.7949 68.8443C41.7949 69.8624 42.6202 70.6877 43.6382 70.6877Z" fill="#FF6B00"/>
</g>
<g opacity="0.8">
<path d="M51.8433 70.6877C52.8614 70.6877 53.6866 69.8624 53.6866 68.8443C53.6866 67.8263 52.8614 67.001 51.8433 67.001C50.8253 67.001 50 67.8263 50 68.8443C50 69.8624 50.8253 70.6877 51.8433 70.6877Z" fill="#FF6B00"/>
</g>
</g>
<defs>
<clipPath id="clip0_3454_724">
<rect width="100" height="100" fill="white" transform="translate(0 26)"/>
</clipPath>
</defs>
</svg>
