<svg width="137" height="47" viewBox="0 0 137 47" fill="none" xmlns="http://www.w3.org/2000/svg">
<path d="M10.9082 4.7627V6.17285H1V4.7627H5.08203V3H6.84473V4.7627H10.9082ZM5.9541 6.91504C8.34766 6.93359 9.98047 8.12109 9.98047 9.93945C9.98047 11.7578 8.34766 12.9639 5.9541 12.9639C3.54199 12.9639 1.90918 11.7578 1.90918 9.93945C1.90918 8.12109 3.54199 6.93359 5.9541 6.91504ZM5.9541 8.26953C4.54395 8.26953 3.59766 8.91895 3.61621 9.93945C3.59766 10.9785 4.54395 11.5908 5.9541 11.5908C7.36426 11.5908 8.31055 10.9785 8.3291 9.93945C8.31055 8.91895 7.36426 8.26953 5.9541 8.26953ZM14.0439 3.07422V7.58301H16.4561V9.04883H14.0439V13.4648H12.2812V3.07422H14.0439ZM14.0439 14.3184V19.6992H12.2812V15.7471H3.05957V14.3184H14.0439ZM32.2186 12.8525V14.2441H25.4276V19.6992H23.702V14.2441H17.0038V12.8525H32.2186ZM20.6405 3.74219V5.91309H28.5448V3.74219H30.3075V10.96H18.8964V3.74219H20.6405ZM20.6405 9.5498H28.5448V7.32324H20.6405V9.5498ZM48.2781 16.1553V17.6211H33.0632V16.1553H39.7615V12.3145H34.8074V4.41016H46.4597V12.3145H41.5056V16.1553H48.2781ZM36.5144 5.82031V10.9229H44.7341V5.82031H36.5144ZM68.5777 16.1367V17.584H53.3628V16.1367H60.0239V12.1846H61.7681V16.1367H68.5777ZM61.8052 5.39355C61.8052 8.02832 64.6997 10.4961 67.9097 11.0342L67.1489 12.4814C64.4585 11.9434 61.9815 10.2827 60.8775 7.99121C59.7827 10.2734 57.3335 11.9619 54.6616 12.4814L53.8823 11.0342C57.0737 10.4961 59.9497 8.02832 59.9497 5.39355V4.13184H61.8052V5.39355ZM84.5629 11.8135V13.2051H69.3666V11.8135H76.0834V10.3662H71.352V3.51953H82.7074V4.91113H73.1332V6.26562H82.2807V7.58301H73.1332V8.99316H82.8187V10.3662H77.8461V11.8135H84.5629ZM76.974 14.2998C80.6293 14.2812 82.7074 15.2461 82.7074 16.9902C82.7074 18.7529 80.6293 19.6807 76.974 19.6621C73.2816 19.6807 71.2035 18.7529 71.2035 16.9902C71.2035 15.2461 73.2816 14.2812 76.974 14.2998ZM76.974 15.6172C74.3578 15.6172 72.9477 16.0996 72.9662 16.9902C72.9477 17.8809 74.3578 18.3447 76.974 18.3262C79.5531 18.3447 80.9447 17.8809 80.9447 16.9902C80.9447 16.0996 79.5531 15.6172 76.974 15.6172ZM95.6964 7.30469C95.6964 10.3477 97.4035 13.3721 99.9455 14.5225L98.8693 15.9326C96.9767 14.9863 95.5573 13.103 94.8244 10.8301C94.0915 13.2236 92.6349 15.2461 90.7238 16.248L89.6105 14.8193C92.1896 13.5947 93.9152 10.3848 93.9152 7.30469V4.46582H95.6964V7.30469ZM103.564 3.07422V19.7363H101.819V10.0322H98.1086V8.60352H101.819V3.07422H103.564ZM119.512 3.07422V19.7363H117.749V3.07422H119.512ZM108.435 4.46582V8.7334H112.906V4.46582H114.65V15.7471H106.672V4.46582H108.435ZM108.435 14.2998H112.906V10.125H108.435V14.2998ZM130.227 5.43066C130.227 8.13965 133.122 10.7002 136.313 11.2754L135.497 12.7412C132.844 12.166 130.394 10.4219 129.318 8.08398C128.224 10.4033 125.784 12.1475 123.121 12.7412L122.342 11.2754C125.496 10.6816 128.372 8.13965 128.372 5.43066V4.16895H130.227V5.43066ZM137 16.0439V17.5098H121.785V16.0439H137Z" fill="white"/>
<path d="M17.625 26V45H14.7222V26H17.625ZM3.79282 31.8935V38.6007C3.79282 40.7338 4.65046 41.7234 6.18982 41.7234C7.75116 41.7234 8.6088 40.7338 8.6088 38.6007V31.8935C8.6088 29.7824 7.75116 28.7708 6.18982 28.7708C4.65046 28.7708 3.79282 29.7824 3.79282 31.8935ZM1 38.6007V31.8935C1 28.1331 3.06713 26.088 6.18982 26.088C9.35648 26.088 11.4236 28.1331 11.4236 31.8935V38.6007C11.4236 42.3391 9.35648 44.3623 6.18982 44.3623C3.06713 44.3623 1 42.3391 1 38.6007ZM20.3604 38.6007V31.8935C20.3604 28.1551 22.3616 26.088 25.4623 26.088C28.563 26.088 30.5861 28.1551 30.5861 31.8935V38.6007C30.5861 42.2951 28.563 44.3623 25.4623 44.3623C22.3616 44.3623 20.3604 42.2951 20.3604 38.6007ZM23.1533 31.8935V38.6007C23.1533 40.7338 24.0109 41.7234 25.4623 41.7234C26.9137 41.7234 27.7713 40.7338 27.7713 38.6007V31.8935C27.7713 29.7824 26.9137 28.7708 25.4623 28.7708C24.0109 28.7708 23.1533 29.7824 23.1533 31.8935ZM34.0827 35.9178H31.2459V33.125H34.0827V26H36.9854V45H34.0827V35.9178ZM43.0415 34.3565H56.6538V37.0613H40.1167V26.3079H56.4558V28.9907H43.0415V34.3565ZM57.3794 41.5914V44.2743H39.1931V41.5914H57.3794ZM70.7584 34.5104V36.8414H59.2792V30.3981H66.5362V28.6389H59.2792V26.3079H69.351V32.6852H62.0941V34.5104H70.7584ZM75.7063 26V37.2373H72.8035V26H75.7063ZM75.7063 38.1389V44.89H59.895V38.1389H75.7063ZM62.8197 42.537H72.8035V40.5139H62.8197V42.537Z" fill="white"/>
</svg>
