<svg width="321" height="227" viewBox="0 0 321 227" fill="none" xmlns="http://www.w3.org/2000/svg">
<g clip-path="url(#clip0_3493_54)">
<path d="M63.5586 20.3392C62.0209 20.9928 60.2525 20.2752 59.599 18.7375C58.9454 17.1998 59.663 15.4314 61.2007 14.7779C62.7385 14.1244 64.5068 14.8419 65.1603 16.3668C65.8139 17.9174 65.0963 19.6857 63.5586 20.3392ZM71.4649 31.2185C70.8114 29.6808 69.043 28.976 67.5053 29.6167C65.9676 30.2702 65.25 32.0386 65.9036 33.5763C66.5571 35.114 68.3254 35.8188 69.8631 35.1781C71.4008 34.5246 72.1184 32.7562 71.4649 31.2185ZM77.7695 46.0701C77.116 44.5324 75.3476 43.8148 73.8099 44.4684C72.2722 45.1219 71.5546 46.8902 72.2081 48.428C72.8617 49.9657 74.6428 50.6833 76.1677 50.0297C77.7054 49.3762 78.4102 47.595 77.7695 46.0701ZM44.0169 7.8454C43.3634 6.3077 41.595 5.5901 40.0573 6.24362C38.5196 6.89715 37.802 8.66551 38.4556 10.2032C39.1091 11.7281 40.8774 12.4457 42.4151 11.7922C43.9528 11.1515 44.6704 9.37029 44.0169 7.8454ZM50.3215 22.6842C49.668 21.1465 47.8996 20.4289 46.3619 21.0825C44.8242 21.736 44.1194 23.5043 44.7601 25.042C45.4137 26.5669 47.182 27.2845 48.7197 26.631C50.2574 25.9903 50.975 24.2091 50.3215 22.6842ZM56.6261 37.5231C55.9726 35.9854 54.2042 35.2806 52.6665 35.9341C51.1288 36.5876 50.4112 38.356 51.0647 39.8937C51.7182 41.4314 53.4866 42.149 55.0243 41.4955C56.562 40.8291 57.2796 39.0608 56.6261 37.5231ZM62.9179 52.3619C62.2643 50.8242 60.496 50.1194 58.9583 50.7601C57.4206 51.4137 56.703 53.182 57.3565 54.7197C58.01 56.2574 59.7784 56.975 61.3161 56.3215C62.8666 55.668 63.5714 53.8996 62.9179 52.3619ZM63.6611 69.5586C64.3146 71.0963 66.083 71.8139 67.6207 71.1603C69.1584 70.5068 69.876 68.7384 69.2224 67.2007C68.5689 65.6759 66.8006 64.9583 65.2628 65.6118C63.738 66.2653 63.0204 68.0337 63.6611 69.5586ZM29.1781 14.1372C28.5246 12.5995 26.7562 11.8819 25.2185 12.5354C23.6936 13.1889 22.976 14.9701 23.6295 16.5078C24.2831 18.0327 26.0514 18.7503 27.5891 18.0968C29.114 17.4432 29.8316 15.6749 29.1781 14.1372ZM35.4827 28.9888C34.8291 27.4511 33.0608 26.7335 31.5231 27.387C29.9854 28.0406 29.2678 29.8089 29.9213 31.3466C30.5748 32.8843 32.3432 33.5891 33.8681 32.9484C35.4186 32.2821 36.1362 30.5137 35.4827 28.9888ZM41.7872 43.8277C41.1337 42.29 39.3654 41.5724 37.8277 42.2259C36.29 42.8794 35.5724 44.6478 36.2259 46.1855C36.8794 47.7232 38.6478 48.4408 40.1855 47.7872C41.7104 47.1337 42.428 45.3525 41.7872 43.8277ZM48.079 58.6665C47.4255 57.1288 45.6571 56.424 44.1194 57.0647C42.5817 57.7182 41.8769 59.4866 42.5177 61.0243C43.1712 62.562 44.9395 63.2796 46.4772 62.6261C48.0149 61.9726 48.7325 60.2042 48.079 58.6665ZM54.3836 73.5053C53.7301 71.9676 51.9617 71.2628 50.424 71.9164C48.8863 72.5699 48.1815 74.3382 48.8222 75.8631C49.4758 77.4008 51.2441 78.1184 52.7818 77.4649C54.3195 76.8114 55.0371 75.043 54.3836 73.5053ZM14.3392 20.4418C13.6857 18.904 11.9174 18.1865 10.3797 18.84C8.84195 19.4935 8.13717 21.2619 8.77788 22.7996C9.4314 24.3373 11.1998 25.042 12.7375 24.3885C14.2752 23.7478 14.9928 21.9666 14.3392 20.4418ZM20.6438 35.2806C19.9903 33.7429 18.2219 33.0253 16.6842 33.6788C15.1465 34.3323 14.4289 36.1007 15.0825 37.6384C15.736 39.1633 17.5043 39.8809 19.042 39.2274C20.5669 38.5867 21.2845 36.8183 20.6438 35.2806ZM26.9356 50.1194C26.2821 48.5817 24.5137 47.8769 22.976 48.5177C21.4383 49.1712 20.7207 50.9395 21.3742 52.4772C22.0278 54.0021 23.7961 54.7197 25.3338 54.079C26.8715 53.4255 27.5891 51.6571 26.9356 50.1194ZM33.2402 64.9583C32.5867 63.4334 30.8183 62.7158 29.2806 63.3565C27.7429 64.01 27.0381 65.7784 27.6788 67.3161C28.3323 68.8538 30.1007 69.5714 31.6384 68.9178C33.1761 68.2771 33.8937 66.496 33.2402 64.9583ZM39.5448 79.8099C38.8912 78.2722 37.1229 77.5674 35.5852 78.221C34.0475 78.8745 33.3299 80.6428 33.9834 82.1805C34.6369 83.7182 36.4053 84.4358 37.943 83.7823C39.4679 83.116 40.1855 81.3348 39.5448 79.8099ZM5.80499 41.5852C5.15146 40.0475 3.3831 39.3299 1.8454 39.9834C0.307695 40.6369 -0.4099 42.4053 0.243624 43.943C0.897148 45.4807 2.66551 46.1855 4.20321 45.5319C5.7281 44.8784 6.45851 43.1101 5.80499 41.5852ZM12.0968 56.424C11.4432 54.8863 9.67487 54.1687 8.13717 54.8222C6.59947 55.4758 5.88187 57.2441 6.53539 58.7818C7.18892 60.3195 8.95728 61.0243 10.495 60.3836C12.0327 59.7301 12.7503 57.9489 12.0968 56.424ZM18.4013 71.2628C17.7478 69.7251 15.9795 69.0204 14.4418 69.6611C12.904 70.3146 12.1865 72.083 12.84 73.6207C13.4935 75.1584 15.2619 75.876 16.7996 75.2224C18.3373 74.5689 19.0549 72.8005 18.4013 71.2628Z" fill="url(#paint0_linear_3493_54)"/>
</g>
<g clip-path="url(#clip1_3493_54)">
<path d="M290.425 43.5793C289.716 42.7539 288.995 41.9764 288.275 41.139L173.334 251.071C174.41 251.287 175.473 251.454 176.524 251.645L290.425 43.5793ZM283.738 36.3901C282.994 35.6485 282.226 34.8949 281.47 34.1652L163.895 248.93C164.923 249.205 165.939 249.468 166.955 249.708L283.738 36.3901ZM269.242 24.0215C268.415 23.4234 267.576 22.8013 266.726 22.2152L146.091 242.626C147.012 243.033 147.958 243.416 148.903 243.834L269.242 24.0215ZM296.698 51.5459C296.025 50.6248 295.375 49.7277 294.69 48.8425L183.188 252.519C184.298 252.626 185.397 252.722 186.531 252.794L296.698 51.5459ZM261.492 18.7821C260.606 18.2199 259.732 17.6936 258.857 17.1673L137.679 238.511C138.589 239.002 139.499 239.468 140.42 239.947L261.492 18.7821ZM276.661 29.8709C275.87 29.201 275.078 28.5431 274.263 27.8732L154.81 246.107C155.79 246.442 156.759 246.765 157.752 247.088L276.661 29.8709ZM302.523 60.314C301.908 59.3212 301.294 58.3283 300.668 57.3475L193.478 253.129C194.624 253.165 195.781 253.165 196.951 253.153L302.523 60.314ZM319.618 145.627C320.031 142.947 320.338 140.22 320.563 137.505L271.18 227.757C273.306 226.119 275.409 224.408 277.441 222.626L319.618 145.627ZM313.486 169.886L294.548 204.503C298.494 199.36 302.109 193.809 305.334 187.924C308.571 182.051 311.277 176.022 313.486 169.886ZM321 123.712C320.953 121.727 320.87 119.801 320.74 117.839L254.77 238.332C256.483 237.399 258.172 236.43 259.838 235.437L321 123.712ZM316.522 93.03C316.144 91.6304 315.743 90.2189 315.317 88.8313L227.632 249.038C229.003 248.667 230.385 248.272 231.756 247.842L316.522 93.03ZM319.511 107.002C319.252 105.375 318.956 103.772 318.661 102.181L240.557 244.839C242.058 244.253 243.558 243.655 245.047 243.009L319.511 107.002ZM312.553 80.8288C312.104 79.6087 311.596 78.3766 311.1 77.1565L215.606 251.574C216.893 251.382 218.181 251.143 219.457 250.88L312.553 80.8288ZM307.839 70.0391C307.296 68.9386 306.74 67.8022 306.161 66.7137L204.252 252.878C205.469 252.818 206.686 252.71 207.915 252.59L307.839 70.0391ZM236.186 6.72447C235.205 6.37757 234.225 6.06656 233.232 5.74359L114.523 222.59C115.315 223.26 116.107 223.942 116.886 224.611L236.186 6.72447ZM149.907 8.93743C148.383 9.55945 146.871 10.1934 145.37 10.8753L72.2523 144.407C72.4768 146.057 72.7603 147.72 73.0557 149.335L149.907 8.93743ZM175.071 1.80811C173.772 2.03538 172.472 2.28658 171.184 2.53778L78.9628 171.01C79.4117 172.23 79.8961 173.486 80.3923 174.706L175.071 1.80811ZM162.962 4.54739C161.579 4.91821 160.185 5.33688 158.815 5.76751L75.0759 158.653C75.4421 160.065 75.8556 161.5 76.2691 162.888L162.962 4.54739ZM135.505 15.8156C133.769 16.7964 132.044 17.7893 130.366 18.8659L71 127.289C71.0118 129.299 71.0709 131.332 71.1772 133.33L135.505 15.8156ZM253.387 14.1409C252.478 13.6744 251.556 13.1839 250.658 12.7533L129.622 233.822C130.496 234.384 131.359 234.899 132.245 235.425L253.387 14.1409ZM118.717 27.0718C116.473 28.8541 114.287 30.756 112.161 32.6699L72.9257 104.37C72.4295 107.217 72.016 110.076 71.7089 112.935L118.717 27.0718ZM81.9281 74.8358L92.2065 56.0556C90.2689 59.0102 88.4141 62.0605 86.6774 65.2304C84.9644 68.4003 83.3695 71.5942 81.9281 74.8358ZM227.065 3.9493C226.049 3.69809 225.01 3.43493 224.006 3.20765L107.494 216.011C108.227 216.752 108.983 217.494 109.751 218.224L227.065 3.9493ZM217.567 1.89184C216.492 1.70045 215.44 1.53298 214.365 1.36551L100.866 208.702C101.551 209.539 102.272 210.365 102.969 211.166L217.567 1.89184ZM244.964 10.1097C244.019 9.71496 243.062 9.30825 242.105 8.92547L121.896 228.523C122.723 229.145 123.561 229.743 124.4 230.329L244.964 10.1097ZM186.484 0.384633C185.255 0.480329 184.026 0.587986 182.821 0.719568L83.6057 181.967C84.1374 183.068 84.6808 184.192 85.2597 185.293L186.484 0.384633ZM197.341 0.0138125C196.171 -0.0101114 195.002 0.00185052 193.82 0.0138125L88.8631 191.776C89.4656 192.793 90.0563 193.809 90.6942 194.79L197.341 0.0138125ZM207.667 0.564062C206.556 0.444443 205.445 0.348747 204.323 0.276975L94.6284 200.664C95.2782 201.573 95.9516 202.47 96.625 203.391L207.667 0.564062Z" fill="url(#paint1_linear_3493_54)" fill-opacity="0.34"/>
</g>
<defs>
<linearGradient id="paint0_linear_3493_54" x1="25.2244" y1="12.54" x2="52.78" y2="77.4617" gradientUnits="userSpaceOnUse">
<stop stop-color="#B1D8FD"/>
<stop offset="1" stop-color="#F4FFFF"/>
</linearGradient>
<linearGradient id="paint1_linear_3493_54" x1="316.162" y1="91.708" x2="75.4057" y2="159.879" gradientUnits="userSpaceOnUse">
<stop stop-color="#A9DAF8"/>
<stop offset="1" stop-color="#F4FFFF"/>
</linearGradient>
<clipPath id="clip0_3493_54">
<rect width="78" height="78" fill="white" transform="translate(0 6)"/>
</clipPath>
<clipPath id="clip1_3493_54">
<rect width="250" height="227" fill="white" transform="translate(71)"/>
</clipPath>
</defs>
</svg>
