<svg width="36" height="36" viewBox="0 0 36 36" fill="none" xmlns="http://www.w3.org/2000/svg">
<g clip-path="url(#clip0_664_578)">
<path d="M24.6809 10.4763C24.6809 15.3599 20.6169 19.3188 15.6037 19.3188C10.9936 19.3188 7.18988 15.9698 6.60638 11.6345C5.99711 11.4801 5.4149 11.2656 4.8623 10.9983C5.14182 16.542 9.84335 20.9525 15.6024 20.9525C21.3615 20.9525 26.3567 16.2621 26.3567 10.4763C26.3567 9.76356 26.2833 9.06841 26.1441 8.39709C25.6186 8.56649 25.0712 8.68946 24.507 8.76224C24.619 9.31686 24.6796 9.8903 24.6796 10.4763H24.6809Z" fill="#D3D5E1"/>
<path d="M6.52646 10.4763C6.52646 5.99288 9.95278 2.29125 14.3941 1.71404C14.2885 1.18703 14.2305 0.643703 14.2241 0.0878296C8.93648 0.749105 4.84937 5.1459 4.84937 10.4763C4.84937 10.6507 4.85452 10.8251 4.86353 10.9983C5.41612 11.2655 5.99834 11.4801 6.60761 11.6344C6.55609 11.2555 6.52775 10.869 6.52775 10.4763H6.52646Z" fill="#D3D5E1"/>
<path d="M17.2317 6.57512C15.7993 5.32032 14.7805 3.62761 14.394 1.71405C9.95269 2.29 6.52637 5.99164 6.52637 10.4763C6.52637 10.869 6.55599 11.2555 6.60623 11.6344C7.33658 11.8189 8.10428 11.918 8.89388 11.918C12.6306 11.918 15.8393 9.71837 17.2304 6.57512H17.2317Z" fill="#D3D5E1"/>
<path d="M17.4636 0.159363C17.6659 0.72151 17.8101 1.31001 17.8913 1.91733C21.239 2.76431 23.8358 5.42698 24.5082 8.76097C25.0724 8.68819 25.6185 8.56522 26.1454 8.39582C25.2759 4.19101 21.8199 0.89969 17.4636 0.159363Z" fill="#D3D5E1"/>
<path d="M17.2317 6.57511C18.8392 7.98425 20.9659 8.84253 23.2999 8.84253C23.7108 8.84253 24.1127 8.81366 24.5094 8.76222C23.837 5.42698 21.2402 2.76556 17.8925 1.91858C17.944 2.29753 17.9723 2.684 17.9723 3.07675C17.9723 4.32025 17.7083 5.50227 17.2317 6.57637V6.57511Z" fill="#D3D5E1"/>
<path d="M14.2241 0.0891172C14.2293 0.64499 14.2872 1.18832 14.3941 1.71533C14.7896 1.66388 15.1928 1.63502 15.6037 1.63502C16.3946 1.63502 17.161 1.73415 17.8913 1.9186C17.8102 1.31129 17.6659 0.722787 17.4637 0.16064C16.8596 0.0577474 16.2387 0.00128174 15.6037 0.00128174C15.1361 0.00128174 14.6762 0.0339064 14.2241 0.090372V0.0891172Z" fill="#D3D5E1"/>
<path d="M14.394 1.71403C14.7805 3.62759 15.7993 5.32031 17.2317 6.5751C17.707 5.50225 17.9724 4.31898 17.9724 3.07548C17.9724 2.68273 17.9427 2.29626 17.8925 1.91731C17.1622 1.73286 16.3944 1.63373 15.6048 1.63373C15.1939 1.63373 14.7921 1.66259 14.3953 1.71403H14.394Z" fill="#D3D5E1"/>
<path d="M27.3807 22.3993C26.2961 21.2311 25.0247 20.231 23.6104 19.4455C21.4451 21.3076 18.601 22.4382 15.4864 22.4382C12.596 22.4382 9.93863 21.4645 7.84162 19.837C4.01599 22.2224 1.35479 26.2239 0.873047 30.8516H21.6332C21.5624 30.445 21.5237 30.0284 21.5237 29.6018C21.5237 26.0984 24.0239 23.166 27.3807 22.3981V22.3993Z" fill="#D3D5E1"/>
<path d="M29.3888 35.9987C32.9699 35.9987 35.873 33.1707 35.873 29.6821C35.873 26.1935 32.9699 23.3655 29.3888 23.3655C25.8076 23.3655 22.9045 26.1935 22.9045 29.6821C22.9045 33.1707 25.8076 35.9987 29.3888 35.9987Z" fill="#D3D5E1"/>
<path d="M34.1817 27.3118L33.7592 26.9002C33.6304 26.7748 33.4578 26.7057 33.2749 26.7057C33.092 26.7057 32.9194 26.7748 32.7893 26.9015L28.2462 31.3635L25.9908 29.1488C25.862 29.0234 25.6893 28.9543 25.5064 28.9543C25.3235 28.9543 25.1509 29.0234 25.0221 29.1488L24.5996 29.5604C24.3317 29.8214 24.3317 30.2443 24.5996 30.504L27.7645 33.6059C27.892 33.7439 28.071 33.8229 28.2578 33.8229C28.4446 33.8229 28.6236 33.7439 28.7524 33.6059L34.1856 28.2567C34.4522 27.9957 34.4522 27.5728 34.1856 27.3118H34.1817Z" fill="white"/>
</g>
<defs>
<clipPath id="clip0_664_578">
<rect width="35" height="36" fill="white" transform="translate(0.873047)"/>
</clipPath>
</defs>
</svg>
