<svg width="18" height="18" viewBox="0 0 18 18" fill="none" xmlns="http://www.w3.org/2000/svg">
<path d="M9.00004 17.4998C8.77782 17.4998 8.56601 17.4582 8.36462 17.3748C8.16324 17.2915 7.97921 17.1735 7.81254 17.0207L1.12504 10.3332C0.972263 10.1665 0.854207 9.98248 0.770874 9.78109C0.687541 9.5797 0.645874 9.36789 0.645874 9.14567C0.645874 8.92345 0.687541 8.70817 0.770874 8.49984C0.854207 8.2915 0.972263 8.11095 1.12504 7.95817L7.81254 1.27067C7.97921 1.104 8.16324 0.982476 8.36462 0.906087C8.56601 0.829698 8.77782 0.791504 9.00004 0.791504C9.22226 0.791504 9.43754 0.829698 9.64587 0.906087C9.85421 0.982476 10.0348 1.104 10.1875 1.27067L16.875 7.95817C17.0417 8.11095 17.1632 8.2915 17.2396 8.49984C17.316 8.70817 17.3542 8.92345 17.3542 9.14567C17.3542 9.36789 17.316 9.5797 17.2396 9.78109C17.1632 9.98248 17.0417 10.1665 16.875 10.3332L10.1875 17.0207C10.0348 17.1735 9.85421 17.2915 9.64587 17.3748C9.43754 17.4582 9.22226 17.4998 9.00004 17.4998ZM8.16671 9.979H9.83337V4.979H8.16671V9.979ZM9.00004 12.479C9.23615 12.479 9.43407 12.3991 9.59379 12.2394C9.75351 12.0797 9.83337 11.8818 9.83337 11.6457C9.83337 11.4096 9.75351 11.2116 9.59379 11.0519C9.43407 10.8922 9.23615 10.8123 9.00004 10.8123C8.76393 10.8123 8.56601 10.8922 8.40629 11.0519C8.24657 11.2116 8.16671 11.4096 8.16671 11.6457C8.16671 11.8818 8.24657 12.0797 8.40629 12.2394C8.56601 12.3991 8.76393 12.479 9.00004 12.479Z" fill="#0097EF"/>
</svg>
