<svg width="31" height="30" viewBox="0 0 31 30" fill="none" xmlns="http://www.w3.org/2000/svg">
<path d="M13.1379 21.9L23.7129 11.325L21.6129 9.225L13.1379 17.7L8.86292 13.425L6.76291 15.525L13.1379 21.9ZM15.2379 30C13.1629 30 11.2129 29.6062 9.38791 28.8187C7.56291 28.0312 5.97541 26.9625 4.62541 25.6125C3.27541 24.2625 2.20667 22.675 1.41917 20.85C0.631665 19.025 0.237915 17.075 0.237915 15C0.237915 12.925 0.631665 10.975 1.41917 9.15C2.20667 7.325 3.27541 5.7375 4.62541 4.3875C5.97541 3.0375 7.56291 1.96875 9.38791 1.18125C11.2129 0.39375 13.1629 0 15.2379 0C17.3129 0 19.2629 0.39375 21.0879 1.18125C22.9129 1.96875 24.5004 3.0375 25.8504 4.3875C27.2004 5.7375 28.2692 7.325 29.0567 9.15C29.8442 10.975 30.2379 12.925 30.2379 15C30.2379 17.075 29.8442 19.025 29.0567 20.85C28.2692 22.675 27.2004 24.2625 25.8504 25.6125C24.5004 26.9625 22.9129 28.0312 21.0879 28.8187C19.2629 29.6062 17.3129 30 15.2379 30Z" fill="#00BC71"/>
</svg>
