<svg width="10" height="17" viewBox="0 0 10 17" fill="none" xmlns="http://www.w3.org/2000/svg">
<path fill-rule="evenodd" clip-rule="evenodd" d="M0.896723 1.48267C0.401477 1.97792 0.401477 2.78087 0.896723 3.27612L7.30983 9.68922C7.80508 10.1845 8.60803 10.1845 9.10328 9.68922C9.59852 9.19398 9.59852 8.39102 9.10328 7.89578L2.69017 1.48267C2.19492 0.987424 1.39197 0.987424 0.896723 1.48267Z" fill="black"/>
<path fill-rule="evenodd" clip-rule="evenodd" d="M0.896723 16.1023C0.401477 15.607 0.401477 14.8041 0.896723 14.3088L7.30983 7.89574C7.80508 7.40049 8.60803 7.40049 9.10328 7.89574C9.59852 8.39098 9.59852 9.19394 9.10328 9.68918L2.69017 16.1023C2.19492 16.5975 1.39197 16.5975 0.896723 16.1023Z" fill="black"/>
</svg>
