<svg width="11" height="17" viewBox="0 0 11 17" fill="none" xmlns="http://www.w3.org/2000/svg">
<path fill-rule="evenodd" clip-rule="evenodd" d="M9.68921 1.48267C10.1845 1.97792 10.1845 2.78087 9.68921 3.27612L3.27611 9.68922C2.78086 10.1845 1.97791 10.1845 1.48266 9.68922C0.987414 9.19398 0.987413 8.39102 1.48266 7.89578L7.89577 1.48267C8.39101 0.987424 9.19397 0.987424 9.68921 1.48267Z" fill="black"/>
<path fill-rule="evenodd" clip-rule="evenodd" d="M9.68921 16.1023C10.1845 15.607 10.1845 14.8041 9.68921 14.3088L3.27611 7.89574C2.78086 7.40049 1.97791 7.40049 1.48266 7.89574C0.987414 8.39098 0.987413 9.19394 1.48266 9.68918L7.89577 16.1023C8.39101 16.5975 9.19397 16.5975 9.68921 16.1023Z" fill="black"/>
</svg>
