<svg width="96" height="96" viewBox="0 0 96 96" fill="none" xmlns="http://www.w3.org/2000/svg">
<path fill-rule="evenodd" clip-rule="evenodd" d="M57.3333 38.1333H38.6667C38.3721 38.1333 38.1333 38.3721 38.1333 38.6667V57.3333C38.1333 57.6279 38.3721 57.8667 38.6667 57.8667H57.3333C57.6279 57.8667 57.8667 57.6279 57.8667 57.3333V38.6667C57.8667 38.3721 57.6279 38.1333 57.3333 38.1333ZM38.6667 36C37.1939 36 36 37.1939 36 38.6667V57.3333C36 58.8061 37.1939 60 38.6667 60H57.3333C58.8061 60 60 58.8061 60 57.3333V38.6667C60 37.1939 58.8061 36 57.3333 36H38.6667ZM43.7333 48V54.6667H41.5999V48H43.7333ZM52.2666 54.6667H54.3999V41.3333H52.2666V54.6667ZM49.0666 50.6667V54.6667H46.9333V50.6667H49.0666ZM49.0666 48V45.3333H46.9333V48H49.0666Z" fill="#303336"/>
</svg>
