<svg width="220" height="26" viewBox="0 0 220 26" fill="none" xmlns="http://www.w3.org/2000/svg">
<g clip-path="url(#clip0_11152_147154)">
<path d="M12.1942 3V13.9213C12.1818 16.9434 10.7843 18.7049 8.37535 18.6894C5.96327 18.7049 4.56583 16.9434 4.55338 13.9213V3H0V13.9213C0.0155618 19.3679 3.34578 23 8.37535 23C13.4049 23 16.7351 19.3679 16.7476 13.9213V3H12.1942Z" fill="#0D203C"/>
<path d="M37.3757 3H32.01L27.7274 9.15002H27.6185L23.339 3H17.9453L24.8018 12.8101L17.9453 22.6203H23.339L27.6185 16.4423H27.7274L32.01 22.6203H37.3757L30.5472 12.8101L37.3757 3Z" fill="#0D203C"/>
<path d="M48.151 3H41.1855V22.6203H45.7389V16.3333H48.151C52.7168 16.3333 55.8603 13.61 55.8479 9.66667C55.8603 5.72331 52.7168 3 48.151 3ZM48.2319 12.1877H45.7389V7.14566H48.2319C50.1429 7.13321 51.2789 8.08248 51.2945 9.66667C51.2789 11.2384 50.1429 12.2001 48.2319 12.1877Z" fill="#0D203C"/>
<path d="M65.3001 8.25586C63.7003 8.25586 62.3869 9.14911 61.643 10.615H61.5341V8.63557H57.1426V22.6194H61.5341V16.4133C61.5466 13.771 62.7137 12.3486 64.8955 12.3486C65.1693 12.3486 65.4744 12.3704 65.7856 12.4171V8.28387C65.6237 8.2652 65.465 8.25586 65.3001 8.25586Z" fill="#0D203C"/>
<path d="M73.8558 8.25586C69.6137 8.25586 66.4173 11.4274 66.4297 15.6259C66.4173 19.8276 69.6137 22.9991 73.8558 22.9991C78.0979 22.9991 81.2943 19.8276 81.2788 15.6259C81.2943 11.4274 78.0948 8.25586 73.8558 8.25586ZM73.8558 19.0153C71.9448 19.0277 70.5909 17.6178 70.6034 15.6259C70.5909 13.6371 71.9448 12.2272 73.8558 12.2397C75.7668 12.2272 77.1207 13.6371 77.1082 15.6259C77.1207 17.6178 75.7668 19.0277 73.8558 19.0153Z" fill="#0D203C"/>
</g>
<path d="M108.281 7L96.2812 19" stroke="#8D949D" stroke-width="2"/>
<path d="M108.279 19L96.2793 7" stroke="#8D949D" stroke-width="2"/>
<path d="M149.69 13C149.69 20.1785 143.777 26 136.485 26C129.193 26 123.279 20.1785 123.279 13C123.279 5.82148 129.193 0 136.485 0C143.777 0 149.69 5.82148 149.69 13Z" fill="white"/>
<path d="M142.684 12.0987C140.586 10.6941 137.899 11.2645 136.485 13.3779C135.309 15.1412 133.531 15.3616 132.846 15.3616C130.598 15.3616 129.066 13.8058 128.61 12.1981C128.61 12.1981 128.601 12.1678 128.596 12.1505C128.592 12.1332 128.588 12.1159 128.583 12.0987C128.403 11.4245 128.359 11.109 128.359 10.3959C128.359 6.55377 132.367 2.27086 138.136 2.27086C143.905 2.27086 147.43 6.70072 148.303 9.16415C148.286 9.11661 148.273 9.07771 148.26 9.03449C146.578 4.21568 141.942 0.753906 136.477 0.753906C129.611 0.753906 124.035 6.23828 124.035 13.0062C124.035 19.0568 128.465 24.23 134.615 24.23C139.515 24.23 142.811 21.5245 144.322 17.7948C145.151 15.7549 144.563 13.3563 142.684 12.0987Z" fill="#003964"/>
<path d="M148.374 9.40052C147.645 6.99759 144.239 2.26953 138.132 2.26953C132.364 2.26953 128.355 6.55244 128.355 10.3945C128.355 11.1076 128.399 11.4274 128.579 12.0973C128.505 11.8034 128.465 11.5096 128.465 11.2243C128.465 7.218 132.535 4.44772 136.723 4.44772C142.391 4.44772 146.987 8.96834 146.987 14.5478C146.987 18.9215 144.432 22.7074 140.718 24.5268C145.507 22.8241 148.923 18.3078 148.923 13.0049C148.923 11.7516 148.752 10.6452 148.379 9.40052" fill="#ED1A3B"/>
<path d="M215.912 8.84987C215.741 7.23324 214.299 6.29223 212.271 6.29223C210.097 6.29223 208.729 7.37802 208.729 8.87399C208.729 10.5389 210.561 11.1662 211.954 11.504L213.664 11.9625C215.936 12.4933 218.746 13.7239 218.77 16.8847C218.746 19.8284 216.376 22 212.198 22C208.24 22 205.748 20.0456 205.577 16.8606H208.264C208.435 18.7668 210.121 19.6836 212.198 19.6836C214.446 19.6836 216.083 18.5496 216.107 16.8365C216.083 15.3164 214.641 14.689 212.76 14.2064L210.659 13.6515C207.825 12.8794 206.041 11.4558 206.041 9.01877C206.041 6.00268 208.777 4 212.345 4C215.936 4 218.453 6.02681 218.526 8.84987H215.912Z" fill="#0D203C"/>
<path d="M194.753 21.7105H189.012V4.24129H194.924C200.128 4.24129 203.256 7.52279 203.256 12.9517C203.256 18.4048 200.128 21.7105 194.753 21.7105ZM191.699 19.3941H194.607C198.614 19.3941 200.593 17.0777 200.593 12.9517C200.593 8.84987 198.614 6.55764 194.753 6.55764H191.699V19.3941Z" fill="#0D203C"/>
<path d="M173.595 21.7105V4.24129H179.898C184.003 4.24129 186.031 6.50938 186.031 9.7185C186.031 12.071 184.956 13.8566 182.806 14.6408L186.715 21.7105H183.661L180.069 15.1233H176.282V21.7105H173.595ZM176.282 12.8311H179.63C182.244 12.8311 183.319 11.6971 183.319 9.7185C183.319 7.73995 182.244 6.50938 179.63 6.50938H176.282V12.8311Z" fill="#0D203C"/>
<path d="M157.689 21.7105V4.24129H160.377V12.5657H160.597L168 4.24129H171.372L164.237 12.1072L171.396 21.7105H168.146L162.454 13.9169L160.377 16.2815V21.7105H157.689Z" fill="#0D203C"/>
<defs>
<clipPath id="clip0_11152_147154">
<rect width="81.2792" height="20" fill="white" transform="translate(0 3)"/>
</clipPath>
</defs>
</svg>
