<svg width="724" height="115" viewBox="0 0 724 115" fill="none" xmlns="http://www.w3.org/2000/svg">
<path d="M29.2676 13.8574V44.9668H23.6816L10.0176 25.2012H9.75977V44.9668H3.31445V13.8574H8.98633L22.5645 33.623H22.8652V13.8574H29.2676ZM44.9512 45.4395C37.8184 45.4395 33.4355 40.7988 33.4355 33.4082C33.4355 26.1895 37.8613 21.334 44.6934 21.334C50.8379 21.334 55.6504 25.2012 55.6504 33.1504V34.9551H39.709C39.709 38.4785 41.8145 40.6699 45.0801 40.6699C47.2285 40.6699 48.7754 39.7246 49.4199 38.3066H55.4785C54.5762 42.6035 50.709 45.4395 44.9512 45.4395ZM39.709 30.959H49.6348C49.6348 28.123 47.6582 26.1035 44.8223 26.1035C41.9004 26.1035 39.8164 28.2734 39.709 30.959ZM64.5449 21.6348L68.8848 29.8418L73.3105 21.6348H79.8848L73.0527 33.2793L80.0566 44.9668H73.5254L68.8848 36.8457L64.3301 44.9668H57.7129L64.6738 33.2793L57.9707 21.6348H64.5449ZM82.248 38.4355C82.248 33.2363 86.459 31.5176 90.9277 31.2598C92.6035 31.1523 95.7402 31.002 96.7285 30.959V29.0684C96.6855 27.1348 95.3535 25.9746 92.9902 25.9746C90.8418 25.9746 89.4668 26.9629 89.123 28.5527H83.0645C83.4512 24.5137 86.9746 21.334 93.1621 21.334C98.2324 21.334 103.045 23.6113 103.045 29.2402V44.9668H97.0293V41.7441H96.8574C95.6973 43.8926 93.5059 45.3965 90.0254 45.3965C85.5566 45.3965 82.248 43.0762 82.248 38.4355ZM88.3496 38.2637C88.3496 40.0684 89.8105 41.0137 91.8301 41.0137C94.709 41.0137 96.7715 39.0801 96.7285 36.6309V34.9121C95.7617 34.9551 93.0547 35.1055 91.959 35.2129C89.7676 35.4277 88.3496 36.459 88.3496 38.2637ZM118.385 45.4395C111.252 45.4395 106.955 40.498 106.955 33.3652C106.955 26.2324 111.295 21.334 118.385 21.334C124.4 21.334 128.482 24.8574 128.74 30.1855H122.768C122.381 27.8652 120.877 26.2754 118.471 26.2754C115.42 26.2754 113.4 28.8535 113.4 33.2793C113.4 37.791 115.377 40.3691 118.471 40.3691C120.705 40.3691 122.381 38.9941 122.768 36.502H128.74C128.439 41.7871 124.572 45.4395 118.385 45.4395ZM132.693 44.9668V21.6348H138.838V25.6738H139.096C139.955 22.7949 142.104 21.291 144.725 21.291C145.369 21.291 146.186 21.377 146.744 21.5059V27.1777C146.143 27.0059 144.939 26.834 144.037 26.834C141.158 26.834 139.053 28.8535 139.053 31.6895V44.9668H132.693ZM159.592 45.4395C152.545 45.4395 148.162 40.584 148.162 33.3652C148.162 26.1465 152.545 21.334 159.592 21.334C166.639 21.334 171.064 26.1465 171.064 33.3652C171.064 40.584 166.639 45.4395 159.592 45.4395ZM159.635 40.498C162.9 40.498 164.576 37.4473 164.576 33.3652C164.576 29.2402 162.9 26.1895 159.635 26.1895C156.326 26.1895 154.607 29.2402 154.607 33.3652C154.607 37.4473 156.326 40.498 159.635 40.498ZM201.143 13.8574V44.9668H195.557L181.893 25.2012H181.635V44.9668H175.189V13.8574H180.861L194.439 33.623H194.74V13.8574H201.143ZM224.518 13.8574L232.08 37.5762H232.381L239.986 13.8574H247.119L236.377 44.9668H228.084L217.299 13.8574H224.518ZM250.6 44.9668V40.4121L260.611 30.0137C263.189 27.2637 264.908 25.6309 264.951 23.0527C264.951 20.1738 262.975 18.584 260.482 18.584C257.947 18.584 256.143 20.3027 256.143 23.3965H250.385C250.342 17.3809 254.467 13.4277 260.611 13.4277C266.627 13.4277 270.881 17.166 270.881 22.623C270.881 26.1035 269.42 28.9395 263.533 34.8691L259.15 39.4668V39.6387H271.268V44.9668H250.6ZM289.615 13.8574V39.8105H295.33V44.9668H276.854V39.8105H283.127V20.3457L276.854 24.5996V18.541L283.6 13.8574H289.615ZM335.678 40.0684V44.5801H299.885V40.0684H314.967V34.1816H304.01V21.0332H326.139V16.7363H303.967V12.3535H331.553V25.3301H309.51V29.7129H332.455V34.1816H320.424V40.0684H335.678ZM382.084 12.0957V15.6191C382.084 19.2715 382.084 23.2676 381.096 28.7246H386.252V33.1504H370.998V48.9629H365.498V33.1504H350.588V28.7246H375.553C376.541 23.6758 376.627 19.8516 376.627 16.4785H354.67V12.0957H382.084ZM421.572 9.86133V39.6387H416.115V32.248H410.83V27.9082H416.115V23.998H410.83V19.5723H416.115V9.86133H421.572ZM410.443 13.9434V18.2832H388.701V13.9434H397.123V9.77539H402.58V13.9434H410.443ZM399.787 19.6582C405.158 19.6582 409.025 22.8379 409.068 27.3496C409.025 31.8613 405.158 34.998 399.787 34.998C394.459 34.998 390.592 31.8613 390.635 27.3496C390.592 22.8379 394.459 19.6582 399.787 19.6582ZM399.787 23.9121C397.381 23.9551 395.705 25.1582 395.748 27.3496C395.705 29.584 397.381 30.8301 399.787 30.8301C402.15 30.8301 403.869 29.584 403.912 27.3496C403.869 25.1582 402.15 23.9551 399.787 23.9121ZM422.389 43.8496V48.2324H395.533V37.1035H401.076V43.8496H422.389ZM457.666 9.86133V21.8496H462.951V26.3184H457.666V39.0371H452.166V9.86133H457.666ZM449.846 13.9434V18.2832H426.643V13.9434H435.537V9.77539H440.994V13.9434H449.846ZM438.244 19.6582C443.916 19.6582 447.869 22.709 447.869 27.2207C447.869 31.7324 443.916 34.6973 438.244 34.6973C432.529 34.6973 428.533 31.7324 428.533 27.2207C428.533 22.709 432.529 19.6582 438.244 19.6582ZM438.244 23.8262C435.623 23.8691 433.861 25.0723 433.904 27.2207C433.861 29.3691 435.623 30.5293 438.244 30.5293C440.865 30.5293 442.67 29.3691 442.67 27.2207C442.67 25.0723 440.865 23.8691 438.244 23.8262ZM459.084 43.8496V48.2324H432.314V36.8027H437.771V43.8496H459.084ZM34.8105 66.8184V90.0215H29.3535V80.7832H23.252V76.3574H29.3535V66.8184H34.8105ZM21.4473 90.8809C29.7832 90.9238 34.8965 93.6738 34.9395 98.4434C34.8965 103.17 29.7832 105.963 21.4473 105.963C13.1113 105.963 7.99805 103.17 7.99805 98.4434C7.99805 93.6738 13.1113 90.9238 21.4473 90.8809ZM21.4473 95.0918C16.248 95.0918 13.4551 96.166 13.4551 98.4434C13.4551 100.678 16.248 101.795 21.4473 101.795C26.6465 101.795 29.4824 100.678 29.4824 98.4434C29.4824 96.166 26.6465 95.0918 21.4473 95.0918ZM24.4121 69.1816V73.5645H16.6348C16.7637 78.1191 19.5137 82.7168 25.6152 84.7363L22.9082 89.0332C18.5898 87.6367 15.625 84.8008 13.9277 81.2559C12.1875 85.252 9.07227 88.4746 4.43164 90.0645L1.5957 85.7246C8.01953 83.5762 10.8984 78.4629 11.0488 73.5645H3.18555V69.1816H24.4121ZM75.6309 89.377V93.6738H60.334V105.92H54.9199V93.6738H39.8379V89.377H75.6309ZM49.4629 68.3223V72.834H65.877V68.3223H71.377V85.5957H44.0488V68.3223H49.4629ZM49.4629 81.2129H65.877V77.1309H49.4629V81.2129ZM108.201 91.1816C116.752 91.1816 122.123 93.8887 122.166 98.5723C122.123 103.17 116.752 105.92 108.201 105.92C99.7363 105.92 94.2793 103.17 94.2793 98.5723C94.2793 93.8887 99.7363 91.1816 108.201 91.1816ZM108.201 95.2637C102.83 95.2637 99.7363 96.3809 99.7363 98.5723C99.7363 100.678 102.83 101.752 108.201 101.752C113.572 101.752 116.709 100.678 116.709 98.5723C116.709 96.3809 113.572 95.2637 108.201 95.2637ZM121.951 68.5801V71.7598C121.951 74.8535 121.951 78.2051 120.834 82.2441L115.463 81.7285C116.322 78.1836 116.43 75.541 116.494 72.877H94.666V68.5801H121.951ZM126.162 84.2637V88.6895H90.6699V84.2637H103.99V77.4316H109.404V84.2637H126.162ZM143.607 72.3613C143.564 77.2598 146.357 81.9863 152.803 83.9199L150.053 88.2168C145.605 86.7988 142.533 84.0273 140.771 80.4395C139.01 84.3066 135.83 87.3359 131.232 88.8184L128.482 84.5215C135.014 82.416 137.893 77.3457 137.893 72.3613V68.623H143.607V72.3613ZM161.354 91.8262V105.92H155.854V96.209H134.455V91.8262H161.354ZM161.354 66.8184V90.1504H155.854V66.8184H161.354ZM212.057 66.8184V106.006H206.514V66.8184H212.057ZM200.713 70.2559V74.7246H187.178V92.041C194.182 92.0195 198.479 91.8691 203.42 90.9668L203.936 95.4785C198.521 96.5098 193.537 96.6816 185.072 96.6816H181.678V70.2559H200.713ZM231.779 77.4746C231.736 83.4473 234.916 90.3223 241.361 93.2871L238.311 97.584C233.949 95.5859 230.834 91.5898 229.115 86.8848C227.354 92.0625 224.152 96.4453 219.619 98.5723L216.439 94.2324C222.971 91.1816 226.236 83.9199 226.279 77.4746V75.0684H217.986V70.5996H239.643V75.0684H231.779V77.4746ZM248.193 66.8184V81.7285H253.951V86.3262H248.193V105.92H242.693V66.8184H248.193ZM288.111 66.8613V94.9629H282.611V66.8613H288.111ZM289.143 100.85V105.232H261.9V92.127H267.443V100.85H289.143ZM266.67 69.3535C272.686 69.3535 277.369 73.4785 277.369 79.1934C277.369 85.0371 272.686 89.1191 266.67 89.1191C260.654 89.1191 255.971 85.0371 255.971 79.1934C255.971 73.4785 260.654 69.3535 266.67 69.3535ZM266.67 74.123C263.619 74.0801 261.299 76.0137 261.342 79.1934C261.299 82.459 263.619 84.3496 266.67 84.3496C269.635 84.3496 271.955 82.459 271.955 79.1934C271.955 76.0137 269.635 74.0801 266.67 74.123ZM321.283 75.6699C321.283 82.8457 324.549 90.0645 331.166 92.8574L327.943 97.2402C323.475 95.2207 320.381 91.332 318.619 86.498C316.836 91.7617 313.635 96.0156 308.865 98.1855L305.557 93.6309C312.389 90.752 315.697 83.2754 315.74 75.6699V69.8262H321.283V75.6699ZM338.814 66.8184V106.006H333.271V66.8184H338.814ZM364.682 71.9746C364.682 77.6895 369.752 83.834 378.604 85.3379L376.197 89.8926C369.387 88.5391 364.316 84.7148 361.803 79.666C359.203 84.6719 354.133 88.5176 347.365 89.8926L345.002 85.3379C353.682 83.791 358.795 77.6465 358.838 71.9746V69.1387H364.682V71.9746ZM379.893 96.5957V101.107H344.1V96.5957H379.893ZM398.584 69.1387V73.5645H388.916V76.6582H397.123V80.8691H388.916V84.2637C393.191 84.1992 396.307 84.0273 399.916 83.4473L400.475 87.7012C395.963 88.4746 392.225 88.6035 386.338 88.6035H383.674V69.1387H398.584ZM415.729 66.8184V90.1504H410.529V66.8184H415.729ZM407.951 67.4199V89.8926H402.752V80.6113H398.799V76.2285H402.752V67.4199H407.951ZM415.729 91.6973V105.49H389.045V91.6973H415.729ZM394.502 95.9941V101.107H410.314V95.9941H394.502ZM437.986 67.377C446.967 67.377 452.166 69.7402 452.209 74.0371C452.166 78.377 446.967 80.7402 437.986 80.7402C428.963 80.7402 423.721 78.377 423.721 74.0371C423.721 69.7402 428.963 67.377 437.986 67.377ZM437.986 71.373C432.229 71.373 429.436 72.3184 429.479 74.0371C429.436 75.9707 432.229 76.7012 437.986 76.7012C443.787 76.7012 446.537 75.9707 446.537 74.0371C446.537 72.3184 443.787 71.373 437.986 71.373ZM455.818 82.5879V86.9277H420.154V82.5879H455.818ZM451.479 89.2051V99.1738H429.693V101.537H452.51V105.662H424.322V95.3496H446.064V93.2012H424.279V89.2051H451.479ZM490.795 70.041V88.8184H472.018V70.041H490.795ZM477.432 74.4238V84.5215H485.381V74.4238H477.432ZM501.881 66.8184V78.0762H507.166V82.5879H501.881V95.3496H496.381V66.8184H501.881ZM503.299 100.85V105.232H476.529V92.5566H481.986V100.85H503.299ZM545.279 81.6426V86.1113H539.736V105.834H534.236V66.8184H539.736V81.6426H545.279ZM515.588 70.5566V91.7402C520.594 91.6758 525.965 91.2031 531.615 90.0645L532.174 94.6191C525.643 95.9512 519.283 96.2949 513.525 96.2949H510.131V70.5566H515.588ZM582.705 96.8965V101.365H546.912V96.8965H561.994V89.6777H550.693V69.3105H556.193V75.3691H573.252V69.3105H578.709V89.6777H567.451V96.8965H582.705ZM556.193 85.2949H573.252V79.752H556.193V85.2949ZM597.486 76.6582C597.486 82.9746 599.248 89.5059 604.576 92.9434L601.611 97.1973C598.238 95.1562 596.09 91.8047 594.865 87.7871C593.447 92.2129 591.105 95.9082 587.561 98.0566L584.209 94.0176C590.01 90.4082 592.158 83.5332 592.158 76.916V70.1699H597.486V76.6582ZM618.842 66.8184V105.92H613.6V66.8184H618.842ZM610.635 67.377V104.115H605.521V84.4785H600.451V80.0098H605.521V67.377H610.635ZM658.76 96.8535V101.365H622.967V96.8535H630.959V87.2715C627.93 85.4668 626.104 82.6953 626.104 79.2363C626.104 72.9199 632.291 68.709 640.799 68.709C649.264 68.709 655.494 72.9199 655.537 79.2363C655.516 82.6094 653.732 85.3594 650.811 87.1855V96.8535H658.76ZM640.799 73.0488C635.213 73.0488 631.518 75.2832 631.518 79.2363C631.518 83.0605 635.213 85.4238 640.799 85.4238C646.342 85.4238 650.08 83.0605 650.123 79.2363C650.08 75.2832 646.342 73.0488 640.799 73.0488ZM636.373 96.8535H645.268V89.248C643.871 89.5273 642.367 89.6777 640.799 89.6777C639.23 89.6777 637.748 89.5488 636.373 89.248V96.8535Z" fill="#1E2124"/>
</svg>
