<svg width="20" height="20" viewBox="0 0 20 20" fill="none" xmlns="http://www.w3.org/2000/svg">
<path fill-rule="evenodd" clip-rule="evenodd" d="M9.18252 1.33398C8.87968 1.33398 8.61488 1.53811 8.53781 1.83098L8.11577 3.43466L6.68996 4.03569L5.64078 3.10251C5.37697 2.86787 4.97597 2.87959 4.72632 3.12925L3.12632 4.72925C2.88475 4.97081 2.86488 5.35589 3.0803 5.62103L3.99426 6.74596L3.40818 8.18689L1.8462 8.55143C1.54449 8.62184 1.33105 8.89083 1.33105 9.20065V10.8007C1.33105 11.1012 1.53219 11.3646 1.82215 11.4438L3.43024 11.8828L4.03238 13.3112L3.10008 14.357C2.86495 14.6208 2.87646 15.0222 3.12632 15.2721L4.72632 16.8721C4.96815 17.1139 5.35376 17.1335 5.61888 16.9174L6.74411 16.0004L8.15117 16.5793L8.55135 18.1639C8.62611 18.4599 8.8924 18.6673 9.19772 18.6673H10.7977C11.1029 18.6673 11.3691 18.4601 11.444 18.1643L11.8455 16.5792L13.2957 15.9786C13.4436 16.1013 13.6206 16.253 13.7946 16.4044C13.945 16.5353 14.0847 16.6586 14.1869 16.7493L14.3083 16.8573L14.3526 16.897C14.6162 17.1334 15.0187 17.1225 15.2691 16.8721L16.8691 15.2721C17.1145 15.0267 17.1306 14.6342 16.9062 14.3695L15.982 13.2794L16.5778 11.8407L18.1655 11.4276C18.4593 11.3512 18.6643 11.086 18.6643 10.7824L18.6644 9.20068C18.6644 8.89576 18.4575 8.62969 18.162 8.55455L16.5837 8.15321L15.9889 6.71673L16.9068 5.6311C17.1306 5.3664 17.1142 4.97435 16.8691 4.72925L15.2691 3.12925C15.0231 2.88319 14.6292 2.86777 14.3646 3.09384L13.2862 4.01546L11.8044 3.4061L11.3908 1.83127C11.3138 1.53826 11.0489 1.33398 10.746 1.33398H9.18252ZM9.32172 4.09122L9.69644 2.66732H10.2318L10.5992 4.06582C10.6523 4.26797 10.7971 4.43351 10.9904 4.51301L13.1559 5.40358C13.3873 5.49872 13.6524 5.45634 13.8426 5.29382L14.7622 4.50794L15.4927 5.23846L14.7084 6.16605C14.5473 6.35656 14.5061 6.62107 14.6015 6.85157L15.4797 8.97205C15.5602 9.16632 15.7276 9.31125 15.9313 9.36308L17.331 9.719L17.331 10.267L15.921 10.6339C15.7187 10.6865 15.5529 10.8309 15.4729 11.024L14.5945 13.1451C14.4989 13.3759 14.5404 13.6407 14.7019 13.8313L15.4922 14.7634L14.7698 15.4858L14.67 15.3987C14.373 15.1402 13.9977 14.8195 13.7895 14.6707C13.6023 14.5369 13.3593 14.5091 13.1467 14.5971L11.0262 15.4753C10.8318 15.5558 10.6867 15.7235 10.6351 15.9275L10.2789 17.334H9.71696L9.3617 15.9273C9.30998 15.7225 9.16428 15.5543 8.96895 15.474L6.88428 14.6164C6.65809 14.5233 6.3991 14.5616 6.20949 14.7161L5.24334 15.5035L4.51425 14.7744L5.30796 13.884C5.47917 13.692 5.52458 13.4185 5.42464 13.1815L4.53293 11.0661C4.45341 10.8775 4.29165 10.7358 4.09418 10.6819L2.66439 10.2916V9.72964L4.04724 9.40691C4.25798 9.35773 4.43173 9.20932 4.51326 9.00886L5.37796 6.88291C5.46962 6.65755 5.43124 6.40016 5.27784 6.21135L4.49427 5.24691L5.2245 4.51668L6.11819 5.31156C6.31024 5.48237 6.58337 5.52757 6.82021 5.42774L8.93596 4.53587C9.12656 4.45553 9.26907 4.29126 9.32172 4.09122ZM9.99902 6.83366C8.25008 6.83366 6.83236 8.25139 6.83236 10.0003C6.83236 11.7493 8.25008 13.167 9.99902 13.167C11.748 13.167 13.1657 11.7493 13.1657 10.0003C13.1657 8.25139 11.748 6.83366 9.99902 6.83366ZM8.16569 10.0003C8.16569 8.98776 8.98646 8.16699 9.99902 8.16699C11.0116 8.16699 11.8324 8.98776 11.8324 10.0003C11.8324 11.0129 11.0116 11.8337 9.99902 11.8337C8.98646 11.8337 8.16569 11.0129 8.16569 10.0003Z" fill="#33363D"/>
</svg>
