<svg width="150" height="18" viewBox="0 0 150 18" fill="none" xmlns="http://www.w3.org/2000/svg">
<g clip-path="url(#clip0_11152_147188)">
<path d="M8.31423 2.18164V9.62795C8.30575 11.6885 7.35294 12.8896 5.71047 12.8789C4.06587 12.8896 3.11306 11.6885 3.10457 9.62795V2.18164H0V9.62795C0.0106103 13.3416 2.28122 15.818 5.71047 15.818C9.13972 15.818 11.4103 13.3416 11.4188 9.62795V2.18164H8.31423Z" fill="#0D203C"/>
<path d="M25.4844 2.18164H21.8259L18.906 6.37483H18.8317L15.9139 2.18164H12.2363L16.9112 8.87038L12.2363 15.5591H15.9139L18.8317 11.3468H18.906L21.8259 15.5591H25.4844L20.8286 8.87038L25.4844 2.18164Z" fill="#0D203C"/>
<path d="M32.8312 2.18164H28.082V15.5591H31.1866V11.2725H32.8312C35.9443 11.2725 38.0875 9.41575 38.0791 6.7271C38.0875 4.03844 35.9443 2.18164 32.8312 2.18164ZM32.8864 8.44596H31.1866V5.00823H32.8864C34.1893 4.99974 34.9639 5.64697 34.9745 6.7271C34.9639 7.79874 34.1893 8.45445 32.8864 8.44596Z" fill="#0D203C"/>
<path d="M44.5229 5.76562C43.4321 5.76562 42.5366 6.37466 42.0294 7.37415H41.9552V6.02452H38.9609V15.5589H41.9552V11.3275C41.9637 9.52592 42.7594 8.55614 44.247 8.55614C44.4337 8.55614 44.6417 8.57099 44.8539 8.60282V5.78472C44.7436 5.77199 44.6353 5.76562 44.5229 5.76562Z" fill="#0D203C"/>
<path d="M50.3562 5.76562C47.4639 5.76562 45.2845 7.92801 45.293 10.7907C45.2845 13.6554 47.4639 15.8178 50.3562 15.8178C53.2486 15.8178 55.428 13.6554 55.4173 10.7907C55.428 7.92801 53.2465 5.76562 50.3562 5.76562ZM50.3562 13.1016C49.0533 13.1101 48.1302 12.1488 48.1387 10.7907C48.1302 9.43467 49.0533 8.47338 50.3562 8.48186C51.6592 8.47338 52.5823 9.43467 52.5738 10.7907C52.5823 12.1488 51.6592 13.1101 50.3562 13.1016Z" fill="#0D203C"/>
</g>
<path d="M73.7999 4.8457L65.4922 13.1534" stroke="#8D949D" stroke-width="2"/>
<path d="M73.7988 13.1534L65.4911 4.8457" stroke="#8D949D" stroke-width="2"/>
<path d="M102.062 9C102.062 13.9697 98.0301 18 93.0583 18C88.0866 18 84.0547 13.9697 84.0547 9C84.0547 4.03025 88.0866 0 93.0583 0C98.0301 0 102.062 4.03025 102.062 9Z" fill="white"/>
<path d="M97.2855 8.37554C95.8548 7.40313 94.0229 7.79808 93.0591 9.26118C92.2569 10.4819 91.0447 10.6345 90.5777 10.6345C89.0452 10.6345 88.0005 9.55739 87.6893 8.44436C87.6893 8.44436 87.6833 8.42341 87.6803 8.41145C87.6773 8.39948 87.6743 8.38751 87.6713 8.37554C87.5486 7.90879 87.5186 7.69037 87.5186 7.19668C87.5186 4.53678 90.2515 1.57168 94.1846 1.57168C98.1177 1.57168 100.521 4.63851 101.117 6.34396C101.105 6.31105 101.096 6.28412 101.087 6.2542C99.9405 2.91809 96.7797 0.521484 93.0531 0.521484C88.3717 0.521484 84.5703 4.31836 84.5703 9.00387C84.5703 13.1927 87.5905 16.7741 91.784 16.7741C95.1244 16.7741 97.3723 14.9011 98.402 12.319C98.9677 10.9068 98.5666 9.24622 97.2855 8.37554Z" fill="#003964"/>
<path d="M101.165 6.50715C100.668 4.84358 98.3451 1.57031 94.1815 1.57031C90.2484 1.57031 87.5156 4.53541 87.5156 7.19531C87.5156 7.689 87.5456 7.91041 87.6683 8.37417C87.6174 8.17071 87.5905 7.96725 87.5905 7.76978C87.5905 4.99618 90.3652 3.07829 93.2207 3.07829C97.085 3.07829 100.219 6.20795 100.219 10.0706C100.219 13.0986 98.4768 15.7196 95.9445 16.9792C99.2102 15.8004 101.539 12.6737 101.539 9.00249C101.539 8.13481 101.422 7.36885 101.168 6.50715" fill="#ED1A3B"/>
<path d="M147.213 6.12713C147.096 5.00793 146.113 4.35646 144.73 4.35646C143.248 4.35646 142.315 5.10816 142.315 6.14384C142.315 7.29644 143.564 7.73076 144.514 7.96462L145.68 8.28201C147.229 8.64951 149.145 9.50143 149.162 11.6897C149.145 13.7277 147.529 15.2311 144.68 15.2311C141.982 15.2311 140.283 13.878 140.166 11.673H141.998C142.115 12.9927 143.265 13.6274 144.68 13.6274C146.213 13.6274 147.329 12.8423 147.346 11.6563C147.329 10.6039 146.346 10.1696 145.064 9.83552L143.631 9.45132C141.699 8.91678 140.483 7.93121 140.483 6.24406C140.483 4.156 142.348 2.76953 144.78 2.76953C147.229 2.76953 148.945 4.17271 148.995 6.12713H147.213Z" fill="#0D203C"/>
<path d="M132.786 15.0306H128.872V2.93658H132.903C136.451 2.93658 138.584 5.20838 138.584 8.96689C138.584 12.7421 136.451 15.0306 132.786 15.0306ZM130.704 13.427H132.686C135.418 13.427 136.768 11.8234 136.768 8.96689C136.768 6.12713 135.418 4.54021 132.786 4.54021H130.704V13.427Z" fill="#0D203C"/>
<path d="M118.36 15.0306V2.93658H122.658C125.457 2.93658 126.839 4.5068 126.839 6.72849C126.839 8.35718 126.106 9.59331 124.64 10.1362L127.306 15.0306H125.223L122.775 10.4703H120.193V15.0306H118.36ZM120.193 8.88337H122.475C124.257 8.88337 124.99 8.09826 124.99 6.72849C124.99 5.35872 124.257 4.5068 122.475 4.5068H120.193V8.88337Z" fill="#0D203C"/>
<path d="M107.516 15.0306V2.93658H109.348V8.69962H109.498L114.545 2.93658H116.844L111.98 8.38224L116.861 15.0306H114.645L110.764 9.63507L109.348 11.2721V15.0306H107.516Z" fill="#0D203C"/>
<defs>
<clipPath id="clip0_11152_147188">
<rect width="55.4176" height="13.6364" fill="white" transform="translate(0 2.18164)"/>
</clipPath>
</defs>
</svg>
