<svg width="96" height="96" viewBox="0 0 96 96" fill="none" xmlns="http://www.w3.org/2000/svg">
<path fill-rule="evenodd" clip-rule="evenodd" d="M59.2648 36.451C59.5579 36.6494 59.7334 36.9803 59.7334 37.3342V56.6676C59.7334 57.1386 59.4245 57.5539 58.9733 57.6893L52.3066 59.6893C52.0961 59.7524 51.8713 59.749 51.6628 59.6795L44.0154 57.1304L37.3891 59.5399C36.5195 59.8561 35.6001 59.2121 35.6001 58.2869V40.0009C35.6001 39.5524 35.8807 39.1518 36.3022 38.9985L43.6356 36.3318C43.8617 36.2496 44.1091 36.2462 44.3374 36.3223L51.9667 38.8654L58.2706 36.3439C58.5992 36.2124 58.9717 36.2525 59.2648 36.451ZM37.7334 40.748L42.9334 38.8571V55.2538L37.7334 57.1447V40.748ZM50.9334 57.1877L45.0668 55.2321V38.8142L50.9334 40.7697V57.1877ZM53.0668 57.234L57.6001 55.8739V38.9098L53.0668 40.7231V57.234Z" fill="#303336"/>
</svg>
