<svg width="96" height="96" viewBox="0 0 96 96" fill="none" xmlns="http://www.w3.org/2000/svg">
<path fill-rule="evenodd" clip-rule="evenodd" d="M45.5406 36.9768C45.9171 37.2038 46.2693 37.4659 46.5932 37.7587C47.155 38.2668 47.6313 38.8671 48.0002 39.5371C48.3691 38.8671 48.8454 38.2668 49.4072 37.7587C49.731 37.4659 50.0833 37.2038 50.4597 36.9768C51.4894 36.3557 52.6639 36.0188 53.8645 36C55.7785 36.0836 57.5817 36.9253 58.8803 38.3412C60.1789 39.7571 60.8673 41.6321 60.795 43.5566C60.795 50.8185 49.1133 59.2079 48.6165 59.5616L48.0002 60L47.3839 59.5616C46.887 59.2058 35.2054 50.8185 35.2054 43.5566C35.1331 41.6321 35.8215 39.7571 37.1201 38.3412C38.4187 36.9253 40.2219 36.0836 42.1359 36C43.3365 36.0188 44.511 36.3557 45.5406 36.9768ZM51.5616 38.8035C52.2509 38.3878 53.0338 38.1578 53.835 38.1345C55.1586 38.2089 56.4049 38.7984 57.3081 39.7831C58.2261 40.784 58.7144 42.1118 58.6632 43.4766L58.6617 43.5166V43.5566C58.6617 44.8225 58.1413 46.3154 57.1394 47.9626C57.0777 48.064 57.0145 48.1654 56.95 48.2667H52.571L50.221 44.7417C50.0013 44.4121 49.617 44.2314 49.223 44.2724C48.829 44.3135 48.4902 44.5694 48.3431 44.9372L46.2772 50.1019L44.7544 48.5791C44.5544 48.3791 44.2831 48.2667 44.0002 48.2667H39.0506C38.986 48.1653 38.9228 48.0638 38.861 47.9622C37.8591 46.3152 37.3387 44.8224 37.3387 43.5566V43.5166L37.3372 43.4766C37.286 42.1118 37.7743 40.784 38.6923 39.7831C39.5955 38.7984 40.8418 38.2089 42.1654 38.1345C42.9666 38.1578 43.7495 38.3878 44.4388 38.8035C45.1462 39.2302 45.7304 39.8378 46.1314 40.5661L48.0002 43.9603L49.869 40.5661C50.27 39.8378 50.8542 39.2302 51.5616 38.8035ZM40.6056 50.4C41.2404 51.1784 41.9283 51.9363 42.6333 52.6571C44.7728 54.8442 46.9537 56.5727 48.0006 57.3648C49.0449 56.5751 51.2267 54.8461 53.367 52.658C54.0722 51.9369 54.7603 51.1787 55.3953 50.4H52.0002C51.6435 50.4 51.3105 50.2218 51.1126 49.925L49.5708 47.6122L47.6572 52.3962C47.524 52.7291 47.2325 52.9728 46.8813 53.0449C46.5301 53.117 46.1661 53.0078 45.9126 52.7543L43.5583 50.4H40.6056Z" fill="#303336"/>
</svg>
