<svg width="96" height="96" viewBox="0 0 96 96" fill="none" xmlns="http://www.w3.org/2000/svg">
<path fill-rule="evenodd" clip-rule="evenodd" d="M53.8836 42.6944L45.3336 35.9766L34.9336 44.148V59.7331H43.3336V57.5998H37.0669V45.1849L45.3336 38.6896L51.0481 43.1796C51.7408 42.8505 52.5157 42.6664 53.3336 42.6664C53.5193 42.6664 53.7028 42.6759 53.8836 42.6944ZM53.3336 49.8664C54.3645 49.8664 55.2002 49.0307 55.2002 47.9998C55.2002 46.9688 54.3645 46.1331 53.3336 46.1331C52.3026 46.1331 51.4669 46.9688 51.4669 47.9998C51.4669 49.0307 52.3026 49.8664 53.3336 49.8664ZM53.3336 51.9998C55.5427 51.9998 57.3336 50.2089 57.3336 47.9998C57.3336 45.7906 55.5427 43.9998 53.3336 43.9998C51.1244 43.9998 49.3336 45.7906 49.3336 47.9998C49.3336 50.2089 51.1244 51.9998 53.3336 51.9998ZM58.7406 54.6191C55.3051 53.0575 51.3621 53.0575 47.9266 54.6191L47.1221 54.9848C45.7893 55.5906 44.9336 56.9195 44.9336 58.3835V59.7331H61.7336V58.3835C61.7336 56.9195 60.8779 55.5906 59.5451 54.9848L58.7406 54.6191ZM48.8094 56.5612C51.684 55.2546 54.9832 55.2546 57.8578 56.5612L58.6623 56.9269C58.9784 57.0706 59.2318 57.3091 59.3952 57.5997H47.272C47.4354 57.3091 47.6888 57.0706 48.0048 56.9269L48.8094 56.5612Z" fill="#303336"/>
</svg>
