<svg width="96" height="96" viewBox="0 0 96 96" fill="none" xmlns="http://www.w3.org/2000/svg">
<path fill-rule="evenodd" clip-rule="evenodd" d="M42.4 34.666C42.9891 34.666 43.4667 35.1436 43.4667 35.7327V38.6661L52.5312 38.6662V35.7327C52.5312 35.1436 53.0088 34.666 53.5979 34.666C54.187 34.666 54.6646 35.1436 54.6646 35.7327V38.6662L57.599 38.6662C58.9245 38.6663 59.999 39.7408 59.999 41.0662V57.5996C59.999 58.9251 58.9244 59.9996 57.599 59.9996H38.4C37.0745 59.9996 36 58.9251 36 57.5996V41.066C36 39.7405 37.0745 38.666 38.4 38.666L41.3333 38.6661V35.7327C41.3333 35.1436 41.8109 34.666 42.4 34.666ZM38.4 40.7993C38.2527 40.7993 38.1333 40.9187 38.1333 41.066V44.2663H57.8656V41.0662C57.8656 40.919 57.7462 40.7996 57.599 40.7996L38.4 40.7993ZM38.1333 57.5996V46.3996H57.8656V57.5996C57.8656 57.7469 57.7462 57.8663 57.599 57.8663H38.4C38.2527 57.8663 38.1333 57.7469 38.1333 57.5996ZM42.1354 50.666C41.399 50.666 40.8021 51.263 40.8021 51.9993C40.8021 52.7357 41.399 53.3327 42.1354 53.3327C42.8718 53.3327 43.4688 52.7357 43.4688 51.9993C43.4688 51.263 42.8718 50.666 42.1354 50.666ZM48 50.666C47.2636 50.666 46.6667 51.263 46.6667 51.9993C46.6667 52.7357 47.2636 53.3327 48 53.3327C48.7364 53.3327 49.3333 52.7357 49.3333 51.9993C49.3333 51.263 48.7364 50.666 48 50.666ZM52.5365 51.9993C52.5365 51.263 53.1334 50.666 53.8698 50.666C54.6062 50.666 55.2031 51.263 55.2031 51.9993C55.2031 52.7357 54.6062 53.3327 53.8698 53.3327C53.1334 53.3327 52.5365 52.7357 52.5365 51.9993Z" fill="#33363D"/>
</svg>
