<svg width="96" height="96" viewBox="0 0 96 96" fill="none" xmlns="http://www.w3.org/2000/svg">
<path fill-rule="evenodd" clip-rule="evenodd" d="M47.0985 41.753L44.8763 39.4673H37.3332C37.0386 39.4673 36.7998 39.7061 36.7998 40.0007V56.0007C36.7998 56.2952 37.0386 56.534 37.3332 56.534H58.6665C58.9611 56.534 59.1998 56.2952 59.1998 56.0007V42.2864C59.1998 41.9918 58.9611 41.753 58.6665 41.753H47.0985ZM45.7776 37.334H37.3332C35.8604 37.334 34.6665 38.5279 34.6665 40.0007V56.0007C34.6665 57.4734 35.8604 58.6673 37.3332 58.6673H58.6665C60.1393 58.6673 61.3332 57.4734 61.3332 56.0007V42.2864C61.3332 40.8136 60.1393 39.6197 58.6665 39.6197H47.9998L45.7776 37.334ZM50.9332 50.4007H47.9998V48.2673H50.9332V45.334H53.0665V48.2673H55.9998V50.4007H53.0665V53.334H50.9332V50.4007Z" fill="#303336"/>
</svg>
