<svg width="50" height="20" viewBox="0 0 50 20" fill="none" xmlns="http://www.w3.org/2000/svg">
<path fill-rule="evenodd" clip-rule="evenodd" d="M32.3335 9.99935C32.3335 10.1807 32.2596 10.3542 32.1289 10.4799L27.7956 14.6466C27.5302 14.9018 27.1081 14.8935 26.8529 14.6281C26.5977 14.3627 26.606 13.9407 26.8714 13.6855L30.0116 10.666L16.3341 10.666C15.966 10.666 15.6675 10.3675 15.6675 9.99935C15.6675 9.63116 15.966 9.33268 16.3341 9.33268L30.0116 9.33268L26.8714 6.31324C26.606 6.05804 26.5977 5.63601 26.8529 5.37061C27.1081 5.10521 27.5302 5.09693 27.7956 5.35213L32.1289 9.51879C32.2596 9.64449 32.3335 9.818 32.3335 9.99935Z" fill="#33363D"/>
</svg>
