<svg width="48" height="20" viewBox="0 0 48 20" fill="none" xmlns="http://www.w3.org/2000/svg">
<g clip-path="url(#clip0_947_7758)">
<path fill-rule="evenodd" clip-rule="evenodd" d="M24.3335 9.99935C24.3335 10.1807 24.2596 10.3542 24.1289 10.4799L19.7956 14.6466C19.5302 14.9018 19.1081 14.8935 18.8529 14.6281C18.5977 14.3627 18.606 13.9407 18.8714 13.6855L22.0116 10.666H8.33415C7.96596 10.666 7.66748 10.3675 7.66748 9.99935C7.66748 9.63116 7.96596 9.33268 8.33415 9.33268H22.0116L18.8714 6.31324C18.606 6.05804 18.5977 5.63601 18.8529 5.37061C19.1081 5.10521 19.5302 5.09693 19.7956 5.35213L24.1289 9.51879C24.2596 9.64449 24.3335 9.818 24.3335 9.99935Z" fill="#33363D"/>
</g>
<defs>
<clipPath id="clip0_947_7758">
<rect width="48" height="20" fill="white"/>
</clipPath>
</defs>
</svg>
