<svg width="96" height="96" viewBox="0 0 96 96" fill="none" xmlns="http://www.w3.org/2000/svg">
<path fill-rule="evenodd" clip-rule="evenodd" d="M46.7998 44.5333H49.1998V38.1333H46.7998V44.5333ZM45.9998 36C45.2635 36 44.6665 36.597 44.6665 37.3333V41.3333H35.9998C35.2635 41.3333 34.6665 41.9303 34.6665 42.6667V60C34.6665 60.7364 35.2635 61.3333 35.9998 61.3333H59.9998C60.7362 61.3333 61.3332 60.7364 61.3332 60V42.6667C61.3332 41.9303 60.7362 41.3333 59.9998 41.3333H51.3332V37.3333C51.3332 36.597 50.7362 36 49.9998 36H45.9998ZM36.7998 43.4667H44.6665V45.3333C44.6665 46.0697 45.2635 46.6667 45.9998 46.6667H49.9998C50.7362 46.6667 51.3332 46.0697 51.3332 45.3333V43.4667H59.1998V59.2H36.7998V43.4667ZM44.0665 51.8667C45.0606 51.8667 45.8665 51.0608 45.8665 50.0667C45.8665 49.0726 45.0606 48.2667 44.0665 48.2667C43.0724 48.2667 42.2665 49.0726 42.2665 50.0667C42.2665 51.0608 43.0724 51.8667 44.0665 51.8667ZM55.9998 51.7333H50.6665V49.6H55.9998V51.7333ZM39.9998 54.8C39.9998 53.6954 40.8953 52.8 41.9998 52.8H43.9998H45.9998C47.1044 52.8 47.9998 53.6954 47.9998 54.8V56H39.9998V54.8ZM55.9998 55.7333H50.6665V53.6H55.9998V55.7333Z" fill="#303336"/>
</svg>
