<svg width="305" height="36" viewBox="0 0 305 36" fill="none" xmlns="http://www.w3.org/2000/svg">
<path d="M6.3131 19.2751C6.33036 23.4594 8.26708 25.8989 11.6108 25.8777C14.9505 25.8992 16.8885 23.4595 16.9057 19.2751V4.15381H23.2188V19.2751C23.2016 26.8165 18.5837 31.8461 11.6108 31.8461C4.63826 31.8458 0.0215738 26.8164 0 19.2751V4.15381H6.3131V19.2751ZM102.392 11.4325C108.269 11.4326 112.704 15.8239 112.683 21.6373C112.704 27.4548 108.273 31.846 102.392 31.8461C96.5109 31.8461 92.0799 27.4548 92.0971 21.6373C92.0798 15.8239 96.5107 11.4325 102.392 11.4325ZM38.2901 12.6697H38.4404L44.3785 4.15381H51.8167L42.3505 17.7376L51.8167 31.3201H44.3785L38.4404 22.7664H38.2901L32.3574 31.3201H24.8801L34.3856 17.7376L24.8801 4.15381H32.3574L38.2901 12.6697ZM66.7554 4.15381C73.0852 4.15381 77.4438 7.925 77.4265 13.385C77.4435 18.8449 73.0851 22.6149 66.7554 22.6149H63.4113V31.3201H57.0995V4.15381H66.7554ZM90.5306 11.4325C90.7593 11.4325 90.9793 11.4459 91.2035 11.4717V17.1941C90.772 17.1295 90.3485 17.0994 89.9688 17.0994C86.9445 17.0997 85.3261 19.0687 85.3088 22.7272V31.3201H79.2218V11.9585H85.3088V14.6993H85.4604C86.4916 12.6696 88.3127 11.4325 90.5306 11.4325ZM102.392 16.9479C99.7426 16.9308 97.8649 18.8836 97.8821 21.6373C97.8651 24.3952 99.7426 26.3479 102.392 26.3306C105.041 26.3478 106.917 24.3951 106.9 21.6373C106.917 18.8836 105.041 16.9309 102.392 16.9479ZM63.4113 16.875H66.8676C69.5168 16.8921 71.0916 15.561 71.1134 13.385C71.0919 11.1915 69.517 9.87651 66.8676 9.89375H63.4113V16.875Z" fill="#0D203C"/>
<path d="M150.691 10.6713L143.351 18L150.688 25.3288L148.728 27.2867L141.391 19.9593L134.055 27.2867L132.094 25.3288L139.431 18.0014L132.092 10.6713L134.054 8.71338L141.391 16.0421L148.731 8.71338L150.691 10.6713Z" fill="#8D949D"/>
<path d="M208.102 18C208.102 27.9395 199.904 36 189.795 36C179.685 36 171.486 27.9395 171.486 18C171.486 8.06051 179.685 0 189.795 0C199.904 0 208.102 8.06051 208.102 18Z" fill="white"/>
<path d="M198.389 16.7515C195.48 14.8066 191.755 15.5966 189.795 18.5227C188.164 20.9642 185.699 21.2695 184.75 21.2695C181.633 21.2695 179.509 19.1151 178.877 16.8891C178.877 16.8891 178.865 16.8471 178.858 16.8233C178.852 16.7994 178.847 16.7754 178.84 16.7515C178.59 15.818 178.529 15.3811 178.529 14.3937C178.529 9.07392 184.087 3.14373 192.084 3.14373C200.081 3.14373 204.968 9.27738 206.179 12.6883C206.155 12.6225 206.137 12.5686 206.119 12.5088C203.787 5.83655 197.36 1.04333 189.784 1.04333C180.265 1.04333 172.534 8.63709 172.534 18.0081C172.534 26.3858 178.676 33.5486 187.202 33.5486C193.995 33.5486 198.565 29.8027 200.66 24.6384C201.809 21.8139 200.994 18.4928 198.389 16.7515Z" fill="#003964"/>
<path d="M206.277 13.0153C205.266 9.68815 200.544 3.1416 192.078 3.1416C184.081 3.1416 178.523 9.07178 178.523 14.3916C178.523 15.3789 178.584 15.8217 178.834 16.7493C178.731 16.3424 178.676 15.9354 178.676 15.5405C178.676 9.99333 184.318 6.15756 190.125 6.15756C197.982 6.15756 204.354 12.4169 204.354 20.1423C204.354 26.1982 200.812 31.4402 195.663 33.9594C202.302 31.6016 207.038 25.3485 207.038 18.006C207.038 16.2706 206.801 14.7387 206.284 13.0153" fill="#ED1A3B"/>
<path d="M299.909 12.2537C299.672 10.0152 297.674 8.71231 294.863 8.71231C291.847 8.71231 289.951 10.2157 289.951 12.2871C289.951 14.5923 292.491 15.4609 294.422 15.9286L296.793 16.5635C299.944 17.2984 303.838 19.0023 303.873 23.3788C303.838 27.4547 300.552 30.4615 294.76 30.4615C289.273 30.4615 285.818 27.7554 285.581 23.3454H289.308C289.545 25.9848 291.882 27.2542 294.76 27.2542C297.877 27.2542 300.146 25.6841 300.181 23.3121C300.146 21.2073 298.148 20.3386 295.539 19.6704L292.627 18.9021C288.698 17.833 286.224 15.8619 286.224 12.4875C286.224 8.31139 290.019 5.53845 294.964 5.53845C299.944 5.53845 303.432 8.3448 303.533 12.2537H299.909Z" fill="#0D203C"/>
<path d="M270.576 30.0607H262.616V5.87256H270.814C278.028 5.87256 282.363 10.4162 282.363 17.9331C282.363 25.4836 278.028 30.0607 270.576 30.0607ZM266.343 26.8534H270.373C275.928 26.8534 278.671 23.6461 278.671 17.9331C278.671 12.2537 275.928 9.07981 270.576 9.07981H266.343V26.8534Z" fill="#0D203C"/>
<path d="M241.242 30.0607V5.87256H249.982C255.673 5.87256 258.483 9.01299 258.483 13.4564C258.483 16.7137 256.993 19.1861 254.012 20.2719L259.433 30.0607H255.198L250.219 20.94H244.969V30.0607H241.242ZM244.969 17.7661H249.609C253.233 17.7661 254.723 16.196 254.723 13.4564C254.723 10.7169 253.233 9.01299 249.609 9.01299H244.969V17.7661Z" fill="#0D203C"/>
<path d="M219.192 30.0607V5.87256H222.919V17.3987H223.223L233.486 5.87256H238.161L228.27 16.7638L238.194 30.0607H233.69L225.797 19.2696L222.919 22.5436V30.0607H219.192Z" fill="#0D203C"/>
</svg>
